<svg width="64" height="64" viewBox="0 0 64 64" fill="none" xmlns="http://www.w3.org/2000/svg">
<path fill-rule="evenodd" clip-rule="evenodd" d="M38.4479 38.5379L46.9139 47.0049C47.3949 47.4859 47.5989 48.1779 47.4539 48.8429C47.3099 49.5079 46.8369 50.0539 46.1999 50.2919L35.2469 54.3849C32.4749 55.4209 29.4019 55.2959 26.7219 54.0389L11.1499 46.7289C10.3249 46.3419 9.86593 45.4459 10.0339 44.5499L13.0339 28.5499C13.2119 27.6039 14.0379 26.9189 14.9999 26.9189H26.9999C27.5629 26.9189 28.1009 27.1559 28.4799 27.5729L38.4479 38.5379Z" fill="#FFE3A9"/>
<path fill-rule="evenodd" clip-rule="evenodd" d="M47.4501 48.8399C47.3101 49.5099 46.8401 50.0499 46.2001 50.2899L35.2501 54.3899C32.4801 55.4199 29.4001 55.2999 26.7201 54.0399L14.6601 48.3799L13.6801 47.9199L11.1501 46.7299C10.3301 46.3399 9.87009 45.4499 10.0301 44.5499L13.0301 28.5499C13.2101 27.5999 14.0401 26.9199 15.0001 26.9199H27.0001C27.5601 26.9199 28.1001 27.1599 28.4801 27.5699L38.4501 38.5399L46.9101 47.0099C47.3901 47.4899 47.6001 48.1799 47.4501 48.8399Z" fill="url(#paint0_linear_736_1222)"/>
<path fill-rule="evenodd" clip-rule="evenodd" d="M50.944 28.8683L54.944 45.4503C55.188 46.4593 54.618 47.4883 53.632 47.8163L46.132 50.3163C45.414 50.5563 44.621 50.3693 44.086 49.8333L32.784 38.5313L29.009 41.2273C27.188 42.5283 24.726 42.4613 22.979 41.0633L22.265 40.4923C21.182 39.6253 20.507 38.3473 20.403 36.9643C20.298 35.5803 20.773 34.2163 21.714 33.1963L28.888 25.4253C31.031 23.1043 34.339 22.2613 37.332 23.2743L49.642 27.4433C50.292 27.6633 50.783 28.2013 50.944 28.8683Z" fill="url(#paint1_linear_736_1222)"/>
<path fill-rule="evenodd" clip-rule="evenodd" d="M16.957 27.3311L12.957 46.3311C12.762 47.2561 11.946 47.9191 11 47.9191H3C1.895 47.9191 1 47.0231 1 45.9191V24.9191C1 23.9261 1.728 23.0841 2.71 22.9401C7.133 22.2921 11.552 22.7061 15.974 25.1721C16.739 25.5991 17.138 26.4741 16.957 27.3311Z" fill="url(#paint2_linear_736_1222)"/>
<path fill-rule="evenodd" clip-rule="evenodd" d="M48.026 25.1721C52.448 22.7061 56.867 22.2921 61.29 22.9401C62.272 23.0841 63 23.9261 63 24.9191V45.9191C63 47.0231 62.105 47.9191 61 47.9191H53C52.054 47.9191 51.238 47.2561 51.043 46.3311L47.043 27.3311C46.862 26.4741 47.261 25.5991 48.026 25.1721Z" fill="url(#paint3_linear_736_1222)"/>
<path fill-rule="evenodd" clip-rule="evenodd" d="M42.414 21.3327C41.634 22.1127 40.366 22.1127 39.586 21.3327C38.805 20.5517 38.805 19.2847 39.586 18.5047L42.586 15.5047C43.366 14.7237 44.634 14.7237 45.414 15.5047C46.195 16.2847 46.195 17.5517 45.414 18.3327L42.414 21.3327Z" fill="#FEF156"/>
<path fill-rule="evenodd" clip-rule="evenodd" d="M25.414 18.5047C26.195 19.2847 26.195 20.5517 25.414 21.3327C24.634 22.1127 23.366 22.1127 22.586 21.3327L19.586 18.3327C18.805 17.5517 18.805 16.2847 19.586 15.5047C20.366 14.7237 21.634 14.7237 22.414 15.5047L25.414 18.5047Z" fill="#FEF156"/>
<path fill-rule="evenodd" clip-rule="evenodd" d="M35 14.9189C35 16.0229 34.104 16.9189 33 16.9189C31.896 16.9189 31 16.0229 31 14.9189V10.9189C31 9.81495 31.896 8.91895 33 8.91895C34.104 8.91895 35 9.81495 35 10.9189V14.9189Z" fill="#FEF156"/>
<path fill-rule="evenodd" clip-rule="evenodd" d="M42.414 21.3327C41.634 22.1127 40.366 22.1127 39.586 21.3327C38.805 20.5517 38.805 19.2847 39.586 18.5047L42.586 15.5047C43.366 14.7237 44.634 14.7237 45.414 15.5047C46.195 16.2847 46.195 17.5517 45.414 18.3327L42.414 21.3327Z" fill="#FEF156"/>
<defs>
<linearGradient id="paint0_linear_736_1222" x1="16.0321" y1="49.1699" x2="46.1951" y2="26.8899" gradientUnits="userSpaceOnUse">
<stop stop-color="#FFE7D7"/>
<stop offset="0.3525" stop-color="#F9CFA9"/>
<stop offset="0.3867" stop-color="#F9CCA4"/>
<stop offset="0.5103" stop-color="#FAC397"/>
<stop offset="0.6702" stop-color="#FBBD8F"/>
<stop offset="0.9963" stop-color="#FBBC8D"/>
</linearGradient>
<linearGradient id="paint1_linear_736_1222" x1="20.389" y1="36.6353" x2="55" y2="36.6353" gradientUnits="userSpaceOnUse">
<stop stop-color="#FFE7D7"/>
<stop offset="0.4469" stop-color="#F9CFA9"/>
<stop offset="0.9963" stop-color="#FBBC8D"/>
</linearGradient>
<linearGradient id="paint2_linear_736_1222" x1="1" y1="35.2931" x2="17" y2="35.2931" gradientUnits="userSpaceOnUse">
<stop stop-color="#A4EEFF"/>
<stop offset="0.7319" stop-color="#02C0FC"/>
<stop offset="1" stop-color="#27A6FF"/>
</linearGradient>
<linearGradient id="paint3_linear_736_1222" x1="47" y1="35.2931" x2="63" y2="35.2931" gradientUnits="userSpaceOnUse">
<stop stop-color="#FD77A6"/>
<stop offset="0.4469" stop-color="#FE3D97"/>
<stop offset="1" stop-color="#E51E82"/>
</linearGradient>
</defs>
</svg>
