<svg width="558" height="580" viewBox="0 0 558 580" fill="none" xmlns="http://www.w3.org/2000/svg">
<path d="M262.642 54.6541C117.592 54.6541 0 172.24 0 317.294C0 462.349 117.592 579.923 262.642 579.923C355.365 579.923 441.209 531.042 488.522 451.295C432.809 491.429 353.926 515.949 266.712 514.788C246.57 514.522 244.843 504.709 252.599 490.749C160.699 485.429 88.8994 409.349 88.8994 317.294C88.8994 221.334 166.686 143.548 262.642 143.548C308.325 143.548 352.159 161.534 384.687 193.614L430.768 115.52C383.564 76.187 324.083 54.6541 262.642 54.6541Z" fill="#0059E7"/>
<path d="M526.437 184.712C519.044 222.605 501.353 265.925 463.25 306.445C423.125 349.084 384.766 368.698 353.358 376.951C340.154 395.899 326.066 414.058 307.022 422.871L90.1572 497.164C157.773 515.125 232.498 522.67 297.194 510.458C461.228 479.498 576.846 362.391 555.423 248.885C550.965 225.326 540.966 203.791 526.437 184.712Z" fill="#17DF00"/>
<path d="M368.205 0C370.857 55.854 363.306 116.268 344.186 176.907C303.782 304.961 189.129 431.455 90.1631 497.161C178.368 495.828 316.566 450.362 394.848 372.081C502.983 263.935 529.989 115.614 455.168 40.7865C432.07 17.6801 401.966 4.30698 368.205 0Z" fill="#FFE500"/>
</svg>
