<svg width="20" height="14" viewBox="0 0 20 14" fill="none" xmlns="http://www.w3.org/2000/svg">
<path d="M15.6919 7.28711C15.6539 7.37911 15.599 7.46201 15.53 7.53101L10.53 12.531C10.384 12.677 10.192 12.751 10 12.751C9.808 12.751 9.61597 12.678 9.46997 12.531C9.17697 12.238 9.17697 11.763 9.46997 11.47L13.1899 7.75H1C0.586 7.75 0.25 7.414 0.25 7C0.25 6.586 0.586 6.25 1 6.25H13.189L9.46899 2.53003C9.17599 2.23703 9.17599 1.76199 9.46899 1.46899C9.76199 1.17599 10.237 1.17599 10.53 1.46899L15.53 6.46899C15.599 6.53799 15.6539 6.62089 15.6919 6.71289C15.7679 6.89689 15.7679 7.10311 15.6919 7.28711ZM19 0.25C18.586 0.25 18.25 0.586 18.25 1V13C18.25 13.414 18.586 13.75 19 13.75C19.414 13.75 19.75 13.414 19.75 13V1C19.75 0.586 19.414 0.25 19 0.25Z" fill="#25314C"/>
</svg>
