<svg width="14" height="20" viewBox="0 0 14 20" fill="none" xmlns="http://www.w3.org/2000/svg">
<path d="M1.46997 10.53C1.17697 10.237 1.17697 9.76199 1.46997 9.46899C1.76297 9.17599 2.23801 9.17599 2.53101 9.46899L6.25098 13.189V1C6.25098 0.586 6.58698 0.25 7.00098 0.25C7.41498 0.25 7.75098 0.586 7.75098 1V13.189L11.4709 9.46899C11.7639 9.17599 12.239 9.17599 12.532 9.46899C12.825 9.76199 12.825 10.237 12.532 10.53L7.53198 15.53C7.46298 15.599 7.38006 15.6539 7.28906 15.6919C7.19806 15.7299 7.09995 15.75 7.00195 15.75C6.90395 15.75 6.80709 15.7299 6.71509 15.6919C6.62309 15.6539 6.54092 15.599 6.47192 15.53L1.46997 10.53ZM13 18.25H1C0.586 18.25 0.25 18.586 0.25 19C0.25 19.414 0.586 19.75 1 19.75H13C13.414 19.75 13.75 19.414 13.75 19C13.75 18.586 13.414 18.25 13 18.25Z" fill="#25314C"/>
</svg>
