<svg width="22" height="22" viewBox="0 0 22 22" fill="none" xmlns="http://www.w3.org/2000/svg">
<path d="M11 0.25C5.072 0.25 0.25 5.072 0.25 11C0.25 16.928 5.072 21.75 11 21.75C16.928 21.75 21.75 16.928 21.75 11C21.75 5.072 16.928 0.25 11 0.25ZM11 20.25C5.899 20.25 1.75 16.101 1.75 11C1.75 5.899 5.899 1.75 11 1.75C16.101 1.75 20.25 5.899 20.25 11C20.25 16.101 16.101 20.25 11 20.25ZM14.6919 7.71289C14.7299 7.80489 14.75 7.902 14.75 8V12C14.75 12.414 14.414 12.75 14 12.75C13.586 12.75 13.25 12.414 13.25 12V9.81104L8.53003 14.531C8.38403 14.677 8.192 14.751 8 14.751C7.808 14.751 7.61597 14.678 7.46997 14.531C7.17697 14.238 7.17697 13.763 7.46997 13.47L12.1899 8.75H10C9.586 8.75 9.25 8.414 9.25 8C9.25 7.586 9.586 7.25 10 7.25H14C14.098 7.25 14.1951 7.27011 14.2871 7.30811C14.4701 7.38411 14.6159 7.52989 14.6919 7.71289Z" fill="#25314C"/>
</svg>
