<svg width="18" height="10" viewBox="0 0 18 10" fill="none" xmlns="http://www.w3.org/2000/svg">
<path d="M17.6919 5.28713C17.6539 5.37913 17.599 5.46203 17.53 5.53103L13.53 9.53103C13.384 9.67703 13.192 9.751 13 9.751C12.808 9.751 12.616 9.67803 12.47 9.53103C12.177 9.23803 12.177 8.76299 12.47 8.46999L15.1899 5.75002H1C0.586 5.75002 0.25 5.41402 0.25 5.00002C0.25 4.58602 0.586 4.25002 1 4.25002H15.189L12.469 1.53005C12.176 1.23705 12.176 0.762018 12.469 0.469018C12.762 0.176018 13.237 0.176018 13.53 0.469018L17.53 4.46902C17.599 4.53802 17.6539 4.62091 17.6919 4.71291C17.7679 4.89691 17.7679 5.10313 17.6919 5.28713Z" fill="#25314C"/>
</svg>
