<svg width="22" height="22" viewBox="0 0 22 22" fill="none" xmlns="http://www.w3.org/2000/svg">
<path d="M11 0.25C5.072 0.25 0.25 5.072 0.25 11C0.25 16.928 5.072 21.75 11 21.75C16.928 21.75 21.75 16.928 21.75 11C21.75 5.072 16.928 0.25 11 0.25ZM11 20.25C5.899 20.25 1.75 16.101 1.75 11C1.75 5.899 5.899 1.75 11 1.75C16.101 1.75 20.25 5.899 20.25 11C20.25 16.101 16.101 20.25 11 20.25ZM15.6919 11.2871C15.6539 11.3791 15.599 11.462 15.53 11.531L12.53 14.531C12.384 14.677 12.192 14.751 12 14.751C11.808 14.751 11.616 14.678 11.47 14.531C11.177 14.238 11.177 13.763 11.47 13.47L13.1899 11.75H7C6.586 11.75 6.25 11.414 6.25 11C6.25 10.586 6.586 10.25 7 10.25H13.189L11.469 8.53003C11.176 8.23703 11.176 7.76199 11.469 7.46899C11.762 7.17599 12.237 7.17599 12.53 7.46899L15.53 10.469C15.599 10.538 15.6539 10.6209 15.6919 10.7129C15.7679 10.8969 15.7679 11.1031 15.6919 11.2871Z" fill="#25314C"/>
</svg>
