<svg width="22" height="22" viewBox="0 0 22 22" fill="none" xmlns="http://www.w3.org/2000/svg">
<path d="M11 0.25C5.072 0.25 0.25 5.072 0.25 11C0.25 16.928 5.072 21.75 11 21.75C16.928 21.75 21.75 16.928 21.75 11C21.75 5.072 16.928 0.25 11 0.25ZM11 20.25C5.899 20.25 1.75 16.101 1.75 11C1.75 5.899 5.899 1.75 11 1.75C16.101 1.75 20.25 5.899 20.25 11C20.25 16.101 16.101 20.25 11 20.25ZM14.75 10V14C14.75 14.098 14.7299 14.1951 14.6919 14.2871C14.6159 14.4701 14.4701 14.6159 14.2871 14.6919C14.1951 14.7299 14.098 14.75 14 14.75H10C9.586 14.75 9.25 14.414 9.25 14C9.25 13.586 9.586 13.25 10 13.25H12.189L7.46899 8.53003C7.17599 8.23703 7.17599 7.76199 7.46899 7.46899C7.76199 7.17599 8.23703 7.17599 8.53003 7.46899L13.25 12.189V10C13.25 9.586 13.586 9.25 14 9.25C14.414 9.25 14.75 9.586 14.75 10Z" fill="#25314C"/>
</svg>
