<svg width="20" height="20" viewBox="0 0 20 20" fill="none" xmlns="http://www.w3.org/2000/svg">
<path d="M10 0.25C4.624 0.25 0.25 4.624 0.25 10C0.25 15.376 4.624 19.75 10 19.75C10.414 19.75 10.75 19.414 10.75 19C10.75 18.586 10.414 18.25 10 18.25C5.451 18.25 1.75 14.549 1.75 10C1.75 5.451 5.451 1.75 10 1.75C14.549 1.75 18.25 5.451 18.25 10C18.25 11.64 17.136 13.25 16 13.25C14.937 13.25 14.25 12.367 14.25 11V6.5C14.25 6.086 13.914 5.75 13.5 5.75C13.086 5.75 12.75 6.086 12.75 6.5V6.78699C12.007 6.14999 11.054 5.75 10 5.75C7.656 5.75 5.75 7.656 5.75 10C5.75 12.344 7.656 14.25 10 14.25C11.242 14.25 12.3509 13.705 13.1289 12.853C13.7109 14.137 14.88 14.75 16 14.75C18.21 14.75 19.75 12.247 19.75 10C19.75 4.624 15.376 0.25 10 0.25ZM10 12.75C8.483 12.75 7.25 11.516 7.25 10C7.25 8.484 8.483 7.25 10 7.25C11.517 7.25 12.75 8.484 12.75 10C12.75 11.516 11.517 12.75 10 12.75Z" fill="#25314C"/>
</svg>
