<svg width="90" height="90" viewBox="0 0 90 90" fill="none" xmlns="http://www.w3.org/2000/svg">
<path fill-rule="evenodd" clip-rule="evenodd" d="M20.6606 44.4798C21.1654 44.9762 21.9191 45.121 22.5731 44.8468C23.2256 44.574 23.6516 43.9341 23.6516 43.2254V31.7982C23.6516 31.3932 23.511 31.0009 23.2551 30.6873C23.0202 30.3976 22.7685 30.1191 22.5013 29.8506C20.4665 27.8171 17.758 26.747 15.2198 26.2337C11.5916 25.501 8.3643 25.9004 8.3643 25.9004C7.56133 25.9988 6.92993 26.6302 6.83149 27.4332C6.83149 27.4332 6.43352 30.6591 7.16477 34.2887C7.67805 36.8256 8.74821 39.5354 10.7816 41.5702C10.8098 41.597 10.8379 41.6251 10.8646 41.6518C11.2401 42.0174 11.759 42.1988 12.2793 42.1426C14.3985 41.9176 16.9115 42.002 19.0265 43.224C19.634 43.5741 20.1768 44.0031 20.6606 44.4798Z" fill="url(#paint0_linear_434_2505)"/>
<path fill-rule="evenodd" clip-rule="evenodd" d="M22.7713 55.8421L23.1201 55.8083H23.1173C23.5434 55.7324 23.9301 55.499 24.1987 55.1502C24.532 54.7171 24.6445 54.1546 24.5038 53.6272C23.947 51.5291 23.6516 49.3298 23.6516 47.0685V43.2252C23.6516 42.7541 23.4618 42.3027 23.1257 41.9722C22.4324 41.2902 21.6548 40.6813 20.7843 40.1779C18.2938 38.7393 15.3998 38.4074 12.8151 38.5691C9.12087 38.8012 6.10727 40.0218 6.10727 40.0218C5.35774 40.3241 4.91055 41.0976 5.02446 41.8991C5.02446 41.8991 6.09602 49.1863 10.6607 53.2068C11.1163 53.6062 11.7449 53.7454 12.3257 53.571C14.0413 53.0605 15.989 52.7891 17.8762 53.2954C19.3134 53.6807 20.5551 54.4766 21.6098 55.4047C21.9304 55.6874 22.3438 55.8421 22.7713 55.8421Z" fill="url(#paint1_linear_434_2505)"/>
<path fill-rule="evenodd" clip-rule="evenodd" d="M24.7514 62.4812C25.2984 62.8482 26.0283 62.8904 26.6301 62.5318C27.464 62.034 27.7368 60.9554 27.2404 60.1215C26.0508 58.126 25.1283 55.959 24.5165 53.6724C24.4279 53.3405 24.2423 53.041 23.985 52.8118C22.5267 51.518 20.7843 50.4352 18.7861 49.8994C16.0073 49.1555 13.1259 49.583 10.672 50.4085C7.16341 51.5883 4.56888 53.5473 4.56888 53.5473C3.922 54.0324 3.69138 54.8973 4.00779 55.6412C4.00779 55.6412 5.27482 58.6351 7.7245 61.411C9.43732 63.3516 11.7183 65.1629 14.497 65.9082C15.0904 66.0671 15.6895 66.174 16.2872 66.2344C16.7639 66.2823 17.2392 66.1332 17.6034 65.8224C19.3486 64.336 21.8826 62.6274 24.7514 62.4812Z" fill="url(#paint2_linear_434_2505)"/>
<path fill-rule="evenodd" clip-rule="evenodd" d="M27.0761 59.8414C26.7751 59.3225 26.2323 58.9921 25.6332 58.9654C25.4715 58.9583 25.3084 58.9541 25.1453 58.9541C22.2681 58.9541 19.5962 60.1143 17.439 61.5458C14.3551 63.5933 12.3568 66.1569 12.3568 66.1569C11.8576 66.7939 11.8576 67.6883 12.3568 68.3239C12.3568 68.3239 14.3551 70.8889 17.439 72.9364C19.5962 74.368 22.2681 75.5282 25.1453 75.5282C29.215 75.5282 32.874 73.1741 35.2295 71.1097C35.6401 70.7483 35.8609 70.2168 35.8243 69.6711C35.7878 69.1255 35.4995 68.6263 35.0439 68.3239C31.7673 66.1443 29.0406 63.2333 27.0761 59.8414Z" fill="url(#paint3_linear_434_2505)"/>
<path fill-rule="evenodd" clip-rule="evenodd" d="M66.3484 43.2254C66.3484 43.9341 66.7745 44.574 67.427 44.8468C68.0809 45.121 68.8346 44.9762 69.3395 44.4798C69.8232 44.0031 70.366 43.5741 70.9735 43.224C73.0885 42.002 75.6015 41.9176 77.7207 42.1426C78.241 42.1988 78.7599 42.0174 79.1354 41.6518C79.1621 41.6251 79.1903 41.597 79.2184 41.5702C81.2518 39.5354 82.322 36.8256 82.8353 34.2887C83.5665 30.6591 83.1685 27.4332 83.1685 27.4332C83.0701 26.6302 82.4387 25.9988 81.6357 25.9004C81.6357 25.9004 78.4084 25.501 74.7803 26.2337C72.242 26.747 69.5335 27.8171 67.4987 29.8506C67.2315 30.1191 66.9798 30.3976 66.745 30.6873C66.489 31.0009 66.3484 31.3932 66.3484 31.7982V43.2254Z" fill="url(#paint4_linear_434_2505)"/>
<path fill-rule="evenodd" clip-rule="evenodd" d="M66.8826 55.8083C66.4565 55.7324 66.0698 55.499 65.8012 55.1502C65.4679 54.7171 65.3554 54.1546 65.4961 53.6272C66.0529 51.5291 66.3483 49.3298 66.3483 47.0685V43.2252C66.3483 42.7541 66.5381 42.3027 66.8742 41.9722C67.5675 41.2902 68.3451 40.6813 69.2156 40.1779C71.7061 38.7393 74.6001 38.4074 77.1848 38.5691C80.879 38.8012 83.8926 40.0218 83.8926 40.0218C84.6422 40.3241 85.0894 41.0976 84.9754 41.8991C84.9754 41.8991 83.9039 49.1863 79.3392 53.2068C78.8836 53.6062 78.255 53.7454 77.6742 53.571C75.9586 53.0605 74.0109 52.7891 72.1237 53.2954C70.6865 53.6807 69.4448 54.4766 68.3901 55.4047C68.0892 55.6691 67.7081 55.8224 67.3087 55.8407L67.2286 55.8421L66.8911 55.8098L66.8826 55.8083Z" fill="url(#paint5_linear_434_2505)"/>
<path fill-rule="evenodd" clip-rule="evenodd" d="M65.2485 62.4812C68.1173 62.6274 70.6513 64.336 72.3965 65.8224C72.7607 66.1332 73.236 66.2823 73.7128 66.2344C74.3104 66.174 74.9095 66.0671 75.5029 65.9082C78.2817 65.1629 80.5626 63.3516 82.2754 61.411C84.7251 58.6351 85.9921 55.6412 85.9921 55.6412C86.3085 54.8973 86.0779 54.0324 85.431 53.5473C85.431 53.5473 82.8365 51.5883 79.3279 50.4085C76.874 49.583 73.9926 49.1555 71.2138 49.8994C69.2156 50.4352 67.4732 51.518 66.0149 52.8118C65.7576 53.041 65.572 53.3405 65.4834 53.6724C64.8717 55.959 63.9492 58.126 62.7595 60.1215C62.2631 60.9554 62.5359 62.034 63.3698 62.5318C63.9717 62.8904 64.7015 62.8482 65.2485 62.4812Z" fill="url(#paint6_linear_434_2505)"/>
<path fill-rule="evenodd" clip-rule="evenodd" d="M64.3669 58.9654C63.7678 58.9921 63.225 59.3225 62.9241 59.8414C60.9595 63.2333 58.2328 66.1443 54.9563 68.3239C54.5006 68.6263 54.2124 69.1255 54.1758 69.6711C54.1392 70.2168 54.36 70.7483 54.7706 71.1097C57.1261 73.1741 60.7852 75.5282 64.8549 75.5282C67.732 75.5282 70.4039 74.368 72.5611 72.9364C75.645 70.8889 77.6433 68.3239 77.6433 68.3239C78.1425 67.6883 78.1425 66.7939 77.6433 66.1569C77.6433 66.1569 75.645 63.5933 72.5611 61.5458C70.4039 60.1143 67.732 58.9541 64.8549 58.9541C64.6917 58.9541 64.5286 58.9583 64.3669 58.9654Z" fill="url(#paint7_linear_434_2505)"/>
<path fill-rule="evenodd" clip-rule="evenodd" d="M69.8638 26.7834C69.8638 23.7445 68.0033 21.0178 65.1754 19.9082C60.2943 17.9971 51.7021 14.6306 47.7899 13.0978C46.0658 12.4228 44.1505 12.4185 42.425 13.0893C38.4805 14.6207 29.7772 18 24.8469 19.9139C22.0063 21.0164 20.136 23.7487 20.136 26.796V47.0686C20.136 61.3898 30.5788 73.5707 44.7313 75.7603C44.9085 75.7884 44.9999 75.7814 44.9999 75.7814C44.9999 75.7814 45.0913 75.7884 45.2685 75.7603C59.421 73.5707 69.8638 61.3898 69.8638 47.0686C69.8638 39.216 69.8638 31.3087 69.8638 26.7834Z" fill="url(#paint8_linear_434_2505)"/>
<path fill-rule="evenodd" clip-rule="evenodd" d="M46.575 30.5228C46.2474 30.0432 45.7046 29.7563 45.1224 29.7563C44.5416 29.7563 43.9988 30.0432 43.6711 30.5228L39.7955 36.2026L33.196 38.1334C32.6391 38.2965 32.1975 38.724 32.0175 39.2767C31.8389 39.8293 31.943 40.4354 32.2988 40.8953L36.5035 46.336L36.2995 53.2098C36.2827 53.7906 36.5541 54.3418 37.0238 54.6835C37.4935 55.0253 38.1024 55.1124 38.6494 54.9156L45.1224 52.5981L51.5967 54.9156C52.1438 55.1124 52.7527 55.0253 53.2224 54.6835C53.6921 54.3418 53.9635 53.7906 53.9466 53.2098L53.7427 46.336L57.9474 40.8953C58.3031 40.4354 58.4072 39.8293 58.2286 39.2767C58.0486 38.724 57.607 38.2965 57.0502 38.1334L50.4506 36.2026L46.575 30.5228Z" fill="url(#paint9_linear_434_2505)"/>
<defs>
<linearGradient id="paint0_linear_434_2505" x1="15.6782" y1="30.8785" x2="27.4893" y2="42.1876" gradientUnits="userSpaceOnUse">
<stop stop-color="#53AB58"/>
<stop offset="1" stop-color="#1F7924"/>
</linearGradient>
<linearGradient id="paint1_linear_434_2505" x1="14.1721" y1="44.9676" x2="23.2031" y2="51.3885" gradientUnits="userSpaceOnUse">
<stop stop-color="#53AB58"/>
<stop offset="1" stop-color="#1F7924"/>
</linearGradient>
<linearGradient id="paint2_linear_434_2505" x1="12.6562" y1="57.6563" x2="25.3125" y2="61.8751" gradientUnits="userSpaceOnUse">
<stop stop-color="#53AB58"/>
<stop offset="1" stop-color="#1F7924"/>
</linearGradient>
<linearGradient id="paint3_linear_434_2505" x1="22.2315" y1="70.2519" x2="32.3439" y2="65.0347" gradientUnits="userSpaceOnUse">
<stop stop-color="#53AB58"/>
<stop offset="1" stop-color="#1F7924"/>
</linearGradient>
<linearGradient id="paint4_linear_434_2505" x1="75.316" y1="33.7501" x2="65.6818" y2="46.4063" gradientUnits="userSpaceOnUse">
<stop stop-color="#53AB58"/>
<stop offset="1" stop-color="#1F7924"/>
</linearGradient>
<linearGradient id="paint5_linear_434_2505" x1="77.4675" y1="46.0349" x2="65.2809" y2="56.5312" gradientUnits="userSpaceOnUse">
<stop stop-color="#53AB58"/>
<stop offset="1" stop-color="#1F7924"/>
</linearGradient>
<linearGradient id="paint6_linear_434_2505" x1="77.3437" y1="55.5469" x2="64.9167" y2="63.2813" gradientUnits="userSpaceOnUse">
<stop stop-color="#53AB58"/>
<stop offset="1" stop-color="#1F7924"/>
</linearGradient>
<linearGradient id="paint7_linear_434_2505" x1="65.9236" y1="70.3489" x2="57.2681" y2="64.6185" gradientUnits="userSpaceOnUse">
<stop stop-color="#53AB58"/>
<stop offset="1" stop-color="#1F7924"/>
</linearGradient>
<linearGradient id="paint8_linear_434_2505" x1="46.2374" y1="48.1035" x2="46.2374" y2="115.312" gradientUnits="userSpaceOnUse">
<stop stop-color="#EEF4FE"/>
<stop offset="1" stop-color="#5896FF"/>
</linearGradient>
<linearGradient id="paint9_linear_434_2505" x1="43.65" y1="38.5328" x2="43.65" y2="68.1357" gradientUnits="userSpaceOnUse">
<stop stop-color="#FFB43F"/>
<stop offset="1" stop-color="#CB7C00"/>
</linearGradient>
</defs>
</svg>
