<svg width="560" height="250" viewBox="0 0 560 250" fill="none" xmlns="http://www.w3.org/2000/svg">
<line opacity="0.3" y1="123.909" x2="559.884" y2="123.909" stroke="#747681" stroke-width="1.83568"/>
<path d="M42.2207 212.021C42.2207 215.57 39.3442 218.446 35.7959 218.446C32.2476 218.446 29.3711 215.57 29.3711 212.021L29.3711 187.239L42.2207 187.239L42.2207 212.021Z" fill="#34CAA5"/>
<path d="M42.2207 185.404L29.3709 185.404L29.3709 156.033L42.2207 156.033L42.2207 185.404Z" fill="#34CAA5"/>
<path d="M29.3701 37.6316C29.3701 34.0832 32.2466 31.2067 35.795 31.2067C39.3434 31.2067 42.2199 34.0832 42.2199 37.6316V62.4133H29.3701V37.6316Z" fill="#B8E716"/>
<path d="M29.3701 64.249H42.2199V93.62H29.3701V64.249Z" fill="#B8E716"/>
<path d="M29.3701 95.4557H42.2199V122.991H29.3701V95.4557Z" fill="#B8E716"/>
<path d="M29.3701 124.827H42.2199V154.197H29.3701V124.827Z" fill="#B8E716"/>
<path d="M102.796 180.814C102.796 184.362 99.9199 187.238 96.3715 187.238C92.8231 187.238 89.9466 184.362 89.9466 180.814L89.9466 156.032L102.796 156.032L102.796 180.814Z" fill="#34CAA5"/>
<path d="M89.9478 68.8376C89.9478 65.2892 92.8243 62.4127 96.3726 62.4127C99.921 62.4127 102.798 65.2892 102.798 68.8376V93.6194H89.9478V68.8376Z" fill="#B8E716"/>
<path d="M89.9478 95.4551H102.798V122.99H89.9478V95.4551Z" fill="#B8E716"/>
<path d="M89.9478 124.826H102.798V154.197H89.9478V124.826Z" fill="#B8E716"/>
<path d="M163.374 227.625C163.374 231.174 160.497 234.05 156.949 234.05C153.401 234.05 150.524 231.174 150.524 227.625L150.524 202.844L163.374 202.844L163.374 227.625Z" fill="#34CAA5"/>
<path d="M163.374 201.008L150.524 201.008L150.524 171.637L163.374 171.637L163.374 201.008Z" fill="#34CAA5"/>
<path d="M163.374 169.802L150.524 169.802L150.524 140.431L163.374 140.431L163.374 169.802Z" fill="#34CAA5"/>
<path d="M150.525 22.0285C150.525 18.4802 153.402 15.6036 156.95 15.6036C160.499 15.6036 163.375 18.4802 163.375 22.0285V46.8103H150.525V22.0285Z" fill="#B8E716"/>
<path d="M150.525 48.646H163.375V78.0169H150.525V48.646Z" fill="#B8E716"/>
<path d="M150.525 79.8527H163.375V107.388H150.525V79.8527Z" fill="#B8E716"/>
<path d="M150.525 109.224H163.375V138.595H150.525V109.224Z" fill="#B8E716"/>
<path d="M223.954 149.608C223.954 153.157 221.077 156.033 217.529 156.033C213.98 156.033 211.104 153.157 211.104 149.608L211.104 124.827L223.954 124.827L223.954 149.608Z" fill="#34CAA5"/>
<path d="M223.954 122.991L211.104 122.991L211.104 93.6199L223.954 93.6199L223.954 122.991Z" fill="#34CAA5"/>
<path d="M284.531 179.438C284.531 182.986 281.655 185.862 278.106 185.862C274.558 185.862 271.681 182.986 271.681 179.438L271.681 154.656L284.531 154.656L284.531 179.438Z" fill="#34CAA5"/>
<path d="M284.531 152.82L271.681 152.82L271.681 123.449L284.531 123.449L284.531 152.82Z" fill="#34CAA5"/>
<path d="M271.682 97.2902C271.682 93.7419 274.559 90.8654 278.107 90.8654C281.655 90.8654 284.532 93.7419 284.532 97.2903V122.072H271.682V97.2902Z" fill="#B8E716"/>
<path d="M345.108 181.732C345.108 185.28 342.232 188.157 338.684 188.157C335.135 188.157 332.259 185.28 332.259 181.732L332.259 156.95L345.108 156.95L345.108 181.732Z" fill="#34CAA5"/>
<path d="M345.108 155.115L332.259 155.115L332.259 125.744L345.108 125.744L345.108 155.115Z" fill="#34CAA5"/>
<path d="M332.258 67.92C332.258 64.3716 335.134 61.4951 338.683 61.4951C342.231 61.4951 345.108 64.3716 345.108 67.92V92.7018H332.258V67.92Z" fill="#B8E716"/>
<path d="M332.258 94.5376H345.108V123.909H332.258V94.5376Z" fill="#B8E716"/>
<path d="M405.686 243.228C405.686 246.777 402.81 249.653 399.261 249.653C395.713 249.653 392.836 246.777 392.836 243.228L392.836 218.446L405.686 218.446L405.686 243.228Z" fill="#34CAA5"/>
<path d="M405.686 216.611L392.836 216.611L392.836 187.24L405.686 187.24L405.686 216.611Z" fill="#34CAA5"/>
<path d="M405.686 154.197L392.836 154.197L392.836 124.827L405.686 124.827L405.686 154.197Z" fill="#34CAA5"/>
<path d="M405.686 185.405L392.836 185.405L392.836 156.034L405.686 156.034L405.686 185.405Z" fill="#34CAA5"/>
<path d="M392.835 6.42489C392.835 2.87652 395.712 0 399.26 0C402.809 0 405.685 2.87652 405.685 6.4249V31.2066H392.835V6.42489Z" fill="#B8E716"/>
<path d="M392.835 33.0424H405.685V62.4133H392.835V33.0424Z" fill="#B8E716"/>
<path d="M392.835 64.249H405.685V91.7843H392.835V64.249Z" fill="#B8E716"/>
<path d="M392.835 93.6199H405.685V122.991H392.835V93.6199Z" fill="#B8E716"/>
<path d="M466.264 181.733C466.264 185.281 463.387 188.157 459.839 188.157C456.29 188.157 453.414 185.281 453.414 181.733L453.414 156.951L466.264 156.951L466.264 181.733Z" fill="#34CAA5"/>
<path d="M466.264 155.115L453.414 155.115L453.414 125.744L466.264 125.744L466.264 155.115Z" fill="#34CAA5"/>
<path d="M466.264 123.908L453.414 123.908L453.414 94.5375L466.264 94.5375L466.264 123.908Z" fill="#34CAA5"/>
<path d="M453.413 67.92C453.413 64.3716 456.29 61.4951 459.838 61.4951C463.386 61.4951 466.263 64.3716 466.263 67.92V92.7018H453.413V67.92Z" fill="#B8E716"/>
<path d="M513.992 178.98C513.992 182.529 511.116 185.405 507.567 185.405C504.019 185.405 501.142 182.529 501.142 178.98L501.142 154.198L513.992 154.198L513.992 178.98Z" fill="#34CAA5"/>
<path d="M501.142 67.0024C501.142 63.454 504.018 60.5775 507.566 60.5775C511.115 60.5775 513.991 63.454 513.991 67.0024V91.7841H501.142V67.0024Z" fill="#B8E716"/>
<path d="M501.142 93.6199H513.991V121.155H501.142V93.6199Z" fill="#B8E716"/>
<path d="M501.142 122.991H513.991V152.362H501.142V122.991Z" fill="#B8E716"/>
</svg>
