<svg width="18" height="20" viewBox="0 0 18 20" fill="none" xmlns="http://www.w3.org/2000/svg">
<path d="M9.005 19.75C8.017 19.75 7.128 19.237 6.627 18.377C6.419 18.019 6.53999 17.56 6.89799 17.352C7.25499 17.143 7.715 17.264 7.923 17.623C8.381 18.408 9.628 18.41 10.087 17.623C10.296 17.265 10.756 17.145 11.113 17.353C11.471 17.561 11.592 18.021 11.383 18.379C10.881 19.237 9.993 19.75 9.005 19.75ZM17.676 16.325C17.801 16.065 17.766 15.757 17.586 15.532C17.568 15.509 15.751 13.206 15.751 10.501V8C15.751 7.586 15.415 7.25 15.001 7.25C14.587 7.25 14.251 7.586 14.251 8V10.5C14.251 12.436 14.999 14.158 15.616 15.25H2.38699C3.00399 14.158 3.752 12.436 3.752 10.5V7C3.752 4.105 6.107 1.75 9.002 1.75C9.416 1.75 9.752 1.414 9.752 1C9.752 0.586 9.416 0.25 9.002 0.25C5.28 0.25 2.252 3.278 2.252 7V10.5C2.252 13.189 0.433997 15.509 0.415997 15.532C0.236997 15.757 0.202 16.066 0.328 16.325C0.453 16.584 0.715003 16.75 1.003 16.75H17.003C17.288 16.75 17.551 16.585 17.676 16.325ZM16.75 3C16.75 1.484 15.517 0.25 14 0.25C12.483 0.25 11.25 1.484 11.25 3C11.25 4.516 12.483 5.75 14 5.75C15.517 5.75 16.75 4.516 16.75 3ZM15.25 3C15.25 3.689 14.689 4.25 14 4.25C13.311 4.25 12.75 3.689 12.75 3C12.75 2.311 13.311 1.75 14 1.75C14.689 1.75 15.25 2.311 15.25 3Z" fill="#25314C"/>
</svg>
