<svg width="22" height="22" viewBox="0 0 22 22" fill="none" xmlns="http://www.w3.org/2000/svg">
<path d="M11 0.25C5.072 0.25 0.25 5.072 0.25 11C0.25 16.928 5.072 21.75 11 21.75C16.928 21.75 21.75 16.928 21.75 11C21.75 5.072 16.928 0.25 11 0.25ZM11 20.25C5.899 20.25 1.75 16.101 1.75 11C1.75 5.899 5.899 1.75 11 1.75C16.101 1.75 20.25 5.899 20.25 11C20.25 16.101 16.101 20.25 11 20.25ZM14.054 8.41701H13.002L13.764 6.651C13.946 6.229 13.905 5.74801 13.652 5.36301C13.4 4.97901 12.974 4.75 12.514 4.75H9.77698C9.07898 4.75 8.47801 5.197 8.26001 5.854L6.65302 9.959C6.51502 10.373 6.58503 10.832 6.84003 11.185C7.09503 11.539 7.50797 11.75 7.94397 11.75H9.03302L7.48602 16.257C7.37302 16.587 7.50197 16.951 7.79797 17.136C7.92097 17.213 8.05797 17.25 8.19397 17.25C8.38797 17.25 8.57998 17.175 8.72498 17.03L15.014 10.74C15.405 10.349 15.521 9.767 15.309 9.257C15.101 8.747 14.607 8.41701 14.054 8.41701ZM9.95898 13.677L10.669 11.608C10.777 11.296 10.727 10.949 10.535 10.679C10.343 10.41 10.031 10.249 9.70099 10.249H8.15002L9.67102 6.36301C9.70902 6.24901 9.75601 6.24899 9.77802 6.24899H12.304L11.34 8.48399C11.203 8.80199 11.234 9.164 11.424 9.453C11.614 9.743 11.935 9.916 12.281 9.916H13.719L9.95898 13.677Z" fill="#25314C"/>
</svg>
