<svg width="20" height="18" viewBox="0 0 20 18" fill="none" xmlns="http://www.w3.org/2000/svg">
<path d="M19.0359 1.18199C19.0349 1.18199 19.0349 1.18201 19.0339 1.18101C17.3319 0.374012 15.445 0.090994 13.425 0.337994C11.971 0.516994 10.741 1.34794 10 2.51194C9.258 1.34894 8.02895 0.516994 6.57495 0.337994C4.55195 0.090994 2.66706 0.374012 0.966064 1.18101C0.966064 1.18101 0.966088 1.18101 0.965088 1.18101C0.531088 1.38701 0.25 1.83393 0.25 2.31993V15.3249C0.25 15.7189 0.42992 16.08 0.74292 16.317C1.05492 16.554 1.4711 16.6289 1.8501 16.5229C4.7581 15.6969 7.21701 16.047 9.58301 17.624C9.59301 17.631 9.60499 17.633 9.61499 17.639C9.62599 17.645 9.634 17.655 9.646 17.661C9.657 17.667 9.66991 17.664 9.68091 17.67C9.78191 17.718 9.88902 17.75 9.99902 17.75C10.109 17.75 10.2159 17.718 10.3169 17.67C10.3279 17.665 10.3411 17.667 10.3521 17.661C10.3631 17.655 10.3721 17.646 10.3821 17.639C10.3921 17.633 10.4041 17.631 10.4141 17.624C12.7801 16.046 15.238 15.696 18.147 16.522C18.527 16.63 18.9409 16.554 19.2539 16.317C19.5669 16.081 19.7471 15.7189 19.7471 15.3249V2.31993C19.7501 1.83593 19.4699 1.38899 19.0359 1.18199ZM4.73291 14.593C3.77191 14.593 2.779 14.728 1.75 14.995V2.46995C3.17 1.82695 4.69309 1.61603 6.39209 1.82603C8.02209 2.02603 9.25 3.41596 9.25 5.05796V15.6889C7.815 14.9579 6.31691 14.593 4.73291 14.593ZM18.25 14.996C15.522 14.287 13.056 14.514 10.75 15.691V5.06004C10.75 3.41704 11.9789 2.02798 13.6079 1.82798C14.0299 1.77598 14.441 1.74998 14.842 1.74998C16.057 1.74998 17.182 1.98903 18.249 2.47203V14.996H18.25ZM13 5.24998H16C16.414 5.24998 16.75 5.58598 16.75 5.99998C16.75 6.41398 16.414 6.74998 16 6.74998H13C12.586 6.74998 12.25 6.41398 12.25 5.99998C12.25 5.58598 12.586 5.24998 13 5.24998ZM15.75 8.99998C15.75 9.41398 15.414 9.74998 15 9.74998H13C12.586 9.74998 12.25 9.41398 12.25 8.99998C12.25 8.58598 12.586 8.24998 13 8.24998H15C15.414 8.24998 15.75 8.58598 15.75 8.99998Z" fill="#25314C"/>
</svg>
