<svg width="20" height="20" viewBox="0 0 20 20" fill="none" xmlns="http://www.w3.org/2000/svg">
<path d="M19.3831 7.61499C19.1471 7.37999 18.833 7.25 18.5 7.25C18.499 7.25 18.498 7.25 18.498 7.25H18.4971C16.5191 7.254 14.5801 7.30905 12.6011 7.93005C11.4881 8.27905 10.59 9.00596 10 9.93396C9.411 9.00596 8.51193 8.27905 7.39893 7.93005C5.41993 7.30905 3.47993 7.254 1.50293 7.25H1.50195C1.50195 7.25 1.501 7.25 1.5 7.25C1.167 7.25 0.853943 7.37999 0.616943 7.61499C0.380943 7.85199 0.25 8.16598 0.25 8.50098V16.501C0.25 17.187 0.806014 17.748 1.48901 17.751C5.62201 17.769 8.30599 18.368 9.46899 19.53C9.47599 19.537 9.48494 19.539 9.49194 19.546C9.55594 19.606 9.62791 19.658 9.71191 19.693H9.71289C9.80389 19.73 9.90102 19.75 9.99902 19.75C10.097 19.75 10.1939 19.73 10.2849 19.693H10.2859C10.3699 19.658 10.4421 19.606 10.5061 19.546C10.5131 19.539 10.5231 19.537 10.5291 19.53C11.6921 18.367 14.377 17.769 18.51 17.751C19.193 17.748 19.748 17.187 19.748 16.501V8.50098C19.75 8.16698 19.6191 7.85199 19.3831 7.61499ZM1.75 8.75098C3.521 8.75898 5.25195 8.82896 6.94995 9.36096C8.32595 9.79296 9.25 11.044 9.25 12.474V17.553C7.165 16.465 4.116 16.274 1.75 16.252V8.75098ZM18.25 16.252C15.884 16.273 12.835 16.465 10.75 17.553V12.474C10.75 11.044 11.674 9.79296 13.05 9.36096C14.748 8.82796 16.48 8.75898 18.25 8.75098V16.252ZM10 6.75C11.792 6.75 13.25 5.292 13.25 3.5C13.25 1.708 11.792 0.25 10 0.25C8.208 0.25 6.75 1.708 6.75 3.5C6.75 5.292 8.208 6.75 10 6.75ZM10 1.75C10.965 1.75 11.75 2.535 11.75 3.5C11.75 4.465 10.965 5.25 10 5.25C9.035 5.25 8.25 4.465 8.25 3.5C8.25 2.535 9.035 1.75 10 1.75Z" fill="#25314C"/>
</svg>
