<svg width="22" height="20" viewBox="0 0 22 20" fill="none" xmlns="http://www.w3.org/2000/svg">
<path d="M11.693 17.703L10.912 18.053C10.86 18.077 10.804 18.087 10.75 18.106V9.38599C11.014 9.33299 11.274 9.255 11.524 9.146L18.179 6.19C18.214 6.347 18.25 6.50599 18.25 6.67099V10C18.25 10.414 18.586 10.75 19 10.75C19.414 10.75 19.75 10.414 19.75 10V6.67099C19.75 6.03399 19.58 5.42701 19.288 4.88901C19.287 4.88601 19.287 4.88199 19.286 4.87799C19.282 4.86899 19.274 4.86401 19.27 4.85501C18.882 4.15801 18.283 3.58301 17.525 3.24701L11.528 0.579012C10.557 0.144012 9.44495 0.143005 8.47595 0.578005L2.47595 3.24701C1.71795 3.58401 1.11896 4.15899 0.730957 4.85599C0.726957 4.86499 0.718966 4.87 0.714966 4.879C0.713966 4.882 0.714013 4.88602 0.713013 4.89002C0.421013 5.42802 0.250977 6.036 0.250977 6.672V13.33C0.250977 14.809 1.12505 16.154 2.47705 16.755L8.474 19.423C8.959 19.641 9.48098 19.75 10.001 19.75C10.521 19.75 11.043 19.641 11.527 19.423L12.307 19.073C12.685 18.904 12.8541 18.46 12.6851 18.082C12.5151 17.703 12.07 17.534 11.693 17.703ZM9.08801 1.94699C9.66801 1.68599 10.333 1.687 10.915 1.948L16.915 4.61701C17.083 4.69201 17.231 4.79601 17.373 4.90601L14.644 6.11801L7.38696 2.70301L9.08801 1.94699ZM5.57605 3.50901L12.832 6.92301L10.921 7.77201C10.336 8.02701 9.66506 8.02699 9.08606 7.77399L2.62805 4.90601C2.77005 4.79601 2.91706 4.69201 3.08606 4.61701L5.57605 3.50901ZM3.08496 15.383C2.27396 15.023 1.75 14.216 1.75 13.329V6.67099C1.75 6.50499 1.78604 6.347 1.82104 6.19L8.48096 9.14801C8.72996 9.25601 8.98798 9.335 9.25098 9.387V18.107C9.19598 18.087 9.13906 18.077 9.08606 18.053L3.08496 15.383ZM21.53 18.466L19.98 16.917C20.358 16.34 20.582 15.654 20.582 14.914C20.582 12.893 18.937 11.248 16.916 11.248C14.894 11.248 13.249 12.893 13.249 14.914C13.249 16.935 14.894 18.58 16.916 18.58C17.656 18.58 18.3419 18.356 18.9189 17.978L20.469 19.527C20.615 19.673 20.807 19.746 20.999 19.746C21.191 19.746 21.3831 19.673 21.5291 19.526C21.8231 19.234 21.823 18.759 21.53 18.466ZM14.75 14.914C14.75 13.72 15.722 12.748 16.917 12.748C18.111 12.748 19.083 13.72 19.083 14.914C19.083 16.108 18.111 17.08 16.917 17.08C15.722 17.08 14.75 16.108 14.75 14.914Z" fill="#25314C"/>
</svg>
