<svg width="22" height="20" viewBox="0 0 22 20" fill="none" xmlns="http://www.w3.org/2000/svg">
<path d="M10.75 18.119V9.38599C11.014 9.33299 11.274 9.25399 11.524 9.14499L18.179 6.18799C18.214 6.34599 18.25 6.50402 18.25 6.67002V8.99899C18.25 9.41299 18.586 9.74899 19 9.74899C19.414 9.74899 19.75 9.41299 19.75 8.99899V6.67002C19.75 6.03302 19.58 5.426 19.288 4.888C19.286 4.884 19.287 4.88001 19.285 4.87601C19.281 4.86601 19.272 4.86001 19.267 4.85001C18.879 4.15501 18.281 3.581 17.525 3.246L11.528 0.578005C10.556 0.143005 9.44395 0.141998 8.47595 0.576998L2.47595 3.246C1.71995 3.582 1.12103 4.15602 0.733032 4.85102C0.728032 4.86102 0.718966 4.86702 0.714966 4.87702C0.712966 4.88102 0.714036 4.88501 0.712036 4.88901C0.420036 5.42701 0.25 6.03399 0.25 6.67099V13.328C0.25 14.807 1.12395 16.151 2.47595 16.752L8.47302 19.419C8.96202 19.639 9.48305 19.75 10.0031 19.75C10.4261 19.75 10.849 19.677 11.255 19.53C11.645 19.389 11.846 18.959 11.705 18.57C11.565 18.182 11.136 17.982 10.75 18.119ZM9.08801 1.94699C9.66801 1.68599 10.333 1.687 10.915 1.948L16.915 4.61701C17.083 4.69201 17.2299 4.79601 17.3719 4.90601L14.644 6.11801L7.38904 2.70301L9.08801 1.94699ZM5.578 3.508L12.832 6.92301L10.92 7.77301C10.335 8.02801 9.66396 8.027 9.08496 7.775L2.62805 4.90601C2.76905 4.79601 2.91696 4.69201 3.08496 4.61701L5.578 3.508ZM3.08496 15.381C2.27396 15.021 1.75 14.214 1.75 13.327V6.67002C1.75 6.50402 1.78604 6.34599 1.82104 6.18799L8.48096 9.14701C8.72996 9.255 8.98798 9.33399 9.25098 9.38599V18.106C9.19598 18.086 9.14006 18.074 9.08606 18.05L3.08496 15.381ZM17 10.249C14.381 10.249 12.25 12.38 12.25 14.999C12.25 17.618 14.381 19.749 17 19.749C19.619 19.749 21.75 17.618 21.75 14.999C21.75 12.38 19.619 10.249 17 10.249ZM17 18.249C15.208 18.249 13.75 16.791 13.75 14.999C13.75 13.207 15.208 11.749 17 11.749C18.792 11.749 20.25 13.207 20.25 14.999C20.25 16.791 18.792 18.249 17 18.249ZM18.78 13.635C19.073 13.928 19.073 14.403 18.78 14.696L17.113 16.363C16.972 16.503 16.782 16.582 16.583 16.582C16.384 16.582 16.193 16.503 16.053 16.362L15.22 15.529C14.927 15.236 14.927 14.761 15.22 14.468C15.513 14.176 15.988 14.175 16.281 14.468L16.584 14.771L17.7209 13.635C18.0129 13.343 18.487 13.342 18.78 13.635Z" fill="#25314C"/>
</svg>
