<svg width="20" height="19" viewBox="0 0 20 19" fill="none" xmlns="http://www.w3.org/2000/svg">
<path d="M7.47998 9.15004C7.72998 9.26004 7.99 9.33006 8.25 9.39006V18.9101C8.09 18.8701 7.93003 18.81 7.78003 18.74L1.78003 16.0701C0.700029 15.5901 0 14.52 0 13.33V6.67006C0 6.40006 0.0399854 6.13005 0.109985 5.88005L7.47998 9.15004ZM17.13 4.56005C16.87 4.30005 16.57 4.08004 16.22 3.93004L10.22 1.26006C9.43997 0.910059 8.56003 0.910059 7.78003 1.26006L1.78003 3.93004C1.43003 4.08004 1.13 4.30005 0.869995 4.56005L8.07996 7.77004C8.65996 8.03004 9.33004 8.03004 9.92004 7.77004L17.13 4.56005ZM10.559 14.176C10.927 11.595 13.1889 9.59505 15.7939 9.50405C16.4299 9.48205 17.036 9.56306 17.604 9.73906C17.801 9.80006 18 9.66604 18 9.46004V6.67006C18 6.40006 17.96 6.13005 17.89 5.88005L10.52 9.15004C10.27 9.25004 10.01 9.33006 9.75 9.39006V18.9101C9.769 18.9221 9.76896 18.922 9.78796 18.934L11.192 18.3031C11.359 18.2281 11.414 18.025 11.317 17.869C10.663 16.817 10.363 15.548 10.559 14.176ZM20 15C20 17.21 18.21 19 16 19C13.79 19 12 17.21 12 15C12 12.79 13.79 11 16 11C18.21 11 20 12.79 20 15ZM17.6 13.81C17.41 13.62 17.09 13.62 16.9 13.81L15.58 15.12L15.1 14.65C14.91 14.45 14.59 14.45 14.4 14.65C14.2 14.84 14.2 15.1601 14.4 15.3501L15.23 16.1901C15.32 16.2801 15.45 16.33 15.58 16.33C15.72 16.33 15.8399 16.2801 15.9399 16.1901L17.6 14.52C17.8 14.32 17.8 14.01 17.6 13.81Z" fill="#FF7C51"/>
</svg>
