<svg width="20" height="20" viewBox="0 0 20 20" fill="none" xmlns="http://www.w3.org/2000/svg">
<path d="M19.287 4.88198C19.286 4.87998 19.287 4.878 19.286 4.876C19.284 4.871 19.279 4.868 19.277 4.863C18.89 4.16 18.287 3.57999 17.525 3.24099L11.525 0.573995C10.556 0.143995 9.44703 0.143995 8.47803 0.573995L2.47803 3.24099C1.71503 3.57999 1.11295 4.16 0.725952 4.863C0.723952 4.868 0.719041 4.871 0.717041 4.876C0.716041 4.878 0.716942 4.87998 0.715942 4.88198C0.422942 5.42098 0.253052 6.02898 0.253052 6.66698V13.334C0.253052 14.814 1.12698 16.159 2.47998 16.761L8.47998 19.428C8.96198 19.642 9.47897 19.748 9.99597 19.75C9.99897 19.75 10.001 19.751 10.004 19.751C10.007 19.751 10.009 19.75 10.012 19.75C10.529 19.749 11.046 19.642 11.528 19.428L17.528 16.761C18.881 16.16 19.755 14.815 19.755 13.334V6.66698C19.75 6.02898 19.58 5.41998 19.287 4.88198ZM9.08606 1.94399C9.37606 1.81499 9.689 1.74999 10 1.74999C10.311 1.74999 10.6239 1.81398 10.9139 1.94298L16.9139 4.60998C17.0839 4.68598 17.233 4.791 17.376 4.902L14.6429 6.11699L7.38403 2.7L9.08606 1.94399ZM5.573 3.505L12.832 6.92199L10.92 7.77199C10.334 8.02699 9.66296 8.02698 9.08496 7.77398L2.62402 4.902C2.76702 4.791 2.91606 4.68498 3.08606 4.60998L5.573 3.505ZM3.08606 15.389C2.27406 15.028 1.75 14.221 1.75 13.333V6.66598C1.75 6.50098 1.78595 6.343 1.81995 6.187L8.47998 9.14699C8.72898 9.25499 8.987 9.33398 9.25 9.38598V18.108C9.196 18.089 9.13906 18.078 9.08606 18.055L3.08606 15.389ZM18.25 13.333C18.25 14.221 17.7259 15.028 16.9139 15.389L10.9139 18.056C10.8609 18.08 10.804 18.09 10.75 18.109V9.38598C11.014 9.33298 11.274 9.25398 11.524 9.14498L13.879 8.09798V9.89001C13.879 10.304 14.215 10.64 14.629 10.64C15.043 10.64 15.379 10.304 15.379 9.89001V7.432L18.179 6.18798C18.214 6.34498 18.249 6.50198 18.249 6.66698V13.333H18.25Z" fill="#25314C"/>
</svg>
