<svg width="683" height="212" viewBox="0 0 683 212" fill="none" xmlns="http://www.w3.org/2000/svg">
<path d="M125.123 99.794C141.661 109.245 152.293 125.488 152.293 147.047C152.293 182.487 123.646 207 87.9107 207H0.196667V0.266667H81.7087C116.558 0.266667 144.615 23.8933 144.615 58.4473C144.615 76.1673 137.231 90.048 125.123 99.794ZM81.7087 38.3647H40.9527V83.846H81.7087C94.408 83.846 103.859 74.1 103.859 61.1053C103.859 48.1107 94.7033 38.3647 81.7087 38.3647ZM87.9107 168.902C101.791 168.902 111.833 158.565 111.833 144.389C111.833 130.509 101.791 120.172 87.9107 120.172H40.9527V168.902H87.9107ZM279.841 59.3333H317.939V207H279.841V190.461C270.981 203.751 255.624 211.135 235.837 211.135C204.531 211.135 180.019 189.28 180.019 150.001V59.3333H218.117V145.275C218.117 165.358 230.225 175.695 247.355 175.695C265.961 175.695 279.841 164.767 279.841 139.073V59.3333ZM401.169 171.265H466.733V207H350.076V181.601L412.391 95.0687H353.029V59.3333H463.779V84.732L401.169 171.265ZM539.844 171.265H605.408V207H488.752V181.601L551.067 95.0687H491.705V59.3333H602.455V84.732L539.844 171.265Z" fill="#0A0A0A"/>
<path d="M657.476 210.839C643.595 210.839 632.372 199.617 632.372 185.736C632.372 171.855 643.595 160.633 657.476 160.633C671.356 160.633 682.579 171.855 682.579 185.736C682.579 199.617 671.356 210.839 657.476 210.839Z" fill="#0059E7"/>
</svg>
