<svg width="20" height="20" viewBox="0 0 20 20" fill="none" xmlns="http://www.w3.org/2000/svg">
<path d="M16 0.25H4C1.582 0.25 0.25 1.582 0.25 4V16C0.25 18.418 1.582 19.75 4 19.75H16C18.418 19.75 19.75 18.418 19.75 16V4C19.75 1.582 18.418 0.25 16 0.25ZM4 1.75H16C17.577 1.75 18.25 2.423 18.25 4V9.25H1.75V4C1.75 2.423 2.423 1.75 4 1.75ZM16 18.25H4C2.423 18.25 1.75 17.577 1.75 16V10.75H18.25V16C18.25 17.577 17.577 18.25 16 18.25ZM8.75 6C8.75 5.31 9.31 4.75 10 4.75C10.69 4.75 11.25 5.31 11.25 6C11.25 6.69 10.69 7.25 10 7.25C9.31 7.25 8.75 6.69 8.75 6ZM11.25 14C11.25 14.69 10.69 15.25 10 15.25C9.31 15.25 8.75 14.69 8.75 14C8.75 13.31 9.31 12.75 10 12.75C10.69 12.75 11.25 13.31 11.25 14Z" fill="#25314C"/>
</svg>
