<svg width="20" height="20" viewBox="0 0 20 20" fill="none" xmlns="http://www.w3.org/2000/svg">
<path d="M13.333 5.91699H12.7629L12.5691 5.33398C12.3531 4.68598 11.7499 4.25098 11.0669 4.25098H8.93408C8.25108 4.25098 7.64811 4.68601 7.43311 5.33301L7.23804 5.91699H6.66797C5.13197 5.91699 4.25098 6.79798 4.25098 8.33398V13.334C4.25098 14.87 5.13197 15.751 6.66797 15.751H13.334C14.87 15.751 15.751 14.87 15.751 13.334V8.33398C15.75 6.79698 14.869 5.91699 13.333 5.91699ZM14.25 13.333C14.25 14.027 14.027 14.25 13.333 14.25H6.66699C5.97299 14.25 5.75 14.027 5.75 13.333V8.33301C5.75 7.63901 5.97299 7.41602 6.66699 7.41602H7.7771C8.0991 7.41602 8.38604 7.20908 8.48804 6.90308L8.93311 5.74902L11.145 5.80688L11.511 6.90308C11.613 7.20908 11.8999 7.41602 12.2219 7.41602H13.332C14.026 7.41602 14.249 7.63901 14.249 8.33301V13.333H14.25ZM10 8.41699C8.667 8.41699 7.58301 9.50098 7.58301 10.834C7.58301 12.167 8.667 13.251 10 13.251C11.333 13.251 12.417 12.167 12.417 10.834C12.417 9.50098 11.333 8.41699 10 8.41699ZM10 11.75C9.494 11.75 9.08301 11.339 9.08301 10.833C9.08301 10.327 9.494 9.91602 10 9.91602C10.506 9.91602 10.917 10.327 10.917 10.833C10.917 11.339 10.506 11.75 10 11.75ZM15.625 0.25H4.375C1.715 0.25 0.25 1.715 0.25 4.375V15.625C0.25 18.285 1.715 19.75 4.375 19.75H15.625C18.285 19.75 19.75 18.285 19.75 15.625V4.375C19.75 1.715 18.285 0.25 15.625 0.25ZM18.25 15.625C18.25 17.465 17.465 18.25 15.625 18.25H4.375C2.535 18.25 1.75 17.465 1.75 15.625V4.375C1.75 2.535 2.535 1.75 4.375 1.75H15.625C17.465 1.75 18.25 2.535 18.25 4.375V15.625Z" fill="#25314C"/>
</svg>
