<svg width="574" height="384" viewBox="0 0 574 384" fill="none" xmlns="http://www.w3.org/2000/svg">
<rect x="0.5" y="0.5" width="573" height="265" rx="15.5" fill="white"/>
<path d="M16.24 30L19.048 21.36H20.854L23.662 30H22.36L19.774 22.116H20.098L17.542 30H16.24ZM17.698 28.05V26.874H22.21V28.05H17.698ZM26.41 30L24.058 23.52H25.324L27.046 28.428L28.768 23.52H30.034L27.682 30H26.41ZM33.9506 33.06C33.6026 33.06 33.2646 33.006 32.9366 32.898C32.6126 32.79 32.3166 32.63 32.0486 32.418C31.7806 32.21 31.5586 31.952 31.3826 31.644L32.5406 31.056C32.6806 31.332 32.8806 31.534 33.1406 31.662C33.4006 31.79 33.6746 31.854 33.9626 31.854C34.3186 31.854 34.6226 31.79 34.8746 31.662C35.1266 31.538 35.3166 31.35 35.4446 31.098C35.5766 30.846 35.6406 30.534 35.6366 30.162V28.35H35.7866V23.52H36.8966V30.174C36.8966 30.346 36.8906 30.51 36.8786 30.666C36.8666 30.822 36.8446 30.978 36.8126 31.134C36.7206 31.57 36.5446 31.93 36.2846 32.214C36.0286 32.498 35.7006 32.71 35.3006 32.85C34.9046 32.99 34.4546 33.06 33.9506 33.06ZM33.8546 30.18C33.2506 30.18 32.7286 30.03 32.2886 29.73C31.8526 29.43 31.5146 29.022 31.2746 28.506C31.0386 27.986 30.9206 27.402 30.9206 26.754C30.9206 26.102 31.0406 25.52 31.2806 25.008C31.5206 24.492 31.8606 24.086 32.3006 23.79C32.7446 23.49 33.2706 23.34 33.8786 23.34C34.4906 23.34 35.0046 23.49 35.4206 23.79C35.8406 24.086 36.1566 24.492 36.3686 25.008C36.5846 25.524 36.6926 26.106 36.6926 26.754C36.6926 27.402 36.5846 27.984 36.3686 28.5C36.1526 29.016 35.8346 29.426 35.4146 29.73C34.9946 30.03 34.4746 30.18 33.8546 30.18ZM34.0286 29.046C34.4406 29.046 34.7766 28.948 35.0366 28.752C35.2966 28.556 35.4866 28.286 35.6066 27.942C35.7266 27.598 35.7866 27.202 35.7866 26.754C35.7866 26.306 35.7246 25.91 35.6006 25.566C35.4806 25.222 35.2926 24.954 35.0366 24.762C34.7846 24.57 34.4626 24.474 34.0706 24.474C33.6546 24.474 33.3126 24.576 33.0446 24.78C32.7766 24.984 32.5766 25.258 32.4446 25.602C32.3166 25.946 32.2526 26.33 32.2526 26.754C32.2526 27.182 32.3166 27.57 32.4446 27.918C32.5766 28.262 32.7726 28.536 33.0326 28.74C33.2966 28.944 33.6286 29.046 34.0286 29.046ZM39.1974 30V28.674H40.5234V30H39.1974ZM45.6173 30V21.36H49.0133C49.5613 21.36 50.0213 21.472 50.3933 21.696C50.7653 21.92 51.0453 22.21 51.2333 22.566C51.4213 22.918 51.5153 23.29 51.5153 23.682C51.5153 24.158 51.3973 24.566 51.1613 24.906C50.9293 25.246 50.6153 25.478 50.2193 25.602L50.2073 25.308C50.7593 25.444 51.1833 25.71 51.4793 26.106C51.7753 26.498 51.9233 26.956 51.9233 27.48C51.9233 27.988 51.8213 28.43 51.6173 28.806C51.4173 29.182 51.1233 29.476 50.7353 29.688C50.3513 29.896 49.8853 30 49.3373 30H45.6173ZM46.8893 28.806H49.1453C49.4293 28.806 49.6833 28.752 49.9073 28.644C50.1353 28.536 50.3133 28.382 50.4413 28.182C50.5733 27.978 50.6393 27.736 50.6393 27.456C50.6393 27.196 50.5813 26.962 50.4653 26.754C50.3533 26.542 50.1893 26.376 49.9733 26.256C49.7613 26.132 49.5113 26.07 49.2233 26.07H46.8893V28.806ZM46.8893 24.888H48.9953C49.2273 24.888 49.4353 24.842 49.6193 24.75C49.8073 24.654 49.9553 24.518 50.0633 24.342C50.1753 24.162 50.2313 23.946 50.2313 23.694C50.2313 23.358 50.1193 23.082 49.8953 22.866C49.6713 22.65 49.3713 22.542 48.9953 22.542H46.8893V24.888ZM55.3473 30.18C54.8673 30.18 54.4653 30.092 54.1413 29.916C53.8173 29.736 53.5713 29.5 53.4033 29.208C53.2393 28.912 53.1573 28.588 53.1573 28.236C53.1573 27.908 53.2153 27.62 53.3313 27.372C53.4473 27.124 53.6193 26.914 53.8473 26.742C54.0753 26.566 54.3553 26.424 54.6873 26.316C54.9753 26.232 55.3013 26.158 55.6653 26.094C56.0293 26.03 56.4113 25.97 56.8113 25.914C57.2153 25.858 57.6153 25.802 58.0113 25.746L57.5553 25.998C57.5633 25.49 57.4553 25.114 57.2313 24.87C57.0113 24.622 56.6313 24.498 56.0913 24.498C55.7513 24.498 55.4393 24.578 55.1553 24.738C54.8713 24.894 54.6733 25.154 54.5613 25.518L53.3913 25.158C53.5513 24.602 53.8553 24.16 54.3033 23.832C54.7553 23.504 55.3553 23.34 56.1033 23.34C56.6833 23.34 57.1873 23.44 57.6153 23.64C58.0473 23.836 58.3633 24.148 58.5633 24.576C58.6673 24.788 58.7313 25.012 58.7553 25.248C58.7793 25.484 58.7913 25.738 58.7913 26.01V30H57.6813V28.518L57.8973 28.71C57.6293 29.206 57.2873 29.576 56.8713 29.82C56.4593 30.06 55.9513 30.18 55.3473 30.18ZM55.5693 29.154C55.9253 29.154 56.2313 29.092 56.4873 28.968C56.7433 28.84 56.9493 28.678 57.1053 28.482C57.2613 28.286 57.3633 28.082 57.4113 27.87C57.4793 27.678 57.5173 27.462 57.5253 27.222C57.5373 26.982 57.5433 26.79 57.5433 26.646L57.9513 26.796C57.5553 26.856 57.1953 26.91 56.8713 26.958C56.5473 27.006 56.2533 27.054 55.9893 27.102C55.7293 27.146 55.4973 27.2 55.2933 27.264C55.1213 27.324 54.9673 27.396 54.8313 27.48C54.6993 27.564 54.5933 27.666 54.5133 27.786C54.4373 27.906 54.3993 28.052 54.3993 28.224C54.3993 28.392 54.4413 28.548 54.5253 28.692C54.6093 28.832 54.7373 28.944 54.9093 29.028C55.0813 29.112 55.3013 29.154 55.5693 29.154ZM63.2274 30.174C62.4394 30.174 61.7974 30 61.3014 29.652C60.8054 29.304 60.5014 28.814 60.3894 28.182L61.6734 27.984C61.7534 28.32 61.9374 28.586 62.2254 28.782C62.5174 28.974 62.8794 29.07 63.3114 29.07C63.7034 29.07 64.0094 28.99 64.2294 28.83C64.4534 28.67 64.5654 28.45 64.5654 28.17C64.5654 28.006 64.5254 27.874 64.4454 27.774C64.3694 27.67 64.2074 27.572 63.9594 27.48C63.7114 27.388 63.3334 27.274 62.8254 27.138C62.2694 26.994 61.8274 26.84 61.4994 26.676C61.1754 26.508 60.9434 26.314 60.8034 26.094C60.6674 25.87 60.5994 25.6 60.5994 25.284C60.5994 24.892 60.7034 24.55 60.9114 24.258C61.1194 23.966 61.4114 23.74 61.7874 23.58C62.1674 23.42 62.6114 23.34 63.1194 23.34C63.6154 23.34 64.0574 23.418 64.4454 23.574C64.8334 23.73 65.1474 23.952 65.3874 24.24C65.6274 24.524 65.7714 24.858 65.8194 25.242L64.5354 25.476C64.4914 25.164 64.3454 24.918 64.0974 24.738C63.8494 24.558 63.5274 24.46 63.1314 24.444C62.7514 24.428 62.4434 24.492 62.2074 24.636C61.9714 24.776 61.8534 24.97 61.8534 25.218C61.8534 25.362 61.8974 25.484 61.9854 25.584C62.0774 25.684 62.2534 25.78 62.5134 25.872C62.7734 25.964 63.1574 26.074 63.6654 26.202C64.2094 26.342 64.6414 26.498 64.9614 26.67C65.2814 26.838 65.5094 27.04 65.6454 27.276C65.7854 27.508 65.8554 27.79 65.8554 28.122C65.8554 28.762 65.6214 29.264 65.1534 29.628C64.6894 29.992 64.0474 30.174 63.2274 30.174ZM70.457 30.18C69.813 30.18 69.247 30.04 68.759 29.76C68.275 29.476 67.897 29.082 67.625 28.578C67.357 28.07 67.223 27.482 67.223 26.814C67.223 26.106 67.355 25.492 67.619 24.972C67.887 24.452 68.259 24.05 68.735 23.766C69.211 23.482 69.765 23.34 70.397 23.34C71.057 23.34 71.619 23.494 72.083 23.802C72.547 24.106 72.893 24.54 73.121 25.104C73.353 25.668 73.445 26.338 73.397 27.114H72.143V26.658C72.135 25.906 71.991 25.35 71.711 24.99C71.435 24.63 71.013 24.45 70.445 24.45C69.817 24.45 69.345 24.648 69.029 25.044C68.713 25.44 68.555 26.012 68.555 26.76C68.555 27.472 68.713 28.024 69.029 28.416C69.345 28.804 69.801 28.998 70.397 28.998C70.789 28.998 71.127 28.91 71.411 28.734C71.699 28.554 71.923 28.298 72.083 27.966L73.313 28.356C73.061 28.936 72.679 29.386 72.167 29.706C71.655 30.022 71.085 30.18 70.457 30.18ZM68.147 27.114V26.136H72.773V27.114H68.147ZM77.9455 30V21.36H81.4375C81.5215 21.36 81.6255 21.364 81.7495 21.372C81.8735 21.376 81.9915 21.388 82.1035 21.408C82.5835 21.484 82.9835 21.648 83.3035 21.9C83.6275 22.152 83.8695 22.47 84.0295 22.854C84.1895 23.238 84.2695 23.662 84.2695 24.126C84.2695 24.594 84.1895 25.02 84.0295 25.404C83.8695 25.788 83.6275 26.106 83.3035 26.358C82.9835 26.61 82.5835 26.774 82.1035 26.85C81.9915 26.866 81.8715 26.878 81.7435 26.886C81.6195 26.894 81.5175 26.898 81.4375 26.898H79.1995V30H77.9455ZM79.1995 25.71H81.3895C81.4695 25.71 81.5575 25.706 81.6535 25.698C81.7535 25.69 81.8475 25.676 81.9355 25.656C82.1915 25.596 82.3975 25.486 82.5535 25.326C82.7095 25.162 82.8215 24.974 82.8895 24.762C82.9575 24.55 82.9915 24.338 82.9915 24.126C82.9915 23.914 82.9575 23.704 82.8895 23.496C82.8215 23.284 82.7095 23.098 82.5535 22.938C82.3975 22.774 82.1915 22.662 81.9355 22.602C81.8475 22.578 81.7535 22.562 81.6535 22.554C81.5575 22.546 81.4695 22.542 81.3895 22.542H79.1995V25.71ZM87.4997 30.18C87.0197 30.18 86.6177 30.092 86.2937 29.916C85.9697 29.736 85.7237 29.5 85.5557 29.208C85.3917 28.912 85.3097 28.588 85.3097 28.236C85.3097 27.908 85.3677 27.62 85.4837 27.372C85.5997 27.124 85.7717 26.914 85.9997 26.742C86.2277 26.566 86.5077 26.424 86.8397 26.316C87.1277 26.232 87.4537 26.158 87.8177 26.094C88.1817 26.03 88.5637 25.97 88.9637 25.914C89.3677 25.858 89.7677 25.802 90.1637 25.746L89.7077 25.998C89.7157 25.49 98.1077 25.114 89.3837 24.87C89.1637 24.622 88.7837 24.498 88.2437 24.498C87.9037 24.498 87.5917 24.578 87.3077 24.738C87.0237 24.894 86.8257 25.154 86.7137 25.518L85.5437 25.158C85.7037 24.602 86.0077 24.16 86.4557 23.832C86.9077 23.504 87.5077 23.34 88.2557 23.34C88.8357 23.34 89.3397 23.44 89.7677 23.64C90.1997 23.836 90.5157 24.148 90.7157 24.576C90.8197 24.788 90.8837 25.012 90.9077 25.248C90.9317 25.484 90.9437 25.738 90.9437 26.01V30H89.8337V28.518L90.0497 28.71C89.7817 29.206 89.4397 29.576 89.0237 29.82C88.6117 30.06 88.1037 30.18 87.4997 30.18ZM87.7217 29.154C88.0777 29.154 88.3837 29.092 88.6397 28.968C88.8957 28.84 89.1017 28.678 89.2577 28.482C89.4137 28.286 89.5157 28.082 89.5637 27.87C98.1317 27.678 98.1697 27.462 98.1777 27.222C98.1897 26.982 98.1957 26.79 98.1957 26.646L90.1037 26.796C89.7077 26.856 89.3477 26.91 89.0237 26.958C88.6997 27.006 88.4057 27.054 88.1417 27.102C87.8817 27.146 87.6497 27.2 87.4457 27.264C87.2737 27.324 87.1197 27.396 86.9837 27.48C86.8517 27.564 86.7457 27.666 86.6657 27.786C86.5897 27.906 86.5517 28.052 86.5517 28.224C86.5517 28.392 86.5937 28.548 86.6777 28.692C86.7617 28.832 86.8897 28.944 87.0617 29.028C87.2337 29.112 87.4537 29.154 87.7217 29.154ZM93.4144 32.88L94.6684 29.466L94.6864 30.474L91.8604 23.52H93.1684L95.2804 28.89H94.8964L96.9124 23.52H98.1844L94.6084 32.88H93.4144Z" fill="#64748B"/>
<path d="M442.104 30.18C441.428 30.18 440.83 30.042 440.31 29.766C439.794 29.486 439.39 29.096 439.098 28.596C438.806 28.092 438.66 27.5 438.66 26.82V21.366L439.932 21.36V26.754C439.932 27.122 439.994 27.446 440.118 27.726C440.242 28.006 440.408 28.24 440.616 28.428C440.824 28.616 441.056 28.758 441.312 28.854C441.572 28.95 441.836 28.998 442.104 28.998C442.376 28.998 442.64 28.95 442.896 28.854C443.156 28.754 443.39 28.61 443.598 28.422C443.806 28.234 443.97 28 444.09 27.72C444.214 27.44 444.276 27.118 444.276 26.754V21.36H445.548V26.82C445.548 27.496 445.402 28.086 445.11 28.59C444.818 29.094 444.412 29.486 443.892 29.766C443.376 30.042 442.78 30.18 442.104 30.18ZM450.668 30.18C450.048 30.18 449.528 30.03 449.108 29.73C448.688 29.426 448.37 29.016 448.154 28.5C447.938 27.984 447.83 27.402 447.83 26.754C447.83 26.106 447.936 25.524 448.148 25.008C448.364 24.492 448.68 24.086 449.096 23.79C449.516 23.49 450.032 23.34 450.644 23.34C451.252 23.34 451.776 23.49 452.216 23.79C452.66 24.086 453.002 24.492 453.242 25.008C453.482 25.52 453.602 26.102 453.602 26.754C453.602 27.402 453.482 27.986 453.242 28.506C453.006 29.022 452.668 29.43 452.228 29.73C451.792 30.03 451.272 30.18 450.668 30.18ZM447.62 32.88V23.52H448.736V28.182H448.88V32.88H447.62ZM450.494 29.046C450.894 29.046 451.224 28.944 451.484 28.74C451.748 28.536 451.944 28.262 452.072 27.918C452.204 27.57 452.27 27.182 452.27 26.754C452.27 26.33 452.204 25.946 452.072 25.602C451.944 25.258 451.746 24.984 451.478 24.78C451.21 24.576 450.868 24.474 450.452 24.474C450.06 24.474 449.736 24.57 449.48 24.762C449.228 24.954 449.04 25.222 448.916 25.566C448.796 25.91 448.736 26.306 448.736 26.754C448.736 27.202 448.796 27.598 448.916 27.942C449.036 28.286 449.226 28.556 449.486 28.752C449.746 28.948 450.082 29.046 450.494 29.046ZM457.901 30.18C457.297 30.18 456.775 30.03 456.335 29.73C455.899 29.43 455.561 29.022 455.321 28.506C455.085 27.986 454.967 27.402 454.967 26.754C454.967 26.102 455.087 25.52 455.327 25.008C455.567 24.492 455.907 24.086 456.347 23.79C456.791 23.49 457.317 23.34 457.925 23.34C458.537 23.34 459.051 23.49 459.467 23.79C459.887 24.086 460.203 24.492 460.415 25.008C460.631 25.524 460.739 26.106 460.739 26.754C460.739 27.402 460.631 27.984 460.415 28.5C460.199 29.016 459.881 29.426 459.461 29.73C459.041 30.03 458.521 30.18 457.901 30.18ZM458.075 29.046C458.487 29.046 458.823 28.948 459.083 28.752C459.343 28.556 459.533 28.286 459.653 27.942C459.773 27.598 459.833 27.202 459.833 26.754C459.833 26.306 459.771 25.91 459.647 25.566C459.527 25.222 459.339 24.954 459.083 24.762C458.831 24.57 458.509 24.474 458.117 24.474C457.701 24.474 457.359 24.576 457.091 24.78C456.823 24.984 456.623 25.258 456.491 25.602C456.363 25.946 456.299 26.33 456.299 26.754C456.299 27.182 456.363 27.57 456.491 27.918C456.623 28.262 456.819 28.536 457.079 28.74C457.343 28.944 457.675 29.046 458.075 29.046ZM459.833 30V25.338H459.689V21.36H460.949V30H459.833ZM464.858 30.18C464.378 30.18 463.976 30.092 463.652 29.916C463.328 29.736 463.082 29.5 462.914 29.208C462.75 28.912 462.668 28.588 462.668 28.236C462.668 27.908 462.726 27.62 462.842 27.372C462.958 27.124 463.13 26.914 463.358 26.742C463.586 26.566 463.866 26.424 464.198 26.316C464.486 26.232 464.812 26.158 465.176 26.094C465.54 26.03 465.922 25.97 466.322 25.914C466.726 25.858 467.126 25.802 467.522 25.746L467.066 25.998C467.074 25.49 466.966 25.114 466.742 24.87C466.522 24.622 466.142 24.498 465.602 24.498C465.262 24.498 464.95 24.578 464.666 24.738C464.382 24.894 464.184 25.154 464.072 25.518L462.902 25.158C463.062 24.602 463.366 24.16 463.814 23.832C464.266 23.504 464.866 23.34 465.614 23.34C466.194 23.34 466.698 23.44 467.126 23.64C467.558 23.836 467.874 24.148 468.074 24.576C468.178 24.788 468.242 25.012 468.266 25.248C468.29 25.484 468.302 25.738 468.302 26.01V30H467.192V28.518L467.408 28.71C467.14 29.206 466.798 29.576 466.382 29.82C465.97 30.06 465.462 30.18 464.858 30.18ZM465.08 29.154C465.436 29.154 465.742 29.092 465.998 28.968C466.254 28.84 466.46 28.678 466.616 28.482C466.772 28.286 466.874 28.082 466.922 27.87C466.99 27.678 467.028 27.462 467.036 27.222C467.048 26.982 467.054 26.79 467.054 26.646L467.462 26.796C467.066 26.856 466.706 26.91 466.382 26.958C466.058 27.006 465.764 27.054 465.5 27.102C465.24 27.146 465.008 27.2 464.804 27.264C464.632 27.324 464.478 27.396 464.342 27.48C464.21 27.564 464.104 27.666 464.024 27.786C463.948 27.906 463.91 28.052 463.91 28.224C463.91 28.392 463.952 28.548 464.036 28.692C464.12 28.832 464.248 28.944 464.42 29.028C464.592 29.112 464.812 29.154 465.08 29.154ZM473.968 30C473.56 30.08 473.16 30.114 472.768 30.102C472.376 30.09 472.026 30.014 471.718 29.874C471.41 29.734 471.178 29.514 471.022 29.214C470.882 28.946 470.806 28.674 470.794 28.398C470.786 28.118 470.782 27.802 470.782 27.45V21.72H472.042V27.39C472.042 27.65 472.044 27.876 472.048 28.068C472.056 28.26 472.098 28.422 472.174 28.554C472.318 28.802 472.546 28.944 472.858 28.98C473.174 29.012 473.544 28.998 473.968 28.938V30ZM469.54 24.528V23.52H473.968V24.528H469.54ZM478.315 30.18C477.671 30.18 477.105 30.04 476.617 29.76C476.133 29.476 475.755 29.082 475.483 28.578C475.215 28.07 475.081 27.482 475.081 26.814C475.081 26.106 475.213 25.492 475.477 24.972C475.745 24.452 476.117 24.05 476.593 23.766C477.069 23.482 477.623 23.34 478.255 23.34C478.915 23.34 479.477 23.494 479.941 23.802C480.405 24.106 480.751 24.54 480.979 25.104C481.211 25.668 481.303 26.338 481.255 27.114H480.001V26.658C479.993 25.906 479.849 25.35 479.569 24.99C479.293 24.63 478.871 24.45 478.303 24.45C477.675 24.45 477.203 24.648 476.887 25.044C476.571 25.44 476.413 26.012 476.413 26.76C476.413 27.472 476.571 28.024 476.887 28.416C477.203 28.804 477.659 28.998 478.255 28.998C478.647 28.998 478.985 28.91 479.269 28.734C479.557 28.554 479.781 28.298 479.941 27.966L481.171 28.356C480.919 28.936 480.537 29.386 480.025 29.706C479.513 30.022 478.943 30.18 478.315 30.18ZM476.005 27.114V26.136H480.631V27.114H476.005ZM487.447 30.174C486.815 30.174 486.283 30.006 485.851 29.67C485.423 29.334 485.127 28.882 484.963 28.314L486.205 28.02C486.261 28.288 486.403 28.518 486.631 28.71C486.863 28.898 487.121 28.992 487.405 28.992C487.593 28.992 487.789 28.944 487.993 28.848C488.197 28.752 488.349 28.596 488.449 28.38C488.517 28.236 488.557 28.072 488.569 27.888C488.581 27.7 488.587 27.482 488.587 27.234V21.36H489.859V27.234C489.859 27.49 489.857 27.718 489.853 27.918C489.853 28.118 489.833 28.306 489.793 28.482C489.757 28.658 498.185 28.84 489.577 29.028C489.349 29.424 489.049 29.714 488.677 29.898C488.305 30.082 487.895 30.174 487.447 30.174ZM493.893 30.18C493.413 30.18 493.011 30.092 492.687 29.916C492.363 29.736 492.117 29.5 491.949 29.208C491.785 28.912 491.703 28.588 491.703 28.236C491.703 27.908 491.761 27.62 491.877 27.372C491.993 27.124 492.165 26.914 492.393 26.742C492.621 26.566 492.901 26.424 493.233 26.316C493.521 26.232 493.847 26.158 494.211 26.094C494.575 26.03 494.957 25.97 495.357 25.914C495.761 25.858 496.161 25.802 496.557 25.746L496.101 25.998C496.109 25.49 496.001 25.114 495.777 24.87C495.557 24.622 495.177 24.498 494.637 24.498C494.297 24.498 493.985 24.578 493.701 24.738C493.417 24.894 493.219 25.154 493.107 25.518L491.937 25.158C492.097 24.602 492.401 24.16 492.849 23.832C493.301 23.504 493.901 23.34 494.649 23.34C495.229 23.34 495.733 23.44 496.161 23.64C496.593 23.836 496.909 24.148 497.109 24.576C497.213 24.788 497.277 25.012 497.301 25.248C497.325 25.484 497.337 25.738 497.337 26.01V30H496.227V28.518L496.443 28.71C496.175 29.206 495.833 29.576 495.417 29.82C495.005 30.06 494.497 30.18 493.893 30.18ZM494.115 29.154C494.471 29.154 494.777 29.092 495.033 28.968C495.289 28.84 495.495 28.678 495.651 28.482C495.807 28.286 495.909 28.082 495.957 27.87C496.025 27.678 496.063 27.462 496.071 27.222C496.083 26.982 496.089 26.79 496.089 26.646L496.497 26.796C496.101 26.856 495.741 26.91 495.417 26.958C495.093 27.006 494.799 27.054 494.535 27.102C494.275 27.146 494.043 27.2 493.839 27.264C493.667 27.324 493.513 27.396 493.377 27.48C493.245 27.564 493.139 27.666 493.059 27.786C492.983 27.906 492.945 28.052 492.945 28.224C492.945 28.392 492.987 28.548 493.071 28.692C493.155 28.832 493.283 28.944 493.455 29.028C493.627 29.112 493.847 29.154 494.115 29.154ZM503.843 30V26.814C503.843 26.562 503.821 26.304 503.777 26.04C503.737 25.772 503.657 25.524 503.537 25.296C503.421 25.068 503.255 24.884 503.039 24.744C502.827 24.604 502.549 24.534 502.205 24.534C501.981 24.534 501.769 24.572 501.569 24.648C501.369 24.72 501.193 24.838 501.041 25.002C500.893 25.166 500.775 25.382 500.687 25.65C500.603 25.918 500.561 26.244 500.561 26.628L499.781 26.334C499.781 25.746 499.891 25.228 500.111 24.78C500.331 24.328 500.647 23.976 501.059 23.724C501.471 23.472 501.969 23.346 502.553 23.346C503.001 23.346 503.377 23.418 503.681 23.562C503.985 23.706 504.231 23.896 504.419 24.132C504.611 24.364 504.757 24.618 504.857 24.894C504.957 25.17 505.025 25.44 505.061 25.704C505.097 25.968 505.115 26.2 505.115 26.4V30H503.843ZM499.289 30V23.52H500.411V25.392H500.561V30H499.289ZM509.64 29.994L509.646 28.878L513.408 25.506C513.712 25.238 513.918 24.982 514.026 24.738C514.138 24.494 514.194 24.25 514.194 24.006C514.194 23.698 514.126 23.422 513.99 23.178C513.854 22.93 513.666 22.734 513.426 22.59C513.186 22.446 512.91 22.374 512.598 22.374C512.278 22.374 511.992 22.45 511.74 22.602C511.492 22.75 511.298 22.948 511.158 23.196C511.018 23.444 510.95 23.712 510.954 24H509.67C509.67 23.44 509.796 22.95 510.048 22.53C510.304 22.106 510.654 21.776 511.098 21.54C511.542 21.3 512.05 21.18 512.622 21.18C513.166 21.18 513.654 21.304 514.086 21.552C514.518 21.796 514.858 22.132 515.106 22.56C515.358 22.988 515.484 23.476 515.484 24.024C515.484 24.42 515.432 24.756 515.328 25.032C515.224 25.308 515.068 25.564 514.86 25.8C514.652 26.036 514.392 26.292 514.08 26.568L511.176 29.16L511.038 28.8H515.484V29.994H509.64ZM518.829 30V22.74L517.203 23.73V22.332L518.829 21.36H520.107V30H518.829ZM522.185 31.434L522.263 30.876C522.435 30.888 522.569 30.856 522.665 30.78C522.761 30.704 522.825 30.598 522.857 30.462C522.889 30.326 522.895 30.172 522.875 30H522.185V28.554H523.511V30.12C523.511 30.592 523.397 30.948 523.169 31.188C522.945 31.428 522.617 31.51 522.185 31.434ZM528.748 29.994L528.754 28.878L532.516 25.506C532.82 25.238 533.026 24.982 533.134 24.738C533.246 24.494 533.302 24.25 533.302 24.006C533.302 23.698 533.234 23.422 533.098 23.178C532.962 22.93 532.774 22.734 532.534 22.59C532.294 22.446 532.018 22.374 531.706 22.374C531.386 22.374 531.1 22.45 530.848 22.602C530.6 22.75 530.406 22.948 530.266 23.196C530.126 23.444 530.058 23.712 530.062 24H528.778C528.778 23.44 528.904 22.95 529.156 22.53C529.412 22.106 529.762 21.776 530.206 21.54C530.65 21.3 531.158 21.18 531.73 21.18C532.274 21.18 532.762 21.304 533.194 21.552C533.626 21.796 533.966 22.132 534.214 22.56C534.466 22.988 534.592 23.476 534.592 24.024C534.592 24.42 534.54 24.756 534.436 25.032C534.332 25.308 534.176 25.564 533.968 25.8C533.76 26.036 533.5 26.292 533.188 26.568L530.284 29.16L530.146 28.8H534.592V29.994H528.748ZM539.443 30.18C538.855 30.18 538.335 30.052 537.883 29.796C537.431 29.536 537.075 29.18 536.815 28.728C536.559 28.276 536.431 27.756 536.431 27.168V24.192C536.431 23.604 536.559 23.084 536.815 22.632C537.075 22.18 537.431 21.826 537.883 21.57C538.335 21.31 538.855 21.18 539.443 21.18C540.031 21.18 540.551 21.31 541.003 21.57C541.455 21.826 541.809 22.18 542.065 22.632C542.325 23.084 542.455 23.604 542.455 24.192V27.168C542.455 27.756 542.325 28.276 542.065 28.728C541.809 29.18 541.455 29.536 541.003 29.796C540.551 30.052 540.031 30.18 539.443 30.18ZM539.443 28.98C539.763 28.98 540.053 28.904 540.313 28.752C540.577 28.596 540.787 28.388 540.943 28.128C541.099 27.864 541.177 27.57 541.177 27.246V24.102C541.177 23.782 541.099 23.492 540.943 23.232C540.787 22.968 540.577 22.76 540.313 22.608C540.053 22.452 539.763 22.374 539.443 22.374C539.123 22.374 538.831 22.452 538.567 22.608C538.307 22.76 538.099 22.968 537.943 23.232C537.787 23.492 537.709 23.782 537.709 24.102V27.246C537.709 27.57 537.787 27.864 537.943 28.128C538.099 28.388 538.307 28.596 538.567 28.752C538.831 28.904 539.123 28.98 539.443 28.98ZM544.29 29.994L544.296 28.878L548.058 25.506C548.362 25.238 548.568 24.982 548.676 24.738C548.788 24.494 548.844 24.25 548.844 24.006C548.844 23.698 548.776 23.422 548.64 23.178C548.504 22.93 548.316 22.734 548.076 22.59C547.836 22.446 547.56 22.374 547.248 22.374C546.928 22.374 546.642 22.45 546.39 22.602C546.142 22.75 545.948 22.948 545.808 23.196C545.668 23.444 545.6 23.712 545.604 24H544.32C544.32 23.44 544.446 22.95 544.698 22.53C544.954 22.106 545.304 21.776 545.748 21.54C546.192 21.3 546.7 21.18 547.272 21.18C547.816 21.18 548.304 21.304 548.736 21.552C549.168 21.796 549.508 22.132 549.756 22.56C550.008 22.988 550.134 23.476 550.134 24.024C550.134 24.42 550.082 24.756 549.978 25.032C549.874 25.308 549.718 25.564 549.51 25.8C549.302 26.036 549.042 26.292 548.73 26.568L545.826 29.16L545.688 28.8H550.134V29.994H544.29ZM554.391 30.162C553.963 30.162 553.561 30.082 553.185 29.922C552.809 29.758 552.483 29.526 552.207 29.226C551.935 28.926 551.737 28.572 551.613 28.164L552.825 27.828C552.941 28.2 553.143 28.486 553.431 28.686C553.719 28.882 554.039 28.978 554.391 28.974C554.707 28.97 554.985 28.896 555.225 28.752C555.465 28.608 555.653 28.414 555.789 28.17C555.925 27.922 555.993 27.638 555.993 27.318C555.993 26.838 555.843 26.442 555.543 26.13C555.247 25.818 554.859 25.662 554.379 25.662C554.243 25.662 554.103 25.682 553.959 25.722C553.819 25.762 553.687 25.814 553.563 25.878L552.975 24.888L556.023 22.194L556.155 22.554H551.955V21.36H557.151V22.554L554.619 24.99L554.607 24.582C555.151 24.582 555.623 24.704 556.023 24.948C556.423 25.188 556.731 25.516 556.947 25.932C557.167 26.344 557.277 26.806 557.277 27.318C557.277 27.87 557.147 28.36 556.887 28.788C556.631 29.216 556.285 29.552 555.849 29.796C555.417 30.04 554.931 30.162 554.391 30.162Z" fill="#64748B"/>
<path d="M22.192 73.4V70.52H25.456V73.4H22.192ZM22.192 54.224V51.344H25.456V54.224H22.192ZM23.848 71.36C22.608 71.36 21.5 71.132 20.524 70.676C19.548 70.212 18.752 69.56 18.136 68.72C17.52 67.872 17.128 66.872 16.96 65.72L20.2 65.216C20.416 66.16 20.868 66.912 21.556 67.472C22.252 68.032 23.08 68.312 24.04 68.312C24.944 68.312 25.692 68.1 26.284 67.676C26.884 67.252 27.184 66.728 27.184 66.104C27.184 65.68 27.052 65.332 26.788 65.06C26.532 64.78 26.128 64.552 25.576 64.376L21.304 63.056C18.84 62.296 17.608 60.792 17.608 58.544C17.608 57.488 17.856 56.572 18.352 55.796C18.856 55.02 19.564 54.424 20.476 54.008C21.396 53.584 22.48 53.376 23.728 53.384C24.872 53.4 25.888 53.608 26.776 54.008C27.664 54.4 28.404 54.972 28.996 55.724C29.596 56.468 30.032 57.376 30.304 58.448L26.944 59.048C26.832 58.536 26.624 58.088 26.32 57.704C26.016 57.312 25.636 57.008 25.18 56.792C24.732 56.568 24.232 56.448 23.68 56.432C23.152 56.416 22.672 56.492 22.24 56.66C21.816 56.828 21.476 57.064 21.22 57.368C20.972 57.664 20.848 58 20.848 58.376C20.848 58.792 21.024 59.152 21.376 59.456C21.728 59.752 22.288 60.008 23.056 60.224L26.104 61.088C27.632 61.528 28.732 62.124 29.404 62.876C30.084 63.628 30.424 64.624 30.424 65.864C30.424 66.952 30.148 67.908 29.596 68.732C29.044 69.556 28.272 70.2 27.28 70.664C26.296 71.128 25.152 71.36 23.848 71.36ZM36.055 71V57.272L32.815 59.264V55.664L36.055 53.72H39.391V71H36.055ZM50.3614 71.36C49.0814 71.36 47.9614 71.092 47.0014 70.556C46.0414 70.02 45.2934 69.272 44.7574 68.312C44.2214 67.352 43.9534 66.232 43.9534 64.952V59.768C43.9534 58.488 44.2214 57.368 44.7574 56.408C45.2934 55.448 46.0414 54.7 47.0014 54.164C47.9614 53.628 49.0814 53.36 50.3614 53.36C51.6414 53.36 52.7614 53.628 53.7214 54.164C54.6814 54.7 55.4294 55.448 55.9654 56.408C56.5014 57.368 56.7694 58.488 56.7694 59.768V64.952C56.7694 66.232 56.5014 67.352 55.9654 68.312C55.4294 69.272 54.6814 70.02 53.7214 70.556C52.7614 71.092 51.6414 71.36 50.3614 71.36ZM50.3614 68.264C50.9374 68.264 51.4574 68.128 51.9214 67.856C52.3854 67.584 52.7534 67.216 53.0254 66.752C53.2974 66.288 53.4334 65.768 53.4334 65.192V59.504C53.4334 58.928 53.2974 58.408 53.0254 57.944C52.7534 57.48 52.3854 57.112 51.9214 56.84C51.4574 56.568 50.9374 56.432 50.3614 56.432C49.7854 56.432 49.2654 56.568 48.8014 56.84C48.3374 57.112 47.9694 57.48 47.6974 57.944C47.4254 58.408 47.2894 58.928 47.2894 59.504V65.192C47.2894 65.768 47.4254 66.288 47.6974 66.752C47.9694 67.216 48.3374 67.584 48.8014 67.856C49.2654 68.128 49.7854 68.264 50.3614 68.264ZM60.9893 71L66.7973 56.792H59.4053V53.72H70.3013V56.792L64.5173 71H60.9893ZM72.94 74.24L73.132 72.872C73.516 72.904 73.828 72.84 74.068 72.68C74.308 72.528 74.472 72.304 74.56 72.008C74.656 71.72 74.676 71.384 74.62 71H72.94V67.736H76.204V71C76.204 72.152 75.936 73.024 75.4 73.616C74.864 74.208 74.044 74.416 72.94 74.24ZM81.6378 71L87.4458 56.792H80.0538V53.72H90.9498V56.792L85.1658 71H81.6378ZM96.8284 71V57.272L93.5884 59.264V55.664L96.8284 53.72H100.164V71H96.8284ZM111.759 71V68.312H104.247V65.264L109.695 53.72H113.439L107.991 65.264H111.759V60.944H115.071V65.264H116.607V68.312H115.071V71H111.759Z" fill="#121A26"/>
<path d="M122.349 58.04H123.708L120.252 71H118.893L122.349 58.04ZM127.637 75.32L129.518 70.217L129.545 71.729L125.288 61.28H126.692L130.184 70.019H129.608L132.83 61.28H134.18L128.96 75.32H127.637ZM139.705 71.27C138.757 71.27 137.935 71.06 137.239 70.64C136.549 70.22 136.012 69.629 135.628 68.867C135.244 68.105 135.052 67.211 135.052 66.185C135.052 65.123 135.241 64.205 135.619 63.431C135.997 62.657 136.528 62.06 137.212 61.64C137.902 61.22 138.715 61.01 139.651 61.01C140.611 61.01 141.43 61.232 142.108 61.676C142.786 62.114 143.299 62.744 143.647 63.566C143.995 64.388 144.154 65.369 144.124 66.509H142.774V66.041C142.75 64.781 142.477 63.83 141.955 63.188C141.439 62.546 140.683 62.225 139.687 62.225C138.643 62.225 137.842 62.564 137.284 63.242C136.732 63.92 136.456 64.886 136.456 66.14C136.456 67.364 136.732 68.315 137.284 68.993C137.842 69.665 138.631 70.001 139.651 70.001C140.347 70.001 140.953 69.842 141.469 69.524C141.991 69.2 142.402 68.735 142.702 68.129L143.935 68.606C143.551 69.452 142.984 70.109 142.234 70.577C141.49 71.039 140.647 71.27 139.705 71.27ZM135.988 66.509V65.402H143.413V66.509H135.988ZM148.926 71.27C148.194 71.27 147.579 71.138 147.081 70.874C146.589 70.61 146.22 70.259 145.974 69.821C145.728 69.383 145.605 68.906 145.605 68.39C145.605 67.862 145.71 67.412 145.92 67.04C146.136 66.662 146.427 66.353 146.793 66.113C147.165 65.873 147.594 65.69 148.08 65.564C148.572 65.444 149.115 65.339 149.709 65.249C150.309 65.153 150.894 65.072 151.464 65.006C152.04 64.934 152.544 64.865 152.976 64.799L152.508 65.087C152.526 64.127 152.34 63.416 151.95 62.954C151.56 62.492 150.882 62.261 149.916 62.261C149.25 62.261 148.686 62.411 148.224 62.711C147.768 63.011 147.447 63.485 147.261 64.133L145.974 63.755C146.196 62.885 146.643 62.21 147.315 61.73C147.987 61.25 148.86 61.01 149.934 61.01C150.822 61.01 151.575 61.178 152.193 61.514C152.817 61.844 153.258 62.324 153.516 62.954C153.636 63.236 153.714 63.551 153.75 63.899C153.786 64.247 153.804 64.601 153.804 64.961V71H152.625V68.561L152.967 68.705C152.637 69.539 152.124 70.175 151.428 70.613C150.732 71.051 149.898 71.27 148.926 71.27ZM149.079 70.127C149.697 70.127 150.237 70.016 150.699 69.794C151.161 69.572 151.533 69.269 151.815 68.885C152.097 68.495 152.28 68.057 152.364 67.571C152.436 67.259 152.475 66.917 152.481 66.545C152.487 66.167 152.49 65.885 152.49 65.699L152.994 65.96C152.544 66.02 152.055 66.08 151.527 66.14C151.005 66.2 150.489 66.269 149.979 66.347C149.475 66.425 149.019 66.518 148.611 66.626C148.335 66.704 148.068 66.815 147.81 66.959C147.552 67.097 147.339 67.283 147.171 67.517C147.009 67.751 146.928 68.042 146.928 68.39C146.928 68.672 146.997 68.945 147.135 69.209C147.279 69.473 147.507 69.692 147.819 69.866C148.137 70.04 148.557 70.127 149.079 70.127ZM156.347 71V61.28H157.535V63.62L157.301 63.314C157.409 63.026 157.55 62.762 157.724 62.522C157.898 62.276 158.087 62.075 158.291 61.919C158.543 61.697 158.837 61.529 159.173 61.415C159.509 61.295 159.848 61.226 160.19 61.208C160.532 61.184 160.844 61.208 161.126 61.28V62.522C160.772 62.432 160.385 62.411 159.965 62.459C159.545 62.507 159.158 62.675 158.804 62.963C158.48 63.215 158.237 63.518 158.075 63.872C157.913 64.22 157.805 64.592 157.751 64.988C157.697 65.378 157.67 65.765 157.67 66.149V71H156.347Z" fill="#64748B"/>
<path d="M16 233C16 231.141 16 230.212 16.1537 229.439C16.785 226.266 19.2658 223.785 22.4393 223.154C23.2121 223 24.1414 223 26 223H41.2857C43.1443 223 44.0736 223 44.8464 223.154C48.02 223.785 50.5007 226.266 51.132 229.439C51.2857 230.212 51.2857 231.141 51.2857 233H16Z" fill="#ffa941"/>
<path d="M59.2856 223C59.2856 219.272 59.2856 217.409 59.8946 215.939C60.7066 213.978 62.264 212.421 64.2242 211.609C65.6943 211 67.5581 211 71.2856 211H82.5714C86.2989 211 88.1627 211 98.1328 211.609C91.593 212.421 93.1504 213.978 93.9624 215.939C94.5714 217.409 94.5714 219.272 94.5714 223V233H59.2856V223Z" fill="#ffa941"/>
<path d="M102.572 208C102.572 204.272 102.572 202.409 103.18 200.939C103.992 198.978 105.55 197.421 107.51 196.609C108.98 196 110.844 196 114.572 196H125.857C129.585 196 131.449 196 132.919 196.609C134.879 197.421 136.436 198.978 137.248 200.939C137.857 202.409 137.857 204.272 137.857 208V233H102.572V208Z" fill="#ffa941"/>
<path d="M145.857 121C145.857 117.272 145.857 115.409 146.466 113.939C147.278 111.978 148.835 110.421 150.795 109.609C152.266 109 154.129 109 157.857 109H169.143C172.87 109 174.734 109 176.204 109.609C178.164 110.421 179.722 111.978 180.534 113.939C181.143 115.409 181.143 117.272 181.143 121V233H145.857V121Z" fill="#7366ff"/>
<path d="M189.143 137C189.143 133.272 189.143 131.409 189.752 129.939C190.564 127.978 192.121 126.421 194.082 125.609C195.552 125 197.416 125 201.143 125H212.429C216.156 125 218.02 125 219.49 125.609C221.45 126.421 223.008 127.978 223.82 129.939C224.429 131.409 224.429 133.272 224.429 137V233H189.143V137Z" fill="#ffa941"/>
<path d="M232.429 227C232.429 223.272 232.429 221.409 233.038 219.939C233.85 217.978 235.407 216.421 237.367 215.609C238.837 215 240.701 215 244.429 215H255.714C259.442 215 261.306 215 262.776 215.609C264.736 216.421 266.294 217.978 267.105 219.939C267.714 221.409 267.714 223.272 267.714 227V233H232.429V227Z" fill="#ffa941"/>
<path d="M275.714 233C275.714 229.134 278.848 226 282.714 226H304C307.866 226 311 229.134 311 233H275.714Z" fill="#ffa941"/>
<g filter="url(#filter0_d_78_1162)">
<rect x="185.603" y="109" width="92" height="52" rx="12" fill="white" shape-rendering="crispEdges"/>
<path d="M195.803 130L198.283 122.8H199.258L201.738 130H200.973L198.618 123.21H198.908L196.568 130H195.803ZM196.908 128.255V127.565H200.628V128.255H196.908ZM204.1 130L202.14 124.6H202.885L204.48 129.04L206.065 124.6H206.82L204.86 130H204.1ZM210.208 130.15C209.681 130.15 209.225 130.033 208.838 129.8C208.455 129.567 208.156 129.238 207.943 128.815C207.73 128.392 207.623 127.895 207.623 127.325C207.623 126.735 207.728 126.225 207.938 125.795C208.148 125.365 208.443 125.033 208.823 124.8C209.206 124.567 209.658 124.45 210.178 124.45C210.711 124.45 211.166 124.573 211.543 124.82C211.92 125.063 212.205 125.413 212.398 125.87C212.591 126.327 212.68 126.872 212.663 127.505H211.913V127.245C211.9 126.545 211.748 126.017 211.458 125.66C211.171 125.303 210.751 125.125 210.198 125.125C209.618 125.125 209.173 125.313 208.863 125.69C208.556 126.067 208.403 126.603 208.403 127.3C208.403 127.98 208.556 128.508 208.863 128.885C209.173 129.258 209.611 129.445 210.178 129.445C210.565 129.445 210.901 129.357 211.188 129.18C211.478 129 211.706 128.742 211.873 128.405L212.558 128.67C212.345 129.14 212.03 129.505 211.613 129.765C211.2 130.022 210.731 130.15 210.208 130.15ZM208.143 127.505V126.89H212.268V127.505H208.143ZM214.172 130V124.6H214.832V125.9L214.702 125.73C214.762 125.57 214.841 125.423 214.937 125.29C215.034 125.153 215.139 125.042 215.252 124.955C215.392 124.832 215.556 124.738 215.742 124.675C215.929 124.608 216.117 124.57 216.307 124.56C216.497 124.547 216.671 124.56 216.827 124.6V125.29C216.631 125.24 216.416 125.228 216.182 125.255C215.949 125.282 215.734 125.375 215.537 125.535C215.357 125.675 215.222 125.843 215.132 126.04C215.042 126.233 214.982 126.44 214.952 126.66C214.922 126.877 214.907 127.092 214.907 127.305V130H214.172ZM219.516 130.15C219.109 130.15 218.768 130.077 218.491 129.93C218.218 129.783 218.013 129.588 217.876 129.345C217.739 129.102 217.671 128.837 217.671 128.55C217.671 128.257 217.729 128.007 217.846 127.8C217.966 127.59 218.128 127.418 218.331 127.285C218.538 127.152 218.776 127.05 219.046 126.98C219.319 126.913 219.621 126.855 219.951 126.805C220.284 126.752 220.609 126.707 220.926 126.67C221.246 126.63 221.526 126.592 221.766 126.555L221.506 126.715C221.516 126.182 221.413 125.787 221.196 125.53C220.979 125.273 220.603 125.145 220.066 125.145C219.696 125.145 219.383 125.228 219.126 125.395C218.873 125.562 218.694 125.825 218.591 126.185L217.876 125.975C217.999 125.492 218.248 125.117 218.621 124.85C218.994 124.583 219.479 124.45 220.076 124.45C220.569 124.45 220.988 124.543 221.331 124.73C221.678 124.913 221.923 125.18 222.066 125.53C222.133 125.687 222.176 125.862 222.196 126.055C222.216 126.248 222.226 126.445 222.226 126.645V130H221.571V128.645L221.761 128.725C221.578 129.188 221.293 129.542 220.906 129.785C220.519 130.028 220.056 130.15 219.516 130.15ZM219.601 129.515C219.944 129.515 220.244 129.453 220.501 129.33C220.758 129.207 220.964 129.038 221.121 128.825C221.278 128.608 221.379 128.365 221.426 128.095C221.466 127.922 221.488 127.732 221.491 127.525C221.494 127.315 221.496 127.158 221.496 127.055L221.776 127.2C221.526 127.233 221.254 127.267 220.961 127.3C220.671 127.333 220.384 127.372 220.101 127.415C219.821 127.458 219.568 127.51 219.341 127.57C219.188 127.613 219.039 127.675 218.896 127.755C218.753 127.832 218.634 127.935 218.541 128.065C218.451 128.195 218.406 128.357 218.406 128.55C218.406 128.707 218.444 128.858 218.521 129.005C218.601 129.152 218.728 129.273 218.901 129.37C219.078 129.467 219.311 129.515 219.601 129.515ZM226.073 132.55C225.796 132.55 225.523 132.508 225.253 132.425C224.986 132.345 224.739 132.217 224.513 132.04C224.286 131.867 224.096 131.64 223.943 131.36L224.608 130.99C224.758 131.29 224.968 131.505 225.238 131.635C225.511 131.768 225.789 131.835 226.073 131.835C226.463 131.835 226.778 131.762 227.018 131.615C227.261 131.472 227.438 131.258 227.548 130.975C227.658 130.692 227.711 130.338 227.708 129.915V128.475H227.793V124.6H228.448V129.925C228.448 130.078 228.443 130.225 228.433 130.365C228.426 130.508 228.411 130.648 228.388 130.785C228.324 131.188 228.193 131.52 227.993 131.78C227.796 132.04 227.536 132.233 227.213 132.36C226.893 132.487 226.513 132.55 226.073 132.55ZM226.023 130.15C225.519 130.15 225.089 130.025 224.733 129.775C224.376 129.522 224.103 129.18 223.913 128.75C223.723 128.32 223.628 127.835 223.628 127.295C223.628 126.758 223.721 126.275 223.908 125.845C224.098 125.415 224.369 125.075 224.723 124.825C225.076 124.575 225.499 124.45 225.993 124.45C226.499 124.45 226.926 124.573 227.273 124.82C227.619 125.067 227.881 125.405 228.058 125.835C228.238 126.262 228.328 126.748 228.328 127.295C228.328 127.832 228.239 128.317 228.063 128.75C227.886 129.18 227.626 129.522 227.283 129.775C226.939 130.025 226.519 130.15 226.023 130.15ZM226.098 129.465C226.481 129.465 226.798 129.372 227.048 129.185C227.298 128.998 227.484 128.742 227.608 128.415C227.731 128.085 227.793 127.712 227.793 127.295C227.793 126.872 227.731 126.498 227.608 126.175C227.484 125.848 227.298 125.593 227.048 125.41C226.801 125.227 226.489 125.135 226.113 125.135C225.726 125.135 225.406 125.23 225.153 125.42C224.899 125.61 224.711 125.868 224.588 126.195C224.468 126.522 224.408 126.888 224.408 127.295C224.408 127.705 224.469 128.075 224.593 128.405C224.719 128.732 224.908 128.99 225.158 129.18C225.408 129.37 225.721 129.465 226.098 129.465ZM232.531 130.15C232.004 130.15 231.547 130.033 231.161 129.8C230.777 129.567 230.479 129.238 230.266 128.815C230.052 128.392 229.946 127.895 229.946 127.325C229.946 126.735 230.051 126.225 230.261 125.795C230.471 125.365 230.766 125.033 231.146 124.8C231.529 124.567 231.981 124.45 232.501 124.45C233.034 124.45 233.489 124.573 233.866 124.82C234.242 125.063 234.527 125.413 234.721 125.87C234.914 126.327 235.002 126.872 234.986 127.505H234.236V127.245C234.222 126.545 234.071 126.017 233.781 125.66C233.494 125.303 233.074 125.125 232.521 125.125C231.941 125.125 231.496 125.313 231.186 125.69C230.879 126.067 230.726 126.603 230.726 127.3C230.726 127.98 230.879 128.508 231.186 128.885C231.496 129.258 231.934 129.445 232.501 129.445C232.887 129.445 233.224 129.357 233.511 129.18C233.801 129 234.029 128.742 234.196 128.405L234.881 128.67C234.667 129.14 234.352 129.505 233.936 129.765C233.522 130.022 233.054 130.15 232.531 130.15ZM230.466 127.505V126.89H234.591V127.505H230.466Z" fill="#64748B"/>
<path d="M197.553 147V141.28L196.203 142.11V140.61L197.553 139.8H198.943V147H197.553ZM200.743 148.35L200.823 147.78C200.983 147.793 201.113 147.767 201.213 147.7C201.313 147.637 201.381 147.543 201.418 147.42C201.458 147.3 201.466 147.16 201.443 147H200.743V145.64H202.103V147C202.103 147.48 201.991 147.843 201.768 148.09C201.545 148.337 201.203 148.423 200.743 148.35ZM206.917 147.15C206.441 147.15 206.012 147.038 205.632 146.815C205.256 146.592 204.957 146.282 204.737 145.885C204.517 145.485 204.407 145.023 204.407 144.5V142.41C204.407 141.843 204.517 141.355 204.737 140.945C204.957 140.532 205.267 140.215 205.667 139.995C206.067 139.772 206.537 139.66 207.077 139.66C207.427 139.66 207.761 139.712 208.077 139.815C208.394 139.918 208.684 140.093 208.947 140.34L207.977 141.31C207.857 141.19 207.719 141.097 207.562 141.03C207.406 140.963 207.244 140.93 207.077 140.93C206.817 140.93 206.591 140.992 206.397 141.115C206.207 141.235 206.059 141.393 205.952 141.59C205.849 141.783 205.797 141.99 205.797 142.21V143.28L205.567 143.03C205.774 142.82 206.012 142.66 206.282 142.55C206.556 142.437 206.837 142.38 207.127 142.38C207.581 142.38 207.979 142.482 208.322 142.685C208.669 142.888 208.939 143.167 209.132 143.52C209.329 143.873 209.427 144.277 209.427 144.73C209.427 145.183 209.312 145.593 209.082 145.96C208.852 146.323 208.547 146.613 208.167 146.83C207.787 147.043 207.371 147.15 206.917 147.15ZM206.917 145.85C207.124 145.85 207.312 145.8 207.482 145.7C207.656 145.6 207.792 145.465 207.892 145.295C207.996 145.125 208.047 144.937 208.047 144.73C208.047 144.523 207.997 144.335 207.897 144.165C207.797 143.992 207.662 143.855 207.492 143.755C207.322 143.652 207.134 143.6 206.927 143.6C206.721 143.6 206.531 143.652 206.357 143.755C206.187 143.855 206.051 143.992 205.947 144.165C205.847 144.335 205.797 144.523 205.797 144.73C205.797 144.93 205.847 145.115 205.947 145.285C206.047 145.455 206.182 145.592 206.352 145.695C206.522 145.798 206.711 145.85 206.917 145.85ZM213.958 147V145.88H210.828V144.61L213.098 139.8H214.658L212.388 144.61H213.958V142.81H215.338V144.61H215.978V145.88H215.338V147H213.958ZM219.72 147.15C219.357 147.15 219.015 147.075 218.695 146.925C218.379 146.775 218.105 146.567 217.875 146.3C217.645 146.033 217.48 145.723 217.38 145.37L218.69 145.02C218.734 145.19 218.81 145.337 218.92 145.46C219.034 145.583 219.164 145.68 219.31 145.75C219.46 145.817 219.614 145.85 219.77 145.85C219.977 145.85 220.165 145.8 220.335 145.7C220.509 145.6 220.645 145.465 220.745 145.295C220.849 145.125 220.9 144.937 220.9 144.73C220.9 144.523 220.849 144.335 220.745 144.165C220.645 143.995 220.509 143.86 220.335 143.76C220.165 143.66 219.977 143.61 219.77 143.61C219.517 143.61 219.31 143.653 219.15 143.74C218.99 143.823 218.87 143.903 218.79 143.98L217.64 143.63L217.86 139.8H221.79V141.07H218.61L219.09 140.62L218.94 143.09L218.71 142.81C218.89 142.663 219.095 142.557 219.325 142.49C219.555 142.423 219.77 142.39 219.97 142.39C220.424 142.39 220.822 142.492 221.165 142.695C221.512 142.895 221.782 143.172 221.975 143.525C222.172 143.875 222.27 144.277 222.27 144.73C222.27 145.183 222.152 145.593 221.915 145.96C221.679 146.323 221.367 146.613 220.98 146.83C220.594 147.043 220.174 147.15 219.72 147.15ZM228.381 147.15C227.701 147.15 227.151 146.997 226.731 146.69C226.314 146.38 226.061 145.943 225.971 145.38L227.361 145.17C227.418 145.423 227.543 145.622 227.736 145.765C227.933 145.908 228.181 145.98 228.481 145.98C228.728 145.98 228.918 145.933 229.051 145.84C229.184 145.743 229.251 145.61 229.251 145.44C229.251 145.333 229.224 145.248 229.171 145.185C229.118 145.118 228.998 145.053 228.811 144.99C228.628 144.927 228.341 144.843 227.951 144.74C227.511 144.627 227.159 144.5 226.896 144.36C226.633 144.22 226.443 144.053 226.326 143.86C226.209 143.663 226.151 143.427 226.151 143.15C226.151 142.803 226.239 142.503 226.416 142.25C226.593 141.993 226.841 141.797 227.161 141.66C227.484 141.52 227.864 141.45 228.301 141.45C228.724 141.45 229.099 141.515 229.426 141.645C229.753 141.775 230.016 141.96 230.216 142.2C230.419 142.44 230.544 142.723 230.591 143.05L229.201 143.3C229.178 143.1 229.091 142.942 228.941 142.825C228.791 142.708 228.588 142.64 228.331 142.62C228.081 142.603 227.879 142.637 227.726 142.72C227.576 142.803 227.501 142.923 227.501 143.08C227.501 143.173 227.533 143.252 227.596 143.315C227.663 143.378 227.798 143.443 228.001 143.51C228.208 143.577 228.521 143.663 228.941 143.77C229.351 143.877 229.679 144.002 229.926 144.145C230.176 144.285 230.358 144.455 230.471 144.655C230.584 144.852 230.641 145.09 230.641 145.37C230.641 145.923 230.441 146.358 230.041 146.675C229.641 146.992 229.088 147.15 228.381 147.15ZM233.64 147.15C233.253 147.15 232.925 147.077 232.655 146.93C232.388 146.78 232.185 146.582 232.045 146.335C231.908 146.085 231.84 145.81 231.84 145.51C231.84 145.26 231.878 145.032 231.955 144.825C232.031 144.618 232.155 144.437 232.325 144.28C232.498 144.12 232.73 143.987 233.02 143.88C233.22 143.807 233.458 143.742 233.735 143.685C234.011 143.628 234.325 143.575 234.675 143.525C235.025 143.472 235.41 143.413 235.83 143.35L235.34 143.62C235.34 143.3 235.263 143.065 235.11 142.915C234.956 142.765 234.7 142.69 234.34 142.69C234.14 142.69 233.931 142.738 233.715 142.835C233.498 142.932 233.346 143.103 233.26 143.35L232.03 142.96C232.166 142.513 232.423 142.15 232.8 141.87C233.176 141.59 233.69 141.45 234.34 141.45C234.816 141.45 235.24 141.523 235.61 141.67C235.98 141.817 236.26 142.07 236.45 142.43C236.556 142.63 236.62 142.83 236.64 143.03C236.66 143.23 236.67 143.453 236.67 143.7V147H235.48V145.89L235.65 146.12C235.386 146.483 235.101 146.747 234.795 146.91C234.491 147.07 234.106 147.15 233.64 147.15ZM233.93 146.08C234.18 146.08 234.39 146.037 234.56 145.95C234.733 145.86 234.87 145.758 234.97 145.645C235.073 145.532 235.143 145.437 235.18 145.36C235.25 145.213 235.29 145.043 235.3 144.85C235.313 144.653 235.32 144.49 235.32 144.36L235.72 144.46C235.316 144.527 234.99 144.583 234.74 144.63C234.49 144.673 234.288 144.713 234.135 144.75C233.981 144.787 233.846 144.827 233.73 144.87C233.596 144.923 233.488 144.982 233.405 145.045C233.325 145.105 233.265 145.172 233.225 145.245C233.188 145.318 233.17 145.4 233.17 145.49C233.17 145.613 233.2 145.72 233.26 145.81C233.323 145.897 233.411 145.963 233.525 146.01C233.638 146.057 233.773 146.08 233.93 146.08ZM238.47 147V139.65H239.83V147H238.47ZM243.229 147.15C242.842 147.15 242.514 147.077 242.244 146.93C241.977 146.78 241.774 146.582 241.634 146.335C241.497 146.085 241.429 145.81 241.429 145.51C241.429 145.26 241.467 145.032 241.544 144.825C241.62 144.618 241.744 144.437 241.914 144.28C242.087 144.12 242.319 143.987 242.609 143.88C242.809 143.807 243.047 143.742 243.324 143.685C243.6 143.628 243.914 143.575 244.264 143.525C244.614 143.472 244.999 143.413 245.419 143.35L244.929 143.62C244.929 143.3 244.852 143.065 244.699 142.915C244.545 142.765 244.289 142.69 243.929 142.69C243.729 142.69 243.52 142.738 243.304 142.835C243.087 142.932 242.935 143.103 242.849 143.35L241.619 142.96C241.755 142.513 242.012 142.15 242.389 141.87C242.765 141.59 243.279 141.45 243.929 141.45C244.405 141.45 244.829 141.523 245.199 141.67C245.569 141.817 245.849 142.07 246.039 142.43C246.145 142.63 246.209 142.83 246.229 143.03C246.249 143.23 246.259 143.453 246.259 143.7V147H245.069V145.89L245.239 146.12C244.975 146.483 244.69 146.747 244.384 146.91C244.08 147.07 243.695 147.15 243.229 147.15ZM243.519 146.08C243.769 146.08 243.979 146.037 244.149 145.95C244.322 145.86 244.459 145.758 244.559 145.645C244.662 145.532 244.732 145.437 244.769 145.36C244.839 145.213 244.879 145.043 244.889 144.85C244.902 144.653 244.909 144.49 244.909 144.36L245.309 144.46C244.905 144.527 244.579 144.583 244.329 144.63C244.079 144.673 243.877 144.713 243.724 144.75C243.57 144.787 243.435 144.827 243.319 144.87C243.185 144.923 243.077 144.982 242.994 145.045C242.914 145.105 242.854 145.172 242.814 145.245C242.777 145.318 242.759 145.4 242.759 145.49C242.759 145.613 242.789 145.72 242.849 145.81C242.912 145.897 243 145.963 243.114 146.01C243.227 146.057 243.362 146.08 243.519 146.08ZM247.959 147V141.6H249.159V142.92L249.029 142.75C249.099 142.563 249.192 142.393 249.309 142.24C249.425 142.087 249.569 141.96 249.739 141.86C249.869 141.78 250.01 141.718 250.164 141.675C250.317 141.628 250.475 141.6 250.639 141.59C250.802 141.577 250.965 141.58 251.129 141.6V142.87C250.979 142.823 250.804 142.808 250.604 142.825C250.407 142.838 250.229 142.883 250.069 142.96C249.909 143.033 249.774 143.132 249.664 143.255C249.554 143.375 249.47 143.518 249.414 143.685C249.357 143.848 249.329 144.033 249.329 144.24V147H247.959ZM252.58 140.85V139.65H253.94V140.85H252.58ZM252.58 147V141.6H253.94V147H252.58ZM258.349 147.15C257.796 147.15 257.307 147.032 256.884 146.795C256.464 146.555 256.134 146.227 255.894 145.81C255.657 145.39 255.539 144.91 255.539 144.37C255.539 143.78 255.656 143.267 255.889 142.83C256.122 142.393 256.444 142.055 256.854 141.815C257.264 141.572 257.736 141.45 258.269 141.45C258.836 141.45 259.317 141.583 259.714 141.85C260.111 142.117 260.404 142.492 260.594 142.975C260.784 143.458 260.851 144.027 260.794 144.68H259.449V144.18C259.449 143.63 259.361 143.235 259.184 142.995C259.011 142.752 258.726 142.63 258.329 142.63C257.866 142.63 257.524 142.772 257.304 143.055C257.087 143.335 256.979 143.75 256.979 144.3C256.979 144.803 257.087 145.193 257.304 145.47C257.524 145.743 257.846 145.88 258.269 145.88C258.536 145.88 258.764 145.822 258.954 145.705C259.144 145.588 259.289 145.42 259.389 145.2L260.749 145.59C260.546 146.083 260.224 146.467 259.784 146.74C259.347 147.013 258.869 147.15 258.349 147.15ZM256.559 144.68V143.67H260.139V144.68H256.559ZM264.433 147.15C263.753 147.15 263.203 146.997 262.783 146.69C262.366 146.38 262.113 145.943 262.023 145.38L263.413 145.17C263.47 145.423 263.595 145.622 263.788 145.765C263.985 145.908 264.233 145.98 264.533 145.98C264.78 145.98 264.97 145.933 265.103 145.84C265.236 145.743 265.303 145.61 265.303 145.44C265.303 145.333 265.276 145.248 265.223 145.185C265.17 145.118 265.05 145.053 264.863 144.99C264.68 144.927 264.393 144.843 264.003 144.74C263.563 144.627 263.211 144.5 262.948 144.36C262.685 144.22 262.495 144.053 262.378 143.86C262.261 143.663 262.203 143.427 262.203 143.15C262.203 142.803 262.291 142.503 262.468 142.25C262.645 141.993 262.893 141.797 263.213 141.66C263.536 141.52 263.916 141.45 264.353 141.45C264.776 141.45 265.151 141.515 265.478 141.645C265.805 141.775 266.068 141.96 266.268 142.2C266.471 142.44 266.596 142.723 266.643 143.05L265.253 143.3C265.23 143.1 265.143 142.942 264.993 142.825C264.843 142.708 264.64 142.64 264.383 142.62C264.133 142.603 263.931 142.637 263.778 142.72C263.628 142.803 263.553 142.923 263.553 143.08C263.553 143.173 263.585 143.252 263.648 143.315C263.715 143.378 263.85 143.443 264.053 143.51C264.26 143.577 264.573 143.663 264.993 143.77C265.403 143.877 265.731 144.002 265.978 144.145C266.228 144.285 266.41 144.455 266.523 144.655C266.636 144.852 266.693 145.09 266.693 145.37C266.693 145.923 266.493 146.358 266.093 146.675C265.693 146.992 265.14 147.15 264.433 147.15Z" fill="#121A26"/>
</g>
<path d="M325 229C325 227.141 325 226.212 325.154 225.439C325.785 222.266 328.266 219.785 331.439 219.154C332.212 219 333.141 219 335 219H351.2C353.059 219 353.988 219 354.761 219.154C357.934 219.785 360.415 222.266 361.046 225.439C361.2 226.212 361.2 227.141 361.2 229H325Z" fill="#ffa941"/>
<path d="M369.2 219C369.2 215.272 369.2 213.409 369.809 211.939C370.621 209.978 372.179 208.421 374.139 207.609C375.609 207 377.473 207 381.2 207H393.4C397.128 207 398.991 207 400.462 207.609C402.422 208.421 403.979 209.978 404.791 211.939C405.4 213.409 405.4 215.272 405.4 219V229H369.2V219Z" fill="#ffa941"/>
<path d="M413.4 204C413.4 200.272 413.4 198.409 414.009 196.939C414.821 194.978 416.378 193.421 418.338 192.609C419.809 192 421.672 192 425.4 192H437.6C441.327 192 443.191 192 444.661 192.609C446.622 193.421 448.179 194.978 448.991 196.939C449.6 198.409 449.6 200.272 449.6 204V229H413.4V204Z" fill="#ffa941"/>
<path d="M457.6 117C457.6 113.272 457.6 111.409 458.209 109.939C459.021 107.978 460.578 106.421 462.539 105.609C464.009 105 465.873 105 469.6 105H481.8C485.528 105 487.391 105 488.862 105.609C490.822 106.421 492.379 107.978 493.191 109.939C493.8 111.409 493.8 113.272 493.8 117V229H457.6V117Z" fill="#7366ff"/>
<path d="M501.8 133C501.8 129.272 501.8 127.409 502.409 125.939C503.221 123.978 504.778 122.421 506.738 121.609C508.209 121 510.072 121 513.8 121H526C529.727 121 531.591 121 533.061 121.609C535.021 122.421 536.579 123.978 537.391 125.939C538 127.409 538 129.272 538 133V229H501.8V133Z" fill="#ffa941"/>
<path d="M19.114 252.188V250.802H20.182V252.188H19.114ZM19.114 242.558V241.166H20.182V242.558H19.114ZM19.732 251.18C19.148 251.18 18.622 251.076 18.154 250.868C17.69 250.656 17.308 250.358 17.008 249.974C16.708 249.586 16.512 249.13 16.42 248.606L17.47 248.432C17.598 248.964 17.868 249.386 18.28 249.698C18.696 250.01 19.196 250.166 19.78 250.166C20.368 250.166 20.844 250.024 21.208 249.74C21.572 249.456 21.754 249.09 21.754 248.642C21.754 248.314 21.656 248.05 21.46 247.85C21.268 247.65 20.944 247.48 20.488 247.34L18.514 246.728C17.334 246.36 16.744 245.656 16.744 244.616C16.744 244.128 16.862 243.702 17.098 243.338C17.338 242.97 17.672 242.686 18.1 242.486C18.532 242.282 19.034 242.182 19.606 242.186C20.162 242.19 20.658 242.294 21.094 242.498C21.53 242.698 21.89 242.986 22.174 243.362C22.462 243.738 22.656 244.188 22.756 244.712L21.676 244.91C21.62 244.57 21.496 244.272 21.304 244.016C21.116 243.76 20.876 243.562 20.584 243.422C20.292 243.278 19.964 243.204 19.6 243.2C19.26 243.196 18.954 243.252 18.682 243.368C18.414 243.484 18.202 243.646 18.046 243.854C17.89 244.062 17.812 244.3 17.812 244.568C17.812 244.86 17.92 245.108 18.136 245.312C18.356 245.512 18.7 245.684 19.168 245.828L20.788 246.308C21.5 246.52 22.014 246.806 22.33 247.166C22.646 247.522 22.804 247.998 22.804 248.594C22.804 249.11 22.676 249.562 22.42 249.95C22.168 250.338 21.81 250.64 21.346 250.856C20.886 251.072 20.348 251.18 19.732 251.18ZM27.4048 251.18C26.8568 251.18 26.3588 251.048 25.9108 250.784C25.4668 250.52 25.1128 250.16 24.8488 249.704C24.5888 249.244 24.4588 248.726 24.4588 248.15V245.276C24.4588 244.672 24.5888 244.138 24.8488 243.674C25.1128 243.206 25.4728 242.842 25.9288 242.582C26.3888 242.318 26.9128 242.186 27.5008 242.186C27.9768 242.186 28.4188 242.284 28.8268 242.48C29.2388 242.672 29.5848 242.95 29.8648 243.314L29.0668 244.022C28.8948 243.77 28.6708 243.57 28.3948 243.422C28.1188 243.274 27.8208 243.2 27.5008 243.2C27.1208 243.2 26.7828 243.292 26.4868 243.476C26.1948 243.656 25.9648 243.896 25.7968 244.196C25.6288 244.492 25.5448 244.812 25.5448 245.156V246.89L25.3108 246.626C25.5628 246.266 25.8828 245.978 26.2708 245.762C26.6588 245.546 27.0788 245.438 27.5308 245.438C28.0668 245.438 28.5468 245.564 28.9708 245.816C29.3988 246.068 29.7348 246.41 29.9788 246.842C30.2268 247.27 30.3508 247.752 30.3508 248.288C30.3508 248.824 30.2168 249.31 29.9488 249.746C29.6808 250.182 29.3228 250.53 28.8748 250.79C28.4308 251.05 27.9408 251.18 27.4048 251.18ZM27.4048 250.148C27.7488 250.148 28.0628 250.066 28.3468 249.902C28.6308 249.734 28.8548 249.51 29.0188 249.23C29.1868 248.946 29.2708 248.632 29.2708 248.288C29.2708 247.944 29.1868 247.63 29.0188 247.346C28.8548 247.062 28.6308 246.838 28.3468 246.674C28.0668 246.506 27.7548 246.422 27.4108 246.422C27.0668 246.422 26.7528 246.506 26.4688 246.674C26.1888 246.838 25.9648 247.062 25.7968 247.346C25.6288 247.63 25.5448 247.944 25.5448 248.288C25.5448 248.628 25.6268 248.94 25.7908 249.224C25.9588 249.504 26.1828 249.728 26.4628 249.896C26.7468 250.064 27.0608 250.148 27.4048 250.148ZM35.2579 251.18C34.7099 251.18 34.2119 251.048 33.7639 250.784C33.3199 250.52 32.9659 250.16 32.7019 249.704C32.4419 249.244 32.3119 248.726 32.3119 248.15V245.276C32.3119 244.672 32.4419 244.138 32.7019 243.674C32.9659 243.206 33.3259 242.842 33.7819 242.582C34.2419 242.318 34.7659 242.186 35.3539 242.186C35.8299 242.186 36.2719 242.284 36.6799 242.48C37.0919 242.672 37.4379 242.95 37.7179 243.314L36.9199 244.022C36.7479 243.77 36.5239 243.57 36.2479 243.422C35.9719 243.274 35.6739 243.2 35.3539 243.2C34.9739 243.2 34.6359 243.292 34.3399 243.476C34.0479 243.656 33.8179 243.896 33.6499 244.196C33.4819 244.492 33.3979 244.812 33.3979 245.156V246.89L33.1639 246.626C33.4159 246.266 33.7359 245.978 34.1239 245.762C34.5119 245.546 34.9319 245.438 35.3839 245.438C35.9199 245.438 36.3999 245.564 36.8239 245.816C37.2519 246.068 37.5879 246.41 37.8319 246.842C38.0799 247.27 38.2039 247.752 38.2039 248.288C38.2039 248.824 38.0699 249.31 37.8019 249.746C37.5339 250.182 37.1759 250.53 36.7279 250.79C36.2839 251.05 35.7939 251.18 35.2579 251.18ZM35.2579 250.148C35.6019 250.148 35.9159 250.066 36.1999 249.902C36.4839 249.734 36.7079 249.51 36.8719 249.23C37.0399 248.946 37.1239 248.632 37.1239 248.288C37.1239 247.944 37.0399 247.63 36.8719 247.346C36.7079 247.062 36.4839 246.838 36.1999 246.674C35.9199 246.506 35.6079 246.422 35.2639 246.422C34.9199 246.422 34.6059 246.506 34.3219 246.674C34.0419 246.838 33.8179 247.062 33.6499 247.346C33.4819 247.63 33.3979 247.944 33.3979 248.288C33.3979 248.628 33.4799 248.94 33.6439 249.224C33.8119 249.504 34.0359 249.728 34.3159 249.896C34.5999 250.064 34.9139 250.148 35.2579 250.148ZM40.165 251V242.36H41.233V246.416L45.013 242.36H46.357L42.433 246.554L46.663 251H45.283L41.233 246.776V251H40.165Z" fill="#64748B"/>
<path d="M268.096 252.2V250.76H269.728V252.2H268.096ZM268.096 242.612V241.172H269.728V242.612H268.096ZM268.924 251.18C268.304 251.18 267.75 251.066 267.262 250.838C266.774 250.606 266.376 250.28 266.068 249.86C265.76 249.436 265.564 248.936 265.48 248.36L267.1 248.108C267.208 248.58 267.434 248.956 267.778 249.236C268.126 249.516 268.54 249.656 269.02 249.656C269.472 249.656 269.846 249.55 270.142 249.338C270.442 249.126 270.592 248.864 270.592 248.552C270.592 248.34 270.526 248.166 270.394 248.03C270.266 247.89 270.064 247.776 269.788 247.688L267.652 247.028C266.42 246.648 265.804 245.896 265.804 244.772C265.804 244.244 265.928 243.786 266.176 243.398C266.428 243.01 266.782 242.712 267.238 242.504C267.698 242.292 268.24 242.188 268.864 242.192C269.436 242.2 269.944 242.304 270.388 242.504C270.832 242.7 271.202 242.986 271.498 243.362C271.798 243.734 272.016 244.188 272.152 244.724L270.472 245.024C270.416 244.768 270.312 244.544 270.16 244.352C270.008 244.156 269.818 244.004 269.59 243.896C269.366 243.784 269.116 243.724 268.84 243.716C268.576 243.708 268.336 243.746 268.12 243.83C267.908 243.914 267.738 244.032 267.61 244.184C267.486 244.332 267.424 244.5 267.424 244.688C267.424 244.896 267.512 245.076 267.688 245.228C267.864 245.376 268.144 245.504 268.528 245.612L270.052 246.044C270.816 246.264 271.366 246.562 271.702 246.938C272.042 247.314 272.212 247.812 272.212 248.432C272.212 248.976 272.074 249.454 271.798 249.866C271.522 250.278 271.136 250.6 270.64 250.832C270.148 251.064 269.576 251.18 268.924 251.18ZM275.427 251V244.136L273.807 245.132V243.332L275.427 242.36H277.095V251H275.427ZM282.981 251.18C282.341 251.18 281.781 251.046 281.301 250.778C280.821 250.51 280.447 250.136 280.179 249.656C279.911 249.176 279.777 248.616 279.777 247.976V245.384C279.777 244.744 279.911 244.184 280.179 243.704C280.447 243.224 280.821 242.85 281.301 242.582C281.781 242.314 282.341 242.18 282.981 242.18C283.621 242.18 284.181 242.314 284.661 242.582C285.141 242.85 285.515 243.224 285.783 243.704C286.051 244.184 286.185 244.744 286.185 245.384V247.976C286.185 248.616 286.051 249.176 285.783 249.656C285.515 250.136 285.141 250.51 284.661 250.778C284.181 251.046 283.621 251.18 282.981 251.18ZM282.981 249.632C283.269 249.632 283.529 249.564 283.761 249.428C283.993 249.292 284.177 249.108 284.313 248.876C284.449 248.644 284.517 248.384 284.517 248.096V245.252C284.517 244.964 284.449 244.704 284.313 244.472C284.177 244.24 283.993 244.056 283.761 243.92C283.529 243.784 283.269 243.716 282.981 243.716C282.693 243.716 282.433 243.784 282.201 243.92C281.969 244.056 281.785 244.24 281.649 244.472C281.513 244.704 281.445 244.964 281.445 245.252V248.096C281.445 248.384 281.513 248.644 281.649 248.876C281.785 249.108 281.969 249.292 282.201 249.428C282.433 249.564 282.693 249.632 282.981 249.632ZM291.155 251.18C290.571 251.18 290.051 251.062 289.595 250.826C289.143 250.586 288.787 250.258 288.527 249.842C288.271 249.422 288.143 248.944 288.143 248.408C288.143 247.952 288.245 247.522 288.449 247.118C288.657 246.714 288.955 246.384 289.343 246.128L289.307 246.632C289.015 246.348 288.785 246.048 288.617 245.732C288.453 245.416 288.371 245.06 288.371 244.664C288.371 244.164 288.489 243.728 288.725 243.356C288.965 242.984 289.293 242.696 289.709 242.492C290.129 242.284 290.611 242.18 291.155 242.18C291.699 242.18 292.179 242.284 292.595 242.492C293.015 242.696 293.343 242.984 293.579 243.356C293.819 243.728 293.939 244.164 293.939 244.664C293.939 245.06 293.861 245.416 293.705 245.732C293.549 246.044 293.311 246.348 292.991 246.644V246.14C293.371 246.38 293.663 246.704 293.867 247.112C294.075 247.52 294.179 247.952 294.179 248.408C294.179 248.944 294.049 249.422 293.789 249.842C293.529 250.258 293.171 250.586 292.715 250.826C292.259 251.062 291.739 251.18 291.155 251.18ZM291.155 249.644C291.539 249.644 291.851 249.54 292.091 249.332C292.331 249.124 292.451 248.816 292.451 248.408C292.451 248.004 292.331 247.696 292.091 247.484C291.851 247.268 291.539 247.16 291.155 247.16C290.771 247.16 290.461 247.268 290.225 247.484C289.989 247.696 289.871 248.004 289.871 248.408C289.871 248.816 289.989 249.124 290.225 249.332C290.461 249.54 290.771 249.644 291.155 249.644ZM291.155 245.612C291.467 245.612 291.721 245.536 291.917 245.384C292.113 245.228 292.211 244.988 292.211 244.664C292.211 244.34 292.113 244.1 291.917 243.944C291.721 243.784 291.467 243.704 291.155 243.704C290.843 243.704 290.589 243.784 290.393 243.944C290.197 244.1 290.099 244.34 290.099 244.664C290.099 244.988 290.197 245.228 290.393 245.384C290.589 245.536 290.843 245.612 291.155 245.612ZM296.139 251V242.36H297.771V246.344L301.059 242.36H303.051L299.439 246.62L303.279 251H301.215L297.771 247.064V251H296.139Z" fill="#2969FF"/>
<path d="M525.114 252.188V250.802H526.182V252.188H525.114ZM525.114 242.558V241.166H526.182V242.558H525.114ZM525.732 251.18C525.148 251.18 524.622 251.076 524.154 250.868C523.69 250.656 523.308 250.358 523.008 249.974C522.708 249.586 522.512 249.13 522.42 248.606L523.47 248.432C523.598 248.964 523.868 249.386 524.28 249.698C524.696 250.01 525.196 250.166 525.78 250.166C526.368 250.166 526.844 250.024 527.208 249.74C527.572 249.456 527.754 249.09 527.754 248.642C527.754 248.314 527.656 248.05 527.46 247.85C527.268 247.65 526.944 247.48 526.488 247.34L524.514 246.728C523.334 246.36 522.744 245.656 522.744 244.616C522.744 244.128 522.862 243.702 523.098 243.338C523.338 242.97 523.672 242.686 524.1 242.486C524.532 242.282 525.034 242.182 525.606 242.186C526.162 242.19 526.658 242.294 527.094 242.498C527.53 242.698 527.89 242.986 528.174 243.362C528.462 243.738 528.656 244.188 528.756 244.712L527.676 244.91C527.62 244.57 527.496 244.272 527.304 244.016C527.116 243.76 526.876 243.562 526.584 243.422C526.292 243.278 525.964 243.204 525.6 243.2C525.26 243.196 524.954 243.252 524.682 243.368C524.414 243.484 524.202 243.646 524.046 243.854C523.89 244.062 523.812 244.3 523.812 244.568C523.812 244.86 523.92 245.108 524.136 245.312C524.356 245.512 524.7 245.684 525.168 245.828L526.788 246.308C527.5 246.52 528.014 246.806 528.33 247.166C528.646 247.522 528.804 247.998 528.804 248.594C528.804 249.11 528.676 249.562 528.42 249.95C528.168 250.338 527.81 250.64 527.346 250.856C526.886 251.072 526.348 251.18 525.732 251.18ZM531.965 251V243.542L530.339 244.526V243.332L531.965 242.36H533.051V251H531.965ZM538.29 251.18C537.846 251.18 537.432 251.088 537.048 250.904C536.668 250.72 536.342 250.468 536.07 250.148C535.802 249.824 535.61 249.452 535.494 249.032L536.52 248.756C536.592 249.04 536.72 249.286 536.904 249.494C537.088 249.698 537.302 249.858 537.546 249.974C537.794 250.086 538.052 250.142 538.32 250.142C538.672 250.142 538.988 250.058 539.268 249.89C539.552 249.718 539.776 249.492 539.94 249.212C540.104 248.928 540.186 248.618 540.186 248.282C540.186 247.934 540.1 247.62 539.928 247.34C539.76 247.056 539.534 246.832 539.25 246.668C538.966 246.504 538.656 246.422 538.32 246.422C537.94 246.422 537.614 246.502 537.342 246.662C537.074 246.818 536.862 247.01 536.706 247.238L535.758 246.878L536.022 242.36H540.66V243.374H536.538L537.012 242.93L536.79 246.548L536.556 246.242C536.796 245.986 537.082 245.788 537.414 245.648C537.75 245.508 538.092 245.438 538.44 245.438C538.976 245.438 539.456 245.564 539.88 245.816C540.304 246.064 540.64 246.404 540.888 246.836C541.136 247.264 541.26 247.746 541.26 248.282C541.26 248.814 541.124 249.3 540.852 249.74C540.58 250.176 540.218 250.526 539.766 250.79C539.318 251.05 538.826 251.18 538.29 251.18ZM546.011 251.18C545.451 251.18 544.951 251.054 544.511 250.802C544.075 250.546 543.729 250.2 543.473 249.764C543.221 249.324 543.095 248.824 543.095 248.264V245.096C543.095 244.536 543.221 244.036 543.473 243.596C543.729 243.156 544.075 242.81 544.511 242.558C544.951 242.306 545.451 242.18 546.011 242.18C546.571 242.18 547.071 242.306 547.511 242.558C547.951 242.81 548.297 243.156 548.549 243.596C548.801 244.036 548.927 244.536 548.927 245.096V248.264C548.927 248.824 548.801 249.324 548.549 249.764C548.297 250.2 547.951 250.546 547.511 250.802C547.071 251.054 546.571 251.18 546.011 251.18ZM546.011 250.154C546.351 250.154 546.659 250.072 546.935 249.908C547.211 249.744 547.431 249.524 547.595 249.248C547.759 248.968 547.841 248.66 547.841 248.324V245.03C547.841 244.69 547.759 244.382 547.595 244.106C547.431 243.83 547.211 243.61 546.935 243.446C546.659 243.282 546.351 243.2 546.011 243.2C545.675 243.2 545.367 243.282 545.087 243.446C544.811 243.61 544.591 243.83 544.427 244.106C544.263 244.382 544.181 244.69 544.181 245.03V248.324C544.181 248.66 544.263 248.968 544.427 249.248C544.591 249.524 544.811 249.744 545.087 249.908C545.367 250.072 545.675 250.154 546.011 250.154ZM551.006 251V242.36H552.074V246.416L555.854 242.36H557.198L553.274 246.554L557.504 251H556.124L552.074 246.776V251H551.006Z" fill="#64748B"/>
<rect x="0.5" y="0.5" width="573" height="265" rx="15.5" stroke="#E2E8F0"/>
<defs>
<filter id="filter0_d_78_1162" x="162.603" y="92" width="142" height="102" filterUnits="userSpaceOnUse" color-interpolation-filters="sRGB">
<feFlood flood-opacity="0" result="BackgroundImageFix"/>
<feColorMatrix in="SourceAlpha" type="matrix" values="0 0 0 0 0 0 0 0 0 0 0 0 0 0 0 0 0 0 127 0" result="hardAlpha"/>
<feOffset dx="2" dy="8"/>
<feGaussianBlur stdDeviation="12.5"/>
<feComposite in2="hardAlpha" operator="out"/>
<feColorMatrix type="matrix" values="0 0 0 0 0.392157 0 0 0 0 0.454902 0 0 0 0 0.545098 0 0 0 0.12 0"/>
<feBlend mode="normal" in2="BackgroundImageFix" result="effect1_dropShadow_78_1162"/>
<feBlend mode="normal" in="SourceGraphic" in2="effect1_dropShadow_78_1162" result="shape"/>
</filter>
</defs>
</svg>
