<svg width="20" height="18" viewBox="0 0 20 18" fill="none" xmlns="http://www.w3.org/2000/svg">
<path d="M19.75 17C19.75 17.414 19.414 17.75 19 17.75H2.5C1.091 17.75 0.25 16.909 0.25 15.5V1C0.25 0.586 0.586 0.25 1 0.25C1.414 0.25 1.75 0.586 1.75 1V15.5C1.75 16.089 1.911 16.25 2.5 16.25H19C19.414 16.25 19.75 16.586 19.75 17ZM5 13.75C5.414 13.75 5.75 13.414 5.75 13V10C5.75 9.586 5.414 9.25 5 9.25C4.586 9.25 4.25 9.586 4.25 10V13C4.25 13.414 4.586 13.75 5 13.75ZM9 13.75C9.414 13.75 9.75 13.414 9.75 13V6C9.75 5.586 9.414 5.25 9 5.25C8.586 5.25 8.25 5.586 8.25 6V13C8.25 13.414 8.586 13.75 9 13.75ZM13 13.75C13.414 13.75 13.75 13.414 13.75 13V8C13.75 7.586 13.414 7.25 13 7.25C12.586 7.25 12.25 7.586 12.25 8V13C12.25 13.414 12.586 13.75 13 13.75ZM17 13.75C17.414 13.75 17.75 13.414 17.75 13V2C17.75 1.586 17.414 1.25 17 1.25C16.586 1.25 16.25 1.586 16.25 2V13C16.25 13.414 16.586 13.75 17 13.75Z" fill="#25314C"/>
</svg>
