<svg width="20" height="20" viewBox="0 0 20 20" fill="none" xmlns="http://www.w3.org/2000/svg">
<path d="M19.0219 15.798C18.9749 15.652 18.938 15.435 19.029 15.237C19.501 14.225 19.7499 13.106 19.7499 12C19.7499 8.941 17.8949 6.15299 15.1129 4.92999C13.9219 2.17999 11.1829 0.25 8.00088 0.25C3.72888 0.25 0.251857 3.72602 0.251857 7.99902C0.251857 9.11202 0.498851 10.232 0.970851 11.245C1.04185 11.396 1.04479 11.593 0.98379 11.788L0.329982 13.734C0.145982 14.286 0.288808 14.885 0.701808 15.298C0.995808 15.592 1.38389 15.748 1.78189 15.748C1.94389 15.748 2.10797 15.722 2.26797 15.669L4.20083 15.019C4.40683 14.953 4.60387 14.957 4.76187 15.031C4.81187 15.054 4.86592 15.07 4.91592 15.093C6.13792 17.885 8.93388 19.749 12.0009 19.749C13.1069 19.749 14.2268 19.5 15.2328 19.031C15.4358 18.938 15.6539 18.975 15.7929 19.02L17.737 19.671C18.29 19.852 18.888 19.709 19.3 19.297C19.711 18.885 19.8538 18.287 19.6708 17.73L19.0219 15.798ZM4.48696 13.474C4.23996 13.474 3.98581 13.514 3.73281 13.595L1.75186 14.21L2.40884 12.254C2.59084 11.683 2.55981 11.095 2.32681 10.606C1.95081 9.79602 1.75186 8.89399 1.75186 7.99799C1.75186 4.55199 4.55588 1.74902 8.00088 1.74902C11.4459 1.74902 14.2499 4.55199 14.2499 7.99799C14.2499 11.444 11.4459 14.247 8.00088 14.247C7.10488 14.247 6.20283 14.048 5.39883 13.675C5.11883 13.542 4.80996 13.474 4.48696 13.474ZM17.599 16.268L18.2079 18.248L16.2619 17.596C15.6959 17.412 15.1079 17.438 14.6039 17.669C13.7899 18.048 12.8889 18.249 11.9999 18.249C9.9479 18.249 8.10383 17.266 6.95083 15.666C7.29883 15.714 7.64988 15.747 8.00088 15.747C12.2729 15.747 15.7499 12.271 15.7499 7.99799C15.7499 7.64799 15.719 7.30602 15.673 6.96802C17.252 8.12602 18.2499 9.98902 18.2499 11.999C18.2499 12.888 18.0499 13.788 17.6679 14.607C17.4379 15.109 17.413 15.697 17.599 16.268Z" fill="#25314C"/>
</svg>
