<svg width="20" height="20" viewBox="0 0 20 20" fill="none" xmlns="http://www.w3.org/2000/svg">
<path d="M2.0049 19.749C1.5479 19.749 1.10408 19.569 0.768085 19.233C0.294085 18.76 0.131083 18.073 0.341083 17.441L1.1819 14.94C1.2799 14.633 1.27102 14.325 1.15602 14.082C0.564024 12.809 0.253925 11.399 0.253925 9.99902C0.253925 4.62402 4.62697 0.25 10.002 0.25C15.378 0.25 19.751 4.62302 19.751 9.99902C19.751 15.375 15.378 19.748 10.002 19.748C8.60297 19.748 7.19302 19.437 5.92702 18.848C5.67902 18.729 5.37002 18.721 5.05202 18.822L2.56301 19.658C2.37801 19.719 2.1899 19.749 2.0049 19.749ZM10.001 1.75C5.453 1.75 1.75295 5.45002 1.75295 9.99902C1.75295 11.182 2.01596 12.373 2.51296 13.443C2.78896 14.024 2.82493 14.723 2.60793 15.406L1.76393 17.917C1.72193 18.042 1.7859 18.131 1.8279 18.173C1.8699 18.215 1.95998 18.279 2.08498 18.237L4.58303 17.398C5.27703 17.177 5.97696 17.211 6.56496 17.492C7.62696 17.986 8.818 18.249 10.001 18.249C14.55 18.249 18.25 14.549 18.25 10C18.25 5.451 14.55 1.75 10.001 1.75ZM10.0049 11C9.4529 11 9.00002 10.552 9.00002 10C9.00002 9.448 9.44314 9 9.99514 9H10.0049C10.5579 9 11.0049 9.448 11.0049 10C11.0049 10.552 10.5579 11 10.0049 11ZM15.0049 10C15.0049 9.448 14.5579 9 14.0049 9H13.9951C13.4431 9 13 9.448 13 10C13 10.552 13.4529 11 14.0049 11C14.5579 11 15.0049 10.552 15.0049 10ZM7.0049 10C7.0049 9.448 6.5579 9 6.0049 9H5.99514C5.44314 9 5.00002 9.448 5.00002 10C5.00002 10.552 5.4529 11 6.0049 11C6.5579 11 7.0049 10.552 7.0049 10Z" fill="#25314C"/>
</svg>
