<svg width="20" height="12" viewBox="0 0 20 12" fill="none" xmlns="http://www.w3.org/2000/svg">
<path d="M19.53 1.52999L9.52999 11.53C9.38899 11.671 9.19799 11.75 8.99999 11.75C8.99899 11.75 8.99799 11.75 8.99699 11.75C8.79699 11.749 8.60599 11.669 8.46499 11.526L4.46499 7.46398C4.17399 7.16898 4.178 6.69401 4.473 6.40301C4.768 6.11301 5.24399 6.116 5.53399 6.411L9.003 9.93499L18.469 0.468987C18.762 0.175987 19.237 0.175987 19.53 0.468987C19.823 0.761987 19.823 1.23799 19.53 1.52999ZM8.99999 7.74999C9.19199 7.74999 9.38399 7.67699 9.52999 7.52999L15.53 1.52999C15.823 1.23699 15.823 0.761987 15.53 0.468987C15.237 0.175987 14.762 0.175987 14.469 0.468987L8.46899 6.46899C8.17599 6.76199 8.17599 7.23699 8.46899 7.52999C8.61599 7.67699 8.80799 7.74999 8.99999 7.74999ZM1.53399 6.41399C1.24399 6.11899 0.769 6.115 0.473 6.406C0.178 6.697 0.173989 7.171 0.464989 7.467L4.46499 11.527C4.61099 11.676 4.80499 11.751 4.99899 11.751C5.18899 11.751 5.37899 11.679 5.52499 11.535C5.81999 11.244 5.824 10.77 5.533 10.474L1.53399 6.41399Z" fill="#25314C"/>
</svg>
