<svg width="18" height="20" viewBox="0 0 18 20" fill="none" xmlns="http://www.w3.org/2000/svg">
<path d="M14 2.25H13.73C13.633 0.996 12.821 0.25 11.5 0.25H6.5C5.179 0.25 4.36702 0.996 4.27002 2.25H4C1.582 2.25 0.25 3.582 0.25 6V16C0.25 18.418 1.582 19.75 4 19.75H14C16.418 19.75 17.75 18.418 17.75 16V6C17.75 3.582 16.418 2.25 14 2.25ZM5.75 2.5C5.75 1.911 5.911 1.75 6.5 1.75H11.5C12.089 1.75 12.25 1.911 12.25 2.5V3.5C12.25 4.089 12.089 4.25 11.5 4.25H6.5C5.911 4.25 5.75 4.089 5.75 3.5V2.5ZM16.25 16C16.25 17.577 15.577 18.25 14 18.25H4C2.423 18.25 1.75 17.577 1.75 16V6C1.75 4.423 2.423 3.75 4 3.75H4.27002C4.36702 5.004 5.179 5.75 6.5 5.75H11.5C12.821 5.75 13.633 5.004 13.73 3.75H14C15.577 3.75 16.25 4.423 16.25 6V16ZM11.48 12.92C11.858 12.343 12.083 11.657 12.083 10.917C12.083 8.89499 10.438 7.25 8.41699 7.25C6.39499 7.25 4.75 8.89499 4.75 10.917C4.75 12.939 6.39499 14.584 8.41699 14.584C9.15699 14.584 9.84292 14.36 10.4199 13.982L11.97 15.531C12.116 15.677 12.308 15.751 12.5 15.751C12.692 15.751 12.884 15.678 13.03 15.531C13.323 15.238 13.323 14.763 13.03 14.47L11.48 12.92ZM6.25 10.917C6.25 9.72199 7.22199 8.75 8.41699 8.75C9.61099 8.75 10.583 9.72199 10.583 10.917C10.583 12.112 9.61099 13.084 8.41699 13.084C7.22199 13.083 6.25 12.111 6.25 10.917Z" fill="#25314C"/>
</svg>
