<svg width="22" height="22" viewBox="0 0 22 22" fill="none" xmlns="http://www.w3.org/2000/svg">
<path d="M11 0.25C5.072 0.25 0.25 5.072 0.25 11C0.25 16.928 5.072 21.75 11 21.75C16.928 21.75 21.75 16.928 21.75 11C21.75 5.072 16.928 0.25 11 0.25ZM11 20.25C5.899 20.25 1.75 16.101 1.75 11C1.75 5.899 5.899 1.75 11 1.75C16.101 1.75 20.25 5.899 20.25 11C20.25 16.101 16.101 20.25 11 20.25ZM14.53 13.47C14.823 13.763 14.823 14.238 14.53 14.531C14.384 14.677 14.192 14.751 14 14.751C13.808 14.751 13.616 14.678 13.47 14.531L10.47 11.531C10.329 11.39 10.25 11.199 10.25 11.001V6.00098C10.25 5.58698 10.586 5.25098 11 5.25098C11.414 5.25098 11.75 5.58698 11.75 6.00098V10.6899L14.53 13.47Z" fill="#25314C"/>
</svg>
