<svg width="20" height="15" viewBox="0 0 20 15" fill="none" xmlns="http://www.w3.org/2000/svg">
<path d="M14 14.75H7.5C3.502 14.75 0.25 11.498 0.25 7.5C0.25 3.502 3.502 0.25 7.5 0.25C9.264 0.25 10.9641 0.891983 12.2881 2.05798C12.7021 2.42298 13.0711 2.83303 13.3921 3.28003C13.5931 3.25903 13.794 3.24902 14 3.24902C17.171 3.24902 19.75 5.82802 19.75 8.99902C19.75 12.17 17.171 14.75 14 14.75ZM7.5 1.75C4.329 1.75 1.75 4.329 1.75 7.5C1.75 10.671 4.329 13.25 7.5 13.25H14C16.344 13.25 18.25 11.344 18.25 9C18.25 6.656 16.344 4.75 14 4.75C13.717 4.75 13.4449 4.77503 13.1689 4.82703C12.8669 4.88503 12.5551 4.74801 12.3931 4.48401C12.0931 3.99901 11.7239 3.56102 11.2959 3.18402C10.2469 2.25902 8.898 1.75 7.5 1.75ZM9.86304 10.364L12.53 7.69702C12.823 7.40402 12.823 6.92899 12.53 6.63599C12.237 6.34299 11.762 6.34299 11.469 6.63599L9.33203 8.77197L8.52905 7.96899C8.23605 7.67599 7.76102 7.67599 7.46802 7.96899C7.17502 8.26199 7.17502 8.73703 7.46802 9.03003L8.80103 10.363C8.94203 10.504 9.13205 10.583 9.33105 10.583C9.53205 10.583 9.72304 10.504 9.86304 10.364Z" fill="#25314C"/>
</svg>
