<svg width="20" height="20" viewBox="0 0 20 20" fill="none" xmlns="http://www.w3.org/2000/svg">
<path d="M19.75 9C19.75 11.727 17.8139 14.097 15.1479 14.635C15.0979 14.645 15.048 14.65 14.999 14.65C14.649 14.65 14.3369 14.404 14.2649 14.048C14.1829 13.642 14.4461 13.246 14.8521 13.165C16.8221 12.768 18.25 11.016 18.25 9C18.25 6.656 16.344 4.75 14 4.75C13.717 4.75 13.4449 4.77503 13.1689 4.82703C12.8639 4.88503 12.5551 4.74801 12.3931 4.48401C12.1011 4.01301 11.7301 3.57298 11.2891 3.17798C10.2511 2.25798 8.904 1.75 7.5 1.75C4.329 1.75 1.75 4.329 1.75 7.5C1.75 9.828 3.13906 11.911 5.28906 12.808C5.67106 12.967 5.85089 13.407 5.69189 13.789C5.53189 14.172 5.09094 14.351 4.71094 14.192C2.00094 13.062 0.25 10.435 0.25 7.5C0.25 3.502 3.502 0.25 7.5 0.25C9.271 0.25 10.9721 0.892021 12.2871 2.05902C12.7071 2.43502 13.0761 2.84401 13.3911 3.28101C13.5921 3.26001 13.794 3.25 14 3.25C17.171 3.25 19.75 5.829 19.75 9ZM10.531 8.46997C10.462 8.40097 10.3791 8.34598 10.2871 8.30798C10.1041 8.23198 9.89711 8.23198 9.71411 8.30798C9.62211 8.34598 9.53897 8.40097 9.46997 8.46997L7.46997 10.47C7.17697 10.763 7.17697 11.238 7.46997 11.531C7.76297 11.824 8.23801 11.824 8.53101 11.531L9.25098 10.811V19C9.25098 19.414 9.58698 19.75 10.001 19.75C10.415 19.75 10.751 19.414 10.751 19V10.811L11.4709 11.531C11.6169 11.677 11.809 11.751 12.001 11.751C12.193 11.751 12.385 11.678 12.531 11.531C12.824 11.238 12.824 10.763 12.531 10.47L10.531 8.46997Z" fill="#25314C"/>
</svg>
