<svg width="192" height="191" viewBox="0 0 192 191" fill="none" xmlns="http://www.w3.org/2000/svg">
<path d="M76.5169 0.000976562H68.8906V7.62722H76.5169V0.000976562Z" fill="white"/>
<path d="M68.8919 7.62793H61.2656V15.2542H68.8919V7.62793Z" fill="white"/>
<path d="M121.749 7.62817H114.123V15.2544H121.749V7.62817Z" fill="white"/>
<path d="M129.091 7.62793H121.465V15.2542H129.091V7.62793Z" fill="white"/>
<path d="M76.5169 7.62793H68.8906V15.2542H76.5169V7.62793Z" fill="white"/>
<path d="M91.7708 7.62793H84.1445V15.2542H91.7708V7.62793Z" fill="white"/>
<path d="M99.3977 7.62793H91.7715V15.2542H99.3977V7.62793Z" fill="white"/>
<path d="M76.5169 15.2539H68.8906V22.8801H76.5169V15.2539Z" fill="white"/>
<path d="M84.1419 15.2539H76.5156V22.8801H84.1419V15.2539Z" fill="white"/>
<path d="M91.7708 15.2539H84.1445V22.8801H91.7708V15.2539Z" fill="white"/>
<path d="M114.648 15.2539H107.021V22.8801H114.648V15.2539Z" fill="white"/>
<path d="M68.8919 22.8799H61.2656V30.5061H68.8919V22.8799Z" fill="white"/>
<path d="M121.749 22.8799H114.123V30.5061H121.749V22.8799Z" fill="white"/>
<path d="M76.5169 22.8799H68.8906V30.5061H76.5169V22.8799Z" fill="white"/>
<path d="M91.7708 22.8799H84.1445V30.5061H91.7708V22.8799Z" fill="white"/>
<path d="M107.023 22.8799H99.3965V30.5061H107.023V22.8799Z" fill="white"/>
<path d="M114.648 22.8799H107.021V30.5061H114.648V22.8799Z" fill="white"/>
<path d="M84.1419 30.5068H76.5156V38.1331H84.1419V30.5068Z" fill="white"/>
<path d="M99.3977 30.5068H91.7715V38.1331H99.3977V30.5068Z" fill="white"/>
<path d="M130.232 30.5068H122.605V38.1331H130.232V30.5068Z" fill="white"/>
<path d="M114.648 30.5068H107.021V38.1331H114.648V30.5068Z" fill="white"/>
<path d="M68.8919 38.1348H61.2656V45.761H68.8919V38.1348Z" fill="white"/>
<path d="M121.749 38.1348H114.123V45.761H121.749V38.1348Z" fill="white"/>
<path d="M84.1419 38.1348H76.5156V45.761H84.1419V38.1348Z" fill="white"/>
<path d="M107.023 38.1348H99.3965V45.761H107.023V38.1348Z" fill="white"/>
<path d="M68.8919 45.7607H61.2656V53.387H68.8919V45.7607Z" fill="white"/>
<path d="M121.749 45.7607H114.123V53.387H121.749V45.7607Z" fill="white"/>
<path d="M84.1419 45.7607H76.5156V53.387H84.1419V45.7607Z" fill="white"/>
<path d="M99.3977 45.7607H91.7715V53.387H99.3977V45.7607Z" fill="white"/>
<path d="M114.648 45.7607H107.021V53.387H114.648V45.7607Z" fill="white"/>
<path d="M99.3977 53.3867H91.7715V61.013H99.3977V53.3867Z" fill="white"/>
<path d="M130.232 53.3867H122.605V61.013H130.232V53.3867Z" fill="white"/>
<path d="M114.648 53.3867H107.021V61.013H114.648V53.3867Z" fill="white"/>
<path d="M7.88015 61.0127H0.253906V68.6389H7.88015V61.0127Z" fill="white"/>
<path d="M15.5051 61.0127H7.87891V68.6389H15.5051V61.0127Z" fill="white"/>
<path d="M23.1301 61.0127H15.5039V68.6389H23.1301V61.0127Z" fill="white"/>
<path d="M30.7591 61.0127H23.1328V68.6389H30.7591V61.0127Z" fill="white"/>
<path d="M38.3841 61.0127H30.7578V68.6389H38.3841V61.0127Z" fill="white"/>
<path d="M53.638 61.0127H46.0117V68.6389H53.638V61.0127Z" fill="white"/>
<path d="M61.263 61.0127H53.6367V68.6389H61.263V61.0127Z" fill="white"/>
<path d="M68.8919 61.0127H61.2656V68.6389H68.8919V61.0127Z" fill="white"/>
<path d="M76.5169 61.0127H68.8906V68.6389H76.5169V61.0127Z" fill="white"/>
<path d="M84.1419 61.0127H76.5156V68.6389H84.1419V61.0127Z" fill="white"/>
<path d="M99.3977 61.0127H91.7715V68.6389H99.3977V61.0127Z" fill="white"/>
<path d="M130.232 61.0127H122.605V68.6389H130.232V61.0127Z" fill="white"/>
<path d="M107.023 61.0127H99.3965V68.6389H107.023V61.0127Z" fill="white"/>
<path d="M114.648 61.0127H107.021V68.6389H114.648V61.0127Z" fill="white"/>
<path d="M15.5051 68.6396H7.87891V76.2659H15.5051V68.6396Z" fill="white"/>
<path d="M46.013 68.6396H38.3867V76.2659H46.013V68.6396Z" fill="white"/>
<path d="M76.5169 68.6396H68.8906V76.2659H76.5169V68.6396Z" fill="white"/>
<path d="M23.1301 76.2656H15.5039V83.8919H23.1301V76.2656Z" fill="white"/>
<path d="M30.7591 76.2656H23.1328V83.8919H30.7591V76.2656Z" fill="white"/>
<path d="M46.013 76.2656H38.3867V83.8919H46.013V76.2656Z" fill="white"/>
<path d="M53.638 76.2656H46.0117V83.8919H53.638V76.2656Z" fill="white"/>
<path d="M61.263 76.2656H53.6367V83.8919H61.263V76.2656Z" fill="white"/>
<path d="M68.8919 76.2656H61.2656V83.8919H68.8919V76.2656Z" fill="white"/>
<path d="M76.5169 76.2656H68.8906V83.8919H76.5169V76.2656Z" fill="white"/>
<path d="M91.7708 76.2656H84.1445V83.8919H91.7708V76.2656Z" fill="white"/>
<path d="M99.3977 76.2656H91.7715V83.8919H99.3977V76.2656Z" fill="white"/>
<path d="M107.023 76.2656H99.3965V83.8919H107.023V76.2656Z" fill="white"/>
<path d="M114.648 76.2656H107.021V83.8919H114.648V76.2656Z" fill="white"/>
<path d="M122.277 76.2656H114.65V83.8919H122.277V76.2656Z" fill="white"/>
<path d="M129.902 76.2656H122.275V83.8919H129.902V76.2656Z" fill="white"/>
<path d="M137.531 76.2656H129.904V83.8919H137.531V76.2656Z" fill="white"/>
<path d="M145.156 76.2656H137.529V83.8919H145.156V76.2656Z" fill="white"/>
<path d="M160.409 76.2656H152.783V83.8919H160.409V76.2656Z" fill="white"/>
<path d="M168.034 76.2656H160.408V83.8919H168.034V76.2656Z" fill="white"/>
<path d="M183.288 76.2656H175.662V83.8919H183.288V76.2656Z" fill="white"/>
<path d="M190.913 76.2656H183.287V83.8919H190.913V76.2656Z" fill="white"/>
<path d="M23.1301 83.8936H15.5039V91.5198H23.1301V83.8936Z" fill="white"/>
<path d="M30.7591 83.8936H23.1328V91.5198H30.7591V83.8936Z" fill="white"/>
<path d="M68.8919 83.8936H61.2656V91.5198H68.8919V83.8936Z" fill="white"/>
<path d="M76.5169 83.8936H68.8906V91.5198H76.5169V83.8936Z" fill="white"/>
<path d="M84.1419 83.8933H76.5156V91.5196H84.1419V83.8933Z" fill="white"/>
<path d="M91.7708 83.8936H84.1445V91.5198H91.7708V83.8936Z" fill="white"/>
<path d="M122.277 83.8933H114.65V91.5196H122.277V83.8933Z" fill="white"/>
<path d="M129.902 83.8936H122.275V91.5198H129.902V83.8936Z" fill="white"/>
<path d="M137.531 83.8936H129.904V91.5198H137.531V83.8936Z" fill="white"/>
<path d="M145.156 83.8933H137.529V91.5196H145.156V83.8933Z" fill="white"/>
<path d="M152.784 83.8936H145.158V91.5198H152.784V83.8936Z" fill="white"/>
<path d="M160.409 83.8936H152.783V91.5198H160.409V83.8936Z" fill="white"/>
<path d="M190.913 83.8936H183.287V91.5198H190.913V83.8936Z" fill="white"/>
<path d="M46.013 91.5195H38.3867V99.1458H46.013V91.5195Z" fill="white"/>
<path d="M53.638 91.5195H46.0117V99.1458H53.638V91.5195Z" fill="white"/>
<path d="M76.5169 91.5195H68.8906V99.1458H76.5169V91.5195Z" fill="white"/>
<path d="M91.7708 91.5195H84.1445V99.1458H91.7708V91.5195Z" fill="white"/>
<path d="M114.648 91.5195H107.021V99.1458H114.648V91.5195Z" fill="white"/>
<path d="M122.277 91.5193H114.65V99.1455H122.277V91.5193Z" fill="white"/>
<path d="M137.531 91.5195H129.904V99.1458H137.531V91.5195Z" fill="white"/>
<path d="M145.156 91.5193H137.529V99.1455H145.156V91.5193Z" fill="white"/>
<path d="M160.409 91.5195H152.783V99.1458H160.409V91.5195Z" fill="white"/>
<path d="M175.663 91.5195H168.037V99.1458H175.663V91.5195Z" fill="white"/>
<path d="M183.288 91.5195H175.662V99.1458H183.288V91.5195Z" fill="white"/>
<path d="M190.913 91.5195H183.287V99.1458H190.913V91.5195Z" fill="white"/>
<path d="M7.88015 99.1455H0.253906V106.772H7.88015V99.1455Z" fill="white"/>
<path d="M15.5051 99.1455H7.87891V106.772H15.5051V99.1455Z" fill="white"/>
<path d="M23.1301 99.1455H15.5039V106.772H23.1301V99.1455Z" fill="white"/>
<path d="M38.3841 99.1455H30.7578V106.772H38.3841V99.1455Z" fill="white"/>
<path d="M68.8919 99.1455H61.2656V106.772H68.8919V99.1455Z" fill="white"/>
<path d="M76.5169 99.1455H68.8906V106.772H76.5169V99.1455Z" fill="white"/>
<path d="M84.1419 99.1455H76.5156V106.772H84.1419V99.1455Z" fill="white"/>
<path d="M99.3977 99.1455H91.7715V106.772H99.3977V99.1455Z" fill="white"/>
<path d="M129.902 99.1455H122.275V106.772H129.902V99.1455Z" fill="white"/>
<path d="M168.034 99.1455H160.408V106.772H168.034V99.1455Z" fill="white"/>
<path d="M183.288 99.1455H175.662V106.772H183.288V99.1455Z" fill="white"/>
<path d="M7.88015 106.772H0.253906V114.399H7.88015V106.772Z" fill="white"/>
<path d="M23.1301 106.772H15.5039V114.399H23.1301V106.772Z" fill="white"/>
<path d="M30.7591 106.772H23.1328V114.399H30.7591V106.772Z" fill="white"/>
<path d="M46.013 106.772H38.3867V114.399H46.013V106.772Z" fill="white"/>
<path d="M53.638 106.772H46.0117V114.399H53.638V106.772Z" fill="white"/>
<path d="M122.277 106.772H114.65V114.399H122.277V106.772Z" fill="white"/>
<path d="M129.902 106.772H122.275V114.399H129.902V106.772Z" fill="white"/>
<path d="M145.156 114.113H137.529V121.74H145.156V114.113Z" fill="white"/>
<path d="M168.034 106.772H160.408V114.399H168.034V106.772Z" fill="white"/>
<path d="M183.288 106.772H175.662V114.399H183.288V106.772Z" fill="white"/>
<path d="M190.913 106.772H183.287V114.399H190.913V106.772Z" fill="white"/>
<path d="M7.88015 114.4H0.253906V122.026H7.88015V114.4Z" fill="white"/>
<path d="M68.8919 114.399H61.2656V122.026H68.8919V114.399Z" fill="white"/>
<path d="M99.3977 114.399H91.7715V122.026H99.3977V114.399Z" fill="white"/>
<path d="M114.648 114.399H107.021V122.026H114.648V114.399Z" fill="white"/>
<path d="M122.277 114.4H114.65V122.026H122.277V114.4Z" fill="white"/>
<path d="M129.902 114.399H122.275V122.026H129.902V114.399Z" fill="white"/>
<path d="M137.531 114.399H129.904V122.026H137.531V114.399Z" fill="white"/>
<path d="M145.156 121.741H137.529V129.367H145.156V121.741Z" fill="white"/>
<path d="M152.784 114.399H145.158V122.026H152.784V114.399Z" fill="white"/>
<path d="M160.409 114.399H152.783V122.026H160.409V114.399Z" fill="white"/>
<path d="M168.034 114.4H160.408V122.026H168.034V114.4Z" fill="white"/>
<path d="M190.913 114.399H183.287V122.026H190.913V114.399Z" fill="white"/>
<path d="M7.88015 122.026H0.253906V129.652H7.88015V122.026Z" fill="white"/>
<path d="M30.7591 122.025H23.1328V129.652H30.7591V122.025Z" fill="white"/>
<path d="M38.3841 122.026H30.7578V129.652H38.3841V122.026Z" fill="white"/>
<path d="M46.013 122.025H38.3867V129.652H46.013V122.025Z" fill="white"/>
<path d="M53.638 122.025H46.0117V129.652H53.638V122.025Z" fill="white"/>
<path d="M76.5169 122.025H68.8906V129.652H76.5169V122.025Z" fill="white"/>
<path d="M84.1419 122.026H76.5156V129.652H84.1419V122.026Z" fill="white"/>
<path d="M99.3977 122.025H91.7715V129.652H99.3977V122.025Z" fill="white"/>
<path d="M107.023 122.025H99.3965V129.652H107.023V122.025Z" fill="white"/>
<path d="M114.648 122.025H107.021V129.652H114.648V122.025Z" fill="white"/>
<path d="M129.902 122.025H122.275V129.652H129.902V122.025Z" fill="white"/>
<path d="M137.531 122.025H129.904V129.652H137.531V122.025Z" fill="white"/>
<path d="M145.156 129.367H137.529V136.993H145.156V129.367Z" fill="white"/>
<path d="M145.156 69.168H137.529V76.7942H145.156V69.168Z" fill="white"/>
<path d="M152.784 122.025H145.158V129.652H152.784V122.025Z" fill="white"/>
<path d="M152.784 61.8262H145.158V69.4524H152.784V61.8262Z" fill="white"/>
<path d="M160.409 122.025H152.783V129.652H160.409V122.025Z" fill="white"/>
<path d="M160.409 61.8262H152.783V69.4524H160.409V61.8262Z" fill="white"/>
<path d="M175.663 122.025H168.037V129.652H175.663V122.025Z" fill="white"/>
<path d="M175.663 61.8262H168.037V69.4524H175.663V61.8262Z" fill="white"/>
<path d="M68.8919 129.652H61.2656V137.279H68.8919V129.652Z" fill="white"/>
<path d="M84.1419 129.652H76.5156V137.279H84.1419V129.652Z" fill="white"/>
<path d="M114.648 129.652H107.021V137.279H114.648V129.652Z" fill="white"/>
<path d="M122.277 129.652H114.65V137.279H122.277V129.652Z" fill="white"/>
<path d="M129.902 129.652H122.275V137.279H129.902V129.652Z" fill="white"/>
<path d="M68.8919 137.278H61.2656V144.905H68.8919V137.278Z" fill="white"/>
<path d="M76.5169 137.278H68.8906V144.905H76.5169V137.278Z" fill="white"/>
<path d="M84.1419 137.278H76.5156V144.905H84.1419V137.278Z" fill="white"/>
<path d="M91.7708 137.278H84.1445V144.905H91.7708V137.278Z" fill="white"/>
<path d="M99.3977 137.278H91.7715V144.905H99.3977V137.278Z" fill="white"/>
<path d="M91.7708 144.904H84.1445V152.531H91.7708V144.904Z" fill="white"/>
<path d="M129.902 144.904H122.275V152.531H129.902V144.904Z" fill="white"/>
<path d="M68.8919 152.532H61.2656V160.158H68.8919V152.532Z" fill="white"/>
<path d="M84.1419 152.532H76.5156V160.158H84.1419V152.532Z" fill="white"/>
<path d="M91.7708 152.532H84.1445V160.158H91.7708V152.532Z" fill="white"/>
<path d="M122.277 152.532H114.65V160.158H122.277V152.532Z" fill="white"/>
<path d="M68.8919 160.158H61.2656V167.784H68.8919V160.158Z" fill="white"/>
<path d="M84.1419 160.158H76.5156V167.784H84.1419V160.158Z" fill="white"/>
<path d="M99.3977 160.158H91.7715V167.784H99.3977V160.158Z" fill="white"/>
<path d="M107.023 160.158H99.3965V167.784H107.023V160.158Z" fill="white"/>
<path d="M122.277 160.158H114.65V167.784H122.277V160.158Z" fill="white"/>
<path d="M68.8919 167.784H61.2656V175.41H68.8919V167.784Z" fill="white"/>
<path d="M76.5169 167.784H68.8906V175.41H76.5169V167.784Z" fill="white"/>
<path d="M107.023 167.784H99.3965V175.41H107.023V167.784Z" fill="white"/>
<path d="M114.648 167.784H107.021V175.41H114.648V167.784Z" fill="white"/>
<path d="M129.902 167.784H122.275V175.41H129.902V167.784Z" fill="white"/>
<path d="M68.8919 175.411H61.2656V183.037H68.8919V175.411Z" fill="white"/>
<path d="M99.3977 175.411H91.7715V183.037H99.3977V175.411Z" fill="white"/>
<path d="M107.023 175.411H99.3965V183.037H107.023V175.411Z" fill="white"/>
<path d="M122.277 175.411H114.65V183.038H122.277V175.411Z" fill="white"/>
<path d="M129.902 175.411H122.275V183.037H129.902V175.411Z" fill="white"/>
<path d="M68.8919 183.037H61.2656V190.663H68.8919V183.037Z" fill="white"/>
<path d="M99.3977 183.037H91.7715V190.663H99.3977V183.037Z" fill="white"/>
<path d="M114.648 183.037H107.021V190.663H114.648V183.037Z" fill="white"/>
<path d="M122.277 183.037H114.65V190.663H122.277V183.037Z" fill="white"/>
<path d="M34.8995 136.551H18.0921C14.2085 136.542 10.4251 137.783 7.30064 140.089C4.17623 142.396 1.8766 145.646 0.741484 149.36C0.510239 150.13 0.332158 150.915 0.208499 151.709C0.0691808 152.611 -0.000523669 153.522 2.96175e-06 154.435V171.643C0.0326153 176.413 1.95567 180.975 5.34735 184.328C8.73903 187.682 13.3224 189.553 18.0921 189.532H34.8995C39.6695 189.553 44.2531 187.682 47.6448 184.328C51.0366 180.974 52.9594 176.411 52.9917 171.641V154.435C52.9579 149.666 51.0343 145.105 47.6427 141.753C44.2511 138.4 39.6684 136.529 34.8995 136.551ZM45.0424 171.643C45.0126 174.306 43.9276 176.848 42.0255 178.712C40.1234 180.576 37.5595 181.609 34.8966 181.585H18.0936C15.4309 181.609 12.8673 180.576 10.9653 178.712C9.0632 176.849 7.97802 174.307 7.9478 171.644V154.435C7.94615 152.778 8.36819 151.147 9.17381 149.699C9.93123 148.343 10.992 147.179 12.2733 146.3C13.9848 145.124 16.0138 144.496 18.0907 144.5H34.8995C37.5612 144.476 40.1238 145.508 42.0253 147.371C43.9268 149.234 45.0118 151.774 45.0424 154.436V171.643Z" fill="white"/>
<path d="M34.8995 1.46893H18.0921C14.2085 1.46002 10.4251 2.7005 7.30064 5.00713C4.17623 7.31375 1.8766 10.5642 0.741484 14.2782C0.510239 15.0482 0.332158 15.8331 0.208499 16.6274C0.0691808 17.5291 -0.000523669 18.4402 2.96175e-06 19.3526V36.5608C0.0326153 41.3305 1.95567 45.8925 5.34735 49.2462C8.73903 52.5999 13.3224 54.4714 18.0921 54.4503H34.8995C39.6695 54.4714 44.2531 52.5997 47.6448 49.2457C51.0366 45.8916 52.9594 41.3293 52.9917 36.5593V19.3526C52.9579 14.5838 51.0343 10.0231 47.6427 6.67057C44.2511 3.31805 39.6684 1.44743 34.8995 1.46893ZM45.0424 36.5608C45.0126 39.2237 43.9276 41.766 42.0255 43.6298C40.1234 45.4937 37.5595 46.5268 34.8966 46.5025H18.0936C15.4309 46.5268 12.8673 45.4939 10.9653 43.6304C9.0632 41.7668 7.97802 39.2249 7.9478 36.5623V19.3526C7.94615 17.6955 8.36819 16.0655 9.17381 14.6174C9.93123 13.2606 10.992 12.0973 12.2733 11.2183C13.9848 10.0416 16.0138 9.41378 18.0907 9.4182H34.8995C37.5612 9.39392 40.1238 10.4263 42.0253 12.289C43.9268 14.1516 45.0118 16.6924 45.0424 19.354V36.5608Z" fill="white"/>
<path d="M172.919 138.019H156.112C152.228 138.01 148.445 139.25 145.32 141.557C142.196 143.864 139.896 147.114 138.761 150.828C138.53 151.598 138.352 152.383 138.228 153.177C138.089 154.079 138.019 154.99 138.02 155.902V173.111C138.052 177.88 139.975 182.442 143.367 185.796C146.759 189.15 151.342 191.021 156.112 191H172.919C177.689 191.021 182.273 189.149 185.664 185.795C189.056 182.441 190.979 177.879 191.011 173.109V155.902C190.977 151.134 189.054 146.573 185.662 143.22C182.271 139.868 177.688 137.997 172.919 138.019ZM183.062 173.111C183.032 175.774 181.947 178.316 180.045 180.18C178.143 182.043 175.579 183.077 172.916 183.052H156.113C153.45 183.077 150.887 182.044 148.985 180.18C147.083 178.317 145.998 175.775 145.967 173.112V155.902C145.966 154.245 146.388 152.615 147.193 151.167C147.951 149.81 149.012 148.647 150.293 147.768C152.004 146.591 154.033 145.964 156.11 145.968H172.919C175.581 145.944 178.143 146.976 180.045 148.839C181.946 150.701 183.031 153.242 183.062 155.904V173.111Z" fill="white"/>
<path d="M172.919 0.000183323H156.112C152.228 -0.00873116 148.445 1.23175 145.32 3.53838C142.196 5.845 139.896 9.09543 138.761 12.8095C138.53 13.5794 138.352 14.3643 138.228 15.1587C138.089 16.0604 138.019 16.9714 138.02 17.8838V35.0921C138.052 39.8617 139.975 44.4237 143.367 47.7774C146.759 51.1311 151.342 53.0027 156.112 52.9816H172.919C177.689 53.0027 182.273 51.1309 185.664 47.7769C189.056 44.4229 190.979 39.8605 191.011 35.0906V17.8838C190.977 13.1151 189.054 8.55433 185.662 5.20182C182.271 1.8493 177.688 -0.0213179 172.919 0.000183323ZM183.062 35.0921C183.032 37.7549 181.947 40.2972 180.045 42.1611C178.143 44.0249 175.579 45.0581 172.916 45.0338H156.113C153.45 45.0581 150.887 44.0251 148.985 42.1616C147.083 40.2981 145.998 37.7562 145.967 35.0935V17.8838C145.966 16.2267 146.388 14.5967 147.193 13.1486C147.951 11.7919 149.012 10.6286 150.293 9.74956C152.004 8.57289 154.033 7.94503 156.11 7.94945H172.919C175.581 7.92517 178.143 8.95759 180.045 10.8202C181.946 12.6829 183.031 15.2237 183.062 17.8853V35.0921Z" fill="white"/>
<path d="M21.3573 174.398C19.7266 174.411 18.1569 173.778 16.9918 172.637C15.8268 171.496 15.1611 169.94 15.1406 168.309V157.771C15.1407 156.758 15.3989 155.761 15.8909 154.874C16.3538 154.042 17.0037 153.329 17.7894 152.791C18.8389 152.069 20.0835 151.684 21.3573 151.687H31.6514C33.2815 151.672 34.8509 152.304 36.0155 153.445C37.1801 154.585 37.8447 156.141 37.8637 157.771V168.309C37.8432 169.939 37.1782 171.495 36.0141 172.636C34.8499 173.777 33.2814 174.41 31.6514 174.398H21.3573Z" fill="white"/>
<path d="M21.3573 39.3161C19.7266 39.3294 18.1569 38.6963 16.9918 37.5551C15.8268 36.414 15.1611 34.8578 15.1406 33.2271V22.6893C15.1407 21.6756 15.3989 20.6787 15.8909 19.7924C16.3538 18.9602 17.0037 18.2469 17.7894 17.7089C18.8389 16.9869 20.0835 16.6018 21.3573 16.6047H31.6514C33.2815 16.5899 34.8509 17.2221 36.0155 18.3627C37.1801 19.5033 37.8447 21.0593 37.8637 22.6893V33.2271C37.8432 34.8571 37.1782 36.4126 36.0141 37.5536C34.8499 38.6946 33.2814 39.3283 31.6514 39.3161H21.3573Z" fill="white"/>
<path d="M159.369 175.867C157.738 175.88 156.169 175.247 155.004 174.106C153.838 172.965 153.173 171.409 153.152 169.778V159.24C153.152 158.226 153.411 157.229 153.903 156.343C154.366 155.511 155.015 154.798 155.801 154.26C156.851 153.538 158.095 153.153 159.369 153.156H169.663C171.293 153.141 172.863 153.773 174.027 154.913C175.192 156.054 175.856 157.61 175.875 159.24V169.778C175.855 171.408 175.19 172.963 174.026 174.104C172.862 175.245 171.293 175.879 169.663 175.867H159.369Z" fill="white"/>
<path d="M159.369 37.8473C157.738 37.8607 156.169 37.2275 155.004 36.0864C153.838 34.9452 153.173 33.3891 153.152 31.7584V21.2205C153.152 20.2069 153.411 19.2099 153.903 18.3236C154.366 17.4914 155.015 16.7782 155.801 16.2401C156.851 15.5182 158.095 15.133 159.369 15.136H169.663C171.293 15.1211 172.863 15.7533 174.027 16.894C175.192 18.0346 175.856 19.5905 175.875 21.2205V31.7584C175.855 33.3883 175.19 34.9438 174.026 36.0848C172.862 37.2258 171.293 37.8595 169.663 37.8473H159.369Z" fill="white"/>
</svg>
