<svg width="20" height="20" viewBox="0 0 20 20" fill="none" xmlns="http://www.w3.org/2000/svg">
<path d="M16 0.25H4C1.582 0.25 0.25 1.582 0.25 4V12C0.25 14.418 1.582 15.75 4 15.75H7.25V18.25H5.5C5.086 18.25 4.75 18.586 4.75 19C4.75 19.414 5.086 19.75 5.5 19.75H14.5C14.914 19.75 15.25 19.414 15.25 19C15.25 18.586 14.914 18.25 14.5 18.25H12.75V15.75H16C18.418 15.75 19.75 14.418 19.75 12V4C19.75 1.582 18.418 0.25 16 0.25ZM4 1.75H16C17.577 1.75 18.25 2.423 18.25 4V10.25H1.75V4C1.75 2.423 2.423 1.75 4 1.75ZM11.25 18.25H8.75V15.75H11.25V18.25ZM16 14.25H12H8H4C2.423 14.25 1.75 13.577 1.75 12V11.75H18.25V12C18.25 13.577 17.577 14.25 16 14.25Z" fill="#25314C"/>
</svg>
