<svg width="180" height="180" viewBox="0 0 180 180" fill="none" xmlns="http://www.w3.org/2000/svg">
<path d="M20.109 134.769C16.8536 136.854 12.4977 135.917 10.6717 132.509C4.16861 120.374 0.521397 106.878 0.0518777 93.0554C-0.497047 76.8954 3.31771 60.886 11.0951 46.71C18.8726 32.5341 30.3254 20.7152 44.2497 12.4957C58.1741 4.27628 74.0556 -0.0401107 90.2248 0.00028081C106.394 0.0406724 122.254 4.43636 136.137 12.7253C150.02 21.0142 161.414 32.8901 169.12 47.1048C176.827 61.3194 180.561 77.3477 179.932 93.5047C179.393 107.325 175.679 120.802 169.115 132.905C167.272 136.303 162.911 137.219 159.666 135.117L156.982 133.379C153.737 131.278 152.844 126.956 154.624 123.525C159.543 114.042 162.329 103.566 162.747 92.835C163.256 79.7654 160.235 66.7999 154.001 55.3015C147.767 43.8031 138.551 34.1965 127.321 27.4915C116.091 20.7865 103.261 17.2308 90.1819 17.1981C77.1024 17.1654 64.2556 20.657 52.992 27.3058C41.7285 33.9546 32.4641 43.5151 26.1729 54.9822C19.8816 66.4493 16.7958 79.3995 17.2398 92.4715C17.6044 103.205 20.3377 113.695 25.2094 123.201C26.9725 126.642 26.0572 130.959 22.8018 133.044L20.109 134.769Z" fill="#3D3E52"/>
<path d="M21.4639 133.901C17.4602 136.466 12.095 135.315 9.92453 131.084C5.33407 122.137 2.26605 112.465 0.86755 102.466C-0.929319 98.1187 0.072414 76.5347 3.80411 64.1105C7.53581 51.6862 13.9093 40.2156 22.4878 30.4844C31.0663 20.7533 41.6471 12.9916 53.5053 7.73133C65.3634 2.47101 78.2186 -0.163653 91.19 0.00786701C104.161 0.179387 116.942 3.15303 128.657 8.72506C140.372 14.2971 150.744 22.3358 159.062 32.2904C165.536 40.038 170.647 48.8036 174.199 58.2114C175.878 62.6596 173.131 67.4094 168.543 68.6562C163.954 69.9031 159.271 67.1678 157.492 62.7588C154.655 55.7313 150.732 49.1731 145.85 43.3308C139.123 35.2806 130.735 28.7798 121.262 24.2738C111.788 19.7678 101.452 17.363 90.9623 17.2243C80.4725 17.0856 70.0766 19.2162 60.4871 23.4702C50.8975 27.7241 42.3409 34.0009 35.4036 41.8704C28.4662 49.7399 23.3121 59.0161 20.2943 69.0634C17.2765 79.1107 16.4664 98.1917 17.9195 100.081C18.9741 107.621 21.2026 114.931 24.5086 121.751C26.5828 126.029 25.4675 131.336 21.4639 133.901Z" fill="#FFAA35"/>
<path d="M21.4639 133.901C17.4602 136.466 12.0949 135.314 9.92442 131.084C3.15342 117.887 -0.27178 103.178 0.0168376 88.2592C0.361141 70.4622 5.97513 53.167 16.1489 38.5606C26.3226 23.9542 40.5992 12.6927 57.1733 6.20021C71.0667 0.757752 86.0515 -1.12869 100.777 0.647547C105.498 1.21692 108.437 5.85052 107.42 10.4949C106.402 15.1394 101.81 18.0253 97.0782 17.5629C85.6988 16.4509 74.1743 18.0323 63.4534 22.232C50.0501 27.4824 38.5048 36.5895 30.2774 48.4015C22.05 60.2135 17.51 74.2 17.2316 88.5922C17.0088 100.104 19.5207 111.462 24.5085 121.751C26.5826 126.029 25.4675 131.336 21.4639 133.901Z" fill="#02C39A"/>
<path d="M21.9923 134.715C18.0195 137.327 12.6407 136.24 10.4198 132.036C0.699661 113.636 -2.3849 92.3403 1.86197 71.7877C6.10884 51.2351 17.3813 32.9059 33.5981 19.8653C37.3034 16.8858 42.6726 18.0195 45.2847 21.9923C47.8968 25.9651 46.7535 31.2668 43.1166 34.3294C30.6848 44.7984 22.046 59.1939 18.7237 75.2719C15.4014 91.3499 17.6272 107.99 24.8915 122.529C27.0167 126.783 25.9651 132.103 21.9923 134.715Z" fill="#674AFF"/>
<path d="M63.0515 69.6V66.504H68.8355V84H65.3795V69.6H63.0515ZM72.1548 75.024C72.1548 72.256 72.6508 70.088 73.6428 68.52C74.6508 66.952 76.3148 66.168 78.6348 66.168C80.9548 66.168 82.6108 66.952 83.6028 68.52C84.6108 70.088 85.1148 72.256 85.1148 75.024C85.1148 77.808 84.6108 79.992 83.6028 81.576C82.6108 83.16 80.9548 83.952 78.6348 83.952C76.3148 83.952 74.6508 83.16 73.6428 81.576C72.6508 79.992 72.1548 77.808 72.1548 75.024ZM81.8028 75.024C81.8028 73.84 81.7228 72.848 81.5628 72.048C81.4188 71.232 81.1148 70.568 80.6508 70.056C80.2028 69.544 79.5308 69.288 78.6348 69.288C77.7388 69.288 77.0588 69.544 76.5948 70.056C76.1468 70.568 75.8428 71.232 75.6828 72.048C75.5388 72.848 75.4668 73.84 75.4668 75.024C75.4668 76.24 75.5388 77.264 75.6828 78.096C75.8268 78.912 76.1308 79.576 76.5948 80.088C77.0588 80.584 77.7388 80.832 78.6348 80.832C79.5308 80.832 80.2108 80.584 80.6748 80.088C81.1388 79.576 81.4428 78.912 81.5868 78.096C81.7308 77.264 81.8028 76.24 81.8028 75.024ZM87.6704 75.024C87.6704 72.256 88.1664 70.088 89.1584 68.52C90.1664 66.952 91.8304 66.168 94.1504 66.168C96.4704 66.168 98.1264 66.952 99.1184 68.52C100.126 70.088 100.63 72.256 100.63 75.024C100.63 77.808 100.126 79.992 99.1184 81.576C98.1264 83.16 96.4704 83.952 94.1504 83.952C91.8304 83.952 90.1664 83.16 89.1584 81.576C88.1664 79.992 87.6704 77.808 87.6704 75.024ZM97.3184 75.024C97.3184 73.84 97.2384 72.848 97.0784 72.048C96.9344 71.232 96.6304 70.568 96.1664 70.056C95.7184 69.544 95.0464 69.288 94.1504 69.288C93.2544 69.288 92.5744 69.544 92.1104 70.056C91.6624 70.568 91.3584 71.232 91.1984 72.048C91.0544 72.848 90.9824 73.84 90.9824 75.024C90.9824 76.24 91.0544 77.264 91.1984 78.096C91.3424 78.912 91.6464 79.576 92.1104 80.088C92.5744 80.584 93.2544 80.832 94.1504 80.832C95.0464 80.832 95.7264 80.584 96.1904 80.088C96.6544 79.576 96.9584 78.912 97.1024 78.096C97.2464 77.264 97.3184 76.24 97.3184 75.024ZM102.802 70.8C102.802 69.584 103.154 68.632 103.858 67.944C104.578 67.256 105.498 66.912 106.618 66.912C107.738 66.912 108.65 67.256 109.354 67.944C110.074 68.632 110.434 69.584 110.434 70.8C110.434 72.032 110.074 72.992 109.354 73.68C108.65 74.368 107.738 74.712 106.618 74.712C105.498 74.712 104.578 74.368 103.858 73.68C103.154 72.992 102.802 72.032 102.802 70.8ZM118.21 67.2L108.778 84H105.514L114.922 67.2H118.21ZM106.594 68.928C105.714 68.928 105.274 69.552 105.274 70.8C105.274 72.064 105.714 72.696 106.594 72.696C107.026 72.696 107.362 72.544 107.602 72.24C107.842 71.92 107.962 71.44 107.962 70.8C107.962 69.552 107.506 68.928 106.594 68.928ZM113.338 80.376C113.338 79.144 113.69 78.192 114.394 77.52C115.114 76.832 116.034 76.488 117.154 76.488C118.274 76.488 119.178 76.832 119.866 77.52C120.57 78.192 120.922 79.144 120.922 80.376C120.922 81.608 120.57 82.568 119.866 83.256C119.178 83.944 118.274 84.288 117.154 84.288C116.018 84.288 115.098 83.944 114.394 83.256C113.69 82.568 113.338 81.608 113.338 80.376ZM117.13 78.504C116.218 78.504 115.762 79.128 115.762 80.376C115.762 81.64 116.218 82.272 117.13 82.272C118.026 82.272 118.474 81.64 118.474 80.376C118.474 79.128 118.026 78.504 117.13 78.504Z" fill="#674AFF"/>
<path d="M75.726 102.098C75.726 102.91 75.446 103.587 74.886 104.128C74.3354 104.66 73.4907 104.926 72.352 104.926H70.476V109H69.202V99.242H72.352C73.4534 99.242 74.2887 99.508 74.858 100.04C75.4367 100.572 75.726 101.258 75.726 102.098ZM72.352 103.876C73.0614 103.876 73.584 103.722 73.92 103.414C74.256 103.106 74.424 102.667 74.424 102.098C74.424 100.894 73.7334 100.292 72.352 100.292H70.476V103.876H72.352ZM78.5834 102.574C78.8074 102.135 79.1248 101.795 79.5354 101.552C79.9554 101.309 80.4641 101.188 81.0614 101.188V102.504H80.7254C79.2974 102.504 78.5834 103.279 78.5834 104.828V109H77.3094V101.328H78.5834V102.574ZM85.8781 109.126C85.1594 109.126 84.5061 108.963 83.9181 108.636C83.3394 108.309 82.8821 107.847 82.5461 107.25C82.2194 106.643 82.0561 105.943 82.0561 105.15C82.0561 104.366 82.2241 103.675 82.5601 103.078C82.9054 102.471 83.3721 102.009 83.9601 101.692C84.5481 101.365 85.2061 101.202 85.9341 101.202C86.6621 101.202 87.3201 101.365 87.9081 101.692C88.4961 102.009 88.9581 102.467 89.2941 103.064C98.1394 103.661 89.8121 104.357 89.8121 105.15C89.8121 105.943 98.1348 106.643 89.2801 107.25C88.9348 107.847 88.4634 108.309 87.8661 108.636C87.2688 108.963 86.6061 109.126 85.8781 109.126ZM85.8781 108.006C86.3354 108.006 86.7648 107.899 87.1661 107.684C87.5674 107.469 87.8894 107.147 88.1321 106.718C88.3841 106.289 88.5101 105.766 88.5101 105.15C88.5101 104.534 88.3888 104.011 88.1461 103.582C87.9034 103.153 87.5861 102.835 87.1941 102.63C86.8021 102.415 86.3774 102.308 85.9201 102.308C85.4534 102.308 85.0241 102.415 84.6321 102.63C84.2494 102.835 83.9414 103.153 83.7081 103.582C83.4748 104.011 83.3581 104.534 83.3581 105.15C83.3581 105.775 83.4701 106.303 83.6941 106.732C83.9274 107.161 84.2354 107.483 84.6181 107.698C85.0008 107.903 85.4208 108.006 85.8781 108.006ZM94.6092 102.378H92.9992V109H91.7252V102.378H90.7312V101.328H91.7252V100.782C91.7252 99.9233 91.9445 99.298 92.3832 98.906C92.8312 98.5047 93.5452 98.304 94.5252 98.304V99.368C93.9652 99.368 93.5685 99.48 93.3352 99.704C93.1112 99.9187 92.9992 100.278 92.9992 100.782V101.328H94.6092V102.378ZM96.7526 100.082C96.5099 100.082 96.3046 99.998 96.1366 99.83C95.9686 99.662 95.8846 99.4567 95.8846 99.214C95.8846 98.9713 95.9686 98.766 96.1366 98.598C96.3046 98.43 96.5099 98.346 96.7526 98.346C96.9859 98.346 97.1819 98.43 97.3406 98.598C97.5086 98.766 97.5926 98.9713 97.5926 99.214C97.5926 99.4567 97.5086 99.662 97.3406 99.83C97.1819 99.998 96.9859 100.082 96.7526 100.082ZM97.3686 101.328V109H96.0946V101.328H97.3686ZM101.094 102.378V106.9C101.094 107.273 101.173 107.539 101.332 107.698C101.491 107.847 101.766 107.922 102.158 107.922H103.096V109H101.948C101.239 109 100.707 108.837 100.352 108.51C99.9972 108.183 99.8199 107.647 99.8199 106.9V102.378H98.8259V101.328H99.8199V99.396H101.094V101.328H103.096V102.378H101.094ZM107.356 109.126C106.768 109.126 106.24 109.028 105.774 108.832C105.307 108.627 104.938 108.347 104.668 107.992C104.397 107.628 104.248 107.213 104.22 106.746H105.536C105.573 107.129 105.75 107.441 106.068 107.684C106.394 107.927 106.819 108.048 107.342 108.048C107.827 108.048 108.21 107.941 108.49 107.726C108.77 107.511 108.91 107.241 108.91 106.914C108.91 106.578 108.76 106.331 108.462 106.172C108.163 106.004 107.701 105.841 107.076 105.682C106.506 105.533 106.04 105.383 105.676 105.234C105.321 105.075 105.013 104.847 104.752 104.548C104.5 104.24 104.374 103.839 104.374 103.344C104.374 102.952 104.49 102.593 104.724 102.266C104.957 101.939 105.288 101.683 105.718 101.496C106.147 101.3 106.637 101.202 107.188 101.202C108.037 101.202 108.723 101.417 109.246 101.846C109.768 102.275 110.048 102.863 110.086 103.61H108.812C108.784 103.209 108.62 102.887 108.322 102.644C108.032 102.401 107.64 102.28 107.146 102.28C106.688 102.28 106.324 102.378 106.054 102.574C105.783 102.77 105.648 103.027 105.648 103.344C105.648 103.596 105.727 103.806 105.886 103.974C106.054 104.133 106.259 104.263 106.502 104.366C106.754 104.459 107.099 104.567 107.538 104.688C108.088 104.837 108.536 104.987 108.882 105.136C109.227 105.276 109.521 105.491 109.764 105.78C110.016 106.069 110.146 106.447 110.156 106.914C110.156 107.334 110.039 107.712 109.806 108.048C109.572 108.384 109.241 108.65 108.812 108.846C108.392 109.033 107.906 109.126 107.356 109.126Z" fill="#674AFF"/>
</svg>
