<svg width="22" height="22" viewBox="0 0 22 22" fill="none" xmlns="http://www.w3.org/2000/svg">
<path d="M11 0.25C5.072 0.25 0.25 5.072 0.25 11C0.25 16.928 5.072 21.75 11 21.75C16.928 21.75 21.75 16.928 21.75 11C21.75 5.072 16.928 0.25 11 0.25ZM11 20.25C5.899 20.25 1.75 16.101 1.75 11C1.75 5.899 5.899 1.75 11 1.75C16.101 1.75 20.25 5.899 20.25 11C20.25 16.101 16.101 20.25 11 20.25ZM11.986 10.472L10.378 10.073C10.13 10.011 9.91901 9.87195 9.76001 9.66895C9.61001 9.47895 9.52701 9.23501 9.52701 8.98401C9.52701 8.36501 10.03 7.86206 10.649 7.86206H11.349C11.921 7.86206 12.4 8.29206 12.465 8.86206C12.511 9.27406 12.878 9.57205 13.294 9.52405C13.706 9.47805 14.002 9.10695 13.956 8.69495C13.821 7.49295 12.891 6.56597 11.727 6.39697V6C11.727 5.586 11.391 5.25 10.977 5.25C10.563 5.25 10.227 5.586 10.227 6V6.40405C8.98199 6.60805 8.02701 7.68203 8.02701 8.98303C8.02701 9.57003 8.22401 10.144 8.57901 10.592C8.93501 11.051 9.443 11.383 10.013 11.527L11.621 11.926C12.122 12.053 12.472 12.501 12.472 13.015C12.472 13.313 12.355 13.594 12.142 13.807C11.929 14.02 11.648 14.137 11.35 14.137H10.65C10.078 14.137 9.599 13.707 9.534 13.137C9.488 12.725 9.11199 12.425 8.70499 12.475C8.29299 12.521 7.997 12.892 8.043 13.304C8.176 14.491 9.08399 15.412 10.227 15.597V16C10.227 16.414 10.563 16.75 10.977 16.75C11.391 16.75 11.727 16.414 11.727 16V15.6021C12.282 15.5211 12.797 15.275 13.202 14.87C13.698 14.374 13.972 13.716 13.972 13.017C13.972 11.814 13.157 10.769 11.986 10.472Z" fill="#25314C"/>
</svg>
