<svg width="20" height="20" viewBox="0 0 20 20" fill="none" xmlns="http://www.w3.org/2000/svg">
<path d="M9.16732 10.0001C9.16732 10.4603 9.54041 10.8334 10.0007 10.8334C10.4609 10.8334 10.834 10.4603 10.834 10.0001C10.834 9.53984 10.4609 9.16675 10.0007 9.16675C9.54041 9.16675 9.16732 9.53984 9.16732 10.0001Z" stroke="#718096" stroke-width="2" stroke-linecap="round" stroke-linejoin="round"/>
<path d="M3.33333 10.0001C3.33333 10.4603 3.70643 10.8334 4.16667 10.8334C4.6269 10.8334 5 10.4603 5 10.0001C5 9.53984 4.6269 9.16675 4.16667 9.16675C3.70643 9.16675 3.33333 9.53984 3.33333 10.0001Z" stroke="#718096" stroke-width="2" stroke-linecap="round" stroke-linejoin="round"/>
<path d="M15.0003 10.0001C15.0003 10.4603 15.3734 10.8334 15.8337 10.8334C16.2939 10.8334 16.667 10.4603 16.667 10.0001C16.667 9.53984 16.2939 9.16675 15.8337 9.16675C15.3734 9.16675 15.0003 9.53984 15.0003 10.0001Z" stroke="#718096" stroke-width="2" stroke-linecap="round" stroke-linejoin="round"/>
</svg>
