<svg width="64" height="64" viewBox="0 0 64 64" fill="none" xmlns="http://www.w3.org/2000/svg">
<path d="M57.6 39.1999L45 55.9999C43.12 58.4999 40.13 59.9999 37 59.9999H26.38C25.84 59.9999 25.31 60.1499 24.84 60.4299L21.03 62.7099C20.72 62.8999 20.36 62.9999 20 62.9999H8C6.9 62.9999 6 62.0999 6 60.9999V46.9999C6 46.4699 6.21 45.9599 6.59 45.5899L9.93 42.2399L10.69 41.4799C12.93 39.2399 15.92 37.9999 19.1 37.9999H22.09C23.05 37.9999 24.01 38.1199 24.93 38.3399C25.47 38.4799 25.99 38.6499 26.51 38.8499L29.38 39.9999H31C31.14 39.9999 31.28 39.9999 31.41 40.0199C32.11 40.0399 32.79 40.1499 33.43 40.3399C34.37 40.5999 35.25 41.0099 36.04 41.5499C37.71 42.6799 38.99 44.3699 39.6 46.3399L42.88 42.8099L43.49 42.1499L46.06 39.3799C48.67 36.5599 52.63 35.2799 56.39 36.0399C57.07 36.1699 57.62 36.6399 57.87 37.2899C58.11 37.9299 58.01 38.6499 57.6 39.1999Z" fill="url(#paint0_linear_736_1194)"/>
<path d="M43.6001 43.3404V48.3404C43.6001 49.4404 42.7001 50.3404 41.6001 50.3404H29.6001C28.5001 50.3404 27.6001 49.4404 27.6001 48.3404C27.6001 47.2404 28.5001 46.3404 29.6001 46.3404H39.6001L42.8801 42.8104L43.4901 42.1504C43.5701 42.5304 43.6001 42.9304 43.6001 43.3404Z" fill="#FBBC8D"/>
<path d="M35 37C44.9411 37 53 28.9411 53 19C53 9.05887 44.9411 1 35 1C25.0589 1 17 9.05887 17 19C17 28.9411 25.0589 37 35 37Z" fill="url(#paint1_linear_736_1194)"/>
<path d="M34.5 17H35.5C38.532 17 41 19.467 41 22.5C41 25.012 39.305 27.132 37 27.787V28C37 29.104 36.104 30 35 30C33.896 30 33 29.104 33 28H31C29.896 28 29 27.104 29 26C29 24.896 29.896 24 31 24H35.5C36.327 24 37 23.327 37 22.5C37 21.673 36.327 21 35.5 21H34.5C31.468 21 29 18.533 29 15.5C29 12.988 30.695 10.868 33 10.213V10C33 8.896 33.896 8 35 8C36.104 8 37 8.896 37 10H39C40.104 10 41 10.896 41 12C41 13.104 40.104 14 39 14H34.5C33.673 14 33 14.673 33 15.5C33 16.327 33.673 17 34.5 17Z" fill="#FEF156"/>
<defs>
<linearGradient id="paint0_linear_736_1194" x1="6" y1="49.4119" x2="57.998" y2="49.4119" gradientUnits="userSpaceOnUse">
<stop stop-color="#FFE7D7"/>
<stop offset="0.4469" stop-color="#F9CFA9"/>
<stop offset="0.9963" stop-color="#FBBC8D"/>
</linearGradient>
<linearGradient id="paint1_linear_736_1194" x1="17" y1="19" x2="53" y2="19" gradientUnits="userSpaceOnUse">
<stop stop-color="#FEF156"/>
<stop offset="0.4469" stop-color="#FFC242"/>
<stop offset="1" stop-color="#FC753F"/>
</linearGradient>
</defs>
</svg>
