<svg width="14" height="20" viewBox="0 0 14 20" fill="none" xmlns="http://www.w3.org/2000/svg">
<path d="M13.748 11.056C13.753 10.971 13.739 10.887 13.715 10.804C13.708 10.78 13.698 10.759 13.689 10.735C13.678 10.707 13.672 10.677 13.657 10.65L8.37601 1.06299C8.10001 0.561988 7.57301 0.25 7.00101 0.25C6.42901 0.25 5.90101 0.561988 5.62601 1.06299L0.345003 10.65C0.330003 10.677 0.32399 10.707 0.31299 10.735C0.30399 10.758 0.293989 10.78 0.286989 10.804C0.262989 10.887 0.249 10.971 0.254 11.056C0.254 11.059 0.255007 11.062 0.255007 11.066C0.256007 11.078 0.260995 11.088 0.261995 11.1C0.270995 11.173 0.291016 11.244 0.321016 11.312C0.325016 11.32 0.324005 11.329 0.328005 11.337C0.330005 11.34 0.328995 11.344 0.330995 11.348C0.332995 11.351 0.336015 11.3531 0.338015 11.3571C0.342015 11.3651 0.350013 11.371 0.355013 11.379C0.367013 11.4 0.372995 11.422 0.386995 11.442L5.71399 19.078C6.00699 19.499 6.48902 19.75 7.00202 19.75C7.51502 19.75 7.99701 19.499 8.29001 19.078L13.617 11.441C13.628 11.425 13.633 11.408 13.642 11.391C13.651 11.375 13.664 11.363 13.673 11.347C13.675 11.344 13.674 11.3401 13.676 11.3361C13.68 11.3281 13.679 11.319 13.683 11.311C13.713 11.242 13.733 11.172 13.742 11.099C13.743 11.087 13.749 11.0769 13.749 11.0649C13.747 11.0619 13.748 11.059 13.748 11.056ZM6.93799 1.78699H7.06201L11.181 9.26404L7.336 7.34094C7.125 7.23594 6.87601 7.23594 6.66501 7.34094L2.82001 9.26404L6.93799 1.78699ZM11.045 10.873L7 12.2209L2.95499 10.873L7 8.84998L11.045 10.873ZM7.05802 18.22C7.05802 18.22 6.986 18.22 6.956 18.22C6.948 18.22 6.943 18.22 6.943 18.22L2.91001 12.4399L6.763 13.724C6.84 13.75 6.92 13.7629 7 13.7629C7.08 13.7629 7.16 13.75 7.237 13.724L11.09 12.4399L7.05802 18.22Z" fill="#25314C"/>
</svg>
