<svg width="16" height="18" viewBox="0 0 16 18" fill="none" xmlns="http://www.w3.org/2000/svg">
<path d="M15.696 16.14C15.851 16.524 15.664 16.961 15.28 17.116C14.234 17.537 13.131 17.75 12 17.75C8.137 17.75 4.85601 15.23 3.69901 11.75H1C0.586 11.75 0.25 11.414 0.25 11C0.25 10.586 0.586 10.25 1 10.25H3.35001C3.29101 9.841 3.25 9.426 3.25 9C3.25 8.574 3.29101 8.159 3.35001 7.75H1C0.586 7.75 0.25 7.414 0.25 7C0.25 6.586 0.586 6.25 1 6.25H3.69901C4.85501 2.77 8.136 0.25 12 0.25C13.142 0.25 14.247 0.467996 15.286 0.895996C15.669 1.054 15.851 1.493 15.693 1.875C15.535 2.258 15.098 2.44098 14.714 2.28198C13.858 1.92798 12.944 1.74902 12 1.74902C8.976 1.74902 6.381 3.61202 5.295 6.24902H11C11.414 6.24902 11.75 6.58502 11.75 6.99902C11.75 7.41302 11.414 7.74902 11 7.74902H4.866C4.795 8.15602 4.75 8.57202 4.75 8.99902C4.75 9.42602 4.794 9.84202 4.866 10.249H11C11.414 10.249 11.75 10.585 11.75 10.999C11.75 11.413 11.414 11.749 11 11.749H5.295C6.381 14.386 8.976 16.249 12 16.249C12.938 16.249 13.853 16.072 14.72 15.723C15.104 15.569 15.541 15.756 15.696 16.14Z" fill="#25314C"/>
</svg>
