<svg width="22" height="22" viewBox="0 0 22 22" fill="none" xmlns="http://www.w3.org/2000/svg">
<path d="M11 21.75C5.072 21.75 0.25 16.928 0.25 11C0.25 5.072 5.072 0.25 11 0.25C16.928 0.25 21.75 5.072 21.75 11C21.75 16.928 16.928 21.75 11 21.75ZM11 1.75C5.899 1.75 1.75 5.899 1.75 11C1.75 16.101 5.899 20.25 11 20.25C16.101 20.25 20.25 16.101 20.25 11C20.25 5.899 16.101 1.75 11 1.75ZM12.02 14.5C12.02 13.948 11.573 13.5 11.02 13.5H11.01C10.458 13.5 10.0149 13.948 10.0149 14.5C10.0149 15.052 10.468 15.5 11.02 15.5C11.572 15.5 12.02 15.052 12.02 14.5ZM11.75 11.071V6.5C11.75 6.086 11.414 5.75 11 5.75C10.586 5.75 10.25 6.086 10.25 6.5V11.071C10.25 11.485 10.586 11.821 11 11.821C11.414 11.821 11.75 11.485 11.75 11.071Z" fill="#25314C"/>
</svg>
