<svg width="20" height="21" viewBox="0 0 20 21" fill="none" xmlns="http://www.w3.org/2000/svg">
<path d="M19.27 12.72L18.28 11.73C17.97 11.42 17.5591 11.25 17.1221 11.25C17.1211 11.25 17.1201 11.25 17.1201 11.25C16.6821 11.25 16.2689 11.422 15.9609 11.733L10.47 17.249C10.329 17.389 10.251 17.58 10.251 17.778V20C10.251 20.414 10.587 20.75 11.001 20.75H13.2241C13.4221 20.75 13.6129 20.671 13.7529 20.531L19.269 15.04C19.58 14.731 19.75 14.319 19.751 13.881C19.75 13.443 19.58 13.031 19.27 12.72ZM17.1211 12.75C17.1471 12.75 17.185 12.757 17.219 12.791L18.209 13.781C18.243 13.815 18.25 13.854 18.25 13.88C18.25 13.906 18.243 13.944 18.209 13.978L17.573 14.611L16.3889 13.427L17.022 12.791C17.057 12.757 17.0951 12.75 17.1211 12.75ZM12.9131 19.25H11.75V18.087L15.3311 14.49L16.51 15.669L12.9131 19.25ZM8 18.25H4C2.423 18.25 1.75 17.577 1.75 16V4C1.75 2.423 2.423 1.75 4 1.75H9.25V4C9.25 6.418 10.582 7.75 13 7.75H15.25V9C15.25 9.414 15.586 9.75 16 9.75C16.414 9.75 16.75 9.414 16.75 9V7C16.75 6.801 16.671 6.61 16.53 6.47L10.53 0.470001C10.389 0.329001 10.199 0.25 10 0.25H4C1.582 0.25 0.25 1.582 0.25 4V16C0.25 18.418 1.582 19.75 4 19.75H8C8.414 19.75 8.75 19.414 8.75 19C8.75 18.586 8.414 18.25 8 18.25ZM10.75 4V2.811L14.189 6.25H13C11.423 6.25 10.75 5.577 10.75 4ZM5 9.25C4.586 9.25 4.25 9.586 4.25 10C4.25 10.414 4.586 10.75 5 10.75H12C12.414 10.75 12.75 10.414 12.75 10C12.75 9.586 12.414 9.25 12 9.25H5ZM9 13.25H5C4.586 13.25 4.25 13.586 4.25 14C4.25 14.414 4.586 14.75 5 14.75H9C9.414 14.75 9.75 14.414 9.75 14C9.75 13.586 9.414 13.25 9 13.25Z" fill="#25314C"/>
</svg>
