<svg width="20" height="18" viewBox="0 0 20 18" fill="none" xmlns="http://www.w3.org/2000/svg">
<path d="M16 17.75H4C1.582 17.75 0.25 16.418 0.25 14V4C0.25 1.582 1.582 0.25 4 0.25H8C8.199 0.25 8.39003 0.329001 8.53003 0.470001L11.3101 3.25H16C18.418 3.25 19.75 4.582 19.75 7V14C19.75 16.418 18.418 17.75 16 17.75ZM4 1.75C2.423 1.75 1.75 2.423 1.75 4V14C1.75 15.577 2.423 16.25 4 16.25H16C17.577 16.25 18.25 15.577 18.25 14V7C18.25 5.423 17.577 4.75 16 4.75H11C10.801 4.75 10.61 4.671 10.47 4.53L7.68994 1.75H4ZM11.8879 14.214C11.7049 14.214 11.5211 14.171 11.3511 14.083L10 13.388L8.6499 14.082C8.2529 14.287 7.77892 14.25 7.41992 13.984C7.06292 13.722 6.88809 13.288 6.96509 12.853L7.21802 11.405L6.10107 10.339C5.78607 10.038 5.67196 9.59299 5.80396 9.17899C5.93795 8.76199 6.29203 8.464 6.72803 8.401L8.28809 8.17899L8.95703 6.85101C9.15603 6.45601 9.55698 6.211 10.001 6.211C10.445 6.211 10.8459 6.45601 11.0449 6.85101L11.7141 8.17899L13.2729 8.401C13.7099 8.463 14.064 8.76099 14.198 9.17899C14.33 9.59299 14.2169 10.037 13.9009 10.338L12.7839 11.404L13.0371 12.853C13.1141 13.287 12.939 13.72 12.583 13.982C12.375 14.136 12.1329 14.214 11.8879 14.214ZM10 11.844C10.18 11.844 10.3599 11.886 10.5239 11.971L11.4399 12.442L11.27 11.468C11.206 11.096 11.3301 10.719 11.6021 10.458L12.311 9.78101L11.3169 9.63901C10.9489 9.58701 10.6289 9.35899 10.4609 9.02899L10 8.11499L9.54102 9.026C9.37002 9.359 9.05111 9.58801 8.68311 9.64001L7.68896 9.78201L8.39697 10.458C8.66997 10.72 8.79396 11.097 8.73096 11.467L8.56006 12.442L9.47705 11.971C9.64105 11.886 9.82 11.844 10 11.844ZM11.7991 8.35101H11.8091H11.7991ZM9.7041 7.52899C9.7051 7.52899 9.70508 7.53 9.70508 7.53L9.7041 7.52899Z" fill="#25314C"/>
</svg>
