<svg width="15" height="15" viewBox="0 0 15 15" fill="none" xmlns="http://www.w3.org/2000/svg">
<g clip-path="url(#clip0_1387_10694)">
<path fill-rule="evenodd" clip-rule="evenodd" d="M9.73225 1.4375L7.39367 0.138977L5.05504 1.4375L2.4832 2.17295L1.74773 4.7448L0.449219 7.08342L1.74773 9.42202L2.4832 11.9939L5.05504 12.7294L7.39367 14.0279L9.73225 12.7294L12.3042 11.9939L13.0396 9.42202L14.3381 7.08342L13.0396 4.7448L12.3042 2.17295L9.73225 1.4375ZM10.8012 5.54586C11.1026 5.19807 11.065 4.67177 10.7172 4.37035C10.3694 4.06892 9.84308 4.10652 9.54167 4.45431L6.56033 7.89435L5.24563 6.37739C4.9442 6.0296 4.41791 5.992 4.07011 6.29342C3.72232 6.59485 3.68472 7.12115 3.98614 7.46894L5.93059 9.71252C6.08888 9.89519 6.31865 10.0001 6.56033 10.0001C6.80201 10.0001 7.03178 9.89519 7.19007 9.71252L10.8012 5.54586Z" fill="#194BFB"/>
</g>
<defs>
<clipPath id="clip0_1387_10694">
<rect width="15" height="15" fill="white"/>
</clipPath>
</defs>
</svg>
