<svg width="12" height="12" viewBox="0 0 12 12" fill="none" xmlns="http://www.w3.org/2000/svg">
<g clip-path="url(#clip0_685_1191)">
<path fill-rule="evenodd" clip-rule="evenodd" d="M7.7858 1.15014L5.91493 0.111328L4.04403 1.15014L1.98656 1.73851L1.39819 3.79599L0.359375 5.66688L1.39819 7.53776L1.98656 9.59523L4.04403 10.1836L5.91493 11.2224L7.7858 10.1836L9.84333 9.59523L10.4317 7.53776L11.4705 5.66688L10.4317 3.79599L9.84333 1.73851L7.7858 1.15014ZM8.64093 4.43684C8.88207 4.1586 8.852 3.73756 8.5738 3.49642C8.29553 3.25528 7.87447 3.28536 7.63333 3.5636L5.24827 6.31563L4.1965 5.10206C3.95536 4.82382 3.53433 4.79375 3.25609 5.03488C2.97785 5.27602 2.94777 5.69706 3.18891 5.9753L4.74447 7.77016C4.8711 7.9163 5.05492 8.00023 5.24827 8.00023C5.44161 8.00023 5.62543 7.9163 5.75206 7.77016L8.64093 4.43684Z" fill="#36CB72"/>
</g>
<defs>
<clipPath id="clip0_685_1191">
<rect width="12" height="12" fill="white"/>
</clipPath>
</defs>
</svg>
