<svg width="20" height="20" viewBox="0 0 20 20" fill="none" xmlns="http://www.w3.org/2000/svg">
<path d="M17.5 4.25H16.4351C16.6291 3.873 16.75 3.452 16.75 3C16.75 1.484 15.517 0.25 14 0.25C13.178 0.25 12.405 0.615986 11.874 1.26099C11.847 1.29499 10.723 2.78898 10 3.75098C9.276 2.78798 8.15102 1.29199 8.11902 1.25299C7.59502 0.614991 6.822 0.25 6 0.25C4.483 0.25 3.25 1.484 3.25 3C3.25 3.452 3.36994 3.873 3.56494 4.25H2.5C1.26 4.25 0.25 5.259 0.25 6.5V10C0.25 10.414 0.586 10.75 1 10.75H1.25V16C1.25 18.418 2.582 19.75 5 19.75H15C17.418 19.75 18.75 18.418 18.75 16V10.75H19C19.414 10.75 19.75 10.414 19.75 10V6.5C19.75 5.259 18.74 4.25 17.5 4.25ZM18.25 6.5V9.25H10.75V5.75H14H17.5C17.913 5.75 18.25 6.086 18.25 6.5ZM13.0389 2.20697C13.2809 1.91297 13.622 1.75 14 1.75C14.689 1.75 15.25 2.311 15.25 3C15.25 3.689 14.689 4.25 14 4.25H11.502C12.177 3.352 12.9919 2.26797 13.0389 2.20697ZM4.75 3C4.75 2.311 5.311 1.75 6 1.75C6.378 1.75 6.719 1.91198 6.948 2.19098C7.003 2.26198 7.82105 3.35 8.49805 4.25H6C5.311 4.25 4.75 3.689 4.75 3ZM1.75 6.5C1.75 6.086 2.087 5.75 2.5 5.75H6H9.25V9.25H1.75V6.5ZM2.75 16V10.75H9.25V18.25H5C3.423 18.25 2.75 17.577 2.75 16ZM17.25 16C17.25 17.577 16.577 18.25 15 18.25H10.75V10.75H17.25V16Z" fill="#25314C"/>
</svg>
