<svg width="51" height="51" viewBox="0 0 51 51" fill="none" xmlns="http://www.w3.org/2000/svg">
<rect x="0.177734" y="0.266602" width="50" height="50" rx="20" fill="#161D26"/>
<path d="M35.2528 22.938H34.4473V22.8965H25.4473V26.8965H31.0988C30.2743 29.225 28.0588 30.8965 25.4473 30.8965C22.1338 30.8965 19.4473 28.21 19.4473 24.8965C19.4473 21.583 22.1338 18.8965 25.4473 18.8965C26.9768 18.8965 28.3683 19.4735 29.4278 20.416L32.2563 17.5875C30.4703 15.923 28.0813 14.8965 25.4473 14.8965C19.9248 14.8965 15.4473 19.374 15.4473 24.8965C15.4473 30.419 19.9248 34.8965 25.4473 34.8965C30.9698 34.8965 35.4473 30.419 35.4473 24.8965C35.4473 24.226 35.3783 23.5715 35.2528 22.938Z" fill="#FBC02D"/>
<path d="M16.5996 20.242L19.8851 22.6515C20.7741 20.4505 22.9271 18.8965 25.4466 18.8965C26.9761 18.8965 28.3676 19.4735 29.4271 20.416L32.2556 17.5875C30.4696 15.923 28.0806 14.8965 25.4466 14.8965C21.6056 14.8965 18.2746 17.065 16.5996 20.242Z" fill="#E53935"/>
<path d="M25.4474 34.8968C28.0304 34.8968 30.3774 33.9083 32.1519 32.3008L29.0569 29.6818C28.0529 30.4423 26.8049 30.8968 25.4474 30.8968C22.8464 30.8968 20.6379 29.2383 19.8059 26.9238L16.5449 29.4363C18.1999 32.6748 21.5609 34.8968 25.4474 34.8968Z" fill="#4CAF50"/>
<path d="M35.2528 22.938L35.2448 22.8965H34.4473H25.4473V26.8965H31.0988C30.7028 28.015 29.9833 28.9795 29.0553 29.682C29.0558 29.6815 29.0563 29.6815 29.0568 29.681L32.1518 32.3C31.9328 32.499 35.4473 29.8965 35.4473 24.8965C35.4473 24.226 35.3783 23.5715 35.2528 22.938Z" fill="#1565C0"/>
</svg>
