<svg width="20" height="18" viewBox="0 0 20 18" fill="none" xmlns="http://www.w3.org/2000/svg">
<path d="M19.75 6.696C19.75 5.659 19.2059 4.74293 18.2959 4.24593L11.824 0.714922C10.683 0.092922 9.32003 0.0919219 8.17603 0.714922L1.7041 4.24593C0.794102 4.74293 0.25 5.659 0.25 6.696C0.25 7.733 0.794102 8.64895 1.7041 9.14595L3.25 9.98897V13.6989C3.25 14.6549 3.74004 15.533 4.56104 16.05C6.36603 17.185 8.183 17.753 10 17.753C11.817 17.753 13.635 17.186 15.439 16.05C16.259 15.534 16.75 14.6549 16.75 13.6989V9.98897L18.25 9.17098V13C18.25 13.414 18.586 13.75 19 13.75C19.414 13.75 19.75 13.414 19.75 13V6.99996C19.75 6.95796 19.7321 6.91996 19.7261 6.87996C19.7301 6.81696 19.75 6.76 19.75 6.696ZM15.25 13.6989C15.25 14.1289 15.0171 14.544 14.6411 14.78C11.5191 16.743 8.48411 16.744 5.36011 14.78C4.98411 14.544 4.75098 14.1289 4.75098 13.6989V10.807L8.177 12.676C8.748 12.988 9.37398 13.144 10.001 13.144C10.628 13.144 11.254 12.988 11.825 12.676L15.251 10.807V13.6989H15.25ZM17.5769 7.82991L11.105 11.3609C10.414 11.7389 9.58504 11.7389 8.89404 11.3609L2.42212 7.82991C2.00012 7.59991 1.74902 7.17698 1.74902 6.69698C1.74902 6.21698 2.00012 5.79392 2.42212 5.56392L8.89404 2.03292C9.24004 1.84492 9.62002 1.74996 9.99902 1.74996C10.378 1.74996 10.759 1.84492 11.104 2.03292L17.5759 5.56392C17.9979 5.79392 18.249 6.21698 18.249 6.69698C18.249 7.17698 17.9989 7.59991 17.5769 7.82991Z" fill="#25314C"/>
</svg>
