<svg width="18" height="18" viewBox="0 0 18 18" fill="none" xmlns="http://www.w3.org/2000/svg">
<path d="M4 7.75C1.933 7.75 0.25 6.068 0.25 4C0.25 1.932 1.933 0.25 4 0.25C6.067 0.25 7.75 1.932 7.75 4C7.75 6.068 6.067 7.75 4 7.75ZM4 1.75C2.76 1.75 1.75 2.759 1.75 4C1.75 5.241 2.76 6.25 4 6.25C5.24 6.25 6.25 5.241 6.25 4C6.25 2.759 5.24 1.75 4 1.75ZM14 7.75C11.933 7.75 10.25 6.068 10.25 4C10.25 1.932 11.933 0.25 14 0.25C16.067 0.25 17.75 1.932 17.75 4C17.75 6.068 16.067 7.75 14 7.75ZM14 1.75C12.76 1.75 11.75 2.759 11.75 4C11.75 5.241 12.76 6.25 14 6.25C15.24 6.25 16.25 5.241 16.25 4C16.25 2.759 15.24 1.75 14 1.75ZM4 17.75C1.933 17.75 0.25 16.068 0.25 14C0.25 11.932 1.933 10.25 4 10.25C6.067 10.25 7.75 11.932 7.75 14C7.75 16.068 6.067 17.75 4 17.75ZM4 11.75C2.76 11.75 1.75 12.759 1.75 14C1.75 15.241 2.76 16.25 4 16.25C5.24 16.25 6.25 15.241 6.25 14C6.25 12.759 5.24 11.75 4 11.75ZM14 17.75C11.933 17.75 10.25 16.068 10.25 14C10.25 11.932 11.933 10.25 14 10.25C16.067 10.25 17.75 11.932 17.75 14C17.75 16.068 16.067 17.75 14 17.75ZM14 11.75C12.76 11.75 11.75 12.759 11.75 14C11.75 15.241 12.76 16.25 14 16.25C15.24 16.25 16.25 15.241 16.25 14C16.25 12.759 15.24 11.75 14 11.75Z" fill="#25314C"/>
</svg>
