<svg width="606" height="175" viewBox="0 0 606 175" fill="none" xmlns="http://www.w3.org/2000/svg">
<path d="M2.29297 4.18896C2.29297 1.97982 4.08383 0.188965 6.29297 0.188965H13.5483C15.0315 0.188965 16.393 1.00967 17.0855 2.32127L18.8205 5.60713C21.0723 9.87174 27.1803 9.87173 29.4321 5.60713L31.1671 2.32127C31.8596 1.00967 33.2211 0.188965 34.7043 0.188965H42.293C44.5021 0.188965 46.293 1.97983 46.293 4.18896V170.189C46.293 172.398 44.5021 174.189 42.293 174.189H6.29297C4.08383 174.189 2.29297 172.398 2.29297 170.189V4.18896Z" fill="#EAFBF7"/>
<line x1="24.5" y1="14.1973" x2="24.5" y2="173.5" stroke="white" stroke-linecap="round"/>
<path d="M95.293 4.18896C95.293 1.97982 97.0838 0.188965 99.293 0.188965H106.548C108.032 0.188965 109.393 1.00967 110.086 2.32127L111.821 5.60713C114.072 9.87174 120.18 9.87173 122.432 5.60713L124.167 2.32127C124.86 1.00967 126.221 0.188965 127.704 0.188965H135.293C137.502 0.188965 139.293 1.97983 139.293 4.18896V170.189C139.293 172.398 137.502 174.189 135.293 174.189H99.293C97.0838 174.189 95.293 172.398 95.293 170.189V4.18896Z" fill="#EAFBF7"/>
<line x1="117.5" y1="14.1973" x2="117.5" y2="173.5" stroke="white" stroke-linecap="round"/>
<path d="M188.293 4.18896C188.293 1.97982 190.084 0.188965 192.293 0.188965H199.548C201.032 0.188965 202.393 1.00967 203.086 2.32127L204.821 5.60713C207.072 9.87174 213.18 9.87173 215.432 5.60713L217.167 2.32127C217.86 1.00967 219.221 0.188965 220.704 0.188965H228.293C230.502 0.188965 232.293 1.97983 232.293 4.18896V170.189C232.293 172.398 230.502 174.189 228.293 174.189H192.293C190.084 174.189 188.293 172.398 188.293 170.189V4.18896Z" fill="#EAFBF7"/>
<line x1="210.5" y1="14.1973" x2="210.5" y2="173.5" stroke="white" stroke-linecap="round"/>
<path d="M281.293 4.18896C281.293 1.97982 283.084 0.188965 285.293 0.188965H292.548C294.032 0.188965 295.393 1.00967 296.086 2.32127L297.821 5.60713C300.072 9.87174 306.18 9.87173 308.432 5.60713L310.167 2.32127C310.86 1.00967 312.221 0.188965 313.704 0.188965H321.293C323.502 0.188965 325.293 1.97983 325.293 4.18896V170.189C325.293 172.398 323.502 174.189 321.293 174.189H285.293C283.084 174.189 281.293 172.398 281.293 170.189V4.18896Z" fill="url(#paint0_linear_149_1256)"/>
<line x1="303.5" y1="14.1973" x2="303.5" y2="173.5" stroke="white" stroke-linecap="round"/>
<path d="M374.293 4.18896C374.293 1.97982 376.084 0.188965 378.293 0.188965H385.548C387.032 0.188965 388.393 1.00967 389.086 2.32127L390.821 5.60713C393.072 9.87174 399.18 9.87173 401.432 5.60713L403.167 2.32127C403.86 1.00967 405.221 0.188965 406.704 0.188965H414.293C416.502 0.188965 418.293 1.97983 418.293 4.18896V170.189C418.293 172.398 416.502 174.189 414.293 174.189H378.293C376.084 174.189 374.293 172.398 374.293 170.189V4.18896Z" fill="#EAFBF7"/>
<line x1="396.5" y1="14.1973" x2="396.5" y2="173.5" stroke="white" stroke-linecap="round"/>
<path d="M467.293 4.18896C467.293 1.97982 469.084 0.188965 471.293 0.188965H478.548C480.032 0.188965 481.393 1.00967 482.086 2.32127L483.821 5.60713C486.072 9.87174 492.18 9.87173 494.432 5.60713L496.167 2.32127C496.86 1.00967 498.221 0.188965 499.704 0.188965H507.293C509.502 0.188965 511.293 1.97983 511.293 4.18896V170.189C511.293 172.398 509.502 174.189 507.293 174.189H471.293C469.084 174.189 467.293 172.398 467.293 170.189V4.18896Z" fill="#EAFBF7"/>
<line x1="489.5" y1="14.1973" x2="489.5" y2="173.5" stroke="white" stroke-linecap="round"/>
<path d="M560.293 4.18896C560.293 1.97982 562.084 0.188965 564.293 0.188965H571.548C573.032 0.188965 574.393 1.00967 575.086 2.32127L576.821 5.60713C579.072 9.87174 585.18 9.87173 587.432 5.60713L589.167 2.32127C589.86 1.00967 591.221 0.188965 592.704 0.188965H600.293C602.502 0.188965 604.293 1.97983 604.293 4.18896V170.189C604.293 172.398 602.502 174.189 600.293 174.189H564.293C562.084 174.189 560.293 172.398 560.293 170.189V4.18896Z" fill="#EAFBF7"/>
<line x1="582.5" y1="14.1973" x2="582.5" y2="173.5" stroke="white" stroke-linecap="round"/>
<path d="M604 127.169L584.591 134.123C579.187 136.059 573.341 136.404 567.747 135.117L553.646 131.874C550.747 131.207 547.963 130.112 545.385 128.626L522.231 115.275L519.089 113.726C505.185 106.869 488.346 111.736 480.244 124.953L471.279 139.578C468.389 144.292 464.253 148.116 459.327 150.627L451.185 154.778C444.035 158.422 435.581 158.462 428.397 154.885V154.885C418.676 150.045 406.951 151.942 399.251 159.6L394.569 164.259C388.548 170.247 380.227 173.332 371.758 172.713V172.713C362.706 172.053 354.469 167.236 349.455 159.671L337.891 142.225C333.108 135.008 325.44 130.21 316.859 129.063L313.081 128.559C306.346 127.659 300.116 124.499 295.411 119.597L286.308 110.114C279.61 103.135 269.957 99.8147 260.383 101.195L256.249 101.791C250.821 102.574 245.282 101.854 240.235 99.7094L235.107 97.5304C226.196 93.7442 216.006 94.491 207.743 99.5356L207.079 99.9406C198.434 105.218 187.71 105.777 178.563 101.427L174.24 99.3713C169.017 96.8875 163.116 96.2129 157.467 97.454V97.454C146.213 99.9267 134.671 94.7092 129.093 84.6269L122.849 73.3434C116.319 61.5399 102.081 56.3638 89.4944 61.2168V61.2168C85.7255 62.67 81.6788 63.2595 77.6519 62.9419L74.7671 62.7143C63.6717 61.8392 53.0037 67.1786 47.0542 76.5847L34.4071 96.5798C30.9251 102.085 25.746 106.307 19.6523 108.608L2.00018 115.275" stroke="#B8E716" stroke-width="3" stroke-linecap="round" stroke-linejoin="round"/>
<path d="M2 96.7817L29.0417 88.5176L51.2099 80.5751C54.8124 79.2844 58.7096 79.0543 62.4389 79.9122L80.8534 84.1478C82.7863 84.5924 84.6424 85.3221 86.3607 86.3129L110.811 100.411L122.134 105.995C131.403 110.567 142.629 107.322 148.031 98.5101L163.236 73.7054C165.162 70.5627 167.92 68.0136 171.204 66.3394L184.246 59.6907C189.893 56.812 196.57 56.7805 202.244 59.6057L216.869 66.888C219.529 68.2124 222.45 68.9275 225.421 68.9814L250.055 69.4283C252.66 69.4755 255.249 69.0134 257.676 68.068L291.137 55.0362C298.539 52.1532 306.946 53.9246 312.556 59.5495L315 61.9998L328.5 81.9998L339.648 97.7931C340.215 98.5965 340.841 99.357 341.52 100.068L357.999 117.334C363.37 122.961 372.182 123.462 378.156 118.481V118.481C382.413 114.931 388.299 114.062 393.401 116.229L402.667 120.167C408.608 122.691 415.401 122.193 420.91 118.83L430.581 112.926C436.344 109.408 443.494 109.035 449.592 111.935L460.671 117.204C464.683 119.112 469.215 119.63 473.553 118.677L479.976 117.265C488.619 115.366 497.483 119.373 501.767 127.117L513.151 147.69C517.986 156.429 528.527 160.261 537.846 156.668L545.034 153.896C547.824 152.82 550.82 152.384 553.802 152.619L564.288 153.446C571.685 154.03 578.797 150.47 582.763 144.199L604 110.624" stroke="#52D6B7" stroke-width="3" stroke-linecap="round" stroke-linejoin="round"/>
<defs>
<linearGradient id="paint0_linear_149_1256" x1="303.293" y1="0.188965" x2="303.293" y2="174.189" gradientUnits="userSpaceOnUse">
<stop stop-color="#B8E716"/>
<stop offset="1" stop-color="#B8E716" stop-opacity="0"/>
</linearGradient>
</defs>
</svg>
