<svg width="25" height="23" viewBox="0 0 25 23" fill="none" xmlns="http://www.w3.org/2000/svg">
<path d="M23.9205 10.4996C23.9893 9.98466 24.0237 9.46571 24.0233 8.94618C24.0233 8.83459 24.0233 8.72442 24.0233 8.61576C24.0233 8.43076 24.0115 8.27657 23.9998 8.13121C23.9723 7.73095 23.9233 7.33249 23.8529 6.93751C23.8412 6.87291 23.8309 6.80982 23.8192 6.74815C23.8001 6.6395 23.778 6.52937 23.7531 6.42365C23.7384 6.35905 23.7252 6.2944 23.7091 6.2342C23.6885 6.14464 23.6665 6.05359 23.6415 5.96697C23.0435 3.70332 21.7771 1.67247 20.0075 0.139374L19.8783 0.0263672L19.799 0.173159C19.6913 0.380745 19.5995 0.596263 19.5244 0.817772C19.3634 1.29408 19.2816 1.79349 19.2822 2.29627C19.2824 2.55255 19.3035 2.80838 19.3453 3.06124V3.10676L19.3556 3.11707C19.3962 3.34481 19.4541 3.56918 19.5288 3.78812C18.5759 3.63417 17.5993 3.73766 16.6999 4.08797C15.8005 4.43829 15.0111 5.02268 14.4134 5.78056L14.2665 5.97431L14.5132 5.99932C14.5353 5.99932 16.7391 6.2225 18.7125 6.53083C19.5383 6.65329 20.3525 6.84384 21.1469 7.10053H21.1557C21.2693 7.1306 21.368 7.20093 21.4336 7.2984C21.4992 7.39587 21.5272 7.5138 21.5123 7.63034C21.4974 7.74688 21.4406 7.85408 21.3526 7.9319C21.2646 8.00973 21.1513 8.05289 21.0338 8.05342H0.867031C0.856794 8.05213 0.846441 8.05213 0.836203 8.05342H0.821506C0.808797 8.05847 0.796937 8.06536 0.786287 8.07394H0.777415C0.768941 8.08174 0.761603 8.09064 0.755459 8.10038C0.751544 8.10544 0.748076 8.11091 0.745153 8.1166C0.7419 8.12567 0.739437 8.13498 0.737804 8.14447C0.737351 8.15132 0.737351 8.15815 0.737804 8.16499C0.721653 8.41313 0.712891 8.6672 0.712891 8.91974C0.718896 9.56298 0.772313 10.2049 0.872856 10.8402L0.891945 10.9532H7.49185C8.59591 10.951 9.67648 11.2721 10.6002 11.8768C11.9903 13.1751 12.9828 14.8418 13.4619 16.6825C13.8209 17.9745 14.5113 19.1503 15.4647 20.0933C15.9068 20.5109 16.4001 20.8706 16.933 21.1637C18.5093 22.034 20.3525 22.2882 22.1056 21.8772H22.1159L22.1394 21.867C22.1479 21.8626 22.1557 21.8572 22.1629 21.8509H22.1732C22.1734 21.8475 22.1734 21.844 22.1732 21.8406C22.1789 21.8333 22.1838 21.8254 22.1879 21.8171C22.1916 21.8096 22.1945 21.8017 22.1967 21.7936C22.1974 21.7853 22.1974 21.7769 22.1967 21.7686C22.1975 21.7598 22.1975 21.751 22.1967 21.7422C22.1967 21.7422 22.1967 21.7334 22.1967 21.729C22.1969 21.7256 22.1969 21.7221 22.1967 21.7187C22.1938 21.71 22.1898 21.7015 22.185 21.6937C22.1808 21.6864 22.1758 21.6795 22.1703 21.6732L22.1629 21.6629C21.0759 20.6398 20.2424 19.3775 19.7286 17.976C22.03 16.1112 23.53 13.4359 23.9205 10.4996Z" fill="#EDF4FF"/>
<path d="M14.5734 20.3914C14.5744 20.3821 14.5744 20.3728 14.5734 20.3636C14.5738 20.3587 14.5738 20.3537 14.5734 20.3489C14.5736 20.3459 14.5736 20.343 14.5734 20.3401C14.5715 20.3309 14.5685 20.3221 14.5645 20.3136C14.5609 20.3054 14.5565 20.2975 14.5513 20.2902V20.2814C14.268 19.9311 14.015 19.5572 13.7952 19.1639C13.7887 19.1536 13.7808 19.1442 13.7717 19.1361L13.7643 19.1273C13.7528 19.1181 13.7399 19.1106 13.7262 19.1052H13.7188C13.7071 19.1038 13.6953 19.1038 13.6836 19.1052H13.6675C13.5882 19.1052 13.227 19.1155 12.9935 19.1184H12.7762H12.7013C12.3597 19.1243 12.0122 19.1136 11.6588 19.0862C10.223 18.9695 8.82905 18.5459 7.57111 17.844C5.58457 16.7351 4.02391 14.9962 3.13544 12.9018C2.97972 12.5308 2.8464 12.1508 2.73611 11.7638C2.73262 11.7551 2.72814 11.7467 2.72285 11.7388C2.71891 11.7317 2.71454 11.7249 2.70967 11.7183C2.70338 11.7118 2.69653 11.7059 2.68915 11.7007L2.66854 11.6875L2.64362 11.6787H2.61719H1.20913H1.19291H1.168H1.15769L1.13278 11.6905L1.11217 11.7051C1.10553 11.7108 1.09967 11.7172 1.0946 11.7242C1.08898 11.7305 1.08404 11.7374 1.0799 11.7448C1.07615 11.7523 1.07313 11.7601 1.07103 11.7682C1.07007 11.777 1.07007 11.7859 1.07103 11.7947C1.07082 11.7981 1.07082 11.8016 1.07103 11.805C1.0707 11.8104 1.0707 11.8157 1.07103 11.8211C1.07103 11.8211 1.07103 11.8314 1.07103 11.8372C1.29406 12.7173 1.6204 13.568 2.0431 14.3715C3.17312 16.5107 4.93528 18.2493 7.08951 19.3504C7.13101 20.0605 7.42987 20.7311 7.93011 21.2368C8.43036 21.7424 9.09772 22.0485 9.80731 22.0976H9.82496C9.84202 22.0979 9.85896 22.0949 9.87488 22.0888L9.89101 22.0785C9.8999 22.0741 9.90831 22.0686 9.91602 22.0623C9.9209 22.0573 9.92528 22.052 9.92919 22.0462C9.93538 22.0395 9.94078 22.0321 9.94532 22.0241C9.94604 22.0168 9.94604 22.0095 9.94532 22.0022C9.94869 21.9947 9.95116 21.9867 9.95267 21.9786C10.0218 21.4379 10.2148 20.9204 10.5165 20.4663C10.9767 20.5412 11.441 20.5873 11.9069 20.6044C12.0538 20.6044 12.2006 20.6147 12.3607 20.6147H12.4532C12.9832 20.6147 13.9861 20.575 14.4545 20.5133H14.4647L14.4941 20.5031L14.5117 20.4928H14.522C14.522 20.4928 14.522 20.4854 14.5323 20.481C14.539 20.4745 14.545 20.467 14.5499 20.459C14.559 20.4446 14.5654 20.4287 14.569 20.412L14.5734 20.3914Z" fill="#EDF4FF"/>
<path d="M5.31052 11.742C5.30587 11.732 5.3 11.7226 5.29296 11.7141C5.28955 11.7079 5.28563 11.702 5.28122 11.6964C5.27521 11.6915 5.26883 11.6872 5.26213 11.6833C5.25455 11.6768 5.24611 11.6714 5.23713 11.6671H5.221C5.2093 11.6656 5.19747 11.6656 5.18578 11.6671H3.64258L3.69545 11.8418C3.73216 11.9637 3.77323 12.0871 3.81581 12.206C4.58179 14.3797 6.12455 16.1933 8.14725 17.2979C9.71542 18.058 11.4364 18.4502 13.179 18.4447H13.226C13.2618 18.4447 13.2962 18.4305 13.3215 18.4052C13.3469 18.3798 13.3611 18.3454 13.3611 18.3096V18.2538L13.3405 18.2333C13.2006 17.8863 13.0815 17.5313 12.9838 17.1702C12.9838 17.1702 12.9838 17.1629 12.9838 17.1585C12.9844 17.1517 12.9844 17.1447 12.9838 17.1379C12.9799 17.129 12.975 17.1206 12.9691 17.113L12.9559 17.0968C12.9487 17.0902 12.9408 17.0843 12.9324 17.0792L12.9148 17.0689C12.9049 17.0646 12.8946 17.0617 12.8839 17.0601H12.8692C12.7782 17.0601 12.6886 17.0439 12.599 17.0337C11.5833 16.9353 10.5844 16.7064 9.62727 16.3524C7.64694 15.4421 6.10133 13.7931 5.32083 11.7581L5.31052 11.742Z" fill="#EDF4FF"/>
<path d="M6.30819 11.8218C6.30728 11.8306 6.30728 11.8394 6.30819 11.8482C6.88159 12.9217 7.69996 13.8448 8.69692 14.5428C9.69389 15.2408 10.8414 15.694 12.0463 15.8655H12.0771C12.1157 15.8654 12.1538 15.8566 12.1887 15.8398C12.2235 15.8231 12.254 15.7988 12.2782 15.7686C12.3061 15.7341 12.3248 15.6931 12.3325 15.6494C12.3402 15.6057 12.3367 15.5609 12.3223 15.5189L11.964 14.4648C11.943 14.4029 11.9064 14.3474 11.8578 14.3037C11.8092 14.26 11.7502 14.2295 11.6864 14.2151C10.1619 13.849 8.81233 12.964 7.86896 11.7117L7.86017 11.7029C7.85458 11.6953 7.84817 11.6885 7.84109 11.6823L7.81904 11.6676L7.79699 11.6589H7.76912H6.42711C6.41784 11.658 6.40852 11.658 6.39924 11.6589H6.37424C6.36908 11.6624 6.36416 11.6664 6.35954 11.6706C6.35114 11.6757 6.34329 11.6815 6.33606 11.6882C6.33063 11.6946 6.3257 11.7015 6.32137 11.7088C6.31614 11.7161 6.31175 11.724 6.30819 11.7323C6.30723 11.7415 6.30723 11.7509 6.30819 11.7601C6.30772 11.7665 6.30772 11.7729 6.30819 11.7792C6.30612 11.7933 6.30612 11.8077 6.30819 11.8218Z" fill="#EDF4FF"/>
</svg>
