<svg width="45" height="45" viewBox="0 0 45 45" fill="none" xmlns="http://www.w3.org/2000/svg">
<rect x="0.5" y="0.5" width="43.7018" height="43.7018" rx="21.8509" stroke="url(#paint0_linear_166_1313)"/>
<path d="M22 38C30.8366 38 38 30.8366 38 22C38 13.1634 30.8366 6 22 6C13.1634 6 6 13.1634 6 22C6 30.8366 13.1634 38 22 38Z" fill="#F7931A"/>
<path d="M29.1892 20.02C29.5032 17.92 27.9062 16.797 25.7242 16.045L26.4322 13.205L24.7002 12.775L24.0102 15.54C23.5562 15.426 23.0902 15.32 22.6252 15.214L23.3202 12.431L21.6002 12L20.8922 14.839C20.5162 14.753 20.1462 14.669 19.7922 14.579V14.57L17.4082 13.97L16.9482 15.816C16.9482 15.816 18.2312 16.11 18.2042 16.128C18.4427 16.159 18.6595 16.2822 18.8083 16.4712C18.9571 16.6602 19.026 16.8999 19.0002 17.139L18.2002 20.374C18.2613 20.3893 18.3214 20.4083 18.3802 20.431L18.1972 20.386L17.0672 24.918C17.0422 24.9971 17.0018 25.0705 16.9483 25.1339C16.8949 25.1973 16.8295 25.2496 16.7558 25.2877C16.6821 25.3258 16.6017 25.349 16.519 25.3559C16.4363 25.3628 16.3531 25.3533 16.2742 25.328C16.2922 25.353 15.0182 25.015 15.0182 25.015L14.1602 26.993L16.4102 27.554C16.8282 27.654 17.2382 27.769 17.6412 27.872L16.9262 30.744L18.6532 31.174L19.3612 28.334C19.8332 28.461 20.2912 28.579 20.7392 28.691L20.0332 31.519L21.7612 31.949L22.4762 29.083C25.4242 29.641 27.6402 29.416 28.5762 26.75C29.3282 24.604 28.5392 23.365 26.9882 22.558C27.5847 22.438 28.1247 22.124 28.5239 21.6649C28.9231 21.2057 29.1592 20.6274 29.1952 20.02H29.1892ZM25.2392 25.558C24.7062 27.705 21.0912 26.544 19.9192 26.253L20.8692 22.448C22.0412 22.741 25.8002 23.32 25.2392 25.558ZM25.7742 19.989C25.2872 21.942 22.2792 20.949 21.3042 20.706L22.1642 17.256C23.1392 17.499 26.2822 17.956 25.7742 19.989Z" fill="white"/>
<defs>
<linearGradient id="paint0_linear_166_1313" x1="22.3509" y1="0" x2="22.3509" y2="44.7018" gradientUnits="userSpaceOnUse">
<stop stop-color="#F7931A"/>
<stop offset="1" stop-color="#F7931A" stop-opacity="0"/>
</linearGradient>
</defs>
</svg>
