<svg width="21" height="21" viewBox="0 0 21 21" fill="none" xmlns="http://www.w3.org/2000/svg">
<path d="M10.4473 0.896484C7.7951 0.896484 5.25156 1.95005 3.3762 3.82542C1.50083 5.70078 0.447266 8.24432 0.447266 10.8965C0.447266 13.5486 1.50083 16.0922 3.3762 17.9676C5.25156 19.8429 7.7951 20.8965 10.4473 20.8965C13.0994 20.8965 15.643 19.8429 17.5183 17.9676C19.3937 16.0922 20.4473 13.5486 20.4473 10.8965C20.4473 8.24432 19.3937 5.70078 17.5183 3.82542C15.643 1.95005 13.0994 0.896484 10.4473 0.896484V0.896484Z" fill="#1565C0"/>
<path d="M11.7983 13.5469H14.3862L14.7925 10.918H11.7978V9.48114C11.7978 8.38904 12.1546 7.42062 13.1762 7.42062H14.8178V5.12641C14.5293 5.08746 13.9193 5.0022 12.7667 5.0022C10.3599 5.0022 8.94882 6.27325 8.94882 9.16904V10.918H6.47461V13.5469H8.94882V20.7727C9.43882 20.8464 9.93514 20.8964 10.4446 20.8964C10.9051 20.8964 11.3546 20.8543 11.7983 20.7943V13.5469Z" fill="white"/>
</svg>
