<svg width="45" height="45" viewBox="0 0 45 45" fill="none" xmlns="http://www.w3.org/2000/svg">
<rect x="0.5" y="0.5" width="43.7018" height="43.7018" rx="21.8509" stroke="url(#paint0_linear_166_1318)"/>
<g clip-path="url(#clip0_166_1318)">
<path d="M22 38C30.8366 38 38 30.8366 38 22C38 13.1634 30.8366 6 22 6C13.1634 6 6 13.1634 6 22C6 30.8366 13.1634 38 22 38Z" fill="#26A17B"/>
<path fill-rule="evenodd" clip-rule="evenodd" d="M23.9218 23.3833V23.3813C23.8118 23.3893 23.2448 23.4233 21.9798 23.4233C20.9698 23.4233 20.2588 23.3933 20.0088 23.3813V23.3843C16.1208 23.2133 13.2188 22.5363 13.2188 21.7263C13.2188 20.9173 16.1208 20.2403 20.0088 20.0663V22.7103C20.2628 22.7283 20.9908 22.7713 21.9968 22.7713C23.2038 22.7713 23.8088 22.7213 23.9218 22.7113V20.0683C27.8018 20.2413 30.6968 20.9183 30.6968 21.7263C30.6968 22.5363 27.8018 23.2113 23.9218 23.3833ZM23.9218 19.7933V17.4273H29.3358V13.8193H14.5948V17.4273H20.0088V19.7923C15.6088 19.9943 12.2998 20.8663 12.2998 21.9103C12.2998 22.9543 15.6088 23.8253 20.0088 24.0283V31.6103H23.9218V24.0263C28.3148 23.8243 31.6158 22.9533 31.6158 21.9103C31.6158 20.8673 28.3148 19.9963 23.9218 19.7933Z" fill="white"/>
</g>
<defs>
<linearGradient id="paint0_linear_166_1318" x1="22.3509" y1="0" x2="22.3509" y2="44.7018" gradientUnits="userSpaceOnUse">
<stop stop-color="#26A17B"/>
<stop offset="1" stop-color="#26A17B" stop-opacity="0"/>
</linearGradient>
<clipPath id="clip0_166_1318">
<rect width="32" height="32" fill="white" transform="translate(6 6)"/>
</clipPath>
</defs>
</svg>
