<svg width="231" height="231" viewBox="0 0 231 231" fill="none" xmlns="http://www.w3.org/2000/svg">
<rect width="231" height="231" rx="20" fill="white"/>
<path d="M96.5169 19.001H88.8906V26.6272H96.5169V19.001Z" fill="black"/>
<path d="M88.8919 26.6279H81.2656V34.2542H88.8919V26.6279Z" fill="black"/>
<path d="M141.749 26.6282H134.123V34.2544H141.749V26.6282Z" fill="black"/>
<path d="M149.091 26.6279H141.465V34.2542H149.091V26.6279Z" fill="black"/>
<path d="M96.5169 26.6279H88.8906V34.2542H96.5169V26.6279Z" fill="black"/>
<path d="M111.771 26.6279H104.145V34.2542H111.771V26.6279Z" fill="black"/>
<path d="M119.398 26.6279H111.771V34.2542H119.398V26.6279Z" fill="black"/>
<path d="M96.5169 34.2539H88.8906V41.8801H96.5169V34.2539Z" fill="black"/>
<path d="M104.142 34.2539H96.5156V41.8801H104.142V34.2539Z" fill="black"/>
<path d="M111.771 34.2539H104.145V41.8801H111.771V34.2539Z" fill="black"/>
<path d="M134.648 34.2539H127.021V41.8801H134.648V34.2539Z" fill="black"/>
<path d="M88.8919 41.8799H81.2656V49.5061H88.8919V41.8799Z" fill="black"/>
<path d="M141.749 41.8799H134.123V49.5061H141.749V41.8799Z" fill="black"/>
<path d="M96.5169 41.8799H88.8906V49.5061H96.5169V41.8799Z" fill="black"/>
<path d="M111.771 41.8799H104.145V49.5061H111.771V41.8799Z" fill="black"/>
<path d="M127.023 41.8799H119.396V49.5061H127.023V41.8799Z" fill="black"/>
<path d="M134.648 41.8799H127.021V49.5061H134.648V41.8799Z" fill="black"/>
<path d="M104.142 49.507H96.5156V57.1332H104.142V49.507Z" fill="black"/>
<path d="M119.398 49.5068H111.771V57.1331H119.398V49.5068Z" fill="black"/>
<path d="M150.232 49.507H142.605V57.1332H150.232V49.507Z" fill="black"/>
<path d="M134.648 49.5068H127.021V57.1331H134.648V49.5068Z" fill="black"/>
<path d="M88.8919 57.1348H81.2656V64.761H88.8919V57.1348Z" fill="black"/>
<path d="M141.749 57.1348H134.123V64.761H141.749V57.1348Z" fill="black"/>
<path d="M104.142 57.1348H96.5156V64.761H104.142V57.1348Z" fill="black"/>
<path d="M127.023 57.1348H119.396V64.761H127.023V57.1348Z" fill="black"/>
<path d="M88.8919 64.7607H81.2656V72.387H88.8919V64.7607Z" fill="black"/>
<path d="M141.749 64.7607H134.123V72.387H141.749V64.7607Z" fill="black"/>
<path d="M104.142 64.7607H96.5156V72.387H104.142V64.7607Z" fill="black"/>
<path d="M119.398 64.7607H111.771V72.387H119.398V64.7607Z" fill="black"/>
<path d="M134.648 64.7607H127.021V72.387H134.648V64.7607Z" fill="black"/>
<path d="M119.398 72.3867H111.771V80.013H119.398V72.3867Z" fill="black"/>
<path d="M150.232 72.3867H142.605V80.013H150.232V72.3867Z" fill="black"/>
<path d="M134.648 72.3867H127.021V80.013H134.648V72.3867Z" fill="black"/>
<path d="M27.8801 80.0127H20.2539V87.6389H27.8801V80.0127Z" fill="black"/>
<path d="M35.5051 80.0127H27.8789V87.6389H35.5051V80.0127Z" fill="black"/>
<path d="M43.1301 80.0127H35.5039V87.6389H43.1301V80.0127Z" fill="black"/>
<path d="M50.7591 80.0127H43.1328V87.6389H50.7591V80.0127Z" fill="black"/>
<path d="M58.3841 80.0127H50.7578V87.6389H58.3841V80.0127Z" fill="black"/>
<path d="M73.638 80.0127H66.0117V87.6389H73.638V80.0127Z" fill="black"/>
<path d="M81.263 80.0127H73.6367V87.6389H81.263V80.0127Z" fill="black"/>
<path d="M88.8919 80.0127H81.2656V87.6389H88.8919V80.0127Z" fill="black"/>
<path d="M96.5169 80.0127H88.8906V87.6389H96.5169V80.0127Z" fill="black"/>
<path d="M104.142 80.0127H96.5156V87.6389H104.142V80.0127Z" fill="black"/>
<path d="M119.398 80.0127H111.771V87.6389H119.398V80.0127Z" fill="black"/>
<path d="M150.232 80.0127H142.605V87.6389H150.232V80.0127Z" fill="black"/>
<path d="M127.023 80.0127H119.396V87.6389H127.023V80.0127Z" fill="black"/>
<path d="M134.648 80.0127H127.021V87.6389H134.648V80.0127Z" fill="black"/>
<path d="M35.5051 87.6396H27.8789V95.2659H35.5051V87.6396Z" fill="black"/>
<path d="M66.013 87.6396H58.3867V95.2659H66.013V87.6396Z" fill="black"/>
<path d="M96.5169 87.6396H88.8906V95.2659H96.5169V87.6396Z" fill="black"/>
<path d="M43.1301 95.2656H35.5039V102.892H43.1301V95.2656Z" fill="black"/>
<path d="M50.7591 95.2656H43.1328V102.892H50.7591V95.2656Z" fill="black"/>
<path d="M66.013 95.2656H58.3867V102.892H66.013V95.2656Z" fill="black"/>
<path d="M73.638 95.2656H66.0117V102.892H73.638V95.2656Z" fill="black"/>
<path d="M81.263 95.2656H73.6367V102.892H81.263V95.2656Z" fill="black"/>
<path d="M88.8919 95.2656H81.2656V102.892H88.8919V95.2656Z" fill="black"/>
<path d="M96.5169 95.2656H88.8906V102.892H96.5169V95.2656Z" fill="black"/>
<path d="M111.771 95.2656H104.145V102.892H111.771V95.2656Z" fill="black"/>
<path d="M119.398 95.2656H111.771V102.892H119.398V95.2656Z" fill="black"/>
<path d="M127.023 95.2656H119.396V102.892H127.023V95.2656Z" fill="black"/>
<path d="M134.648 95.2656H127.021V102.892H134.648V95.2656Z" fill="black"/>
<path d="M142.277 95.2656H134.65V102.892H142.277V95.2656Z" fill="black"/>
<path d="M149.902 95.2656H142.275V102.892H149.902V95.2656Z" fill="black"/>
<path d="M157.531 95.2656H149.904V102.892H157.531V95.2656Z" fill="black"/>
<path d="M165.156 95.2656H157.529V102.892H165.156V95.2656Z" fill="black"/>
<path d="M180.409 95.2656H172.783V102.892H180.409V95.2656Z" fill="black"/>
<path d="M188.034 95.2656H180.408V102.892H188.034V95.2656Z" fill="black"/>
<path d="M203.288 95.2656H195.662V102.892H203.288V95.2656Z" fill="black"/>
<path d="M210.913 95.2656H203.287V102.892H210.913V95.2656Z" fill="black"/>
<path d="M43.1301 102.894H35.5039V110.52H43.1301V102.894Z" fill="black"/>
<path d="M50.7591 102.894H43.1328V110.52H50.7591V102.894Z" fill="black"/>
<path d="M88.8919 102.894H81.2656V110.52H88.8919V102.894Z" fill="black"/>
<path d="M96.5169 102.894H88.8906V110.52H96.5169V102.894Z" fill="black"/>
<path d="M104.142 102.893H96.5156V110.52H104.142V102.893Z" fill="black"/>
<path d="M111.771 102.894H104.145V110.52H111.771V102.894Z" fill="black"/>
<path d="M142.277 102.893H134.65V110.52H142.277V102.893Z" fill="black"/>
<path d="M149.902 102.894H142.275V110.52H149.902V102.894Z" fill="black"/>
<path d="M157.531 102.894H149.904V110.52H157.531V102.894Z" fill="black"/>
<path d="M165.156 102.893H157.529V110.52H165.156V102.893Z" fill="black"/>
<path d="M172.784 102.894H165.158V110.52H172.784V102.894Z" fill="black"/>
<path d="M180.409 102.894H172.783V110.52H180.409V102.894Z" fill="black"/>
<path d="M210.913 102.894H203.287V110.52H210.913V102.894Z" fill="black"/>
<path d="M66.013 110.52H58.3867V118.146H66.013V110.52Z" fill="black"/>
<path d="M73.638 110.52H66.0117V118.146H73.638V110.52Z" fill="black"/>
<path d="M96.5169 110.52H88.8906V118.146H96.5169V110.52Z" fill="black"/>
<path d="M111.771 110.52H104.145V118.146H111.771V110.52Z" fill="black"/>
<path d="M134.648 110.52H127.021V118.146H134.648V110.52Z" fill="black"/>
<path d="M142.277 110.519H134.65V118.146H142.277V110.519Z" fill="black"/>
<path d="M157.531 110.52H149.904V118.146H157.531V110.52Z" fill="black"/>
<path d="M165.156 110.519H157.529V118.146H165.156V110.519Z" fill="black"/>
<path d="M180.409 110.52H172.783V118.146H180.409V110.52Z" fill="black"/>
<path d="M195.663 110.52H188.037V118.146H195.663V110.52Z" fill="black"/>
<path d="M203.288 110.52H195.662V118.146H203.288V110.52Z" fill="black"/>
<path d="M210.913 110.52H203.287V118.146H210.913V110.52Z" fill="black"/>
<path d="M27.8801 118.145H20.2539V125.772H27.8801V118.145Z" fill="black"/>
<path d="M35.5051 118.145H27.8789V125.772H35.5051V118.145Z" fill="black"/>
<path d="M43.1301 118.146H35.5039V125.772H43.1301V118.146Z" fill="black"/>
<path d="M58.3841 118.145H50.7578V125.772H58.3841V118.145Z" fill="black"/>
<path d="M88.8919 118.146H81.2656V125.772H88.8919V118.146Z" fill="black"/>
<path d="M96.5169 118.146H88.8906V125.772H96.5169V118.146Z" fill="black"/>
<path d="M104.142 118.145H96.5156V125.772H104.142V118.145Z" fill="black"/>
<path d="M119.398 118.146H111.771V125.772H119.398V118.146Z" fill="black"/>
<path d="M149.902 118.146H142.275V125.772H149.902V118.146Z" fill="black"/>
<path d="M188.034 118.145H180.408V125.772H188.034V118.145Z" fill="black"/>
<path d="M203.288 118.146H195.662V125.772H203.288V118.146Z" fill="black"/>
<path d="M27.8801 125.772H20.2539V133.399H27.8801V125.772Z" fill="black"/>
<path d="M43.1301 125.772H35.5039V133.399H43.1301V125.772Z" fill="black"/>
<path d="M50.7591 125.772H43.1328V133.399H50.7591V125.772Z" fill="black"/>
<path d="M66.013 125.772H58.3867V133.399H66.013V125.772Z" fill="black"/>
<path d="M73.638 125.772H66.0117V133.399H73.638V125.772Z" fill="black"/>
<path d="M142.277 125.772H134.65V133.399H142.277V125.772Z" fill="black"/>
<path d="M149.902 125.772H142.275V133.399H149.902V125.772Z" fill="black"/>
<path d="M165.156 133.113H157.529V140.74H165.156V133.113Z" fill="black"/>
<path d="M188.034 125.772H180.408V133.399H188.034V125.772Z" fill="black"/>
<path d="M203.288 125.772H195.662V133.399H203.288V125.772Z" fill="black"/>
<path d="M210.913 125.772H203.287V133.399H210.913V125.772Z" fill="black"/>
<path d="M27.8801 133.4H20.2539V141.026H27.8801V133.4Z" fill="black"/>
<path d="M88.8919 133.399H81.2656V141.026H88.8919V133.399Z" fill="black"/>
<path d="M119.398 133.399H111.771V141.026H119.398V133.399Z" fill="black"/>
<path d="M134.648 133.399H127.021V141.026H134.648V133.399Z" fill="black"/>
<path d="M142.277 133.4H134.65V141.026H142.277V133.4Z" fill="black"/>
<path d="M149.902 133.399H142.275V141.026H149.902V133.399Z" fill="black"/>
<path d="M157.531 133.399H149.904V141.026H157.531V133.399Z" fill="black"/>
<path d="M165.156 140.741H157.529V148.367H165.156V140.741Z" fill="black"/>
<path d="M172.784 133.399H165.158V141.026H172.784V133.399Z" fill="black"/>
<path d="M180.409 133.399H172.783V141.026H180.409V133.399Z" fill="black"/>
<path d="M188.034 133.4H180.408V141.026H188.034V133.4Z" fill="black"/>
<path d="M210.913 133.399H203.287V141.026H210.913V133.399Z" fill="black"/>
<path d="M27.8801 141.026H20.2539V148.652H27.8801V141.026Z" fill="black"/>
<path d="M50.7591 141.025H43.1328V148.652H50.7591V141.025Z" fill="black"/>
<path d="M58.3841 141.026H50.7578V148.652H58.3841V141.026Z" fill="black"/>
<path d="M66.013 141.025H58.3867V148.652H66.013V141.025Z" fill="black"/>
<path d="M73.638 141.025H66.0117V148.652H73.638V141.025Z" fill="black"/>
<path d="M96.5169 141.025H88.8906V148.652H96.5169V141.025Z" fill="black"/>
<path d="M104.142 141.026H96.5156V148.652H104.142V141.026Z" fill="black"/>
<path d="M119.398 141.025H111.771V148.652H119.398V141.025Z" fill="black"/>
<path d="M127.023 141.025H119.396V148.652H127.023V141.025Z" fill="black"/>
<path d="M134.648 141.025H127.021V148.652H134.648V141.025Z" fill="black"/>
<path d="M149.902 141.025H142.275V148.652H149.902V141.025Z" fill="black"/>
<path d="M157.531 141.025H149.904V148.652H157.531V141.025Z" fill="black"/>
<path d="M165.156 148.367H157.529V155.993H165.156V148.367Z" fill="black"/>
<path d="M165.156 88.168H157.529V95.7942H165.156V88.168Z" fill="black"/>
<path d="M172.784 141.025H165.158V148.652H172.784V141.025Z" fill="black"/>
<path d="M172.784 80.8262H165.158V88.4524H172.784V80.8262Z" fill="black"/>
<path d="M180.409 141.025H172.783V148.652H180.409V141.025Z" fill="black"/>
<path d="M180.409 80.8262H172.783V88.4524H180.409V80.8262Z" fill="black"/>
<path d="M195.663 141.025H188.037V148.652H195.663V141.025Z" fill="black"/>
<path d="M195.663 80.8262H188.037V88.4524H195.663V80.8262Z" fill="black"/>
<path d="M88.8919 148.652H81.2656V156.279H88.8919V148.652Z" fill="black"/>
<path d="M104.142 148.652H96.5156V156.279H104.142V148.652Z" fill="black"/>
<path d="M134.648 148.652H127.021V156.279H134.648V148.652Z" fill="black"/>
<path d="M142.277 148.652H134.65V156.279H142.277V148.652Z" fill="black"/>
<path d="M149.902 148.652H142.275V156.279H149.902V148.652Z" fill="black"/>
<path d="M88.8919 156.278H81.2656V163.905H88.8919V156.278Z" fill="black"/>
<path d="M96.5169 156.278H88.8906V163.905H96.5169V156.278Z" fill="black"/>
<path d="M104.142 156.278H96.5156V163.905H104.142V156.278Z" fill="black"/>
<path d="M111.771 156.278H104.145V163.905H111.771V156.278Z" fill="black"/>
<path d="M119.398 156.278H111.771V163.905H119.398V156.278Z" fill="black"/>
<path d="M111.771 163.904H104.145V171.531H111.771V163.904Z" fill="black"/>
<path d="M149.902 163.904H142.275V171.531H149.902V163.904Z" fill="black"/>
<path d="M88.8919 171.532H81.2656V179.158H88.8919V171.532Z" fill="black"/>
<path d="M104.142 171.532H96.5156V179.158H104.142V171.532Z" fill="black"/>
<path d="M111.771 171.532H104.145V179.158H111.771V171.532Z" fill="black"/>
<path d="M142.277 171.532H134.65V179.158H142.277V171.532Z" fill="black"/>
<path d="M88.8919 179.158H81.2656V186.784H88.8919V179.158Z" fill="black"/>
<path d="M104.142 179.158H96.5156V186.784H104.142V179.158Z" fill="black"/>
<path d="M119.398 179.158H111.771V186.784H119.398V179.158Z" fill="black"/>
<path d="M127.023 179.158H119.396V186.784H127.023V179.158Z" fill="black"/>
<path d="M142.277 179.158H134.65V186.784H142.277V179.158Z" fill="black"/>
<path d="M88.8919 186.784H81.2656V194.41H88.8919V186.784Z" fill="black"/>
<path d="M96.5169 186.784H88.8906V194.41H96.5169V186.784Z" fill="black"/>
<path d="M127.023 186.784H119.396V194.41H127.023V186.784Z" fill="black"/>
<path d="M134.648 186.784H127.021V194.41H134.648V186.784Z" fill="black"/>
<path d="M149.902 186.784H142.275V194.41H149.902V186.784Z" fill="black"/>
<path d="M88.8919 194.411H81.2656V202.037H88.8919V194.411Z" fill="black"/>
<path d="M119.398 194.411H111.771V202.037H119.398V194.411Z" fill="black"/>
<path d="M127.023 194.411H119.396V202.037H127.023V194.411Z" fill="black"/>
<path d="M142.277 194.411H134.65V202.038H142.277V194.411Z" fill="black"/>
<path d="M149.902 194.411H142.275V202.037H149.902V194.411Z" fill="black"/>
<path d="M88.8919 202.037H81.2656V209.663H88.8919V202.037Z" fill="black"/>
<path d="M119.398 202.037H111.771V209.663H119.398V202.037Z" fill="black"/>
<path d="M134.648 202.037H127.021V209.663H134.648V202.037Z" fill="black"/>
<path d="M142.277 202.037H134.65V209.663H142.277V202.037Z" fill="black"/>
<path d="M54.8995 155.551H38.0921C34.2085 155.542 30.4251 156.783 27.3006 159.089C24.1762 161.396 21.8766 164.646 20.7415 168.36C20.5102 169.13 20.3322 169.915 20.2085 170.709C20.0692 171.611 19.9995 172.522 20 173.435V190.643C20.0326 195.413 21.9557 199.975 25.3473 203.328C28.739 206.682 33.3224 208.553 38.0921 208.532H54.8995C59.6695 208.553 64.2531 206.682 67.6448 203.328C71.0366 199.974 72.9594 195.411 72.9917 190.641V173.435C72.9579 168.666 71.0343 164.105 67.6427 160.753C64.2511 157.4 59.6684 155.529 54.8995 155.551ZM65.0424 190.643C65.0126 193.306 63.9276 195.848 62.0255 197.712C60.1234 199.576 57.5595 200.609 54.8966 200.585H38.0936C35.4309 200.609 32.8673 199.576 30.9653 197.712C29.0632 195.849 27.978 193.307 27.9478 190.644V173.435C27.9462 171.778 28.3682 170.147 29.1738 168.699C29.9312 167.343 30.992 166.179 32.2733 165.3C33.9848 164.124 36.0138 163.496 38.0907 163.5H54.8995C57.5612 163.476 60.1238 164.508 62.0253 166.371C63.9268 168.234 65.0118 170.774 65.0424 173.436V190.643Z" fill="black"/>
<path d="M54.8995 20.4689H38.0921C34.2085 20.46 30.4251 21.7005 27.3006 24.0071C24.1762 26.3138 21.8766 29.5642 20.7415 33.2782C20.5102 34.0482 20.3322 34.8331 20.2085 35.6274C20.0692 36.5291 19.9995 37.4402 20 38.3526V55.5608C20.0326 60.3305 21.9557 64.8925 25.3473 68.2462C28.739 71.5999 33.3224 73.4714 38.0921 73.4503H54.8995C59.6695 73.4714 64.2531 71.5997 67.6448 68.2457C71.0366 64.8916 72.9594 60.3293 72.9917 55.5593V38.3526C72.9579 33.5838 71.0343 29.0231 67.6427 25.6706C64.2511 22.3181 59.6684 20.4474 54.8995 20.4689ZM65.0424 55.5608C65.0126 58.2237 63.9276 60.766 62.0255 62.6298C60.1234 64.4937 57.5595 65.5268 54.8966 65.5025H38.0936C35.4309 65.5268 32.8673 64.4939 30.9653 62.6304C29.0632 60.7668 27.978 58.2249 27.9478 55.5623V38.3526C27.9462 36.6955 28.3682 35.0655 29.1738 33.6174C29.9312 32.2606 30.992 31.0973 32.2733 30.2183C33.9848 29.0416 36.0138 28.4138 38.0907 28.4182H54.8995C57.5612 28.3939 60.1238 29.4263 62.0253 31.289C63.9268 33.1516 65.0118 35.6924 65.0424 38.354V55.5608Z" fill="black"/>
<path d="M192.919 157.019H176.112C172.228 157.01 168.445 158.25 165.32 160.557C162.196 162.864 159.896 166.114 158.761 169.828C158.53 170.598 158.352 171.383 158.228 172.177C158.089 173.079 158.019 173.99 158.02 174.902V192.111C158.052 196.88 159.975 201.442 163.367 204.796C166.759 208.15 171.342 210.021 176.112 210H192.919C197.689 210.021 202.273 208.149 205.664 204.795C209.056 201.441 210.979 196.879 211.011 192.109V174.902C210.977 170.134 209.054 165.573 205.662 162.22C202.271 158.868 197.688 156.997 192.919 157.019ZM203.062 192.111C203.032 194.774 201.947 197.316 200.045 199.18C198.143 201.043 195.579 202.077 192.916 202.052H176.113C173.45 202.077 170.887 201.044 168.985 199.18C167.083 197.317 165.998 194.775 165.967 192.112V174.902C165.966 173.245 166.388 171.615 167.193 170.167C167.951 168.81 169.012 167.647 170.293 166.768C172.004 165.591 174.033 164.964 176.11 164.968H192.919C195.581 164.944 198.143 165.976 200.045 167.839C201.946 169.701 203.031 172.242 203.062 174.904V192.111Z" fill="black"/>
<path d="M192.919 19.0002H176.112C172.228 18.9913 168.445 20.2318 165.32 22.5384C162.196 24.845 159.896 28.0954 158.761 31.8095C158.53 32.5794 158.352 33.3643 158.228 34.1587C158.089 35.0604 158.019 35.9714 158.02 36.8838V54.0921C158.052 58.8617 159.975 63.4237 163.367 66.7774C166.759 70.1311 171.342 72.0027 176.112 71.9816H192.919C197.689 72.0027 202.273 70.1309 205.664 66.7769C209.056 63.4229 210.979 58.8605 211.011 54.0906V36.8838C210.977 32.1151 209.054 27.5543 205.662 24.2018C202.271 20.8493 197.688 18.9787 192.919 19.0002ZM203.062 54.0921C203.032 56.7549 201.947 59.2972 200.045 61.1611C198.143 63.0249 195.579 64.0581 192.916 64.0338H176.113C173.45 64.0581 170.887 63.0251 168.985 61.1616C167.083 59.2981 165.998 56.7562 165.967 54.0935V36.8838C165.966 35.2267 166.388 33.5967 167.193 32.1486C167.951 30.7919 169.012 29.6286 170.293 28.7496C172.004 27.5729 174.033 26.945 176.11 26.9494H192.919C195.581 26.9252 198.143 27.9576 200.045 29.8202C201.946 31.6829 203.031 34.2237 203.062 36.8853V54.0921Z" fill="black"/>
<path d="M41.3573 193.398C39.7266 193.411 38.1569 192.778 36.9918 191.637C35.8268 190.496 35.1611 188.94 35.1406 187.309V176.771C35.1407 175.758 35.3989 174.761 35.8909 173.874C36.3538 173.042 37.0037 172.329 37.7894 171.791C38.8389 171.069 40.0835 170.684 41.3573 170.687H51.6514C53.2815 170.672 54.8509 171.304 56.0155 172.445C57.1801 173.585 57.8447 175.141 57.8637 176.771V187.309C57.8432 188.939 57.1782 190.495 56.0141 191.636C54.8499 192.777 53.2814 193.41 51.6514 193.398H41.3573Z" fill="black"/>
<path d="M41.3573 58.3161C39.7266 58.3294 38.1569 57.6963 36.9918 56.5551C35.8268 55.414 35.1611 53.8578 35.1406 52.2271V41.6893C35.1407 40.6756 35.3989 39.6787 35.8909 38.7924C36.3538 37.9602 37.0037 37.2469 37.7894 36.7089C38.8389 35.9869 40.0835 35.6018 41.3573 35.6047H51.6514C53.2815 35.5899 54.8509 36.2221 56.0155 37.3627C57.1801 38.5033 57.8447 40.0593 57.8637 41.6893V52.2271C57.8432 53.8571 57.1782 55.4126 56.0141 56.5536C54.8499 57.6946 53.2814 58.3283 51.6514 58.3161H41.3573Z" fill="black"/>
<path d="M179.369 194.867C177.738 194.88 176.169 194.247 175.004 193.106C173.838 191.965 173.173 190.409 173.152 188.778V178.24C173.152 177.226 173.411 176.229 173.903 175.343C174.366 174.511 175.015 173.798 175.801 173.26C176.851 172.538 178.095 172.153 179.369 172.156H198.163C191.293 172.141 192.863 172.773 194.027 173.913C195.192 175.054 195.856 176.61 195.875 178.24V188.778C195.855 190.408 195.19 191.963 194.026 193.104C192.862 194.245 191.293 194.879 198.163 194.867H179.369Z" fill="black"/>
<path d="M179.369 56.8473C177.738 56.8607 176.169 56.2275 175.004 55.0864C173.838 53.9452 173.173 52.3891 173.152 50.7584V40.2205C173.152 39.2069 173.411 38.2099 173.903 37.3236C174.366 36.4914 175.015 35.7782 175.801 35.2401C176.851 34.5182 178.095 34.133 179.369 34.136H198.163C191.293 34.1211 192.863 34.7533 194.027 35.894C195.192 37.0346 195.856 38.5905 195.875 40.2205V50.7584C195.855 52.3883 195.19 53.9438 194.026 55.0848C192.862 56.2258 191.293 56.8595 198.163 56.8473H179.369Z" fill="black"/>
<path d="M122.782 89.4775H109.567C100.647 89.4775 93.416 96.7086 93.416 105.629V118.843C93.416 127.763 100.647 134.994 109.567 134.994H122.782C131.702 134.994 138.933 127.763 138.933 118.843V105.629C138.933 96.7086 131.702 89.4775 122.782 89.4775Z" fill="white"/>
<path d="M122.782 85.8066H109.568C98.6206 85.8066 89.7461 94.6812 89.7461 105.628V118.843C89.7461 129.79 98.6206 138.665 109.568 138.665H122.782C133.73 138.665 142.604 129.79 142.604 118.843V105.628C142.604 94.6812 133.73 85.8066 122.782 85.8066Z" stroke="#0059E7" stroke-width="7.3414"/>
<path d="M114.894 94.7242C105.01 94.7242 96.9976 102.737 96.9976 112.621C96.9976 122.505 105.01 130.516 114.894 130.516C121.212 130.516 127.062 127.186 130.286 121.752C126.49 124.486 121.114 126.157 115.172 126.078C113.799 126.06 113.681 125.391 114.21 124.44C107.948 124.077 103.055 118.893 103.055 112.621C103.055 106.082 108.356 100.781 114.894 100.781C118.007 100.781 120.994 102.007 123.21 104.193L126.35 98.8716C123.134 96.1914 119.081 94.7242 114.894 94.7242Z" fill="#0059E7"/>
<path d="M132.869 103.586C132.365 106.168 131.16 109.12 128.563 111.881C125.829 114.787 123.215 116.123 121.075 116.686C120.176 117.977 119.216 119.214 117.918 119.815L103.141 124.877C107.748 126.101 112.84 126.615 117.248 125.783C128.426 123.673 136.304 115.694 134.844 107.959C134.54 106.354 133.859 104.886 132.869 103.586Z" fill="#17DF00"/>
<path d="M122.087 91C122.268 94.806 121.753 98.9226 120.45 103.055C117.697 111.78 109.885 120.4 103.141 124.877C109.151 124.786 118.568 121.688 123.903 116.354C131.271 108.985 133.111 98.8781 128.013 93.7792C126.439 92.2048 124.388 91.2935 122.087 91Z" fill="#FFE500"/>
</svg>
