<svg width="64" height="64" viewBox="0 0 64 64" fill="none" xmlns="http://www.w3.org/2000/svg">
<path d="M28.6501 46.1298L24.0401 52.8398L17.6501 62.1298C17.2701 62.6798 16.6501 62.9998 16.0001 62.9998C15.9001 62.9998 15.7901 62.9898 15.6901 62.9798C14.9301 62.8598 14.3101 62.3098 14.0801 61.5698L11.3901 52.6098L2.43012 49.9198C1.69012 49.6898 1.14012 49.0698 1.02012 48.3098C0.91012 47.5498 1.23012 46.7898 1.87012 46.3498L8.77012 41.6098L17.8701 35.3498C18.6601 34.7998 19.7301 34.8998 20.4101 35.5898L28.4101 43.5898C29.1001 44.2698 29.1901 45.3398 28.6501 46.1298Z" fill="url(#paint0_linear_750_1285)"/>
<path d="M35.35 46.1298L39.96 52.8398L46.35 62.1298C46.73 62.6798 47.35 62.9998 48 62.9998C48.1 62.9998 48.21 62.9898 48.31 62.9798C49.07 62.8598 49.69 62.3098 49.92 61.5698L52.61 52.6098L61.57 49.9198C62.31 49.6898 62.86 49.0698 62.98 48.3098C63.09 47.5498 62.77 46.7898 62.13 46.3498L55.23 41.6098L46.13 35.3498C45.34 34.7998 44.27 34.8998 43.59 35.5898L35.59 43.5898C34.9 44.2698 34.81 45.3398 35.35 46.1298Z" fill="url(#paint1_linear_750_1285)"/>
<path d="M32 51C45.8071 51 57 39.8071 57 26C57 12.1929 45.8071 1 32 1C18.1929 1 7 12.1929 7 26C7 39.8071 18.1929 51 32 51Z" fill="url(#paint2_linear_750_1285)"/>
<path d="M32 44C41.9411 44 50 35.9411 50 26C50 16.0589 41.9411 8 32 8C22.0589 8 14 16.0589 14 26C14 35.9411 22.0589 44 32 44Z" fill="url(#paint3_linear_750_1285)"/>
<path d="M31.5 24H32.5C35.532 24 38 26.467 38 29.5C38 32.012 36.305 34.132 34 34.787V35C34 36.104 33.104 37 32 37C30.896 37 30 36.104 30 35H28C26.896 35 26 34.104 26 33C26 31.896 26.896 31 28 31H32.5C33.327 31 34 30.327 34 29.5C34 28.673 33.327 28 32.5 28H31.5C28.468 28 26 25.533 26 22.5C26 19.988 27.695 17.868 30 17.213V17C30 15.896 30.896 15 32 15C33.104 15 34 15.896 34 17H36C37.104 17 38 17.896 38 19C38 20.104 37.104 21 36 21H31.5C30.673 21 30 21.673 30 22.5C30 23.327 30.673 24 31.5 24Z" fill="#FEF156"/>
<defs>
<linearGradient id="paint0_linear_750_1285" x1="9.08012" y1="55.0598" x2="21.2331" y2="38.8588" gradientUnits="userSpaceOnUse">
<stop offset="0.1462" stop-color="#32EAAD"/>
<stop offset="0.4862" stop-color="#20D39C"/>
<stop offset="0.6297" stop-color="#19B589"/>
</linearGradient>
<linearGradient id="paint1_linear_750_1285" x1="54.92" y1="55.0598" x2="42.767" y2="38.8588" gradientUnits="userSpaceOnUse">
<stop offset="0.1462" stop-color="#32EAAD"/>
<stop offset="0.4862" stop-color="#20D39C"/>
<stop offset="0.6297" stop-color="#19B589"/>
</linearGradient>
<linearGradient id="paint2_linear_750_1285" x1="32" y1="1" x2="32" y2="51" gradientUnits="userSpaceOnUse">
<stop stop-color="#A4EEFF"/>
<stop offset="0.7319" stop-color="#02C0FC"/>
<stop offset="1" stop-color="#27A6FF"/>
</linearGradient>
<linearGradient id="paint3_linear_750_1285" x1="32" y1="8" x2="32" y2="44" gradientUnits="userSpaceOnUse">
<stop stop-color="#FEF156"/>
<stop offset="0.4469" stop-color="#FFC242"/>
<stop offset="1" stop-color="#FC753F"/>
</linearGradient>
</defs>
</svg>
