<svg width="20" height="20" viewBox="0 0 20 20" fill="none" xmlns="http://www.w3.org/2000/svg">
<path d="M18.692 12.543C18.03 12.168 17.246 12.1779 16.592 12.5699L14.622 13.752C14.313 12.878 13.478 12.25 12.5 12.25H7C6.359 12.25 5.77601 12.48 5.30801 12.849C4.98701 12.485 4.523 12.25 4 12.25H2C1.035 12.25 0.25 13.035 0.25 14V18C0.25 18.965 1.035 19.75 2 19.75H4C4.522 19.75 4.98701 19.515 5.30801 19.151C5.77601 19.52 6.359 19.75 7 19.75H12.597C13.671 19.75 14.725 19.38 15.565 18.709L18.968 15.986C19.465 15.588 19.75 14.994 19.75 14.358C19.75 13.597 19.354 12.918 18.692 12.543ZM4.25 18C4.25 18.138 4.138 18.25 4 18.25H2C1.862 18.25 1.75 18.138 1.75 18V14C1.75 13.862 1.862 13.75 2 13.75H4C4.138 13.75 4.25 13.862 4.25 14V15V17V18ZM18.03 14.8149L14.627 17.537C14.053 17.996 13.332 18.249 12.596 18.249H7C6.311 18.249 5.75 17.688 5.75 16.999V14.999C5.75 14.31 6.311 13.749 7 13.749H12.5C12.914 13.749 13.25 14.085 13.25 14.499C13.25 14.913 12.914 15.249 12.5 15.249H9C8.586 15.249 8.25 15.585 8.25 15.999C8.25 16.413 8.586 16.749 9 16.749H12.5C13.343 16.749 14.08 16.283 14.465 15.595L17.364 13.856C17.626 13.697 17.864 13.798 17.953 13.848C18.042 13.899 18.25 14.05 18.25 14.358C18.25 14.537 18.17 14.7039 18.03 14.8149ZM7.763 5.18103C7.434 4.76403 7.25 4.23106 7.25 3.68506C7.25 2.49806 8.10401 1.51002 9.23001 1.29602V1C9.23001 0.586 9.56601 0.25 9.98001 0.25C10.394 0.25 10.73 0.586 10.73 1V1.28894C11.78 1.46994 12.612 2.32202 12.735 3.41602C12.781 3.82802 12.485 4.199 12.074 4.245C11.671 4.295 11.291 3.99598 11.245 3.58398C11.191 3.10798 10.791 2.75 10.315 2.75H9.685C9.169 2.75 8.75 3.16906 8.75 3.68506C8.75 3.89406 8.819 4.097 8.944 4.255C9.076 4.425 9.25301 4.54004 9.45901 4.59204L10.906 4.95105C11.993 5.22605 12.75 6.19796 12.75 7.31396C12.75 7.96297 12.496 8.57403 12.035 9.03503C11.675 9.39503 11.221 9.62398 10.73 9.70898V10C10.73 10.414 10.394 10.75 9.98001 10.75C9.56601 10.75 9.23001 10.414 9.23001 10V9.70801C8.19801 9.51301 7.38601 8.66498 7.26501 7.58398C7.21901 7.17198 7.51499 6.801 7.92599 6.755C8.328 6.70601 8.70901 7.00402 8.755 7.41602C8.809 7.89202 9.209 8.25 9.685 8.25H10.315C10.563 8.25 10.797 8.15198 10.974 7.97498C11.152 7.79698 11.25 7.56294 11.25 7.31494C11.25 6.88594 10.958 6.51298 10.541 6.40698L9.09399 6.04797C8.56599 5.91397 8.094 5.60603 7.763 5.18103Z" fill="#25314C"/>
</svg>
