<svg width="20" height="20" viewBox="0 0 20 20" fill="none" xmlns="http://www.w3.org/2000/svg">
<path d="M19.1599 14.634C19.5399 13.094 19.75 11.505 19.75 10C19.75 4.624 15.376 0.25 10 0.25C4.624 0.25 0.25 4.624 0.25 10C0.25 11.505 0.460088 13.093 0.840088 14.634C0.847088 14.667 0.846004 14.6999 0.854004 14.7319C0.872004 14.8049 0.896039 14.8721 0.915039 14.9441C0.937039 15.0291 0.954051 15.116 0.977051 15.2C0.982051 15.22 0.99693 15.233 1.00293 15.252C1.09793 15.598 1.18912 15.9489 1.29712 16.2759L1.77002 17.8091C2.13402 18.9881 3.22588 19.749 4.40088 19.749C4.66688 19.749 4.9359 19.7099 5.2019 19.6289L6.16699 19.334C6.61399 19.198 6.9819 18.895 7.2019 18.481C7.4209 18.068 7.4671 17.5949 7.3291 17.1479L5.84497 12.292C5.70797 11.845 5.40594 11.4781 4.99194 11.2581C4.57794 11.0381 4.10196 10.9931 3.65796 11.1311L2.71606 11.4199C2.39906 11.5169 2.11597 11.673 1.86597 11.864C1.79597 11.234 1.75 10.607 1.75 9.99902C1.75 5.45002 5.451 1.74902 10 1.74902C14.549 1.74902 18.25 5.45002 18.25 9.99902C18.25 10.608 18.204 11.235 18.134 11.865C17.884 11.674 17.6009 11.5179 17.2839 11.4209L16.342 11.1321C15.899 10.9951 15.4231 11.04 15.0081 11.259C14.5951 11.478 14.292 11.845 14.155 12.293L12.6709 17.147C12.5329 17.594 12.5791 18.068 12.7981 18.48C13.0181 18.894 13.386 19.196 13.832 19.333L14.7981 19.6279C15.0641 19.7099 15.3331 19.748 15.5991 19.748C16.7741 19.748 17.866 18.9871 18.23 17.8081L18.7009 16.283C18.8109 15.951 18.8999 15.6059 18.9929 15.2629C19.0019 15.2409 19.0159 15.223 19.0229 15.199C19.0459 15.115 19.063 15.0281 19.085 14.9431C19.104 14.8711 19.128 14.802 19.146 14.73C19.154 14.699 19.1529 14.667 19.1599 14.634ZM3.15503 12.855L4.09692 12.5659C4.12292 12.5579 4.1479 12.5549 4.1709 12.5549C4.2229 12.5549 4.26409 12.572 4.28809 12.584C4.32209 12.602 4.38391 12.646 4.40991 12.731L5.89404 17.5869C5.92004 17.6719 5.894 17.7419 5.875 17.7759C5.857 17.8099 5.81305 17.8709 5.72705 17.8979L4.76294 18.1931C4.10294 18.3951 3.4049 18.022 3.2019 17.365L2.72412 15.8169C2.58812 15.4079 2.47204 14.9861 2.36304 14.5601C2.34304 14.4831 2.32588 14.4061 2.30688 14.3291C2.17488 13.6881 2.53503 13.046 3.15503 12.855ZM17.2729 15.8191C17.2709 15.8241 17.2701 15.829 17.2681 15.834L16.7949 17.3669C16.5929 18.0239 15.8929 18.3951 15.2339 18.1951L14.269 17.8999C14.183 17.8739 14.1391 17.8131 14.1221 17.7781C14.1031 17.7441 14.077 17.6739 14.103 17.5879L15.5869 12.7329C15.6129 12.6469 15.675 12.603 15.709 12.585C15.733 12.572 15.7739 12.5559 15.8259 12.5559C15.8489 12.5559 15.8739 12.5589 15.8999 12.5669L16.842 12.8569C17.462 13.0469 17.822 13.689 17.688 14.332C17.668 14.409 17.6521 14.487 17.6321 14.563C17.5261 14.988 17.4089 15.4111 17.2729 15.8191Z" fill="#25314C"/>
</svg>
