<svg width="25" height="25" viewBox="0 0 25 25" fill="none" xmlns="http://www.w3.org/2000/svg">
<path d="M22.2528 10.938H21.4473V10.8965H12.4473V14.8965H18.0988C17.2743 17.225 15.0588 18.8965 12.4473 18.8965C9.13377 18.8965 6.44727 16.21 6.44727 12.8965C6.44727 9.58298 9.13377 6.89648 12.4473 6.89648C13.9768 6.89648 15.3683 7.47348 16.4278 8.41598L19.2563 5.58748C17.4703 3.92298 15.0813 2.89648 12.4473 2.89648C6.92477 2.89648 2.44727 7.37398 2.44727 12.8965C2.44727 18.419 6.92477 22.8965 12.4473 22.8965C17.9698 22.8965 22.4473 18.419 22.4473 12.8965C22.4473 12.226 22.3783 11.5715 22.2528 10.938Z" fill="#FBC02D"/>
<path d="M3.59961 8.24198L6.88511 10.6515C7.77411 8.45048 9.92711 6.89648 12.4466 6.89648C13.9761 6.89648 15.3676 7.47348 16.4271 8.41598L19.2556 5.58748C17.4696 3.92298 15.0806 2.89648 12.4466 2.89648C8.60561 2.89648 5.27461 5.06498 3.59961 8.24198Z" fill="#E53935"/>
<path d="M12.4474 22.8968C15.0304 22.8968 17.3774 21.9083 19.1519 20.3008L16.0569 17.6818C15.0529 18.4423 13.8049 18.8968 12.4474 18.8968C9.84642 18.8968 7.63792 17.2383 6.80592 14.9238L3.54492 17.4363C5.19992 20.6748 8.56092 22.8968 12.4474 22.8968Z" fill="#4CAF50"/>
<path d="M22.2528 10.938L22.2448 10.8965H21.4473H12.4473V14.8965H18.0988C17.7028 16.015 16.9833 16.9795 16.0553 17.682C16.0558 17.6815 16.0563 17.6815 16.0568 17.681L19.1518 20.3C18.9328 20.499 22.4473 17.8965 22.4473 12.8965C22.4473 12.226 22.3783 11.5715 22.2528 10.938Z" fill="#1565C0"/>
</svg>
