<svg width="25" height="25" viewBox="0 0 25 25" fill="none" xmlns="http://www.w3.org/2000/svg">
<path d="M12.4473 2.89648C9.7951 2.89648 7.25156 3.95005 5.3762 5.82542C3.50083 7.70078 2.44727 10.2443 2.44727 12.8965C2.44727 15.5486 3.50083 18.0922 5.3762 19.9676C7.25156 21.8429 9.7951 22.8965 12.4473 22.8965C15.0994 22.8965 17.643 21.8429 19.5183 19.9676C21.3937 18.0922 22.4473 15.5486 22.4473 12.8965C22.4473 10.2443 21.3937 7.70078 19.5183 5.82542C17.643 3.95005 15.0994 2.89648 12.4473 2.89648Z" fill="#1565C0"/>
<path d="M13.7983 15.5469H16.3862L16.7925 12.918H13.7978V11.4811C13.7978 10.389 14.1546 9.42062 15.1762 9.42062H16.8178V7.12641C16.5293 7.08746 15.9193 7.0022 14.7667 7.0022C12.3599 7.0022 10.9488 8.27325 10.9488 11.169V12.918H8.47461V15.5469H10.9488V22.7727C11.4388 22.8464 11.9351 22.8964 12.4446 22.8964C12.9051 22.8964 13.3546 22.8543 13.7983 22.7943V15.5469Z" fill="white"/>
</svg>
