<svg width="20" height="20" viewBox="0 0 20 20" fill="none" xmlns="http://www.w3.org/2000/svg">
<path d="M19.484 15.364C19.256 15.77 18.915 16.084 18.497 16.272L11.916 19.328C11.307 19.611 10.654 19.753 10 19.753C9.346 19.753 8.69201 19.611 8.08301 19.328L1.49399 16.268C1.08499 16.084 0.743015 15.771 0.515015 15.364C0.312015 15.003 0.441009 14.546 0.803009 14.343C1.16301 14.142 1.62101 14.269 1.82401 14.631C1.89501 14.758 1.991 14.847 2.117 14.903L8.716 17.967C9.521 18.341 10.48 18.341 11.284 17.967L17.874 14.907C18.009 14.846 18.105 14.757 18.176 14.63C18.378 14.268 18.835 14.14 19.197 14.342C19.558 14.546 19.687 15.003 19.484 15.364ZM19.197 10.02C18.835 9.81799 18.378 9.94501 18.176 10.308C18.105 10.435 18.009 10.524 17.874 10.585L11.284 13.645C10.48 14.019 9.521 14.019 8.716 13.645L2.117 10.581C1.992 10.525 1.89601 10.436 1.82501 10.309C1.62201 9.94699 1.16399 9.81999 0.803986 10.021C0.442986 10.224 0.313991 10.681 0.515991 11.042C0.743991 11.449 1.085 11.762 1.495 11.946L8.08401 15.006C8.69302 15.289 9.34701 15.431 10.001 15.431C10.655 15.431 11.308 15.289 11.917 15.006L18.498 11.95C18.916 11.762 19.258 11.449 19.486 11.042C19.687 10.679 19.558 10.222 19.197 10.02ZM0.25 5.67999C0.25 4.83099 0.727986 4.08301 1.49799 3.72601L8.08401 0.673C9.30101 0.109 10.697 0.109 11.915 0.673L18.501 3.72601C19.271 4.08301 19.749 4.83199 19.749 5.67999C19.749 6.52799 19.271 7.277 18.501 7.634L11.915 10.687C11.307 10.969 10.653 11.11 9.99899 11.11C9.34499 11.11 8.69201 10.969 8.08301 10.687L1.49701 7.634C0.728009 7.277 0.25 6.52899 0.25 5.67999ZM1.75 5.67999C1.75 5.77799 1.777 6.10998 2.129 6.27398L8.715 9.32699C9.532 9.70599 10.469 9.70499 11.284 9.32699L17.87 6.27398C18.222 6.11098 18.249 5.77799 18.249 5.67999C18.249 5.58199 18.222 5.24999 17.87 5.08599L11.284 2.03299C10.876 1.84399 10.437 1.74899 9.99899 1.74899C9.56099 1.74899 9.12299 1.84399 8.71399 2.03299L2.12799 5.08599C1.77699 5.24999 1.75 5.58199 1.75 5.67999Z" fill="#25314C"/>
</svg>
