<svg width="20" height="20" viewBox="0 0 20 20" fill="none" xmlns="http://www.w3.org/2000/svg">
<path d="M8.87994 12.12C8.62394 12.12 8.36816 12.022 8.17316 11.827C6.43116 10.084 6.22211 7.38399 7.67511 5.40799C7.77911 5.24399 7.95318 5.034 8.17218 4.814L11.532 1.453C12.47 0.516003 13.7151 0 15.0391 0C16.3621 0 17.607 0.516003 18.545 1.453C20.479 3.387 20.479 6.53401 18.545 8.46701L16.7051 10.307C16.3141 10.698 15.6821 10.698 15.2911 10.307C14.9001 9.91701 14.9001 9.28401 15.2911 8.89301L17.1312 7.05301C18.2842 5.89901 18.2842 4.021 17.1312 2.867C16.0122 1.749 14.0661 1.749 12.9461 2.867L9.58698 6.22699C9.46998 6.34399 9.38015 6.45201 9.31915 6.54501C8.42215 7.76801 8.54798 9.37499 9.58698 10.413C9.97797 10.804 9.97797 11.437 9.58698 11.827C9.39198 12.022 9.13594 12.12 8.87994 12.12ZM8.46808 18.547L11.827 15.187C12.363 14.651 12.768 14.004 12.991 13.338C13.633 11.55 13.176 9.523 11.827 8.173C11.436 7.782 10.8041 7.782 10.4131 8.172C10.0221 8.562 10.0221 9.196 10.4131 9.586C11.2291 10.404 11.4961 11.582 11.1011 12.682C10.9691 13.077 10.7311 13.453 10.4131 13.772L7.05402 17.132C5.93502 18.251 3.98896 18.25 2.86896 17.132C1.71596 15.978 1.71596 14.1 2.86896 12.946L4.70904 11.106C5.10004 10.715 5.10004 10.082 4.70904 9.69199C4.31805 9.30099 3.68598 9.30099 3.29498 9.69199L1.45514 11.532C-0.478861 13.466 -0.478861 16.612 1.45514 18.546C2.39314 19.483 3.638 19.999 4.961 19.999C6.285 20 7.53008 19.484 8.46808 18.547Z" fill="#25314C"/>
</svg>
