<svg width="20" height="18" viewBox="0 0 20 18" fill="none" xmlns="http://www.w3.org/2000/svg">
<path d="M7.25 2.5C7.25 2.086 7.586 1.75 8 1.75H19C19.414 1.75 19.75 2.086 19.75 2.5C19.75 2.914 19.414 3.25 19 3.25H8C7.586 3.25 7.25 2.914 7.25 2.5ZM19 8.25H8C7.586 8.25 7.25 8.586 7.25 9C7.25 9.414 7.586 9.75 8 9.75H19C19.414 9.75 19.75 9.414 19.75 9C19.75 8.586 19.414 8.25 19 8.25ZM19 14.75H8C7.586 14.75 7.25 15.086 7.25 15.5C7.25 15.914 7.586 16.25 8 16.25H19C19.414 16.25 19.75 15.914 19.75 15.5C19.75 15.086 19.414 14.75 19 14.75ZM4.75 2.5C4.75 3.741 3.741 4.75 2.5 4.75C1.259 4.75 0.25 3.741 0.25 2.5C0.25 1.259 1.259 0.25 2.5 0.25C3.741 0.25 4.75 1.259 4.75 2.5ZM3.25 2.5C3.25 2.086 2.914 1.75 2.5 1.75C2.086 1.75 1.75 2.086 1.75 2.5C1.75 2.914 2.086 3.25 2.5 3.25C2.914 3.25 3.25 2.914 3.25 2.5ZM4.75 9C4.75 10.241 3.741 11.25 2.5 11.25C1.259 11.25 0.25 10.241 0.25 9C0.25 7.759 1.259 6.75 2.5 6.75C3.741 6.75 4.75 7.759 4.75 9ZM3.25 9C3.25 8.586 2.914 8.25 2.5 8.25C2.086 8.25 1.75 8.586 1.75 9C1.75 9.414 2.086 9.75 2.5 9.75C2.914 9.75 3.25 9.414 3.25 9ZM4.75 15.5C4.75 16.741 3.741 17.75 2.5 17.75C1.259 17.75 0.25 16.741 0.25 15.5C0.25 14.259 1.259 13.25 2.5 13.25C3.741 13.25 4.75 14.259 4.75 15.5ZM3.25 15.5C3.25 15.086 2.914 14.75 2.5 14.75C2.086 14.75 1.75 15.086 1.75 15.5C1.75 15.914 2.086 16.25 2.5 16.25C2.914 16.25 3.25 15.914 3.25 15.5Z" fill="#25314C"/>
</svg>
