<svg width="18" height="20" viewBox="0 0 18 20" fill="none" xmlns="http://www.w3.org/2000/svg">
<path d="M9 0.25C4.175 0.25 0.25 4.175 0.25 9C0.25 14.118 4.94599 17.2199 8.05499 19.2729L8.58398 19.624C8.70998 19.708 8.855 19.75 9 19.75C9.145 19.75 9.29002 19.708 9.41602 19.624L9.94501 19.2729C13.053 17.2199 17.75 14.118 17.75 9C17.75 4.175 13.825 0.25 9 0.25ZM9.11902 18.021L9 18.1001L8.88098 18.021C5.87198 16.033 1.75 13.311 1.75 9C1.75 5.002 5.002 1.75 9 1.75C12.998 1.75 16.25 5.002 16.25 9C16.25 13.311 12.128 16.034 9.11902 18.021ZM8.25 9V6C8.25 5.586 8.586 5.25 9 5.25C9.414 5.25 9.75 5.586 9.75 6V9C9.75 9.414 9.414 9.75 9 9.75C8.586 9.75 8.25 9.414 8.25 9ZM10.02 12C10.02 12.552 9.57302 13 9.02002 13C8.46802 13 8.01501 12.552 8.01501 12C8.01501 11.448 8.45801 11 9.01001 11H9.02002C9.57202 11 10.02 11.448 10.02 12Z" fill="#25314C"/>
</svg>
