<svg width="18" height="20" viewBox="0 0 18 20" fill="none" xmlns="http://www.w3.org/2000/svg">
<path d="M9 0.25C4.175 0.25 0.25 4.175 0.25 9C0.25 14.118 4.94699 17.2199 8.05499 19.2729L8.58398 19.624C8.70998 19.708 8.855 19.75 9 19.75C9.145 19.75 9.29002 19.708 9.41602 19.624L9.94501 19.2729C13.053 17.2199 17.75 14.118 17.75 9C17.75 4.175 13.825 0.25 9 0.25ZM9.11902 18.021L9 18.1001L8.88098 18.021C5.87098 16.033 1.75 13.311 1.75 9C1.75 5.002 5.002 1.75 9 1.75C12.998 1.75 16.25 5.002 16.25 9C16.25 13.311 12.128 16.034 9.11902 18.021ZM11.584 6.40503C11.769 7.45703 11.329 8.39703 10.344 9.05103C9.78799 9.42103 9.71302 9.60797 9.71002 9.61597C9.59602 9.91797 9.30401 10.1121 8.99701 10.1121C8.91501 10.1121 8.83201 10.0981 8.75201 10.0701C8.36701 9.93207 8.15898 9.52299 8.28998 9.13599C8.49198 8.53699 9.08498 8.08798 9.51398 7.80298C10.151 7.37998 10.158 6.95102 10.107 6.66602C10.029 6.22402 9.652 5.84702 9.211 5.77002C8.868 5.71002 8.53701 5.79692 8.27802 6.01392C8.02202 6.22892 7.87598 6.54298 7.87598 6.87598C7.87598 7.28998 7.53998 7.62598 7.12598 7.62598C6.71198 7.62598 6.37598 7.28998 6.37598 6.87598C6.37598 6.09898 6.71803 5.36499 7.31403 4.86499C7.91003 4.36499 8.69601 4.15599 9.47101 4.29199C10.528 4.47699 11.398 5.34603 11.584 6.40503ZM10.02 12C10.02 12.552 9.57202 13 9.02002 13C8.46802 13 8.01501 12.552 8.01501 12C8.01501 11.448 8.45701 11 9.01001 11H9.02002C9.57202 11 10.02 11.448 10.02 12Z" fill="#25314C"/>
</svg>
