<svg width="20" height="20" viewBox="0 0 20 20" fill="none" xmlns="http://www.w3.org/2000/svg">
<path d="M13.75 15V16C13.75 18.418 12.418 19.75 10 19.75H4C1.582 19.75 0.25 18.418 0.25 16V4C0.25 1.582 1.582 0.25 4 0.25H10C12.418 0.25 13.75 1.582 13.75 4V5C13.75 5.414 13.414 5.75 13 5.75C12.586 5.75 12.25 5.414 12.25 5V4C12.25 2.423 11.577 1.75 10 1.75H4C2.423 1.75 1.75 2.423 1.75 4V16C1.75 17.577 2.423 18.25 4 18.25H10C11.577 18.25 12.25 17.577 12.25 16V15C12.25 14.586 12.586 14.25 13 14.25C13.414 14.25 13.75 14.586 13.75 15ZM19.692 10.287C19.768 10.104 19.768 9.89699 19.692 9.71399C19.654 9.62199 19.599 9.539 19.53 9.47L16.53 6.47C16.237 6.177 15.762 6.177 15.469 6.47C15.176 6.763 15.176 7.23801 15.469 7.53101L17.189 9.25101H6C5.586 9.25101 5.25 9.58701 5.25 10.001C5.25 10.415 5.586 10.751 6 10.751H17.189L15.469 12.471C15.176 12.764 15.176 13.239 15.469 13.532C15.615 13.678 15.807 13.752 15.999 13.752C16.191 13.752 16.383 13.679 16.529 13.532L19.529 10.532C19.599 10.461 19.654 10.378 19.692 10.287Z" fill="#25314C"/>
</svg>
