<svg width="61" height="61" viewBox="0 0 61 61" fill="none" xmlns="http://www.w3.org/2000/svg">
<path d="M36.7816 7.47754H23.5671C14.6471 7.47754 7.41602 14.7086 7.41602 23.6286V36.8431C7.41602 45.7631 14.6471 52.9942 23.5671 52.9942H36.7816C45.7016 52.9942 52.9327 45.7631 52.9327 36.8431V23.6286C52.9327 14.7086 45.7016 7.47754 36.7816 7.47754Z" fill="white"/>
<path d="M36.7824 3.80664H23.5679C12.6206 3.80664 3.74609 12.6812 3.74609 23.6284V36.8429C3.74609 47.7902 12.6206 56.6647 23.5679 56.6647H36.7824C47.7296 56.6647 56.6041 47.7902 56.6041 36.8429V23.6284C56.6041 12.6812 47.7296 3.80664 36.7824 3.80664Z" stroke="#0059E7" stroke-width="7.3414"/>
<path d="M28.8942 12.7242C19.0103 12.7242 10.9976 20.7366 10.9976 30.6206C10.9976 40.5048 19.0103 48.5164 28.8942 48.5164C35.2124 48.5164 41.0619 45.1856 44.2858 39.7516C40.4895 42.4863 35.1144 44.1571 29.1715 44.078C27.799 44.0599 27.6814 43.3912 28.2098 42.44C21.9477 42.0775 17.0552 36.8933 17.0552 30.6206C17.0552 24.0818 22.3557 18.7815 28.8942 18.7815C32.0071 18.7815 34.9939 20.007 37.2105 22.193L40.3504 16.8716C37.1339 14.1914 33.0808 12.7242 28.8942 12.7242Z" fill="#0059E7"/>
<path d="M46.869 21.5863C46.3653 24.1684 45.1598 27.1203 42.5635 29.8814C39.8293 32.7868 37.2155 34.1234 35.0753 34.6857C34.1756 35.9768 33.2157 37.2142 31.918 37.8147L17.1406 42.8771C21.7481 44.101 26.8398 44.6151 31.2483 43.7829C42.4257 41.6733 50.304 33.6936 48.8442 25.9592C48.5404 24.3538 47.8591 22.8865 46.869 21.5863Z" fill="#17DF00"/>
<path d="M36.0871 9.00002C36.2678 12.806 35.7533 16.9226 34.4504 21.0546C31.6973 29.7803 23.8847 38.3997 17.1411 42.877C23.1515 42.7861 32.5684 39.688 37.9026 34.3539C45.271 26.9847 47.1112 16.8781 42.0129 11.7792C40.4389 10.2048 38.3876 9.2935 36.0871 9.00002Z" fill="#FFE500"/>
</svg>
