<svg width="20" height="20" viewBox="0 0 20 20" fill="none" xmlns="http://www.w3.org/2000/svg">
<path d="M18.92 1.00893C18.4 0.687933 17.764 0.658785 17.217 0.931785L13.79 2.64492C13.643 2.71792 13.468 2.72782 13.311 2.66982L7.21301 0.382957C6.66801 0.177957 6.05599 0.209847 5.53699 0.470847L1.76901 2.35488C0.831012 2.82388 0.248993 3.76684 0.248993 4.81484V17.5028C0.248993 18.1138 0.55901 18.6699 1.07901 18.9909C1.59901 19.3119 2.23501 19.341 2.78201 19.068L6.20901 17.3549C6.35601 17.2819 6.53099 17.272 6.68799 17.33L12.786 19.6168C13.023 19.7058 13.273 19.7499 13.523 19.7499C13.545 19.7499 13.566 19.7428 13.588 19.7428C13.593 19.7428 13.596 19.745 13.601 19.745C13.618 19.745 13.632 19.737 13.648 19.735C13.929 19.718 14.207 19.656 14.463 19.528L18.231 17.6439C19.169 17.1749 19.751 16.232 19.751 15.184V2.49599C19.75 1.88599 19.44 1.32993 18.92 1.00893ZM2.112 17.726C2.004 17.779 1.91299 17.743 1.86899 17.715C1.82499 17.688 1.75 17.6238 1.75 17.5028V4.81484C1.75 4.33784 2.01501 3.90992 2.44101 3.69692L5.64999 2.09292V15.9728C5.61299 15.9888 5.57399 15.9948 5.53799 16.0138L2.112 17.726ZM7.21399 15.9249C7.19299 15.9169 7.17099 15.9149 7.14999 15.9069V1.96084L12.786 4.07387C12.807 4.08187 12.829 4.08396 12.85 4.09096V18.038L7.21399 15.9249ZM18.25 15.185C18.25 15.662 17.985 16.0899 17.559 16.3029L14.35 17.9069V4.02895C14.387 4.01295 14.426 4.00496 14.462 3.98696L17.888 2.27383C17.995 2.21983 18.087 2.25681 18.131 2.28481C18.175 2.31281 18.25 2.37597 18.25 2.49697V15.185Z" fill="#25314C"/>
</svg>
