<svg width="20" height="14" viewBox="0 0 20 14" fill="none" xmlns="http://www.w3.org/2000/svg">
<path d="M0.25 1C0.25 0.586 0.586 0.25 1 0.25H19C19.414 0.25 19.75 0.586 19.75 1C19.75 1.414 19.414 1.75 19 1.75H1C0.586 1.75 0.25 1.414 0.25 1ZM19 6.25H1C0.586 6.25 0.25 6.586 0.25 7C0.25 7.414 0.586 7.75 1 7.75H19C19.414 7.75 19.75 7.414 19.75 7C19.75 6.586 19.414 6.25 19 6.25ZM19 12.25H1C0.586 12.25 0.25 12.586 0.25 13C0.25 13.414 0.586 13.75 1 13.75H19C19.414 13.75 19.75 13.414 19.75 13C19.75 12.586 19.414 12.25 19 12.25Z" fill="#25314C"/>
</svg>
