<svg width="20" height="22" viewBox="0 0 20 22" fill="none" xmlns="http://www.w3.org/2000/svg">
<path d="M14.75 10C14.75 10.414 14.414 10.75 14 10.75H6C5.586 10.75 5.25 10.414 5.25 10C5.25 9.586 5.586 9.25 6 9.25H14C14.414 9.25 14.75 9.586 14.75 10ZM11 13.25H6C5.586 13.25 5.25 13.586 5.25 14C5.25 14.414 5.586 14.75 6 14.75H11C11.414 14.75 11.75 14.414 11.75 14C11.75 13.586 11.414 13.25 11 13.25ZM19.75 5.82599V17.674C19.75 20.302 18.3021 21.75 15.6721 21.75H4.32788C1.69788 21.75 0.25 20.302 0.25 17.674V5.82599C0.25 3.19799 1.69788 1.75 4.32788 1.75H4.80591V1C4.80591 0.586 5.14191 0.25 5.55591 0.25C5.96991 0.25 6.30591 0.586 6.30591 1V1.75H9.25V1C9.25 0.586 9.586 0.25 10 0.25C10.414 0.25 10.75 0.586 10.75 1V1.75H13.6941V1C13.6941 0.586 14.0301 0.25 14.4441 0.25C14.8581 0.25 15.1941 0.586 15.1941 1V1.75H15.6721C18.3021 1.75 19.75 3.19799 19.75 5.82599ZM18.25 5.82599C18.25 4.01999 17.4791 3.25 15.6721 3.25H15.1941V4C15.1941 4.414 14.8581 4.75 14.4441 4.75C14.0301 4.75 13.6941 4.414 13.6941 4V3.25H10.75V4C10.75 4.414 10.414 4.75 10 4.75C9.586 4.75 9.25 4.414 9.25 4V3.25H6.30591V4C6.30591 4.414 5.96991 4.75 5.55591 4.75C5.14191 4.75 4.80591 4.414 4.80591 4V3.25H4.32788C2.52088 3.25 1.75 4.02099 1.75 5.82599V17.674C1.75 19.48 2.52088 20.25 4.32788 20.25H15.6721C17.4791 20.25 18.25 19.479 18.25 17.674V5.82599Z" fill="#25314C"/>
</svg>
