<svg width="18" height="20" viewBox="0 0 18 20" fill="none" xmlns="http://www.w3.org/2000/svg">
<path d="M7.30599 19.75C5.39599 19.75 3.61698 19.021 2.29598 17.697C-0.490022 14.903 -0.446831 10.314 2.39217 7.46799L8.1202 1.724C9.0672 0.773999 10.328 0.251007 11.668 0.251007C13.008 0.251007 14.2691 0.773999 15.2161 1.724C17.1701 3.684 17.1701 6.87301 15.2161 8.83301L9.46004 14.604C8.37204 15.696 6.47318 15.697 5.38118 14.604C4.25818 13.478 4.25818 11.646 5.38118 10.52L10.4371 5.45001C10.7301 5.15701 11.2051 5.156 11.4981 5.44901C11.7921 5.741 11.7921 6.21601 11.5001 6.51001L6.44417 11.58C5.90317 12.122 5.90317 13.004 6.44417 13.546C6.96517 14.07 7.87703 14.069 8.39803 13.546L14.1541 7.77499C15.5261 6.39899 15.5261 4.16 14.1541 2.784C12.8261 1.452 10.5112 1.452 9.18319 2.784L3.45516 8.52802C1.23616 10.752 1.19297 14.467 3.35897 16.639C4.39597 17.679 5.79699 18.251 7.30599 18.251C8.85299 18.251 10.36 17.629 11.442 16.544L16.4691 11.502C16.7611 11.209 17.2361 11.208 17.5301 11.501C17.8241 11.793 17.8241 12.268 17.5321 12.562L12.505 17.604C11.143 18.967 9.24799 19.75 7.30599 19.75Z" fill="#25314C"/>
</svg>
