<svg width="20" height="20" viewBox="0 0 20 20" fill="none" xmlns="http://www.w3.org/2000/svg">
<path d="M19.237 13.177L16.823 10.763C16.727 10.667 16.659 10.547 16.626 10.415L15.203 4.724C14.841 3.277 13.657 2.182 12.185 1.935L2.265 0.270997C1.724 0.186997 1.19701 0.357988 0.802006 0.730988C0.788006 0.742988 0.771 0.74701 0.758 0.76001C0.745 0.77301 0.740001 0.790993 0.728001 0.804993C0.356001 1.19999 0.186008 1.72801 0.270008 2.27701L1.933 12.187C2.18 13.658 3.275 14.842 4.722 15.204L10.413 16.627C10.545 16.66 10.665 16.728 10.762 16.824L13.175 19.237C13.506 19.568 13.945 19.75 14.412 19.75C14.88 19.75 15.319 19.568 15.649 19.237L19.235 15.651C19.92 14.969 19.92 13.859 19.237 13.177ZM3.415 11.938L1.91001 2.96899L6.568 7.62701C6.537 7.74701 6.51601 7.87 6.51601 8C6.51601 8.828 7.192 9.5 8.021 9.5C8.85 9.5 9.521 8.828 9.521 8C9.521 7.172 8.85 6.5 8.021 6.5H8.01101C7.87501 6.5 7.745 6.52401 7.62 6.55801L2.972 1.91L11.94 3.41501C12.823 3.56301 13.533 4.22001 13.751 5.08801L15.172 10.77L10.772 15.17L5.09 13.75C4.22 13.532 3.563 12.821 3.415 11.938ZM18.177 14.591L14.591 18.177C14.464 18.304 14.366 18.304 14.238 18.177L12.061 16L16 12.061L18.177 14.238C18.274 14.335 18.274 14.493 18.177 14.591Z" fill="#25314C"/>
</svg>
