<svg width="20" height="20" viewBox="0 0 20 20" fill="none" xmlns="http://www.w3.org/2000/svg">
<path d="M19.75 5.23096C19.751 4.49496 19.4651 3.80296 18.9441 3.28296L16.7161 1.05506C16.1951 0.535056 15.5051 0.248026 14.7681 0.249026C14.0321 0.250026 13.341 0.537963 12.823 1.05896L0.468994 13.47C0.327994 13.611 0.25 13.801 0.25 13.999V18.999C0.25 19.413 0.586 19.749 1 19.749H6C6.198 19.749 6.38905 19.67 6.52905 19.531L18.9399 7.17603C19.4619 6.65803 19.749 5.96696 19.75 5.23096ZM5.68994 18.25H1.75V14.3101L10.7429 5.276L14.7251 9.25696L5.68994 18.25ZM17.8821 6.11402L15.7881 8.19898L11.801 4.21302L13.886 2.11804C14.122 1.88104 14.436 1.751 14.771 1.75H14.772C15.106 1.75 15.42 1.87997 15.657 2.11597L17.885 4.344C18.121 4.581 18.251 4.89498 18.251 5.22998C18.25 5.56398 18.1191 5.87802 17.8821 6.11402ZM19.75 19C19.75 19.414 19.414 19.75 19 19.75H12C11.586 19.75 11.25 19.414 11.25 19C11.25 18.586 11.586 18.25 12 18.25H19C19.414 18.25 19.75 18.586 19.75 19Z" fill="#25314C"/>
</svg>
