<svg width="20" height="20" viewBox="0 0 20 20" fill="none" xmlns="http://www.w3.org/2000/svg">
<path d="M18.9441 3.28406L16.7161 1.05603C16.1951 0.536033 15.5441 0.249003 14.7681 0.250003C14.0321 0.251003 13.341 0.539061 12.823 1.06006L0.468994 13.471C0.327994 13.6119 0.25 13.802 0.25 14V19C0.25 19.414 0.586 19.75 1 19.75H6C6.198 19.75 6.38905 19.671 6.52905 19.532L18.9399 7.177C19.4609 6.658 19.749 5.96706 19.75 5.23206C19.751 4.49606 19.4651 3.80406 18.9441 3.28406ZM5.68994 18.25H1.75V14.3101L10.7429 5.276L14.7251 9.25696L5.68994 18.25ZM17.8821 6.11402L15.7881 8.19898L11.801 4.21302L13.886 2.11804C14.122 1.88104 14.436 1.751 14.771 1.75H14.772C15.106 1.75 15.42 1.87997 15.657 2.11597L17.885 4.344C18.121 4.581 18.251 4.89498 18.251 5.22998C18.25 5.56398 18.1191 5.87802 17.8821 6.11402Z" fill="#25314C"/>
</svg>
