<svg width="20" height="20" viewBox="0 0 20 20" fill="none" xmlns="http://www.w3.org/2000/svg">
<path d="M18.651 13.106L16.0082 11.53C14.7272 10.767 13.0742 11.138 12.2452 12.377L11.483 13.514C9.32201 12.458 7.54416 10.676 6.48716 8.50501L7.61802 7.75299C8.85902 6.92799 9.23615 5.27699 8.47715 3.99399L6.91417 1.35501C6.42817 0.533014 5.47517 0.107008 4.51817 0.298008C3.07517 0.587008 1.80411 1.47201 1.03111 2.72501C0.261109 3.97301 0.0511622 5.43302 0.435162 6.83402C2.12816 12.995 7.01018 17.873 13.1742 19.565C13.6302 19.69 14.0921 19.752 14.5511 19.752C15.5011 19.752 16.4391 19.487 17.2801 18.968C18.5331 18.195 19.4182 16.924 19.7062 15.481C19.8942 14.548 19.47 13.594 18.651 13.106ZM18.2352 15.186C18.0282 16.222 17.392 17.135 16.492 17.691C15.604 18.239 14.5671 18.391 13.5711 18.118C7.91515 16.566 3.43516 12.089 1.88316 6.43601C1.60916 5.44001 1.76019 4.402 2.30919 3.512C2.86519 2.611 3.77718 1.97602 4.83018 1.76502C4.87918 1.75502 4.92915 1.75 4.97715 1.75C5.23915 1.75 5.48715 1.88699 5.62315 2.11899L7.18614 4.758C7.53914 5.353 7.36419 6.11999 6.78819 6.50299L5.12706 7.60801C4.82806 7.807 4.7122 8.19 4.8502 8.521C6.0912 11.495 8.50121 13.912 11.4642 15.15C11.7902 15.287 12.1761 15.174 12.3761 14.876L13.4911 13.211C13.8761 12.636 14.6411 12.462 15.2401 12.817L17.8832 14.393C18.1562 14.557 18.2982 14.875 18.2352 15.186ZM12.2501 4.5C12.2501 4.086 12.5861 3.75 13.0001 3.75H14.7501V2C14.7501 1.586 15.0861 1.25 15.5001 1.25C15.9141 1.25 16.2501 1.586 16.2501 2V3.75H18.0001C18.4141 3.75 18.7501 4.086 18.7501 4.5C18.7501 4.914 18.4141 5.25 18.0001 5.25H16.2501V7C16.2501 7.414 15.9141 7.75 15.5001 7.75C15.0861 7.75 14.7501 7.414 14.7501 7V5.25H13.0001C12.5861 5.25 12.2501 4.914 12.2501 4.5Z" fill="#25314C"/>
</svg>
