<svg width="192" height="191" viewBox="0 0 192 191" fill="none" xmlns="http://www.w3.org/2000/svg">
<path d="M76.5193 0.000976562H68.8931V7.62722H76.5193V0.000976562Z" fill="black"/>
<path d="M68.8943 7.62793H61.2681V15.2542H68.8943V7.62793Z" fill="black"/>
<path d="M121.752 7.62817H114.125V15.2544H121.752V7.62817Z" fill="black"/>
<path d="M129.094 7.62793H121.467V15.2542H129.094V7.62793Z" fill="black"/>
<path d="M76.5193 7.62793H68.8931V15.2542H76.5193V7.62793Z" fill="black"/>
<path d="M91.7732 7.62793H84.147V15.2542H91.7732V7.62793Z" fill="black"/>
<path d="M99.4002 7.62793H91.7739V15.2542H99.4002V7.62793Z" fill="black"/>
<path d="M76.5193 15.2539H68.8931V22.8801H76.5193V15.2539Z" fill="black"/>
<path d="M84.1443 15.2539H76.5181V22.8801H84.1443V15.2539Z" fill="black"/>
<path d="M91.7732 15.2539H84.147V22.8801H91.7732V15.2539Z" fill="black"/>
<path d="M114.65 15.2539H107.024V22.8801H114.65V15.2539Z" fill="black"/>
<path d="M68.8943 22.8799H61.2681V30.5061H68.8943V22.8799Z" fill="black"/>
<path d="M121.752 22.8799H114.125V30.5061H121.752V22.8799Z" fill="black"/>
<path d="M76.5193 22.8799H68.8931V30.5061H76.5193V22.8799Z" fill="black"/>
<path d="M91.7732 22.8799H84.147V30.5061H91.7732V22.8799Z" fill="black"/>
<path d="M107.025 22.8799H99.3989V30.5061H107.025V22.8799Z" fill="black"/>
<path d="M114.65 22.8799H107.024V30.5061H114.65V22.8799Z" fill="black"/>
<path d="M84.1443 30.507H76.5181V38.1332H84.1443V30.507Z" fill="black"/>
<path d="M99.4002 30.5068H91.7739V38.1331H99.4002V30.5068Z" fill="black"/>
<path d="M130.234 30.507H122.608V38.1332H130.234V30.507Z" fill="black"/>
<path d="M114.65 30.5068H107.024V38.1331H114.65V30.5068Z" fill="black"/>
<path d="M68.8943 38.1348H61.2681V45.761H68.8943V38.1348Z" fill="black"/>
<path d="M121.752 38.1348H114.125V45.761H121.752V38.1348Z" fill="black"/>
<path d="M84.1443 38.1348H76.5181V45.761H84.1443V38.1348Z" fill="black"/>
<path d="M107.025 38.1348H99.3989V45.761H107.025V38.1348Z" fill="black"/>
<path d="M68.8943 45.7607H61.2681V53.387H68.8943V45.7607Z" fill="black"/>
<path d="M121.752 45.7607H114.125V53.387H121.752V45.7607Z" fill="black"/>
<path d="M84.1443 45.7607H76.5181V53.387H84.1443V45.7607Z" fill="black"/>
<path d="M99.4002 45.7607H91.7739V53.387H99.4002V45.7607Z" fill="black"/>
<path d="M114.65 45.7607H107.024V53.387H114.65V45.7607Z" fill="black"/>
<path d="M99.4002 53.3867H91.7739V61.013H99.4002V53.3867Z" fill="black"/>
<path d="M130.234 53.3867H122.608V61.013H130.234V53.3867Z" fill="black"/>
<path d="M114.65 53.3867H107.024V61.013H114.65V53.3867Z" fill="black"/>
<path d="M7.88259 61.0127H0.256348V68.6389H7.88259V61.0127Z" fill="black"/>
<path d="M15.5076 61.0127H7.88135V68.6389H15.5076V61.0127Z" fill="black"/>
<path d="M23.1326 61.0127H15.5063V68.6389H23.1326V61.0127Z" fill="black"/>
<path d="M30.7615 61.0127H23.1353V68.6389H30.7615V61.0127Z" fill="black"/>
<path d="M38.3865 61.0127H30.7603V68.6389H38.3865V61.0127Z" fill="black"/>
<path d="M53.6404 61.0127H46.0142V68.6389H53.6404V61.0127Z" fill="black"/>
<path d="M61.2654 61.0127H53.6392V68.6389H61.2654V61.0127Z" fill="black"/>
<path d="M68.8943 61.0127H61.2681V68.6389H68.8943V61.0127Z" fill="black"/>
<path d="M76.5193 61.0127H68.8931V68.6389H76.5193V61.0127Z" fill="black"/>
<path d="M84.1443 61.0127H76.5181V68.6389H84.1443V61.0127Z" fill="black"/>
<path d="M99.4002 61.0127H91.7739V68.6389H99.4002V61.0127Z" fill="black"/>
<path d="M130.234 61.0127H122.608V68.6389H130.234V61.0127Z" fill="black"/>
<path d="M107.025 61.0127H99.3989V68.6389H107.025V61.0127Z" fill="black"/>
<path d="M114.65 61.0127H107.024V68.6389H114.65V61.0127Z" fill="black"/>
<path d="M15.5076 68.6396H7.88135V76.2659H15.5076V68.6396Z" fill="black"/>
<path d="M46.0154 68.6396H38.3892V76.2659H46.0154V68.6396Z" fill="black"/>
<path d="M76.5193 68.6396H68.8931V76.2659H76.5193V68.6396Z" fill="black"/>
<path d="M23.1326 76.2656H15.5063V83.8919H23.1326V76.2656Z" fill="black"/>
<path d="M30.7615 76.2656H23.1353V83.8919H30.7615V76.2656Z" fill="black"/>
<path d="M46.0154 76.2656H38.3892V83.8919H46.0154V76.2656Z" fill="black"/>
<path d="M53.6404 76.2656H46.0142V83.8919H53.6404V76.2656Z" fill="black"/>
<path d="M61.2654 76.2656H53.6392V83.8919H61.2654V76.2656Z" fill="black"/>
<path d="M68.8943 76.2656H61.2681V83.8919H68.8943V76.2656Z" fill="black"/>
<path d="M76.5193 76.2656H68.8931V83.8919H76.5193V76.2656Z" fill="black"/>
<path d="M91.7732 76.2656H84.147V83.8919H91.7732V76.2656Z" fill="black"/>
<path d="M99.4002 76.2656H91.7739V83.8919H99.4002V76.2656Z" fill="black"/>
<path d="M107.025 76.2656H99.3989V83.8919H107.025V76.2656Z" fill="black"/>
<path d="M114.65 76.2656H107.024V83.8919H114.65V76.2656Z" fill="black"/>
<path d="M122.279 76.2656H114.653V83.8919H122.279V76.2656Z" fill="black"/>
<path d="M129.904 76.2656H122.278V83.8919H129.904V76.2656Z" fill="black"/>
<path d="M137.533 76.2656H129.907V83.8919H137.533V76.2656Z" fill="black"/>
<path d="M145.158 76.2656H137.532V83.8919H145.158V76.2656Z" fill="black"/>
<path d="M160.412 76.2656H152.786V83.8919H160.412V76.2656Z" fill="black"/>
<path d="M168.037 76.2656H160.411V83.8919H168.037V76.2656Z" fill="black"/>
<path d="M183.291 76.2656H175.665V83.8919H183.291V76.2656Z" fill="black"/>
<path d="M190.916 76.2656H183.29V83.8919H190.916V76.2656Z" fill="black"/>
<path d="M23.1326 83.8936H15.5063V91.5198H23.1326V83.8936Z" fill="black"/>
<path d="M30.7615 83.8936H23.1353V91.5198H30.7615V83.8936Z" fill="black"/>
<path d="M68.8943 83.8936H61.2681V91.5198H68.8943V83.8936Z" fill="black"/>
<path d="M76.5193 83.8936H68.8931V91.5198H76.5193V83.8936Z" fill="black"/>
<path d="M84.1443 83.8934H76.5181V91.5197H84.1443V83.8934Z" fill="black"/>
<path d="M91.7732 83.8936H84.147V91.5198H91.7732V83.8936Z" fill="black"/>
<path d="M122.279 83.8934H114.653V91.5197H122.279V83.8934Z" fill="black"/>
<path d="M129.904 83.8936H122.278V91.5198H129.904V83.8936Z" fill="black"/>
<path d="M137.533 83.8936H129.907V91.5198H137.533V83.8936Z" fill="black"/>
<path d="M145.158 83.8934H137.532V91.5197H145.158V83.8934Z" fill="black"/>
<path d="M152.787 83.8936H145.161V91.5198H152.787V83.8936Z" fill="black"/>
<path d="M160.412 83.8936H152.786V91.5198H160.412V83.8936Z" fill="black"/>
<path d="M190.916 83.8936H183.29V91.5198H190.916V83.8936Z" fill="black"/>
<path d="M46.0154 91.5195H38.3892V99.1458H46.0154V91.5195Z" fill="black"/>
<path d="M53.6404 91.5195H46.0142V99.1458H53.6404V91.5195Z" fill="black"/>
<path d="M76.5193 91.5195H68.8931V99.1458H76.5193V91.5195Z" fill="black"/>
<path d="M91.7732 91.5195H84.147V99.1458H91.7732V91.5195Z" fill="black"/>
<path d="M114.65 91.5195H107.024V99.1458H114.65V91.5195Z" fill="black"/>
<path d="M122.279 91.5194H114.653V99.1457H122.279V91.5194Z" fill="black"/>
<path d="M137.533 91.5195H129.907V99.1458H137.533V91.5195Z" fill="black"/>
<path d="M145.158 91.5194H137.532V99.1457H145.158V91.5194Z" fill="black"/>
<path d="M160.412 91.5195H152.786V99.1458H160.412V91.5195Z" fill="black"/>
<path d="M175.666 91.5195H168.04V99.1458H175.666V91.5195Z" fill="black"/>
<path d="M183.291 91.5195H175.665V99.1458H183.291V91.5195Z" fill="black"/>
<path d="M190.916 91.5195H183.29V99.1458H190.916V91.5195Z" fill="black"/>
<path d="M7.88259 99.1454H0.256348V106.772H7.88259V99.1454Z" fill="black"/>
<path d="M15.5076 99.1454H7.88135V106.772H15.5076V99.1454Z" fill="black"/>
<path d="M23.1326 99.1455H15.5063V106.772H23.1326V99.1455Z" fill="black"/>
<path d="M38.3865 99.1454H30.7603V106.772H38.3865V99.1454Z" fill="black"/>
<path d="M68.8943 99.1455H61.2681V106.772H68.8943V99.1455Z" fill="black"/>
<path d="M76.5193 99.1455H68.8931V106.772H76.5193V99.1455Z" fill="black"/>
<path d="M84.1443 99.1454H76.5181V106.772H84.1443V99.1454Z" fill="black"/>
<path d="M99.4002 99.1455H91.7739V106.772H99.4002V99.1455Z" fill="black"/>
<path d="M129.904 99.1455H122.278V106.772H129.904V99.1455Z" fill="black"/>
<path d="M168.037 99.1454H160.411V106.772H168.037V99.1454Z" fill="black"/>
<path d="M183.291 99.1455H175.665V106.772H183.291V99.1455Z" fill="black"/>
<path d="M7.88259 106.772H0.256348V114.399H7.88259V106.772Z" fill="black"/>
<path d="M23.1326 106.772H15.5063V114.399H23.1326V106.772Z" fill="black"/>
<path d="M30.7615 106.772H23.1353V114.399H30.7615V106.772Z" fill="black"/>
<path d="M46.0154 106.772H38.3892V114.399H46.0154V106.772Z" fill="black"/>
<path d="M53.6404 106.772H46.0142V114.399H53.6404V106.772Z" fill="black"/>
<path d="M122.279 106.772H114.653V114.399H122.279V106.772Z" fill="black"/>
<path d="M129.904 106.772H122.278V114.399H129.904V106.772Z" fill="black"/>
<path d="M145.158 114.113H137.532V121.74H145.158V114.113Z" fill="black"/>
<path d="M168.037 106.772H160.411V114.399H168.037V106.772Z" fill="black"/>
<path d="M183.291 106.772H175.665V114.399H183.291V106.772Z" fill="black"/>
<path d="M190.916 106.772H183.29V114.399H190.916V106.772Z" fill="black"/>
<path d="M7.88259 114.4H0.256348V122.026H7.88259V114.4Z" fill="black"/>
<path d="M68.8943 114.399H61.2681V122.026H68.8943V114.399Z" fill="black"/>
<path d="M99.4002 114.399H91.7739V122.026H99.4002V114.399Z" fill="black"/>
<path d="M114.65 114.399H107.024V122.026H114.65V114.399Z" fill="black"/>
<path d="M122.279 114.4H114.653V122.026H122.279V114.4Z" fill="black"/>
<path d="M129.904 114.399H122.278V122.026H129.904V114.399Z" fill="black"/>
<path d="M137.533 114.399H129.907V122.026H137.533V114.399Z" fill="black"/>
<path d="M145.158 121.741H137.532V129.367H145.158V121.741Z" fill="black"/>
<path d="M152.787 114.399H145.161V122.026H152.787V114.399Z" fill="black"/>
<path d="M160.412 114.399H152.786V122.026H160.412V114.399Z" fill="black"/>
<path d="M168.037 114.4H160.411V122.026H168.037V114.4Z" fill="black"/>
<path d="M190.916 114.399H183.29V122.026H190.916V114.399Z" fill="black"/>
<path d="M7.88259 122.026H0.256348V129.652H7.88259V122.026Z" fill="black"/>
<path d="M30.7615 122.025H23.1353V129.652H30.7615V122.025Z" fill="black"/>
<path d="M38.3865 122.026H30.7603V129.652H38.3865V122.026Z" fill="black"/>
<path d="M46.0154 122.025H38.3892V129.652H46.0154V122.025Z" fill="black"/>
<path d="M53.6404 122.025H46.0142V129.652H53.6404V122.025Z" fill="black"/>
<path d="M76.5193 122.025H68.8931V129.652H76.5193V122.025Z" fill="black"/>
<path d="M84.1443 122.026H76.5181V129.652H84.1443V122.026Z" fill="black"/>
<path d="M99.4002 122.025H91.7739V129.652H99.4002V122.025Z" fill="black"/>
<path d="M107.025 122.025H99.3989V129.652H107.025V122.025Z" fill="black"/>
<path d="M114.65 122.025H107.024V129.652H114.65V122.025Z" fill="black"/>
<path d="M129.904 122.025H122.278V129.652H129.904V122.025Z" fill="black"/>
<path d="M137.533 122.025H129.907V129.652H137.533V122.025Z" fill="black"/>
<path d="M145.158 129.367H137.532V136.993H145.158V129.367Z" fill="black"/>
<path d="M145.158 69.168H137.532V76.7942H145.158V69.168Z" fill="black"/>
<path d="M152.787 122.025H145.161V129.652H152.787V122.025Z" fill="black"/>
<path d="M152.787 61.8262H145.161V69.4524H152.787V61.8262Z" fill="black"/>
<path d="M160.412 122.025H152.786V129.652H160.412V122.025Z" fill="black"/>
<path d="M160.412 61.8262H152.786V69.4524H160.412V61.8262Z" fill="black"/>
<path d="M175.666 122.025H168.04V129.652H175.666V122.025Z" fill="black"/>
<path d="M175.666 61.8262H168.04V69.4524H175.666V61.8262Z" fill="black"/>
<path d="M68.8943 129.652H61.2681V137.279H68.8943V129.652Z" fill="black"/>
<path d="M84.1443 129.652H76.5181V137.279H84.1443V129.652Z" fill="black"/>
<path d="M114.65 129.652H107.024V137.279H114.65V129.652Z" fill="black"/>
<path d="M122.279 129.652H114.653V137.279H122.279V129.652Z" fill="black"/>
<path d="M129.904 129.652H122.278V137.279H129.904V129.652Z" fill="black"/>
<path d="M68.8943 137.278H61.2681V144.905H68.8943V137.278Z" fill="black"/>
<path d="M76.5193 137.278H68.8931V144.905H76.5193V137.278Z" fill="black"/>
<path d="M84.1443 137.278H76.5181V144.905H84.1443V137.278Z" fill="black"/>
<path d="M91.7732 137.278H84.147V144.905H91.7732V137.278Z" fill="black"/>
<path d="M99.4002 137.278H91.7739V144.905H99.4002V137.278Z" fill="black"/>
<path d="M91.7732 144.904H84.147V152.531H91.7732V144.904Z" fill="black"/>
<path d="M129.904 144.904H122.278V152.531H129.904V144.904Z" fill="black"/>
<path d="M68.8943 152.532H61.2681V160.158H68.8943V152.532Z" fill="black"/>
<path d="M84.1443 152.532H76.5181V160.158H84.1443V152.532Z" fill="black"/>
<path d="M91.7732 152.532H84.147V160.158H91.7732V152.532Z" fill="black"/>
<path d="M122.279 152.532H114.653V160.158H122.279V152.532Z" fill="black"/>
<path d="M68.8943 160.158H61.2681V167.784H68.8943V160.158Z" fill="black"/>
<path d="M84.1443 160.158H76.5181V167.784H84.1443V160.158Z" fill="black"/>
<path d="M99.4002 160.158H91.7739V167.784H99.4002V160.158Z" fill="black"/>
<path d="M107.025 160.158H99.3989V167.784H107.025V160.158Z" fill="black"/>
<path d="M122.279 160.158H114.653V167.784H122.279V160.158Z" fill="black"/>
<path d="M68.8943 167.784H61.2681V175.41H68.8943V167.784Z" fill="black"/>
<path d="M76.5193 167.784H68.8931V175.41H76.5193V167.784Z" fill="black"/>
<path d="M107.025 167.784H99.3989V175.41H107.025V167.784Z" fill="black"/>
<path d="M114.65 167.784H107.024V175.41H114.65V167.784Z" fill="black"/>
<path d="M129.904 167.784H122.278V175.41H129.904V167.784Z" fill="black"/>
<path d="M68.8943 175.411H61.2681V183.037H68.8943V175.411Z" fill="black"/>
<path d="M99.4002 175.411H91.7739V183.037H99.4002V175.411Z" fill="black"/>
<path d="M107.025 175.411H99.3989V183.037H107.025V175.411Z" fill="black"/>
<path d="M122.279 175.411H114.653V183.038H122.279V175.411Z" fill="black"/>
<path d="M129.904 175.411H122.278V183.037H129.904V175.411Z" fill="black"/>
<path d="M68.8943 183.037H61.2681V190.663H68.8943V183.037Z" fill="black"/>
<path d="M99.4002 183.037H91.7739V190.663H99.4002V183.037Z" fill="black"/>
<path d="M114.65 183.037H107.024V190.663H114.65V183.037Z" fill="black"/>
<path d="M122.279 183.037H114.653V190.663H122.279V183.037Z" fill="black"/>
<path d="M34.902 136.551H18.0946C14.211 136.542 10.4275 137.783 7.30308 140.089C4.17867 142.396 1.87904 145.646 0.743925 149.36C0.512681 150.13 0.3346 150.915 0.21094 151.709C0.0716222 152.611 0.00191774 153.522 0.00244437 154.435V171.643C0.0350567 176.413 1.95811 180.975 5.34979 184.328C8.74147 187.682 13.3249 189.553 18.0946 189.532H34.902C39.672 189.553 44.2556 187.682 47.6473 184.328C51.039 180.974 52.9619 176.411 52.9941 171.641V154.435C52.9603 149.666 51.0367 145.105 47.6451 141.753C44.2535 138.4 39.6708 136.529 34.902 136.551ZM45.0448 171.643C45.015 174.306 43.93 176.848 42.0279 178.712C40.1258 180.576 37.562 181.609 34.899 181.585H18.096C15.4334 181.609 12.8698 180.576 10.9677 178.712C9.06564 176.849 7.98046 174.307 7.95024 171.644V154.435C7.94859 152.778 8.37063 151.147 9.17625 149.699C9.93367 148.343 10.9945 147.179 12.2758 146.3C13.9872 145.124 16.0162 144.496 18.0931 144.5H34.902C37.5636 144.476 40.1263 145.508 42.0277 147.371C43.9292 149.234 45.0142 151.774 45.0448 154.436V171.643Z" fill="black"/>
<path d="M34.902 1.46893H18.0946C14.211 1.46002 10.4275 2.7005 7.30308 5.00713C4.17867 7.31375 1.87904 10.5642 0.743925 14.2782C0.512681 15.0482 0.3346 15.8331 0.21094 16.6274C0.0716222 17.5291 0.00191774 18.4402 0.00244437 19.3526V36.5608C0.0350567 41.3305 1.95811 45.8925 5.34979 49.2462C8.74147 52.5999 13.3249 54.4714 18.0946 54.4503H34.902C39.672 54.4714 44.2556 52.5997 47.6473 49.2457C51.039 45.8916 52.9619 41.3293 52.9941 36.5593V19.3526C52.9603 14.5838 51.0367 10.0231 47.6451 6.67057C44.2535 3.31805 39.6708 1.44743 34.902 1.46893ZM45.0448 36.5608C45.015 39.2237 43.93 41.766 42.0279 43.6298C40.1258 45.4937 37.562 46.5268 34.899 46.5025H18.096C15.4334 46.5268 12.8698 45.4939 10.9677 43.6304C9.06564 41.7668 7.98046 39.2249 7.95024 36.5623V19.3526C7.94859 17.6955 8.37063 16.0655 9.17625 14.6174C9.93367 13.2606 10.9945 12.0973 12.2758 11.2183C13.9872 10.0416 16.0162 9.41378 18.0931 9.4182H34.902C37.5636 9.39392 40.1263 10.4263 42.0277 12.289C43.9292 14.1516 45.0142 16.6924 45.0448 19.354V36.5608Z" fill="black"/>
<path d="M172.922 138.019H156.114C152.231 138.01 148.447 139.25 145.323 141.557C142.198 143.864 139.899 147.114 138.763 150.828C138.532 151.598 138.354 152.383 138.23 153.177C138.091 154.079 138.021 154.99 138.022 155.902V173.111C138.055 177.88 139.978 182.442 143.369 185.796C146.761 189.15 151.344 191.021 156.114 191H172.922C177.691 191.021 182.275 189.149 185.667 185.795C189.059 182.441 190.981 177.879 191.014 173.109V155.902C190.98 151.134 189.056 146.573 185.665 143.22C182.273 139.868 177.69 137.997 172.922 138.019ZM183.064 173.111C183.035 175.774 181.95 178.316 180.047 180.18C178.145 182.043 175.582 183.077 172.919 183.052H156.116C153.453 183.077 150.889 182.044 148.987 180.18C147.085 178.317 146 175.775 145.97 173.112V155.902C145.968 154.245 146.39 152.615 147.196 151.167C147.953 149.81 149.014 148.647 150.295 147.768C152.007 146.591 154.036 145.964 156.113 145.968H172.922C175.583 145.944 178.146 146.976 180.047 148.839C181.949 150.701 183.034 153.242 183.064 155.904V173.111Z" fill="black"/>
<path d="M172.922 0.000183323H156.114C152.231 -0.00873116 148.447 1.23175 145.323 3.53838C142.198 5.845 139.899 9.09543 138.763 12.8095C138.532 13.5794 138.354 14.3643 138.23 15.1587C138.091 16.0604 138.021 16.9714 138.022 17.8838V35.0921C138.055 39.8617 139.978 44.4237 143.369 47.7774C146.761 51.1311 151.344 53.0027 156.114 52.9816H172.922C177.691 53.0027 182.275 51.1309 185.667 47.7769C189.059 44.4229 190.981 39.8605 191.014 35.0906V17.8838C190.98 13.1151 189.056 8.55433 185.665 5.20182C182.273 1.8493 177.69 -0.0213179 172.922 0.000183323ZM183.064 35.0921C183.035 37.7549 181.95 40.2972 180.047 42.1611C178.145 44.0249 175.582 45.0581 172.919 45.0338H156.116C153.453 45.0581 150.889 44.0251 148.987 42.1616C147.085 40.2981 146 37.7562 145.97 35.0935V17.8838C145.968 16.2267 146.39 14.5967 147.196 13.1486C147.953 11.7919 149.014 10.6286 150.295 9.74956C152.007 8.57289 154.036 7.94503 156.113 7.94945H172.922C175.583 7.92517 178.146 8.95759 180.047 10.8202C181.949 12.6829 183.034 15.2237 183.064 17.8853V35.0921Z" fill="black"/>
<path d="M21.3598 174.398C19.729 174.411 18.1594 173.778 16.9943 172.637C15.8292 171.496 15.1636 169.94 15.1431 168.309V157.771C15.1432 156.758 15.4014 155.761 15.8934 154.874C16.3562 154.042 17.0062 153.329 17.7918 152.791C18.8414 152.069 20.0859 151.684 21.3598 151.687H31.6539C33.2839 151.672 34.8533 152.304 36.0179 153.445C37.1825 154.585 37.8472 156.141 37.8662 157.771V168.309C37.8456 169.939 37.1806 171.495 36.0165 172.636C34.8524 173.777 33.2839 174.41 31.6539 174.398H21.3598Z" fill="black"/>
<path d="M21.3598 39.3161C19.729 39.3294 18.1594 38.6963 16.9943 37.5551C15.8292 36.414 15.1636 34.8578 15.1431 33.2271V22.6893C15.1432 21.6756 15.4014 20.6787 15.8934 19.7924C16.3562 18.9602 17.0062 18.2469 17.7918 17.7089C18.8414 16.9869 20.0859 16.6018 21.3598 16.6047H31.6539C33.2839 16.5899 34.8533 17.2221 36.0179 18.3627C37.1825 19.5033 37.8472 21.0593 37.8662 22.6893V33.2271C37.8456 34.8571 37.1806 36.4126 36.0165 37.5536C34.8524 38.6946 33.2839 39.3283 31.6539 39.3161H21.3598Z" fill="black"/>
<path d="M159.371 175.867C157.741 175.88 156.171 175.247 155.006 174.106C153.841 172.965 153.175 171.409 153.155 169.778V159.24C153.155 158.226 153.413 157.229 153.905 156.343C154.368 155.511 155.018 154.798 155.804 154.26C156.853 153.538 158.098 153.153 159.371 153.156H169.666C171.296 153.141 172.865 153.773 174.03 154.913C175.194 156.054 175.859 157.61 175.878 159.24V169.778C175.857 171.408 175.192 172.963 174.028 174.104C172.864 175.245 171.296 175.879 169.666 175.867H159.371Z" fill="black"/>
<path d="M159.371 37.8473C157.741 37.8607 156.171 37.2275 155.006 36.0864C153.841 34.9452 153.175 33.3891 153.155 31.7584V21.2205C153.155 20.2069 153.413 19.2099 153.905 18.3236C154.368 17.4914 155.018 16.7782 155.804 16.2401C156.853 15.5182 158.098 15.133 159.371 15.136H169.666C171.296 15.1211 172.865 15.7533 174.03 16.894C175.194 18.0346 175.859 19.5905 175.878 21.2205V31.7584C175.857 33.3883 175.192 34.9438 174.028 36.0848C172.864 37.2258 171.296 37.8595 169.666 37.8473H159.371Z" fill="black"/>
<path d="M102.784 70.4775H89.5695C80.6495 70.4775 73.4185 77.7086 73.4185 86.6286V99.8431C73.4185 108.763 80.6495 115.994 89.5695 115.994H102.784C111.704 115.994 118.935 108.763 118.935 99.8431V86.6286C118.935 77.7086 111.704 70.4775 102.784 70.4775Z" fill="black"/>
<path d="M102.785 66.8066H89.5703C78.623 66.8066 69.7485 75.6812 69.7485 86.6284V99.8429C69.7485 110.79 78.623 119.665 89.5703 119.665H102.785C113.732 119.665 122.607 110.79 122.607 99.8429V86.6284C122.607 75.6812 113.732 66.8066 102.785 66.8066Z" stroke="#0059E7" stroke-width="7.3414"/>
<path d="M94.8967 75.7242C85.0128 75.7242 77 83.7366 77 93.6206C77 103.505 85.0128 111.516 94.8967 111.516C101.215 111.516 107.064 108.186 110.288 102.752C106.492 105.486 101.117 107.157 95.174 107.078C93.8015 107.06 93.6838 106.391 94.2123 105.44C87.9501 105.077 83.0577 99.8933 83.0577 93.6206C83.0577 87.0818 88.3581 81.7815 94.8967 81.7815C98.0095 81.7815 100.996 83.007 103.213 85.193L106.353 79.8716C103.136 77.1914 99.0833 75.7242 94.8967 75.7242Z" fill="#0059E7"/>
<path d="M112.871 84.5863C112.368 87.1684 111.162 90.1203 108.566 92.8814C105.832 95.7868 103.218 97.1234 101.078 97.6857C100.178 98.9768 99.2181 100.214 97.9204 100.815L83.1431 105.877C87.7505 107.101 92.8422 107.615 97.2507 106.783C108.428 104.673 116.306 96.6936 114.847 88.9592C114.543 87.3538 113.861 85.8865 112.871 84.5863Z" fill="#17DF00"/>
<path d="M102.09 72C102.27 75.806 101.756 79.9226 100.453 84.0546C97.6997 92.7803 89.8872 101.4 83.1436 105.877C89.1539 105.786 98.5708 102.688 103.905 97.3539C111.273 89.9847 113.114 79.8781 108.015 74.7792C106.441 73.2048 104.39 72.2935 102.09 72Z" fill="#FFE500"/>
</svg>
