<svg width="20" height="20" viewBox="0 0 20 20" fill="none" xmlns="http://www.w3.org/2000/svg">
<path d="M19.75 10C19.75 15.376 15.376 19.75 10 19.75C4.624 19.75 0.25 15.376 0.25 10C0.25 7.643 1.085 5.42406 2.604 3.66406L1.46997 2.53003C1.17697 2.23703 1.17697 1.76199 1.46997 1.46899C1.76297 1.17599 2.23801 1.17599 2.53101 1.46899L4.172 3.11011C4.172 3.11011 4.17297 3.11008 4.17297 3.11108C4.17297 3.11208 4.17301 3.11206 4.17401 3.11206L9.61902 8.55688C9.74402 8.52288 9.87401 8.49902 10.01 8.49902H10.02C10.849 8.49902 11.52 9.17002 11.52 9.99902C11.52 10.828 10.849 11.499 10.02 11.499C9.19102 11.499 8.51501 10.828 8.51501 9.99902C8.51501 9.87002 8.53602 9.74598 8.56702 9.62598L6.15997 7.21997C5.57697 8.02997 5.25 8.98802 5.25 9.99902C5.25 12.618 7.381 14.749 10 14.749C11.265 14.749 12.46 14.2561 13.367 13.3601C14.257 12.4601 14.75 11.264 14.75 9.99902C14.75 7.38002 12.619 5.24902 10 5.24902C9.586 5.24902 9.25 4.91302 9.25 4.49902C9.25 4.08502 9.586 3.74902 10 3.74902C13.446 3.74902 16.25 6.55302 16.25 9.99902C16.25 11.662 15.603 13.2319 14.427 14.4199C13.233 15.6009 11.662 16.249 10 16.249C6.554 16.249 3.75 13.445 3.75 9.99902C3.75 8.58702 4.22097 7.24409 5.08197 6.14209L3.664 4.72412C2.426 6.19712 1.74902 8.04302 1.74902 9.99902C1.74902 14.548 5.45002 18.249 9.99902 18.249C14.548 18.249 18.249 14.548 18.249 9.99902C18.249 5.45002 14.548 1.74902 9.99902 1.74902C9.58502 1.74902 9.24902 1.41302 9.24902 0.999023C9.24902 0.585023 9.58502 0.249023 9.99902 0.249023C15.376 0.250023 19.75 4.624 19.75 10Z" fill="#25314C"/>
</svg>
