<svg width="18" height="20" viewBox="0 0 18 20" fill="none" xmlns="http://www.w3.org/2000/svg">
<path d="M16.782 1.81298C16.187 1.51398 15.484 1.57799 14.95 1.97799L13.592 2.99701C13.295 3.21901 12.873 3.19001 12.611 2.928L10.5909 0.907985C9.71394 0.0319854 8.28606 0.0309854 7.40906 0.907985L5.38904 2.927C5.12604 3.19 4.70306 3.21901 4.40906 2.99701L3.05005 1.97699C2.51505 1.57699 1.81302 1.51301 1.21802 1.81201C0.621018 2.11001 0.25 2.71001 0.25 3.37701V16.62C0.25 17.287 0.621018 17.887 1.21802 18.185C1.81302 18.483 2.51505 18.42 3.05005 18.02L4.40796 17.001C4.70496 16.779 5.12704 16.808 5.38904 17.07L7.40906 19.089C7.84706 19.528 8.424 19.747 9 19.747C9.576 19.747 10.1519 19.528 10.5909 19.089L12.611 17.07C12.874 16.808 13.2969 16.778 13.5909 17L14.95 18.02C15.484 18.42 16.187 18.483 16.782 18.185C17.379 17.887 17.75 17.287 17.75 16.62V3.37701C17.75 2.71101 17.379 2.11198 16.782 1.81298ZM16.25 16.621C16.25 16.756 16.1631 16.819 16.1121 16.845C16.0601 16.871 15.959 16.903 15.85 16.821L14.49 15.801C13.602 15.135 12.337 15.224 11.55 16.01L9.53003 18.029C9.24703 18.312 8.75299 18.312 8.46899 18.029L6.44897 16.009C6.01497 15.576 5.43598 15.354 4.85498 15.354C4.38098 15.354 3.90696 15.501 3.50696 15.8L2.14795 16.82C2.03995 16.902 1.93899 16.869 1.88599 16.844C1.83499 16.818 1.74805 16.755 1.74805 16.62V3.37701C1.74805 3.24201 1.83499 3.17901 1.88599 3.15301C1.93899 3.12701 2.03895 3.095 2.14795 3.177L3.50806 4.19699C4.39606 4.86299 5.661 4.774 6.448 3.988L8.46802 1.96899C8.76102 1.67699 9.23605 1.67699 9.52905 1.96899L11.549 3.98901C12.337 4.77601 13.602 4.86399 14.49 4.19799L15.849 3.178C15.957 3.096 16.059 3.12799 16.111 3.15399C16.162 3.17999 16.249 3.24299 16.249 3.37799V16.621H16.25ZM13.75 8C13.75 8.414 13.414 8.75 13 8.75H8C7.586 8.75 7.25 8.414 7.25 8C7.25 7.586 7.586 7.25 8 7.25H13C13.414 7.25 13.75 7.586 13.75 8ZM13.75 12C13.75 12.414 13.414 12.75 13 12.75H8C7.586 12.75 7.25 12.414 7.25 12C7.25 11.586 7.586 11.25 8 11.25H13C13.414 11.25 13.75 11.586 13.75 12ZM5.75 8C5.75 8.414 5.414 8.75 5 8.75C4.586 8.75 4.25 8.414 4.25 8C4.25 7.586 4.586 7.25 5 7.25C5.414 7.25 5.75 7.586 5.75 8ZM5.75 12C5.75 12.414 5.414 12.75 5 12.75C4.586 12.75 4.25 12.414 4.25 12C4.25 11.586 4.586 11.25 5 11.25C5.414 11.25 5.75 11.586 5.75 12Z" fill="#25314C"/>
</svg>
