<svg width="20" height="20" viewBox="0 0 20 20" fill="none" xmlns="http://www.w3.org/2000/svg">
<path d="M18.9271 1.07299C18.2251 0.370995 17.231 0.0949953 16.265 0.335995L3.15221 3.61401C1.40421 4.05101 0.238084 5.55499 0.251084 7.35699C0.264084 9.15899 1.45021 10.646 3.20421 11.059L7.85021 12.152L8.94322 16.797C9.35622 18.551 10.8431 19.737 12.6451 19.75C12.6541 19.75 12.6642 19.75 12.6732 19.75C14.4622 19.75 15.9521 18.587 16.3871 16.849L19.6651 3.73599C19.9051 2.77099 19.6301 1.77599 18.9271 1.07299ZM18.2091 3.37201L14.931 16.485C14.602 17.798 13.5412 18.258 12.6542 18.25C11.8092 18.244 10.7132 17.77 10.4032 16.454L9.29918 11.763L13.5301 7.531C13.8231 7.238 13.8231 6.763 13.5301 6.47C13.2371 6.177 12.7621 6.177 12.4691 6.47L8.23717 10.702L3.54601 9.59799C2.22901 9.28799 1.75513 8.191 1.74913 7.346C1.74313 6.50101 2.20202 5.397 3.51402 5.069L16.6271 1.79098C16.7341 1.76398 16.8421 1.751 16.9481 1.751C17.2881 1.751 17.6161 1.885 17.8651 2.134C18.1921 2.46 18.3211 2.92301 18.2091 3.37201Z" fill="#25314C"/>
</svg>
