<svg width="20" height="20" viewBox="0 0 20 20" fill="none" xmlns="http://www.w3.org/2000/svg">
<path d="M10 6.25C7.93202 6.25 6.25001 7.932 6.25001 10C6.25001 12.068 7.93202 13.75 10 13.75C12.068 13.75 13.75 12.068 13.75 10C13.75 7.932 12.068 6.25 10 6.25ZM10 12.25C8.75902 12.25 7.75001 11.241 7.75001 10C7.75001 8.759 8.75902 7.75 10 7.75C11.241 7.75 12.25 8.759 12.25 10C12.25 11.241 11.241 12.25 10 12.25ZM19.208 11.953C18.514 11.551 18.082 10.803 18.081 10C18.08 9.199 18.509 8.45201 19.212 8.04501C19.727 7.74601 19.903 7.08299 19.605 6.56699L17.933 3.681C17.635 3.166 16.972 2.98901 16.456 3.28601C15.757 3.68901 14.888 3.68901 14.187 3.28201C13.496 2.88101 13.066 2.13601 13.066 1.33701C13.066 0.738006 12.578 0.251007 11.979 0.251007H8.024C7.424 0.251007 6.93703 0.738006 6.93703 1.33701C6.93703 2.13601 6.50701 2.881 5.81401 3.284C5.11501 3.689 4.24702 3.68999 3.54802 3.28699C3.03102 2.98899 2.36903 3.16701 2.07103 3.68201L0.397018 6.57101C0.0990181 7.08601 0.276005 7.74799 0.796005 8.04999C1.489 8.45099 1.92102 9.19799 1.92302 9.99899C1.92502 10.801 1.49501 11.55 0.793014 11.957C0.543014 12.102 0.363016 12.335 0.289016 12.615C0.215016 12.894 0.253025 13.185 0.398025 13.436L2.06902 16.32C2.36702 16.836 3.03002 17.015 3.54802 16.716C4.24702 16.313 5.11402 16.314 5.80302 16.713L5.80501 16.714C5.80801 16.716 5.81102 16.718 5.81502 16.72C6.50602 17.121 6.93501 17.866 6.93401 18.666C6.93401 19.265 7.421 19.752 8.02 19.752H11.979C12.578 19.752 13.065 19.265 13.065 18.667C13.065 17.867 13.495 17.122 14.189 16.719C14.887 16.314 15.755 16.312 16.455 16.716C16.971 17.014 17.633 16.837 17.932 16.322L19.606 13.433C19.903 12.916 19.726 12.253 19.208 11.953ZM16.831 15.227C15.741 14.752 14.476 14.817 13.434 15.42C12.401 16.019 11.719 17.078 11.587 18.25H8.41002C8.28002 17.078 7.596 16.017 6.563 15.419C5.523 14.816 4.25602 14.752 3.16902 15.227L1.89302 13.024C2.84802 12.321 3.425 11.193 3.42101 9.99301C3.418 8.80101 2.84201 7.681 1.89201 6.978L3.16902 4.77399C4.25702 5.24799 5.52402 5.18399 6.56602 4.57999C7.59802 3.98199 8.28 2.92201 8.412 1.75101H11.587C11.718 2.92301 12.401 3.982 13.436 4.582C14.475 5.185 15.742 5.24899 16.831 4.77499L18.108 6.978C17.155 7.68 16.579 8.806 16.581 10.004C16.582 11.198 17.158 12.32 18.109 13.025L16.831 15.227Z" fill="#25314C"/>
</svg>
