<svg width="20" height="22" viewBox="0 0 20 22" fill="none" xmlns="http://www.w3.org/2000/svg">
<path d="M19.147 3.26487C14.22 2.27987 12.514 1.42005 10.355 0.330054C10.144 0.225054 9.86408 0.23797 9.65308 0.34397C7.46308 1.42997 5.73205 2.28887 0.852051 3.26487C0.501051 3.33487 0.249023 3.64298 0.249023 3.99998V9.88889C0.249023 18.1229 8.17296 21.1819 9.76196 21.7119C9.83896 21.7379 9.91902 21.751 9.99902 21.751C10.079 21.751 10.1591 21.7379 10.2361 21.7119C11.8251 21.1819 19.749 18.1229 19.749 9.88889V3.99998C19.75 3.64298 19.498 3.33387 19.147 3.26487ZM18.25 9.88889C18.25 16.7539 11.832 19.549 10 20.206C8.168 19.549 1.75 16.7529 1.75 9.88889V4.61301C6.135 3.69701 7.93789 2.86609 10.0149 1.83909C11.9679 2.82009 13.827 3.68701 18.25 4.61301V9.88889ZM10.01 8.49998H10.02C10.849 8.49998 11.52 9.17098 11.52 9.99998C11.52 10.562 11.208 11.046 10.75 11.303V14C10.75 14.414 10.414 14.75 10 14.75C9.586 14.75 9.25 14.414 9.25 14V11.282C8.812 11.02 8.51489 10.546 8.51489 9.99998C8.51489 9.17098 9.18201 8.49998 10.01 8.49998Z" fill="#25314C"/>
</svg>
