<svg width="20" height="20" viewBox="0 0 20 20" fill="none" xmlns="http://www.w3.org/2000/svg">
<path d="M8.76794 12.5V15.5C8.76794 15.914 8.43194 16.25 8.01794 16.25C7.60394 16.25 7.26794 15.914 7.26794 15.5V12.5C7.26794 12.086 7.60394 11.75 8.01794 11.75C8.43194 11.75 8.76794 12.086 8.76794 12.5ZM12.0179 11.75C11.6039 11.75 11.2679 12.086 11.2679 12.5V15.5C11.2679 15.914 11.6039 16.25 12.0179 16.25C12.4319 16.25 12.7679 15.914 12.7679 15.5V12.5C12.7679 12.086 12.4319 11.75 12.0179 11.75ZM18.2271 9.448L17.535 16.373C17.308 18.645 16.088 19.75 13.804 19.75H6.23401C3.95001 19.75 2.72905 18.646 2.50305 16.373L1.81299 9.469C0.891988 9.024 0.250977 8.089 0.250977 7C0.250977 5.483 1.48398 4.25 3.00098 4.25H5.15796L7.35901 0.612001C7.57301 0.258001 8.03204 0.143995 8.38904 0.358995C8.74304 0.572995 8.85697 1.03501 8.64197 1.38901L6.91101 4.25101H13.062L11.3571 1.385C11.1451 1.029 11.262 0.568996 11.618 0.356996C11.974 0.143996 12.434 0.262998 12.646 0.617998L14.808 4.252H17C18.517 4.252 19.75 5.485 19.75 7.002C19.75 8.073 19.1261 8.995 18.2271 9.448ZM1.75 7C1.75 7.689 2.311 8.25 3 8.25H17C17.689 8.25 18.25 7.689 18.25 7C18.25 6.311 17.689 5.75 17 5.75H3C2.311 5.75 1.75 6.311 1.75 7ZM16.6899 9.75H3.34705L3.99402 16.224C4.12602 17.538 4.52103 18.25 6.23303 18.25H13.803C15.506 18.25 15.913 17.507 16.042 16.224L16.6899 9.75Z" fill="#25314C"/>
</svg>
