<svg width="20" height="19" viewBox="0 0 20 19" fill="none" xmlns="http://www.w3.org/2000/svg">
<path d="M14.8541 18.75C14.5651 18.75 14.275 18.681 14.006 18.54L10.1181 16.505C10.0441 16.466 9.95601 16.466 9.88201 16.505L5.997 18.538C5.378 18.862 4.6421 18.808 4.0761 18.396C3.5131 17.985 3.23508 17.304 3.35308 16.617L4.09405 12.316C4.10805 12.235 4.081 12.153 4.023 12.096L0.782035 8.95001C0.301035 8.48301 0.130089 7.79598 0.337089 7.15698C0.544089 6.51798 1.08601 6.06099 1.75201 5.96399L6.23406 5.31598C6.31606 5.30398 6.38605 5.25299 6.42205 5.17999L8.36504 1.26202C8.67504 0.637024 9.30108 0.249023 9.99908 0.249023C10.6971 0.249023 11.3231 0.637024 11.6331 1.26202L13.575 5.17902C13.612 5.25302 13.6821 5.30398 13.7641 5.31598L18.246 5.96399C18.912 6.05999 19.4541 6.51698 19.6611 7.15698C19.8681 7.79598 19.697 8.48301 19.216 8.95001L15.976 12.095C15.916 12.153 15.8901 12.235 15.9041 12.316L16.6451 16.619C16.7631 17.305 16.487 17.986 15.923 18.396C15.605 18.631 15.2301 18.75 14.8541 18.75ZM10.0001 14.976C10.2791 14.976 10.559 15.042 10.813 15.175L14.7011 17.21C14.8561 17.292 14.982 17.229 15.042 17.185C15.102 17.142 15.197 17.043 15.168 16.875L14.4271 12.571C14.3291 12.001 14.519 11.421 14.934 11.019L18.173 7.875C18.27 7.781 18.254 7.67497 18.236 7.62097C18.218 7.56597 18.168 7.47001 18.033 7.45001L13.5511 6.802C12.9801 6.72 12.4871 6.36201 12.2321 5.84601L10.2911 1.92999C10.2141 1.77399 10.076 1.75098 10.001 1.75098C9.92603 1.75098 9.78811 1.77399 9.71111 1.92999L7.7691 5.84698C7.5151 6.36198 7.0221 6.72 6.4511 6.802L1.96905 7.45001C1.83405 7.47001 1.78304 7.56497 1.76604 7.62097C1.74804 7.67597 1.73303 7.781 1.82903 7.875L5.06902 11.02C5.48302 11.421 5.673 12.001 5.575 12.571L4.83404 16.872C4.80504 17.041 4.90111 17.14 4.96111 17.184C5.02311 17.228 5.14501 17.29 5.30401 17.209L9.18902 15.176C9.44102 15.043 9.72105 14.976 10.0001 14.976Z" fill="#25314C"/>
</svg>
