<svg width="20" height="20" viewBox="0 0 20 20" fill="none" xmlns="http://www.w3.org/2000/svg">
<path d="M19.271 4.284C19.177 4.051 18.972 3.88099 18.726 3.82999C18.479 3.77899 18.224 3.85599 18.047 4.03299L15.865 6.20401C15.578 6.49001 15.111 6.49 14.823 6.203L13.798 5.17801C13.511 4.89101 13.51 4.42301 13.797 4.13501L15.968 1.95401C16.145 1.77601 16.221 1.52099 16.171 1.27499C16.121 1.02899 15.95 0.824012 15.717 0.730012C13.795 -0.0469884 11.654 0.131004 9.841 1.216C9.019 1.709 8.323 2.386 7.83 3.172C7.83 3.172 7.82899 3.17301 7.82899 3.17401L7.74699 3.30899C6.93499 4.65199 6.621 6.15901 6.84 7.67001C6.871 7.88401 6.792 8.10999 6.629 8.27399L1.306 13.597C0.625 14.278 0.25 15.183 0.25 16.147C0.25 17.111 0.625 18.015 1.306 18.696C1.987 19.377 2.892 19.752 3.856 19.752C4.819 19.752 5.724 19.377 6.405 18.696L11.728 13.373C11.891 13.21 12.118 13.131 12.332 13.162C13.84 13.381 15.344 13.071 16.681 12.266C17.544 11.747 18.269 11.022 18.774 10.173C19.869 8.359 20.051 6.213 19.271 4.284ZM17.487 9.401C17.106 10.042 16.56 10.588 15.907 10.979C14.598 11.768 13.357 11.793 12.548 11.676C11.864 11.576 11.164 11.814 10.668 12.311L5.345 17.634C4.548 18.43 3.162 18.429 2.367 17.634C1.97 17.236 1.75 16.707 1.75 16.145C1.75 15.583 1.969 15.054 2.367 14.656L7.69099 9.33301C8.18699 8.83601 8.424 8.13401 8.325 7.45401C8.157 6.29201 8.401 5.127 9.035 4.078L9.10201 3.96799C9.47001 3.38199 9.993 2.87499 10.612 2.50299C11.886 1.73999 13.082 1.66499 14 1.80499L12.733 3.077C11.865 3.95 11.866 5.36801 12.737 6.23901L13.762 7.263C14.633 8.135 16.051 8.136 16.924 7.267L18.195 6.00201C18.364 7.15701 18.123 8.348 17.487 9.401ZM4.02 15H4.00999C3.45799 15 3.015 15.448 3.015 16C3.015 16.552 3.468 17 4.02 17C4.572 17 5.02 16.552 5.02 16C5.02 15.448 4.572 15 4.02 15Z" fill="#25314C"/>
</svg>
