<svg width="20" height="19" viewBox="0 0 20 19" fill="none" xmlns="http://www.w3.org/2000/svg">
<path d="M19.697 10.014C19.697 10.009 19.7 10.005 19.7 10C19.7 9.986 19.693 9.975 19.692 9.961C19.681 9.893 19.666 9.82502 19.651 9.75702C19.644 9.73702 19.642 9.71602 19.634 9.69702C19.593 9.52302 19.551 9.34898 19.485 9.17798L18.447 6.61401C17.988 5.45101 17.513 4.24902 14.969 4.24902H12.749V2.49902C12.749 1.25802 11.739 0.249023 10.499 0.249023H2.49902C1.25902 0.249023 0.249023 1.25802 0.249023 2.49902V13.499C0.249023 14.664 1.14198 15.613 2.27698 15.727C2.26798 15.818 2.24902 15.906 2.24902 15.999C2.24902 17.515 3.48202 18.749 4.99902 18.749C6.51602 18.749 7.74902 17.515 7.74902 15.999C7.74902 15.913 7.731 15.832 7.724 15.749H12.275C12.267 15.832 12.25 15.913 12.25 15.999C12.25 17.515 13.483 18.749 15 18.749C16.517 18.749 17.75 17.515 17.75 15.999C17.75 15.906 17.732 15.817 17.722 15.727C18.857 15.613 19.75 14.664 19.75 13.499V10.579C19.75 10.39 19.725 10.202 19.697 10.014ZM14.97 5.75C16.493 5.75 16.6351 6.10702 17.0551 7.17102L17.896 9.25H12.75V5.75H14.97ZM5 17.25C4.311 17.25 3.75 16.689 3.75 16C3.75 15.311 4.311 14.75 5 14.75C5.689 14.75 6.25 15.311 6.25 16C6.25 16.689 5.689 17.25 5 17.25ZM15 17.25C14.311 17.25 13.75 16.689 13.75 16C13.75 15.311 14.311 14.75 15 14.75C15.689 14.75 16.25 15.311 16.25 16C16.25 16.689 15.689 17.25 15 17.25ZM17.5 14.25H17.104C16.599 13.644 15.849 13.25 15 13.25C14.151 13.25 13.401 13.644 12.896 14.25H7.10303C6.59803 13.644 5.84802 13.25 4.99902 13.25C4.15002 13.25 3.40002 13.644 2.89502 14.25H2.49902C2.08602 14.25 1.74902 13.914 1.74902 13.5V10.75H7.99902C8.41302 10.75 8.74902 10.414 8.74902 10C8.74902 9.586 8.41302 9.25 7.99902 9.25H1.74902V2.5C1.74902 2.086 2.08602 1.75 2.49902 1.75H10.499C10.912 1.75 11.249 2.086 11.249 2.5V10.75H18.249V13.5C18.25 13.914 17.913 14.25 17.5 14.25Z" fill="#25314C"/>
</svg>
