<svg width="22" height="20" viewBox="0 0 22 20" fill="none" xmlns="http://www.w3.org/2000/svg">
<path d="M8.00903 8.75C5.66503 8.75 3.75903 6.843 3.75903 4.5C3.75903 2.157 5.66503 0.25 8.00903 0.25C10.353 0.25 12.259 2.157 12.259 4.5C12.259 6.843 10.353 8.75 8.00903 8.75ZM8.00903 1.75C6.49203 1.75 5.25903 2.983 5.25903 4.5C5.25903 6.017 6.49203 7.25 8.00903 7.25C9.52603 7.25 10.759 6.017 10.759 4.5C10.759 2.983 9.52503 1.75 8.00903 1.75ZM11.9969 19.75H4.00305C1.58305 19.75 0.25 18.425 0.25 16.019C0.25 13.358 1.756 10.25 6 10.25H10C14.244 10.25 15.75 13.357 15.75 16.019C15.75 18.425 14.4169 19.75 11.9969 19.75ZM6 11.75C2.057 11.75 1.75 15.017 1.75 16.019C1.75 17.583 2.42405 18.25 4.00305 18.25H11.9969C13.5759 18.25 14.25 17.583 14.25 16.019C14.25 15.018 13.943 11.75 10 11.75H6ZM15.5601 9.18994C14.6511 9.18994 13.797 8.84394 13.156 8.21594C12.86 7.92594 12.854 7.45103 13.144 7.15503C13.435 6.85903 13.91 6.85504 14.205 7.14404C14.564 7.49604 15.0461 7.68994 15.5601 7.68994C16.6651 7.68994 17.531 6.82497 17.531 5.71997C17.531 4.63397 16.6471 3.75 15.5601 3.75C15.2521 3.75 14.974 3.81301 14.733 3.93701C14.366 4.12701 13.913 3.98104 13.723 3.61304C13.533 3.24504 13.679 2.79303 14.047 2.60303C14.503 2.36903 15.0121 2.25 15.5601 2.25C17.4741 2.25 19.031 3.80697 19.031 5.71997C19.03 7.63297 17.4741 9.18994 15.5601 9.18994ZM18.66 17.75H17.98C17.566 17.75 17.23 17.414 17.23 17C17.23 16.586 17.566 16.25 17.98 16.25H18.66C19.805 16.25 20.25 15.8101 20.25 14.6801C20.25 13.9411 20.023 11.53 17.11 11.53H15.599C15.185 11.53 14.849 11.194 14.849 10.78C14.849 10.366 15.185 10.03 15.599 10.03H17.11C20.535 10.03 21.75 12.5351 21.75 14.6801C21.75 16.6311 20.624 17.75 18.66 17.75Z" fill="#25314C"/>
</svg>
