<svg width="19" height="20" viewBox="0 0 19 20" fill="none" xmlns="http://www.w3.org/2000/svg">
<path d="M8.00903 8.75C10.353 8.75 12.259 6.843 12.259 4.5C12.259 2.157 10.353 0.25 8.00903 0.25C5.66503 0.25 3.75903 2.157 3.75903 4.5C3.75903 6.843 5.66503 8.75 8.00903 8.75ZM8.00903 1.75C9.52603 1.75 10.759 2.983 10.759 4.5C10.759 6.017 9.52603 7.25 8.00903 7.25C6.49203 7.25 5.25903 6.017 5.25903 4.5C5.25903 2.983 6.49203 1.75 8.00903 1.75ZM1.75 16.02C1.75 17.583 2.423 18.25 4 18.25H11C11.414 18.25 11.75 18.586 11.75 19C11.75 19.414 11.414 19.75 11 19.75H4C1.582 19.75 0.25 18.425 0.25 16.02C0.25 13.358 1.756 10.25 6 10.25H10C13.568 10.25 14.894 12.439 15.365 13.745C15.506 14.134 15.304 14.564 14.915 14.705C14.528 14.848 14.097 14.645 13.955 14.255C13.353 12.593 12.023 11.75 10 11.75H6C2.057 11.75 1.75 15.019 1.75 16.02ZM18.75 17C18.75 17.414 18.414 17.75 18 17.75H14C13.586 17.75 13.25 17.414 13.25 17C13.25 16.586 13.586 16.25 14 16.25H18C18.414 16.25 18.75 16.586 18.75 17Z" fill="#25314C"/>
</svg>
