<svg width="20" height="20" viewBox="0 0 20 20" fill="none" xmlns="http://www.w3.org/2000/svg">
<path d="M8.00903 8.75C10.353 8.75 12.259 6.843 12.259 4.5C12.259 2.157 10.353 0.25 8.00903 0.25C5.66503 0.25 3.75903 2.157 3.75903 4.5C3.75903 6.843 5.66503 8.75 8.00903 8.75ZM8.00903 1.75C9.52603 1.75 10.759 2.983 10.759 4.5C10.759 6.017 9.52603 7.25 8.00903 7.25C6.49203 7.25 5.25903 6.017 5.25903 4.5C5.25903 2.983 6.49203 1.75 8.00903 1.75ZM10 10.25H6C1.756 10.25 0.25 13.357 0.25 16.019C0.25 18.425 1.58305 19.75 4.00305 19.75H11.9969C14.4169 19.75 15.75 18.425 15.75 16.019C15.75 13.357 14.244 10.25 10 10.25ZM11.9969 18.25H4.00305C2.42405 18.25 1.75 17.583 1.75 16.019C1.75 15.018 2.057 11.75 6 11.75H10C13.943 11.75 14.25 15.017 14.25 16.019C14.25 17.583 13.5759 18.25 11.9969 18.25ZM19.75 8.02795C19.75 8.44195 19.414 8.77795 19 8.77795H17.25V10.528C17.25 10.942 16.914 11.278 16.5 11.278C16.086 11.278 15.75 10.942 15.75 10.528V8.77795H14C13.586 8.77795 13.25 8.44195 13.25 8.02795C13.25 7.61395 13.586 7.27795 14 7.27795H15.75V5.52795C15.75 5.11395 16.086 4.77795 16.5 4.77795C16.914 4.77795 17.25 5.11395 17.25 5.52795V7.27795H19C19.414 7.27795 19.75 7.61395 19.75 8.02795Z" fill="#25314C"/>
</svg>
