<svg width="20" height="22" viewBox="0 0 20 22" fill="none" xmlns="http://www.w3.org/2000/svg">
<path d="M1.00102 10.855C0.974023 10.855 0.945992 10.854 0.918992 10.851C0.506992 10.806 0.209052 10.435 0.255052 10.024C0.617052 6.70605 2.61903 3.84996 5.61003 2.38196C5.84303 2.26796 6.11708 2.28195 6.33708 2.41895C6.55708 2.55595 6.69109 2.79703 6.69109 3.05603V6.10596C6.69109 6.51996 6.35509 6.85596 5.94109 6.85596C5.52709 6.85596 5.19109 6.51996 5.19109 6.10596V4.36499C3.26709 5.70299 2.00602 7.80499 1.74602 10.188C1.70302 10.571 1.37902 10.855 1.00102 10.855ZM14.3901 19.729C17.3811 18.261 19.383 15.404 19.745 12.087C19.791 11.675 19.4931 11.305 19.0811 11.26C18.6681 11.218 18.3001 11.512 18.2551 11.924C17.9941 14.3069 16.7341 16.4079 14.8101 17.7469V16.006C14.8101 15.592 14.4741 15.256 14.0601 15.256C13.6461 15.256 13.3101 15.592 13.3101 16.006V19.056C13.3101 19.315 13.444 19.556 13.664 19.693C13.785 19.768 13.9231 19.806 14.0601 19.806C14.1731 19.806 14.2851 19.78 14.3901 19.729ZM13.5051 5.25C12.1261 5.25 11.0051 4.128 11.0051 2.75C11.0051 1.372 12.1261 0.25 13.5051 0.25C14.8841 0.25 16.0051 1.372 16.0051 2.75C16.0051 4.128 14.8841 5.25 13.5051 5.25ZM13.5051 1.75C12.9531 1.75 12.5051 2.199 12.5051 2.75C12.5051 3.301 12.9531 3.75 13.5051 3.75C14.0571 3.75 14.5051 3.301 14.5051 2.75C14.5051 2.199 14.0571 1.75 13.5051 1.75ZM15.4991 11.75H11.501C10.092 11.75 9.25005 10.912 9.25005 9.50903C9.25005 7.88603 10.255 6.25 12.5 6.25H14.5C16.745 6.25 17.75 7.88703 17.75 9.50903C17.75 10.912 16.9081 11.75 15.4991 11.75ZM12.5 7.75C10.978 7.75 10.75 8.85203 10.75 9.50903C10.75 10.084 10.918 10.25 11.501 10.25H15.4991C16.0821 10.25 16.25 10.084 16.25 9.50903C16.25 8.85203 16.022 7.75 14.5 7.75H12.5ZM5.50505 15.25C4.12605 15.25 3.00505 14.128 3.00505 12.75C3.00505 11.372 4.12605 10.25 5.50505 10.25C6.88405 10.25 8.00505 11.372 8.00505 12.75C8.00505 14.128 6.88405 15.25 5.50505 15.25ZM5.50505 11.75C4.95305 11.75 4.50505 12.199 4.50505 12.75C4.50505 13.301 4.95305 13.75 5.50505 13.75C6.05705 13.75 6.50505 13.301 6.50505 12.75C6.50505 12.199 6.05705 11.75 5.50505 11.75ZM7.49907 21.75H3.50102C2.09202 21.75 1.25005 20.912 1.25005 19.509C1.25005 17.886 2.25505 16.25 4.50005 16.25H6.50005C8.74505 16.25 9.75005 17.887 9.75005 19.509C9.75005 20.912 8.90807 21.75 7.49907 21.75ZM4.50005 17.75C2.97805 17.75 2.75005 18.852 2.75005 19.509C2.75005 20.084 2.91802 20.25 3.50102 20.25H7.49907C8.08207 20.25 8.25005 20.084 8.25005 19.509C8.25005 18.852 8.02205 17.75 6.50005 17.75H4.50005Z" fill="#25314C"/>
</svg>
