<svg width="934" height="186" viewBox="0 0 934 186" fill="none" xmlns="http://www.w3.org/2000/svg">
<path d="M8.61438 147.602L1 143.101V185H933V1.01475C931.477 0.371825 925.386 20.9455 919.294 22.8743C913.203 24.8031 916.248 21.5885 910.918 23.5173C905.588 25.446 904.827 31.2324 902.542 30.5895C900.258 29.9465 896.451 34.447 891.121 36.3758C885.791 38.3046 876.654 22.8743 871.323 20.9455C865.993 19.0167 865.993 26.7319 863.709 28.0177C861.425 29.3036 861.425 27.3748 860.663 26.089C859.902 24.8031 859.902 22.8743 851.526 22.8743C843.15 22.8743 834.775 37.6617 831.729 38.3046C828.683 38.9475 825.637 39.5905 819.546 41.5192C813.454 43.448 810.409 35.7329 804.317 34.447C798.225 33.1612 792.895 43.448 789.85 44.091C786.804 44.7339 786.804 39.5905 780.712 38.3046C774.621 37.0187 772.337 44.7339 768.529 45.3768C764.722 46.0197 763.199 43.448 759.392 39.5905C756.346 36.5044 754.062 40.8763 753.301 43.448C751.778 52.449 748.58 130.931 747.971 133.503C747.209 136.718 744.163 135.432 742.641 133.503C741.118 131.574 740.356 132.217 737.31 134.789C734.265 137.361 731.98 135.432 728.173 132.217C724.366 129.003 721.32 139.289 718.274 141.218C715.229 143.147 712.183 138.646 711.422 136.718C710.66 134.789 708.376 72.3798 706.853 72.3798C705.33 72.3798 703.807 73.0227 700 69.8081C696.193 66.5935 694.67 64.6647 690.101 65.3076C685.533 65.9505 684.01 63.3788 680.203 60.8071C676.395 58.2354 673.35 64.0217 667.258 63.3788C661.167 62.7359 662.69 61.45 658.121 60.8071C653.552 60.1642 652.029 66.5935 648.222 67.8793C644.415 69.1652 642.892 62.7359 641.369 62.093C639.846 61.45 637.562 64.0217 633.755 64.6647C629.948 65.3076 630.709 64.0217 627.663 64.0217C624.618 64.0217 616.242 68.5222 613.196 69.8081C610.15 71.094 608.627 66.5935 604.82 65.9505C601.013 65.3076 597.206 66.5935 593.399 67.8793C589.591 69.1652 588.069 65.3076 585.784 62.7359C583.5 60.1642 581.977 64.6647 579.693 67.8793C577.409 71.094 574.363 67.2364 571.317 66.5935C568.271 65.9505 565.987 71.7369 562.941 72.3798C559.895 73.0227 559.134 62.093 556.088 60.8071C553.042 59.5212 553.804 61.45 549.997 62.7359C546.19 64.0217 544.667 57.5925 542.382 57.5925C540.098 57.5925 531.722 60.1642 528.676 62.7359C526.24 64.7933 523.093 71.7369 521.823 74.9515C518.016 75.1658 509.488 75.4659 505.833 74.9515C501.265 74.3086 496.696 68.5222 494.412 66.5935C492.127 64.6647 491.366 66.5935 488.32 69.1652C485.275 71.7369 480.706 67.8793 477.66 65.3076C474.614 62.7359 465.477 72.3798 461.67 74.9515C458.624 77.0089 449.741 70.2367 445.68 66.5935H435.781C433.497 66.5935 428.167 62.093 427.405 60.1642C426.644 58.2354 422.075 56.9495 419.029 61.45C415.984 65.9505 412.176 65.9505 408.369 65.3076C404.562 64.6647 406.085 67.8793 402.278 71.094C398.471 74.3086 396.948 65.9505 395.425 63.3788C393.902 60.8071 391.618 64.0217 387.81 64.0217C384.003 64.0217 384.003 55.6637 383.242 51.1632C382.633 47.5628 376.897 46.6627 374.105 46.6627C372.074 44.9482 367.556 39.2047 365.729 29.9465C363.444 18.3738 354.307 19.0168 352.784 19.6597C351.261 20.3026 345.17 22.8743 342.124 20.3028C339.078 17.7314 338.317 10.6589 332.987 17.0882C327.657 23.5175 323.088 24.8035 320.042 22.8743C316.997 20.945 316.235 13.8738 308.621 21.5886C301.007 29.3034 298.722 24.8032 294.154 21.5886C289.585 18.3739 286.539 24.8032 281.971 29.3034C277.402 33.8036 272.833 26.0889 268.265 22.8743C263.696 19.6596 263.696 35.0898 255.32 29.3034C248.62 24.6743 245.422 29.0891 244.66 31.8751C242.63 59.7354 238.112 115.842 236.284 117.385C234 119.313 232.477 116.742 230.193 114.17C227.908 111.598 226.386 116.742 223.34 118.67C220.294 120.599 219.533 117.385 212.68 116.742C205.827 116.099 205.065 107.098 202.781 103.883C200.497 100.668 194.405 100.668 191.359 97.4535C188.314 94.2385 184.507 93.5963 178.415 100.668C172.324 107.741 168.516 111.598 164.709 109.669C160.902 107.741 163.186 100.668 157.095 91.6672C151.003 82.6662 133.49 96.1677 131.206 97.4535C128.922 98.7393 125.876 99.3824 122.83 98.7394C119.784 98.0965 118.261 103.24 115.977 103.24C113.693 103.24 99.9869 105.169 92.3725 105.169C84.7582 105.169 86.281 101.311 80.1895 97.4535C75.3163 94.3674 73.5904 101.311 73.3366 105.169L66.4837 141.816L52.7778 142.458C51.2549 141.173 47.6 138.472 45.1634 137.958C42.7268 137.443 33.9956 141.601 29.9346 143.744H16.2288L8.61438 147.602Z" fill="url(#paint0_linear_74_1150)" stroke="#01FF84"/>
<defs>
<linearGradient id="paint0_linear_74_1150" x1="467" y1="1" x2="467" y2="185" gradientUnits="userSpaceOnUse">
<stop stop-color="#01FF84" stop-opacity="0.5"/>
<stop offset="1" stop-color="white" stop-opacity="0"/>
</linearGradient>
</defs>
</svg>
