<svg width="22" height="16" viewBox="0 0 22 16" fill="none" xmlns="http://www.w3.org/2000/svg">
<path d="M20.8999 2.20801C20.3739 1.95601 19.766 2.02492 19.312 2.38892L16.75 4.43896V4C16.75 1.582 15.418 0.25 13 0.25H4C1.582 0.25 0.25 1.582 0.25 4V12C0.25 14.418 1.582 15.75 4 15.75H13C15.418 15.75 16.75 14.418 16.75 12V11.561L19.313 13.6121C19.585 13.8301 19.9141 13.9419 20.2471 13.9419C20.4681 13.9419 20.6899 13.893 20.8999 13.792C21.4229 13.54 21.75 13.0209 21.75 12.4399V3.56104C21.75 2.97904 21.4239 2.46101 20.8999 2.20801ZM15.25 12C15.25 13.577 14.577 14.25 13 14.25H4C2.423 14.25 1.75 13.577 1.75 12V4C1.75 2.423 2.423 1.75 4 1.75H13C14.577 1.75 15.25 2.423 15.25 4V12ZM20.25 12.4399L16.75 9.63989V6.36108L20.25 3.56104V12.4399Z" fill="#25314C"/>
</svg>
