<svg width="177" height="138" viewBox="0 0 177 138" fill="none" xmlns="http://www.w3.org/2000/svg">
<path d="M1.96624 38.189C2.00224 38.184 2.03841 38.181 2.07341 38.1781C2.5737 36.383 3.59482 34.7765 5.00774 33.5616C6.42066 32.3467 8.16192 31.5778 10.0116 31.3521C11.8614 31.1264 13.7365 31.454 15.4001 32.2935C17.0637 33.1331 18.4411 34.4468 19.3583 36.0689C19.2339 36.2331 19.1363 36.4161 19.0693 36.6109C18.3188 35.1621 17.1857 33.9467 15.7929 33.0968C14.4001 32.2468 12.801 31.795 11.1694 31.7901C10.7245 31.7907 10.2802 31.824 9.84026 31.89C8.13358 32.1455 6.53771 32.8904 5.24578 34.0345C3.95384 35.1786 3.02148 36.6728 2.56145 38.336C2.39568 38.3393 2.23157 38.3707 2.07634 38.429C2.07771 38.5164 2.08472 38.6036 2.09734 38.69L2.04241 38.6961C1.57255 38.7665 1.14977 39.0202 0.86687 39.4019C0.583976 39.7836 0.464043 40.262 0.533374 40.732C0.592392 41.118 0.775386 41.4742 1.05461 41.7471C1.33384 42.0201 1.69401 42.1948 2.08123 42.2449C2.21523 42.2599 2.36645 42.268 2.41545 42.275C2.85988 44.5309 4.14404 46.5339 6.00872 47.8792C7.87339 49.2245 10.1794 49.8117 12.4604 49.522C14.7985 49.1746 16.9028 47.9125 18.3105 46.0135C19.7181 44.1145 20.3136 41.7342 19.9662 39.3961C19.9492 39.2851 19.9294 39.1741 19.9084 39.0631C20.0808 39.156 20.2673 39.2201 20.4604 39.253C20.4604 39.276 20.4693 39.2981 20.4723 39.3211C20.8229 41.677 20.2681 44.0781 18.9194 46.0413C17.5707 48.0046 15.5282 49.384 13.2033 49.9019V53.888H12.6913V50.001C12.6393 50.01 12.5914 50.0209 12.5344 50.0279C12.0738 50.0956 11.6087 50.1291 11.1432 50.128C10.7227 50.128 10.3028 50.0987 9.8864 50.0401V53.8841H9.37444V49.951C7.58384 49.5777 5.93687 48.7012 4.62712 47.4244C3.31738 46.1476 2.39922 44.5235 1.9804 42.743C1.48878 42.6742 1.03265 42.4482 0.680103 42.0987C0.327557 41.7492 0.0974612 41.295 0.024341 40.804C-0.0641419 40.1998 0.0907 39.5853 0.454761 39.095C0.818822 38.6048 1.36227 38.279 1.96624 38.189Z" fill="black"/>
<path d="M16.5215 34.9629L18.0505 41.2319L15.7026 41.3188L15.6836 40.8079L17.4045 40.7439L16.0247 35.0847L16.5215 34.9629Z" fill="black"/>
<path d="M13.668 43.0149L13.6128 43.5239C13.1599 43.5254 12.7136 43.417 12.3118 43.208C11.91 42.999 11.5648 42.6957 11.3059 42.324C11.1475 41.9826 11.0644 41.611 11.0625 41.2346C11.0606 40.8583 11.14 40.4858 11.295 40.1428L11.76 40.3579C11.6393 40.6271 11.576 40.9184 11.5745 41.2134C11.5729 41.5084 11.6331 41.8004 11.751 42.0708C11.9725 42.3692 12.2619 42.6105 12.5952 42.7747C12.9286 42.9388 13.2964 43.0212 13.668 43.0149Z" fill="black"/>
<path d="M1.40942 39.7827L1.35449 39.2739C1.64741 39.2126 1.95091 39.2241 2.23828 39.3076C2.52565 39.3911 2.78803 39.5441 3.00244 39.7529C3.18408 40.0073 3.30996 40.2971 3.37183 40.6035C3.43369 40.9099 3.43003 41.2258 3.36133 41.5307L2.86133 41.4209C2.91191 41.1944 2.91657 40.9602 2.875 40.7319C2.83343 40.5036 2.74654 40.2859 2.61938 40.0918C2.45696 39.9475 2.26249 39.8443 2.052 39.7905C1.84151 39.7367 1.62114 39.734 1.40942 39.7827Z" fill="black"/>
<path d="M125.663 137.794H176.257C176.257 137.794 177.188 129.918 162.682 125.911L129.282 126.111C126.67 128.966 125.998 133.404 125.663 137.794Z" fill="#0059E7"/>
<path d="M79.4756 137.794H132.614C132.614 137.794 133.591 129.918 118.355 125.911L83.2986 126.111C80.7566 129.336 79.8276 133.404 79.4756 137.794Z" fill="#0059E7"/>
<path d="M132.359 137.796H132.871C132.839 132.434 127.281 129.31 127.044 129.179L126.797 129.627C126.853 129.656 132.329 132.738 132.359 137.796Z" fill="black"/>
<path d="M166.272 67.7659V1.41895L166.148 1.44385C160.194 5.30485 147.236 15.773 146.467 34.135C146.467 34.134 145.574 52.4339 166.272 67.7659Z" fill="#0059E7"/>
<path d="M69.3643 18.947L69.3494 18.9419L68.8284 18.8721C68.7974 18.8721 68.7673 18.8721 68.7373 18.8721C68.8832 18.6663 69.0692 18.4921 69.2842 18.3601C69.4992 18.2281 69.7387 18.141 69.9883 18.104C70.6773 18.06 71.3552 18.6041 71.9812 19.7261C72.1732 19.6532 72.376 19.6123 72.5813 19.605C72.4221 19.7776 72.2929 19.9756 72.1992 20.1909C72.1302 20.2137 72.0633 20.2427 71.9993 20.2771L71.7664 20.417L71.6414 20.1761C71.0934 19.1221 70.5412 18.585 70.0212 18.615C69.7708 18.6475 69.539 18.7647 69.3643 18.947Z" fill="black"/>
<path d="M60.261 18.986C59.694 19.61 59.3288 21.551 58.9438 24.132C58.7687 24.1204 58.5928 24.1324 58.4209 24.1679C58.8349 21.3679 59.2118 19.379 59.8818 18.642C60.094 18.3422 60.3835 18.1055 60.7195 17.9572C61.0555 17.8089 61.4256 17.7546 61.79 17.8C62.778 18.006 63.4539 19.1898 63.7759 19.8998C64.1829 19.1768 65.0301 17.945 66.0701 17.945H66.1011C66.7011 17.959 67.255 18.379 67.751 19.194C67.6381 19.2643 67.5353 19.3493 67.4451 19.447C67.4301 19.461 67.4181 19.4759 67.4031 19.4899C66.9831 18.7839 66.5369 18.467 66.0889 18.457H66.0701C65.1501 18.457 64.2519 20.0138 63.9819 20.6188L63.7148 21.2189L63.5059 20.601C63.3119 20.029 62.6058 18.501 61.6838 18.308C61.408 18.286 61.1314 18.337 60.8816 18.456C60.6318 18.575 60.4176 18.7579 60.261 18.986Z" fill="black"/>
<path d="M18.6995 60.5571C20.5402 60.8722 22.404 61.0328 24.2715 61.0371C31.3085 61.0371 40.1956 58.656 49.3096 49.208C49.5036 49.008 49.6915 48.7991 49.8765 48.5891C50.0483 48.6656 50.2291 48.7202 50.4146 48.752C50.1765 49.0293 49.9311 49.2997 49.6785 49.563C42.9935 56.493 35.6025 60.4561 27.7095 61.3411C24.7034 61.6677 21.6666 61.5765 18.6855 61.0701C18.7276 60.9021 18.7323 60.7271 18.6995 60.5571Z" fill="black"/>
<path d="M37.6536 87.997C37.8076 87.872 53.2625 75.3669 70.2585 63.3229C93.1235 47.1229 107.747 39.423 113.718 40.453C119.24 41.404 122.388 43.0709 124.589 46.2079C127.635 50.5509 128.71 57.8688 128.073 69.9388C127.586 79.1498 126.106 91.214 123.386 107.911C125.443 114.449 127.5 120.727 129.178 125.711H163.578C155.456 96.5428 148.228 76.49 141.203 63.778C141.396 63.8058 141.592 63.8027 141.783 63.7689C148.814 76.5839 156.045 96.7058 164.161 125.898L164.251 126.222H128.813L128.755 126.048C128.493 125.272 126.067 118.054 123.209 109.012C122.355 114.218 121.382 119.867 120.284 126.012L120.247 126.223H81.2825L94.7224 78.766C91.5508 86.47 87.5442 93.8031 82.7744 100.634C77.1984 108.484 71.0244 114.603 64.4224 118.82C58.6126 122.585 51.9574 124.845 45.0564 125.398C44.8902 125.357 44.7198 125.336 44.5486 125.336C43.3366 125.336 42.1266 125.407 40.9146 125.395C39.8286 125.385 38.7405 125.221 37.6545 125.295L37.5596 125.232V88.0709L37.6536 87.997ZM38.0706 125.153C58.9856 126.709 73.6874 112.538 82.3484 100.348C88.2314 91.9261 92.9384 82.7417 96.3394 73.048L96.8293 73.1959L81.9575 125.71H119.816C124.528 99.3198 126.916 82.1098 127.562 69.9098C128.193 57.9628 127.148 50.7429 124.171 46.4999C122.057 43.4869 119.004 41.8809 113.631 40.9559C107.88 39.9659 92.9854 47.8429 70.5564 63.7369C54.2684 75.2799 39.3956 87.2468 38.0706 88.3158V125.153Z" fill="black"/>
<path d="M9.89315 52.9741C9.89315 52.9741 11.774 55.222 13.203 53.041C13.203 53.041 15.8031 58.7109 30.1661 63.1169C31.3034 63.4096 32.4823 63.7481 33.703 64.1321V78.4561L30.4852 78.2C32.1202 81.9537 34.5313 85.3189 37.5601 88.074V125.388C37.5601 125.388 17.7271 125.305 7.69613 103.088C-0.792874 84.2881 4.04115 54.9831 9.89315 52.9741Z" fill="#0059E7"/>
<path d="M30.175 78.4147C26.632 77.9751 23.1824 76.9699 19.958 75.4369L20.1802 74.9757C23.4283 76.5199 26.9077 77.5207 30.48 77.9379C43.38 79.0789 54.8052 75.1588 64.5542 66.2008C82.2812 49.9108 82.8491 30.4129 82.6011 24.8249C82.4871 22.2739 81.8512 21.4059 81.3362 21.1249C81.1701 21.0349 80.984 20.9885 80.7952 20.9899C80.5593 20.9927 80.3276 21.0525 80.1201 21.1647L80.0032 21.2348C80.4122 23.5348 79.9291 27.5349 78.5471 33.3349L78.0471 33.2157C80.1411 25.4157 79.7141 21.0299 79.1921 20.1469C78.7921 19.6209 78.3922 19.3599 78.0122 19.3839C77.1472 19.4399 76.4121 20.9398 76.2051 21.5138L76.125 21.7348C76.396 23.9088 76.0251 27.0999 74.9961 31.5529L74.4961 31.4379C75.6261 26.5379 76.0162 23.1778 75.5552 21.1088C75.0142 19.8808 74.415 19.2259 73.813 19.2089H73.792C72.8 19.2089 71.8351 20.8787 71.5461 21.5277L71.5251 21.5739C71.9541 23.4339 71.9872 26.3319 71.5642 30.5949L71.0552 30.5438C71.5552 25.5028 71.46 22.4547 70.781 20.8187C70.456 20.1477 69.874 19.2028 69.113 19.0438C68.8144 19.0204 68.515 19.0764 68.2449 19.206C67.9748 19.3356 67.7438 19.5343 67.5752 19.7819C66.8272 20.6049 66.408 23.5499 65.875 27.2819C64.769 35.0479 63.098 46.7817 56.53 53.5907C49.464 60.9157 42.1352 65.0297 33.7002 65.9457V65.4699C40.5662 64.7249 48.0272 61.6698 56.1602 53.2348C62.6132 46.5458 64.2702 34.9089 65.3672 27.2089C65.9322 23.2439 66.3401 20.3788 67.1941 19.4398C67.4188 19.1219 67.7255 18.8709 68.0815 18.7133C68.4376 18.5557 68.8296 18.4974 69.2161 18.5448C69.6521 18.7075 70.0495 18.959 70.3833 19.2833C70.7171 19.6077 70.9799 19.9977 71.155 20.4289V20.4347C71.223 20.5677 71.2842 20.6948 71.3352 20.8078C71.7662 20.0358 72.6891 18.6799 73.8201 18.6989C74.6201 18.7179 75.3411 19.4158 75.9651 20.7768C76.3121 20.0678 77.0141 18.9359 77.9751 18.8769C78.7131 18.8279 79.261 19.2718 79.928 20.4718C80.4806 20.3346 81.0646 20.4058 81.5681 20.6718C82.4891 21.1718 83.0072 22.5569 83.1072 24.8019C83.3582 30.4459 82.785 50.1378 64.895 66.5778C56.143 74.6198 46.0652 78.6537 34.7952 78.6527C34.4482 78.6527 34.095 78.6468 33.748 78.6378C33.687 78.6378 33.578 78.6378 33.448 78.6378C32.3538 78.6287 31.2612 78.5535 30.176 78.4127L30.175 78.4147Z" fill="black"/>
<path d="M76.2068 20.7781L75.5957 20.907C75.5374 20.6738 75.4227 20.4585 75.2617 20.28L76.5618 20.0051C76.389 20.2341 76.2679 20.4978 76.2068 20.7781Z" fill="black"/>
<path d="M19.0891 36.3979L32.0581 29.8979C33.1907 29.3301 34.3915 28.91 35.6311 28.6479L66.3779 22.158C66.2926 22.3924 66.2418 22.6379 66.2271 22.887L63.27 23.511C61.5695 25.5264 60.3396 27.8953 59.6699 30.4458C58.7189 33.9388 58.3639 39.2458 61.1699 45.9758C61.081 46.0781 61.0044 46.1905 60.9419 46.3108C58.0029 39.3848 58.366 33.9219 59.342 30.3369C59.9958 27.8921 61.1452 25.6079 62.719 23.626L45.9189 27.1719C44.6011 28.8008 43.6313 30.6826 43.0691 32.7009C42.1341 36.0319 41.9071 41.3179 46.0491 47.6819L59.1121 49.8428C58.9758 50.0382 58.8742 50.2558 58.812 50.4858L35.9761 46.7078C34.6323 46.4856 33.3257 46.0781 32.094 45.4968C32.015 45.4608 31.9359 45.4228 31.8569 45.3838L19.082 38.9788C18.8429 38.859 18.6418 38.6751 18.5012 38.4475C18.3607 38.2199 18.2861 37.9579 18.2861 37.6904C18.2861 37.423 18.3607 37.1607 18.5012 36.9331C18.6418 36.7055 18.8429 36.5216 19.082 36.4019L19.0891 36.3979ZM21.6721 39.5068L23.7319 40.5398C23.3135 38.65 23.3313 36.6898 23.7839 34.8079L21.708 35.8489C21.5183 37.0598 21.5078 38.2919 21.677 39.5059L21.6721 39.5068ZM28.061 34.4958C28.2603 33.7349 28.5206 32.9913 28.8391 32.272L26.5161 33.4368C26.3931 33.7888 26.278 34.1569 26.177 34.5459C25.5298 36.9712 25.6264 39.535 26.4541 41.9048L28.7871 43.075C27.5535 40.3869 27.2983 37.3521 28.0659 34.4958H28.061ZM29.0339 43.1958L31.5859 44.4758C30.6759 42.999 30.0766 41.352 29.8247 39.6357C29.5728 37.9194 29.6738 36.1699 30.1211 34.4939C30.4547 33.236 30.9484 32.026 31.5901 30.8938L29.0801 32.1528C28.726 32.9267 28.4391 33.7298 28.2229 34.553C27.4531 37.4396 27.7427 40.5064 29.0391 43.198L29.0339 43.1958ZM26.0129 34.4958C26.0989 34.1658 26.1951 33.8499 26.2981 33.5459L23.9841 34.7058C23.4924 36.6508 23.4737 38.6853 23.9299 40.6389L26.2351 41.7949C25.4485 39.4359 25.373 36.8975 26.0181 34.4958H26.0129ZM36.094 46.0308L45.594 47.6028C41.553 41.2408 41.8001 35.9449 42.7461 32.5889C43.2873 30.6685 44.1856 28.8673 45.394 27.2798L35.7681 29.3118C34.5859 29.5621 33.4406 29.9628 32.3601 30.5039L31.8601 30.7529C31.1636 31.9369 30.6317 33.2102 30.2791 34.5378C29.8253 36.2369 29.7323 38.0121 30.0063 39.7493C30.2804 41.4864 30.9154 43.1469 31.8701 44.6238L32.063 44.7239L32.155 44.7688C32.228 44.8048 32.2999 44.84 32.3789 44.875C33.5595 45.4294 34.8117 45.8166 36.0991 46.0259L36.094 46.0308ZM19.394 38.365L21.4851 39.4128C21.3382 38.2597 21.3496 37.0919 21.519 35.9419L19.394 37.0068C19.2682 37.0699 19.1623 37.1668 19.0884 37.2866C19.0144 37.4064 18.9751 37.5445 18.9751 37.6853C18.9751 37.8261 19.0144 37.9642 19.0884 38.084C19.1623 38.2038 19.2682 38.3007 19.394 38.3638V38.365Z" fill="black"/>
<path d="M84.3972 54.022C84.0763 54.121 83.7931 54.3154 83.5852 54.5791L75.3701 53.22C75.5039 53.0243 75.6015 52.8061 75.6582 52.5759L84.3972 54.022Z" fill="black"/>
<path d="M82.2039 34.218C82.2853 33.8404 82.336 33.4569 82.355 33.071C82.421 32.034 82.8699 31.0019 82.8469 29.9189C82.844 29.703 82.8077 29.4887 82.739 29.2839C82.8157 28.8726 82.8975 28.4754 82.9849 28.092C83.7262 24.6811 85.0796 21.4325 86.979 18.5039L79.5679 20.0679C79.4014 19.8287 79.1768 19.6361 78.915 19.5081L166.08 1.10791L166.614 0.996826V68.3149L127.781 61.8889C127.811 61.6581 127.806 61.424 127.765 61.1948L136.939 62.7129C131.839 55.3069 128.651 47.837 127.47 40.499C126.519 34.7333 126.857 28.8284 128.46 23.209C130.063 17.5896 132.891 12.3952 136.741 7.99902L108.841 13.8879C105.909 17.294 103.759 21.3009 102.541 25.627C100.902 31.545 100.902 37.7968 102.541 43.7148C102.428 43.7649 102.32 43.826 102.219 43.897C101.862 42.5619 101.577 41.2087 101.366 39.843C100.608 35.0682 100.897 30.1855 102.215 25.5339C103.414 21.3095 105.485 17.3827 108.292 14.0059L87.4739 18.3999C85.4786 21.3665 84.0697 24.6875 83.323 28.1838C82.087 33.6558 81.7328 42.216 86.6118 52.675C86.5065 52.7209 86.4062 52.7771 86.312 52.843C83.4775 47.051 82.0688 40.6651 82.2039 34.218ZM165.915 1.84302C162.467 4.11891 159.331 6.83597 156.587 9.92505C152.122 14.939 146.771 23.2099 146.636 34.1399C146.512 44.1129 151.88 52.7239 156.404 58.1919C159.238 61.61 162.432 64.7133 165.93 67.448V1.84106L165.915 1.84302ZM128.889 22.95C126.262 31.783 125.622 45.8499 137.406 62.7939L165.333 67.415C161.971 64.7373 158.893 61.7215 156.147 58.415C151.583 52.902 146.17 44.215 146.295 34.135C146.432 23.095 151.833 14.748 156.34 9.68896C158.915 6.8014 161.826 4.23152 165.01 2.03394L137.31 7.87988C133.412 12.2108 130.534 17.3604 128.889 22.95Z" fill="black"/>
<path d="M8.19041 44.5118C9.67641 44.5118 6.09727 42.843 7.19627 39.035C8.29527 35.227 15.2154 41.928 20.5764 37.127C25.9374 32.326 17.8193 25.127 15.7763 27.411C13.7333 29.695 16.2935 30.889 14.4065 31.211C12.5195 31.533 1.8154 29.0899 1.9824 38.6949C1.9804 38.6989 6.70441 44.5078 8.19041 44.5118Z" fill="black"/>
<path d="M15.8496 129.974H62.7896V125.106H15.8496V129.974ZM62.4495 129.633H16.1914V125.447H62.4495V129.633Z" fill="black"/>
</svg>
