<svg width="20" height="14" viewBox="0 0 20 14" fill="none" xmlns="http://www.w3.org/2000/svg">
<path d="M13.453 9.42099C13.783 9.67099 13.848 10.142 13.598 10.472C13.451 10.666 13.2261 10.769 12.9991 10.769C12.8421 10.769 12.6822 10.719 12.5472 10.616C11.0862 9.507 8.91396 9.507 7.45296 10.616C7.12496 10.867 6.65218 10.802 6.40218 10.472C6.15218 10.142 6.2162 9.67199 6.5472 9.42099C8.5332 7.91299 11.467 7.91299 13.453 9.42099ZM10.0001 4.26001C7.61608 4.26001 5.31206 5.11301 3.51106 6.66101C3.19806 6.93101 3.16096 7.40399 3.43196 7.71899C3.70296 8.03399 4.17607 8.06801 4.49007 7.79901C6.01807 6.48501 7.97505 5.76099 10.0011 5.76099C12.0271 5.76099 13.983 6.48501 15.512 7.79901C15.654 7.92101 15.8271 7.98001 16.0011 7.98001C16.2121 7.98001 16.4212 7.89099 16.5692 7.71899C16.8402 7.40499 16.8031 6.93101 16.4901 6.66101C14.6881 5.11301 12.3841 4.26001 10.0001 4.26001ZM19.5001 3.884C16.8841 1.541 13.5111 0.25 10.0001 0.25C6.48908 0.25 3.11608 1.541 0.500077 3.884C0.191077 4.16 0.164995 4.63399 0.440995 4.94299C0.716995 5.25199 1.19208 5.27701 1.50008 5.00101C3.84108 2.90501 6.85908 1.75 10.0001 1.75C13.1411 1.75 16.1591 2.90501 18.5001 5.00101C18.6431 5.12901 18.8211 5.19199 19.0001 5.19199C19.2061 5.19199 19.4102 5.10799 19.5592 4.94199C19.8352 4.63399 19.8091 4.16 19.5001 3.884ZM10.0001 12C9.44808 12 9.00008 12.448 9.00008 13C9.00008 13.552 9.44808 14 10.0001 14C10.5521 14 11.0001 13.552 11.0001 13C11.0001 12.448 10.5521 12 10.0001 12Z" fill="#25314C"/>
</svg>
