<svg width="18" height="20" viewBox="0 0 18 20" fill="none" xmlns="http://www.w3.org/2000/svg">
<path d="M14 2.25H13.73C13.633 0.996 12.821 0.25 11.5 0.25H6.5C5.179 0.25 4.36702 0.996 4.27002 2.25H4C1.582 2.25 0.25 3.582 0.25 6V16C0.25 18.418 1.582 19.75 4 19.75H14C16.418 19.75 17.75 18.418 17.75 16V6C17.75 3.582 16.418 2.25 14 2.25ZM5.75 2.5C5.75 1.911 5.911 1.75 6.5 1.75H11.5C12.089 1.75 12.25 1.911 12.25 2.5V3.5C12.25 4.089 12.089 4.25 11.5 4.25H6.5C5.911 4.25 5.75 4.089 5.75 3.5V2.5ZM16.25 16C16.25 17.577 15.577 18.25 14 18.25H4C2.423 18.25 1.75 17.577 1.75 16V6C1.75 4.423 2.423 3.75 4 3.75H4.27002C4.36702 5.004 5.179 5.75 6.5 5.75H11.5C12.821 5.75 13.633 5.004 13.73 3.75H14C15.577 3.75 16.25 4.423 16.25 6V16ZM12.03 9.13599C12.323 9.42899 12.323 9.90402 12.03 10.197L8.69702 13.53C8.55102 13.676 8.35899 13.75 8.16699 13.75C7.97499 13.75 7.78296 13.677 7.63696 13.53L5.96997 11.863C5.67697 11.57 5.67697 11.095 5.96997 10.802C6.26297 10.509 6.73801 10.509 7.03101 10.802L8.16797 11.938L10.9709 9.13501C11.2629 8.84401 11.737 8.84399 12.03 9.13599Z" fill="#25314C"/>
</svg>
