<svg width="20" height="16" viewBox="0 0 20 16" fill="none" xmlns="http://www.w3.org/2000/svg">
<path d="M16 0.25H4C1.582 0.25 0.25 1.582 0.25 4V12C0.25 14.418 1.582 15.75 4 15.75H16C18.418 15.75 19.75 14.418 19.75 12V4C19.75 1.582 18.418 0.25 16 0.25ZM18.25 12C18.25 13.577 17.577 14.25 16 14.25H4C2.423 14.25 1.75 13.577 1.75 12V6.75H18.25V12ZM18.25 5.25H1.75V4C1.75 2.423 2.423 1.75 4 1.75H16C17.577 1.75 18.25 2.423 18.25 4V5.25ZM4.25 11C4.25 10.586 4.586 10.25 5 10.25H8C8.414 10.25 8.75 10.586 8.75 11C8.75 11.414 8.414 11.75 8 11.75H5C4.586 11.75 4.25 11.414 4.25 11Z" fill="#25314C"/>
</svg>
