<svg width="18" height="20" viewBox="0 0 18 20" fill="none" xmlns="http://www.w3.org/2000/svg">
<path d="M11 19.75C10.841 19.75 10.683 19.699 10.55 19.6L6.55005 16.6C6.36205 16.458 6.25 16.236 6.25 16V12C6.25 11.8 6.17203 11.611 6.03003 11.469L0.909058 6.34799C0.484058 5.92199 0.25 5.35799 0.25 4.75699V2.5C0.25 1.259 1.26 0.25 2.5 0.25H15.5C16.74 0.25 17.75 1.259 17.75 2.5V4.75699C17.75 5.35799 17.5159 5.92299 17.0909 6.34799L11.97 11.469C11.828 11.611 11.75 11.799 11.75 12V19C11.75 19.284 11.59 19.544 11.335 19.671C11.229 19.724 11.114 19.75 11 19.75ZM7.75 15.625L10.25 17.5V12C10.25 11.399 10.4841 10.834 10.9091 10.409L16.03 5.28799C16.172 5.14599 16.25 4.95799 16.25 4.75699V2.5C16.25 2.086 15.913 1.75 15.5 1.75H2.5C2.087 1.75 1.75 2.086 1.75 2.5V4.75699C1.75 4.95699 1.82797 5.14599 1.96997 5.28799L7.09094 10.409C7.51594 10.835 7.75 11.399 7.75 12V15.625Z" fill="#25314C"/>
</svg>
