<svg width="16" height="20" viewBox="0 0 16 20" fill="none" xmlns="http://www.w3.org/2000/svg">
<path d="M15.5 12C15.5 16.135 12.136 19.5 8 19.5C3.864 19.5 0.5 16.135 0.5 12C0.5 9.75198 1.142 8.15098 2.646 6.64598C2.941 6.34998 3.275 6.05397 3.621 5.74797C5.037 4.49397 6.5 3.19701 6.5 0.999007C6.5 0.815007 6.60201 0.644967 6.76401 0.557967C6.92601 0.470967 7.12301 0.479991 7.27701 0.582991C7.33701 0.622991 12.915 4.44596 10.055 11.014C10.726 10.639 11.529 10.024 12.022 9.06895C12.338 8.45695 12.499 7.76101 12.499 6.99901C12.499 6.79601 12.622 6.61299 12.81 6.53599C12.996 6.45899 13.213 6.50299 13.356 6.64799C14.719 8.03299 15.5 9.98398 15.5 12Z" fill="#25314C"/>
</svg>
