<svg width="20" height="20" viewBox="0 0 20 20" fill="none" xmlns="http://www.w3.org/2000/svg">
<path d="M16 19.75H11.75V14.5C11.75 13.535 10.965 12.75 10 12.75C9.035 12.75 8.25 13.535 8.25 14.5V19.75H4C1.582 19.75 0.25 18.418 0.25 16V9.65004C0.25 7.52704 0.835992 6.93401 1.79199 6.14101L7.91199 1.01003C9.12099 -0.00497067 10.879 -0.00497067 12.088 1.01003L18.208 6.14101C19.164 6.93401 19.75 7.52804 19.75 9.65004V16C19.75 18.418 18.418 19.75 16 19.75ZM13.25 18.25H16C17.577 18.25 18.25 17.577 18.25 16V9.65004C18.25 8.12404 17.998 7.91506 17.251 7.29506L11.125 2.15908C10.473 1.61308 9.527 1.61308 8.875 2.15908L2.74902 7.29506C2.00202 7.91506 1.75 8.12404 1.75 9.65004V16C1.75 17.577 2.423 18.25 4 18.25H6.75V14.5C6.75 12.708 8.208 11.25 10 11.25C11.792 11.25 13.25 12.708 13.25 14.5V18.25Z" fill="#25314C"/>
</svg>
