<svg width="20" height="20" viewBox="0 0 20 20" fill="none" xmlns="http://www.w3.org/2000/svg">
<path d="M10.115 19.749C9.63499 19.749 9.15001 19.715 8.66101 19.645C4.27201 19.019 0.843018 15.54 0.321018 11.185C0.0610181 9.015 0.512018 6.888 1.62702 5.034C3.40102 2.083 6.66 0.25 10.133 0.25C10.604 0.251 11.004 0.529008 11.163 0.958008C11.324 1.39101 11.201 1.866 10.85 2.168C9.27201 3.526 8.56602 5.56899 8.96302 7.63199C9.42302 10.03 11.397 11.863 13.873 12.194C15.37 12.393 16.811 12.058 18.032 11.22C18.415 10.959 18.907 10.961 19.284 11.226C19.66 11.489 19.829 11.946 19.716 12.389C18.593 16.779 14.605 19.748 10.115 19.749ZM9.085 1.81601C6.536 2.13701 4.23499 3.60501 2.91199 5.80701C1.97199 7.37201 1.59 9.17001 1.81 11.006C2.251 14.688 5.15501 17.629 8.87201 18.16C12.816 18.722 16.542 16.546 17.942 13.003C16.634 13.639 15.153 13.879 13.672 13.682C10.555 13.266 8.07001 10.948 7.48801 7.91599C7.06201 5.68898 7.654 3.48101 9.085 1.81601ZM2.26999 5.42001H2.28H2.26999Z" fill="#25314C"/>
</svg>
