<svg width="20" height="20" viewBox="0 0 20 20" fill="none" xmlns="http://www.w3.org/2000/svg">
<path d="M13.3789 19.75H6.62109C6.02909 19.75 5.44903 19.5101 5.03003 19.0911L0.908936 14.97C0.489936 14.551 0.25 13.9709 0.25 13.3789V6.62109C0.25 6.02909 0.489936 5.44903 0.908936 5.03003L5.03003 0.908936C5.44903 0.489936 6.02909 0.25 6.62109 0.25H13.3789C13.9709 0.25 14.551 0.489936 14.97 0.908936L19.0911 5.03003C19.5101 5.44903 19.75 6.02909 19.75 6.62109V13.3789C19.75 13.9709 19.5101 14.551 19.0911 14.97L14.97 19.0911C14.551 19.5101 13.9709 19.75 13.3789 19.75ZM6.62109 1.75C6.42409 1.75 6.23006 1.82997 6.09106 1.96997L1.96997 6.09106C1.82997 6.23106 1.75 6.42409 1.75 6.62109V13.3789C1.75 13.5759 1.82997 13.7699 1.96997 13.9089L6.09106 18.03C6.23106 18.17 6.42409 18.25 6.62109 18.25H13.3789C13.5759 18.25 13.7699 18.17 13.9089 18.03L18.03 13.9089C18.17 13.7689 18.25 13.5759 18.25 13.3789V6.62109C18.25 6.42409 18.17 6.23006 18.03 6.09106L13.9089 1.96997C13.7689 1.82997 13.5759 1.75 13.3789 1.75H6.62109ZM9.53003 12.53L13.53 8.53003C13.823 8.23703 13.823 7.76199 13.53 7.46899C13.237 7.17599 12.762 7.17599 12.469 7.46899L8.99902 10.939L7.52905 9.46899C7.23605 9.17599 6.76102 9.17599 6.46802 9.46899C6.17502 9.76199 6.17502 10.237 6.46802 10.53L8.46802 12.53C8.61402 12.676 8.80605 12.75 8.99805 12.75C9.19005 12.75 9.38403 12.677 9.53003 12.53Z" fill="#25314C"/>
</svg>
